<svg fill="none" height="15" viewBox="0 0 40 15" width="40" xmlns="http://www.w3.org/2000/svg">
    <path clip-rule="evenodd"
        d="M6.86923 1.96997C5.35994 2.33048 4.21452 2.92029 3.63345 3.69507C3.54561 3.8122 3.46396 3.93415 3.38844 4.06043C3.4565 4.11542 3.50003 4.19959 3.50003 4.29389C3.50003 4.4596 3.36571 4.59391 3.20003 4.59391C3.17264 4.59391 3.1461 4.59021 3.1209 4.58335C2.5798 5.83231 2.54605 7.38825 2.98845 8.8815C3.04269 8.82755 3.11746 8.79419 3.20003 8.79419C3.36571 8.79419 3.50003 8.9285 3.50003 9.09418C3.50003 9.25989 3.36571 9.3942 3.20003 9.3942C3.18614 9.3942 3.17247 9.39325 3.15909 9.39142C3.23537 9.59546 3.32069 9.79749 3.41499 9.99652C3.87311 10.9634 4.53229 11.8359 5.36887 12.5027C5.42389 12.4363 5.50697 12.394 5.59993 12.394C5.76561 12.394 5.89993 12.5284 5.89993 12.694C5.89993 12.7524 5.88326 12.8069 5.8544 12.853C6.06326 12.9888 6.28139 13.1125 6.50851 13.2227C6.54048 13.0914 6.65886 12.9939 6.8 12.9939C6.96568 12.9939 7.10001 13.1282 7.10001 13.2939C7.10001 13.3528 7.08301 13.4078 7.05365 13.4542C7.29292 13.5419 7.54083 13.6152 7.79709 13.6729C7.85051 13.6238 7.92178 13.5938 8.00008 13.5938C8.11746 13.5938 8.21909 13.6612 8.26837 13.7594C8.56209 13.8015 8.86578 13.8235 9.17903 13.8235C9.50259 13.8235 9.81754 13.8074 10.1239 13.7765C10.1695 13.6691 10.276 13.5938 10.4001 13.5938C10.4964 13.5938 10.5821 13.6391 10.637 13.7096C10.9098 13.666 11.1754 13.6104 11.4337 13.5436C11.353 13.4899 11.2999 13.3981 11.2999 13.2939C11.2999 13.1282 11.4342 12.9939 11.5999 12.9939C11.7656 12.9939 11.8999 13.1282 11.8999 13.2939C11.8999 13.3379 11.8905 13.3797 11.8734 13.4173C12.6551 13.1697 13.3659 12.8191 14.0061 12.3941C14.0041 12.3941 14.0021 12.3942 14.0001 12.3942C13.8344 12.3942 13.7001 12.2599 13.7001 12.0942C13.7001 11.9285 13.8344 11.7942 14.0001 11.7942C14.1658 11.7942 14.3001 11.9285 14.3001 12.0942C14.3001 12.1336 14.2925 12.1713 14.2787 12.2058C14.5146 12.0361 14.7402 11.8563 14.9557 11.6679C14.9207 11.6188 14.9001 11.5587 14.9001 11.4938C14.9001 11.3282 15.0345 11.1939 15.2001 11.1939C15.2726 11.1939 15.3391 11.2196 15.391 11.2624C15.7326 10.9236 16.0449 10.5633 16.328 10.1892C16.3796 10.1209 16.4302 10.0523 16.4798 9.98337C16.4544 9.99033 16.4277 9.99405 16.4001 9.99405C16.2344 9.99405 16.1001 9.85975 16.1001 9.69403C16.1001 9.52835 16.2344 9.39405 16.4001 9.39405C16.5565 9.39405 16.685 9.51374 16.6989 9.66654C17.9725 7.75119 18.4824 5.63547 18.2988 4.31192C18.2148 3.70667 17.5893 3.07773 16.3468 2.5561C15.1456 2.05179 13.5317 1.72168 11.8255 1.61173C10.1219 1.50193 8.36011 1.61383 6.86923 1.96997ZM18.2828 2.53443C18.5305 2.73999 18.7441 2.96579 18.9114 3.21292C19.173 3.01245 19.5025 2.90699 19.8221 2.90699H20.1683C20.5155 2.90699 20.8615 3.02863 21.1314 3.24829C21.3107 2.98676 21.542 2.74924 21.8104 2.53443H18.2828ZM18.6931 7.97974C19.131 6.8462 19.3481 5.73252 19.3345 4.78925L19.347 4.78959C19.3537 4.54145 19.3711 4.36206 19.404 4.1897C19.43 4.0539 19.5803 3.90699 19.8221 3.90699H20.1683C20.4173 3.90699 20.6028 4.07016 20.6389 4.24839C20.6704 4.4043 20.6891 4.56275 20.6891 4.77622H20.7007C20.6768 5.71872 20.8873 6.83747 21.3219 7.97858C20.8531 8.3721 20.6877 8.96888 20.7283 9.54798C20.7697 10.1393 21.0238 10.763 21.4559 11.2991C21.8881 11.8352 22.4437 12.2159 23.0127 12.3819C23.4317 12.5042 23.8853 12.5148 24.2904 12.3532C25.9196 13.8263 28.1095 14.8718 30.8549 14.8718C34.0609 14.8718 36.3775 12.89 37.5226 10.473C38.0581 9.34287 38.3492 8.09122 38.3505 6.875H38.4668C39.2527 6.875 39.8899 6.23786 39.8899 5.45191C39.8899 4.66596 39.2527 4.02881 38.4668 4.02881H37.7377C37.5877 3.7179 37.409 3.42142 37.2005 3.14341C36.4095 2.08875 34.9855 1.42508 33.397 1.04566C31.7902 0.661839 29.9259 0.547306 28.1441 0.662144C26.5272 0.766361 24.9503 1.06125 23.6749 1.53443H16.4866C15.1897 1.03296 13.5611 0.7215 11.8898 0.613804C10.1081 0.498966 8.24376 0.613499 6.6369 0.997318C5.04845 1.37674 3.62445 2.04041 2.83345 3.09507C2.61417 3.38745 2.42786 3.70029 2.27316 4.02881H1.53345C0.747498 4.02881 0.110352 4.66596 0.110352 5.45191C0.110352 6.23786 0.747498 6.875 1.53345 6.875H1.68369C1.69247 8.07599 1.98294 9.30951 2.51129 10.4247C3.65643 12.8417 5.97304 14.8235 9.17903 14.8235C11.9002 14.8235 14.0756 13.7964 15.7002 12.3438C16.111 12.5151 16.5739 12.5065 17.0009 12.3819C17.5699 12.2159 18.1254 11.8352 18.5576 11.2991C18.9898 10.763 19.2438 10.1393 19.2853 9.54798C19.3258 8.96946 19.1608 8.37329 18.6931 7.97974ZM21.7258 9.47806C21.713 9.29551 21.7345 9.14301 21.7794 9.01978C22.0905 9.64243 22.4674 10.2578 22.9085 10.8409C23.065 11.0477 23.2299 11.251 23.4034 11.4496C23.3675 11.4422 23.3307 11.433 23.2928 11.4219C22.943 11.3199 22.5543 11.0683 22.2345 10.6715C21.9147 10.2747 21.7513 9.8415 21.7258 9.47806ZM18.2325 9.01532C17.9257 9.62299 17.5562 10.2231 17.1254 10.7925C16.9549 11.018 16.7742 11.2393 16.5834 11.4549C16.6276 11.4467 16.6734 11.4358 16.7208 11.4219C17.0705 11.3199 17.4592 11.0683 17.7791 10.6715C18.0989 10.2747 18.2622 9.8415 18.2877 9.47806C18.3007 9.29328 18.2785 9.13932 18.2325 9.01532ZM38.4668 5.875H38.2837C38.2441 5.58753 38.1868 5.30472 38.1109 5.02881H38.4668C38.7005 5.02881 38.8899 5.21824 38.8899 5.45191C38.8899 5.68558 38.7005 5.875 38.4668 5.875ZM1.74376 5.875C1.78123 5.58768 1.83641 5.30487 1.90993 5.02881H1.53345C1.29977 5.02881 1.11035 5.21824 1.11035 5.45191C1.11035 5.68558 1.29977 5.875 1.53345 5.875H1.74376ZM33.1647 2.01831C34.674 2.37882 35.8194 2.96863 36.4005 3.74341C37.6088 5.35447 37.646 7.87711 36.6189 10.0449C36.1606 11.0121 35.5012 11.8849 34.6642 12.5518C34.6135 12.4579 34.5142 12.394 34.4 12.394C34.2343 12.394 34.1 12.5284 34.1 12.694C34.1 12.7737 34.1311 12.8462 34.1818 12.8999C33.9644 13.0414 33.7369 13.1697 33.4997 13.2834C33.4942 13.1226 33.3621 12.9939 33.1999 12.9939C33.0342 12.9939 32.8999 13.1282 32.8999 13.2939C32.8999 13.3744 32.9316 13.4475 32.9832 13.5014C32.7453 13.5888 32.4989 13.6619 32.2442 13.7195C32.1898 13.6434 32.1007 13.5938 32 13.5938C31.8614 13.5938 31.7447 13.6877 31.7103 13.8154C31.4338 13.8525 31.1485 13.8718 30.8549 13.8718C30.5249 13.8718 30.2039 13.8551 29.8918 13.8229C29.8599 13.6914 29.7415 13.5938 29.6002 13.5938C29.4873 13.5938 29.3889 13.6561 29.3377 13.7483C29.0565 13.7013 28.783 13.6416 28.5173 13.5701C28.6248 13.5245 28.7001 13.418 28.7001 13.2939C28.7001 13.1282 28.5658 12.9939 28.4001 12.9939C28.2344 12.9939 28.1001 13.1282 28.1001 13.2939C28.1001 13.3566 28.1194 13.4149 28.1523 13.4631C27.3419 13.2054 26.6078 12.8371 25.9496 12.39C25.9661 12.3927 25.983 12.3942 26.0002 12.3942C26.1659 12.3942 26.3002 12.2599 26.3002 12.0942C26.3002 11.9285 26.1659 11.7942 26.0002 11.7942C25.8345 11.7942 25.7002 11.9285 25.7002 12.0942C25.7002 12.1482 25.7145 12.1989 25.7395 12.2427C25.4939 12.0653 25.2594 11.8768 25.0361 11.6791C25.0762 11.6281 25.1001 11.5638 25.1001 11.4938C25.1001 11.3282 24.9658 11.1939 24.8001 11.1939C24.7239 11.1939 24.6543 11.2223 24.6013 11.2692C24.2759 10.9426 23.9775 10.5964 23.706 10.2375C23.6422 10.1533 23.5801 10.0684 23.5195 9.9831C23.5451 9.99024 23.5721 9.99405 23.6001 9.99405C23.7657 9.99405 23.9001 9.85975 23.9001 9.69403C23.9001 9.52835 23.7657 9.39405 23.6001 9.39405C23.4445 9.39405 23.3166 9.51249 23.3015 9.6641C22.9814 9.17661 22.7104 8.67676 22.4876 8.18079C22.6106 8.14334 22.7001 8.029 22.7001 7.89374C22.7001 7.72806 22.5658 7.59375 22.4001 7.59375C22.349 7.59375 22.3008 7.60657 22.2587 7.62912C21.7854 6.388 21.6171 5.21064 21.7351 4.36026C21.8191 3.75501 22.4446 3.12607 23.6871 2.60443C24.8884 2.10013 26.5022 1.77002 28.2084 1.66007C29.912 1.55027 31.6738 1.66217 33.1647 2.01831ZM4.69998 3.69403C4.69998 3.85975 4.56566 3.99405 4.39998 3.99405C4.23428 3.99405 4.09998 3.85975 4.09998 3.69403C4.09998 3.52835 4.23428 3.39405 4.39998 3.39405C4.56566 3.39405 4.69998 3.52835 4.69998 3.69403ZM3.20003 5.79386C3.36571 5.79386 3.50003 5.65955 3.50003 5.49384C3.50003 5.32816 3.36571 5.19385 3.20003 5.19385C3.03433 5.19385 2.90002 5.32816 2.90002 5.49384C2.90002 5.65955 3.03433 5.79386 3.20003 5.79386ZM4.69998 4.89374C4.69998 5.05945 4.56566 5.19376 4.39998 5.19376C4.23428 5.19376 4.09998 5.05945 4.09998 4.89374C4.09998 4.72806 4.23428 4.59375 4.39998 4.59375C4.56566 4.59375 4.69998 4.72806 4.69998 4.89374ZM4.39998 6.3942C4.56566 6.3942 4.69998 6.25989 4.69998 6.09418C4.69998 5.9285 4.56566 5.79419 4.39998 5.79419C4.23428 5.79419 4.09998 5.9285 4.09998 6.09418C4.09998 6.25989 4.23428 6.3942 4.39998 6.3942ZM3.50003 6.69403C3.50003 6.85975 3.36571 6.99405 3.20003 6.99405C3.03433 6.99405 2.90002 6.85975 2.90002 6.69403C2.90002 6.52835 3.03433 6.39405 3.20003 6.39405C3.36571 6.39405 3.50003 6.52835 3.50003 6.69403ZM4.39998 7.59391C4.56566 7.59391 4.69998 7.4596 4.69998 7.29389C4.69998 7.12821 4.56566 6.9939 4.39998 6.9939C4.23428 6.9939 4.09998 7.12821 4.09998 7.29389C4.09998 7.4596 4.23428 7.59391 4.39998 7.59391ZM3.50003 7.89374C3.50003 8.05945 3.36571 8.19376 3.20003 8.19376C3.03433 8.19376 2.90002 8.05945 2.90002 7.89374C2.90002 7.72806 3.03433 7.59375 3.20003 7.59375C3.36571 7.59375 3.50003 7.72806 3.50003 7.89374ZM4.69998 8.49408C4.69998 8.65979 4.56566 8.7941 4.39998 8.7941C4.23428 8.7941 4.09998 8.65979 4.09998 8.49408C4.09998 8.3284 4.23428 8.1941 4.39998 8.1941C4.56566 8.1941 4.69998 8.3284 4.69998 8.49408ZM4.39998 9.99405C4.56566 9.99405 4.69998 9.85975 4.69998 9.69403C4.69998 9.52835 4.56566 9.39405 4.39998 9.39405C4.23428 9.39405 4.09998 9.52835 4.09998 9.69403C4.09998 9.85975 4.23428 9.99405 4.39998 9.99405ZM4.39998 11.1938C4.56566 11.1938 4.69998 11.0595 4.69998 10.8937C4.69998 10.7281 4.56566 10.5938 4.39998 10.5938C4.23428 10.5938 4.09998 10.7281 4.09998 10.8937C4.09998 11.0595 4.23428 11.1938 4.39998 11.1938ZM5.89993 4.29389C5.89993 4.4596 5.76561 4.59391 5.59993 4.59391C5.43423 4.59391 5.29993 4.4596 5.29993 4.29389C5.29993 4.12821 5.43423 3.9939 5.59993 3.9939C5.76561 3.9939 5.89993 4.12821 5.89993 4.29389ZM5.59993 5.79386C5.76561 5.79386 5.89993 5.65955 5.89993 5.49384C5.89993 5.32816 5.76561 5.19385 5.59993 5.19385C5.43423 5.19385 5.29993 5.32816 5.29993 5.49384C5.29993 5.65955 5.43423 5.79386 5.59993 5.79386ZM7.10001 4.89374C7.10001 5.05945 6.96568 5.19376 6.8 5.19376C6.63431 5.19376 6.5 5.05945 6.5 4.89374C6.5 4.72806 6.63431 4.59375 6.8 4.59375C6.96568 4.59375 7.10001 4.72806 7.10001 4.89374ZM6.8 6.3942C6.96568 6.3942 7.10001 6.25989 7.10001 6.09418C7.10001 5.9285 6.96568 5.79419 6.8 5.79419C6.63431 5.79419 6.5 5.9285 6.5 6.09418C6.5 6.25989 6.63431 6.3942 6.8 6.3942ZM5.89993 6.69403C5.89993 6.85975 5.76561 6.99405 5.59993 6.99405C5.43423 6.99405 5.29993 6.85975 5.29993 6.69403C5.29993 6.52835 5.43423 6.39405 5.59993 6.39405C5.76561 6.39405 5.89993 6.52835 5.89993 6.69403ZM6.8 7.59391C6.96568 7.59391 7.10001 7.4596 7.10001 7.29389C7.10001 7.12821 6.96568 6.9939 6.8 6.9939C6.63431 6.9939 6.5 7.12821 6.5 7.29389C6.5 7.4596 6.63431 7.59391 6.8 7.59391ZM5.89993 7.89374C5.89993 8.05945 5.76561 8.19376 5.59993 8.19376C5.43423 8.19376 5.29993 8.05945 5.29993 7.89374C5.29993 7.72806 5.43423 7.59375 5.59993 7.59375C5.76561 7.59375 5.89993 7.72806 5.89993 7.89374ZM5.59993 9.3942C5.76561 9.3942 5.89993 9.25989 5.89993 9.09418C5.89993 8.9285 5.76561 8.79419 5.59993 8.79419C5.43423 8.79419 5.29993 8.9285 5.29993 9.09418C5.29993 9.25989 5.43423 9.3942 5.59993 9.3942ZM7.10001 8.49408C7.10001 8.65979 6.96568 8.7941 6.8 8.7941C6.63431 8.7941 6.5 8.65979 6.5 8.49408C6.5 8.3284 6.63431 8.1941 6.8 8.1941C6.96568 8.1941 7.10001 8.3284 7.10001 8.49408ZM6.8 9.99405C6.96568 9.99405 7.10001 9.85975 7.10001 9.69403C7.10001 9.52835 6.96568 9.39405 6.8 9.39405C6.63431 9.39405 6.5 9.52835 6.5 9.69403C6.5 9.85975 6.63431 9.99405 6.8 9.99405ZM5.89993 10.2939C5.89993 10.4596 5.76561 10.5939 5.59993 10.5939C5.43423 10.5939 5.29993 10.4596 5.29993 10.2939C5.29993 10.1282 5.43423 9.9939 5.59993 9.9939C5.76561 9.9939 5.89993 10.1282 5.89993 10.2939ZM6.8 11.1938C6.96568 11.1938 7.10001 11.0595 7.10001 10.8937C7.10001 10.7281 6.96568 10.5938 6.8 10.5938C6.63431 10.5938 6.5 10.7281 6.5 10.8937C6.5 11.0595 6.63431 11.1938 6.8 11.1938ZM8.30008 5.49384C8.30008 5.65955 8.16576 5.79386 8.00008 5.79386C7.83438 5.79386 7.70007 5.65955 7.70007 5.49384C7.70007 5.32816 7.83438 5.19385 8.00008 5.19385C8.16576 5.19385 8.30008 5.32816 8.30008 5.49384ZM9.20015 6.3942C9.36583 6.3942 9.50015 6.25989 9.50015 6.09418C9.50015 5.9285 9.36583 5.79419 9.20015 5.79419C9.03445 5.79419 8.90015 5.9285 8.90015 6.09418C8.90015 6.25989 9.03445 6.3942 9.20015 6.3942ZM8.30008 6.69403C8.30008 6.85975 8.16576 6.99405 8.00008 6.99405C7.83438 6.99405 7.70007 6.85975 7.70007 6.69403C7.70007 6.52835 7.83438 6.39405 8.00008 6.39405C8.16576 6.39405 8.30008 6.52835 8.30008 6.69403ZM9.20015 7.59391C9.36583 7.59391 9.50015 7.4596 9.50015 7.29389C9.50015 7.12821 9.36583 6.9939 9.20015 6.9939C9.03445 6.9939 8.90015 7.12821 8.90015 7.29389C8.90015 7.4596 9.03445 7.59391 9.20015 7.59391ZM8.30008 7.89374C8.30008 8.05945 8.16576 8.19376 8.00008 8.19376C7.83438 8.19376 7.70007 8.05945 7.70007 7.89374C7.70007 7.72806 7.83438 7.59375 8.00008 7.59375C8.16576 7.59375 8.30008 7.72806 8.30008 7.89374ZM8.00008 9.3942C8.16576 9.3942 8.30008 9.25989 8.30008 9.09418C8.30008 8.9285 8.16576 8.79419 8.00008 8.79419C7.83438 8.79419 7.70007 8.9285 7.70007 9.09418C7.70007 9.25989 7.83438 9.3942 8.00008 9.3942ZM9.50015 8.49408C9.50015 8.65979 9.36583 8.7941 9.20015 8.7941C9.03445 8.7941 8.90015 8.65979 8.90015 8.49408C8.90015 8.3284 9.03445 8.1941 9.20015 8.1941C9.36583 8.1941 9.50015 8.3284 9.50015 8.49408ZM9.20015 9.99405C9.36583 9.99405 9.50015 9.85975 9.50015 9.69403C9.50015 9.52835 9.36583 9.39405 9.20015 9.39405C9.03445 9.39405 8.90015 9.52835 8.90015 9.69403C8.90015 9.85975 9.03445 9.99405 9.20015 9.99405ZM8.30008 10.2939C8.30008 10.4596 8.16576 10.5939 8.00008 10.5939C7.83438 10.5939 7.70007 10.4596 7.70007 10.2939C7.70007 10.1282 7.83438 9.9939 8.00008 9.9939C8.16576 9.9939 8.30008 10.1282 8.30008 10.2939ZM9.20015 11.1938C9.36583 11.1938 9.50015 11.0595 9.50015 10.8937C9.50015 10.7281 9.36583 10.5938 9.20015 10.5938C9.03445 10.5938 8.90015 10.7281 8.90015 10.8937C8.90015 11.0595 9.03445 11.1938 9.20015 11.1938ZM10.7001 6.69403C10.7001 6.85975 10.5658 6.99405 10.4001 6.99405C10.2344 6.99405 10.1001 6.85975 10.1001 6.69403C10.1001 6.52835 10.2344 6.39405 10.4001 6.39405C10.5658 6.39405 10.7001 6.52835 10.7001 6.69403ZM11.5999 7.59391C11.7656 7.59391 11.8999 7.4596 11.8999 7.29389C11.8999 7.12821 11.7656 6.9939 11.5999 6.9939C11.4342 6.9939 11.2999 7.12821 11.2999 7.29389C11.2999 7.4596 11.4342 7.59391 11.5999 7.59391ZM10.7001 7.89374C10.7001 8.05945 10.5658 8.19376 10.4001 8.19376C10.2344 8.19376 10.1001 8.05945 10.1001 7.89374C10.1001 7.72806 10.2344 7.59375 10.4001 7.59375C10.5658 7.59375 10.7001 7.72806 10.7001 7.89374ZM10.4001 9.3942C10.5658 9.3942 10.7001 9.25989 10.7001 9.09418C10.7001 8.9285 10.5658 8.79419 10.4001 8.79419C10.2344 8.79419 10.1001 8.9285 10.1001 9.09418C10.1001 9.25989 10.2344 9.3942 10.4001 9.3942ZM11.8999 8.49408C11.8999 8.65979 11.7656 8.7941 11.5999 8.7941C11.4342 8.7941 11.2999 8.65979 11.2999 8.49408C11.2999 8.3284 11.4342 8.1941 11.5999 8.1941C11.7656 8.1941 11.8999 8.3284 11.8999 8.49408ZM11.5999 9.99405C11.7656 9.99405 11.8999 9.85975 11.8999 9.69403C11.8999 9.52835 11.7656 9.39405 11.5999 9.39405C11.4342 9.39405 11.2999 9.52835 11.2999 9.69403C11.2999 9.85975 11.4342 9.99405 11.5999 9.99405ZM10.7001 10.2939C10.7001 10.4596 10.5658 10.5939 10.4001 10.5939C10.2344 10.5939 10.1001 10.4596 10.1001 10.2939C10.1001 10.1282 10.2344 9.9939 10.4001 9.9939C10.5658 9.9939 10.7001 10.1282 10.7001 10.2939ZM11.5999 11.1938C11.7656 11.1938 11.8999 11.0595 11.8999 10.8937C11.8999 10.7281 11.7656 10.5938 11.5999 10.5938C11.4342 10.5938 11.2999 10.7281 11.2999 10.8937C11.2999 11.0595 11.4342 11.1938 11.5999 11.1938ZM13.1001 7.89374C13.1001 8.05945 12.9658 8.19376 12.8001 8.19376C12.6344 8.19376 12.5001 8.05945 12.5001 7.89374C12.5001 7.72806 12.6344 7.59375 12.8001 7.59375C12.9658 7.59375 13.1001 7.72806 13.1001 7.89374ZM12.8001 9.3942C12.9658 9.3942 13.1001 9.25989 13.1001 9.09418C13.1001 8.9285 12.9658 8.79419 12.8001 8.79419C12.6344 8.79419 12.5001 8.9285 12.5001 9.09418C12.5001 9.25989 12.6344 9.3942 12.8001 9.3942ZM14.3001 8.49408C14.3001 8.65979 14.1658 8.7941 14.0001 8.7941C13.8344 8.7941 13.7001 8.65979 13.7001 8.49408C13.7001 8.3284 13.8344 8.1941 14.0001 8.1941C14.1658 8.1941 14.3001 8.3284 14.3001 8.49408ZM14.0001 9.99405C14.1658 9.99405 14.3001 9.85975 14.3001 9.69403C14.3001 9.52835 14.1658 9.39405 14.0001 9.39405C13.8344 9.39405 13.7001 9.52835 13.7001 9.69403C13.7001 9.85975 13.8344 9.99405 14.0001 9.99405ZM13.1001 10.2939C13.1001 10.4596 12.9658 10.5939 12.8001 10.5939C12.6344 10.5939 12.5001 10.4596 12.5001 10.2939C12.5001 10.1282 12.6344 9.9939 12.8001 9.9939C12.9658 9.9939 13.1001 10.1282 13.1001 10.2939ZM14.0001 11.1938C14.1658 11.1938 14.3001 11.0595 14.3001 10.8937C14.3001 10.7281 14.1658 10.5938 14.0001 10.5938C13.8344 10.5938 13.7001 10.7281 13.7001 10.8937C13.7001 11.0595 13.8344 11.1938 14.0001 11.1938ZM15.5002 9.09418C15.5002 9.25989 15.3658 9.3942 15.2001 9.3942C15.0345 9.3942 14.9001 9.25989 14.9001 9.09418C14.9001 8.9285 15.0345 8.79419 15.2001 8.79419C15.3658 8.79419 15.5002 8.9285 15.5002 9.09418ZM15.5002 10.2939C15.5002 10.4596 15.3658 10.5939 15.2001 10.5939C15.0345 10.5939 14.9001 10.4596 14.9001 10.2939C14.9001 10.1282 15.0345 9.9939 15.2001 9.9939C15.3658 9.9939 15.5002 10.1282 15.5002 10.2939ZM22.4001 4.59391C22.5658 4.59391 22.7001 4.4596 22.7001 4.29389C22.7001 4.12821 22.5658 3.9939 22.4001 3.9939C22.2344 3.9939 22.1001 4.12821 22.1001 4.29389C22.1001 4.4596 22.2344 4.59391 22.4001 4.59391ZM22.7001 5.49384C22.7001 5.65955 22.5658 5.79386 22.4001 5.79386C22.2344 5.79386 22.1001 5.65955 22.1001 5.49384C22.1001 5.32816 22.2344 5.19385 22.4001 5.19385C22.5658 5.19385 22.7001 5.32816 22.7001 5.49384ZM23.6001 5.19376C23.7657 5.19376 23.9001 5.05945 23.9001 4.89374C23.9001 4.72806 23.7657 4.59375 23.6001 4.59375C23.4344 4.59375 23.3 4.72806 23.3 4.89374C23.3 5.05945 23.4344 5.19376 23.6001 5.19376ZM23.9001 6.09418C23.9001 6.25989 23.7657 6.3942 23.6001 6.3942C23.4344 6.3942 23.3 6.25989 23.3 6.09418C23.3 5.9285 23.4344 5.79419 23.6001 5.79419C23.7657 5.79419 23.9001 5.9285 23.9001 6.09418ZM22.4001 6.99405C22.5658 6.99405 22.7001 6.85975 22.7001 6.69403C22.7001 6.52835 22.5658 6.39405 22.4001 6.39405C22.2344 6.39405 22.1001 6.52835 22.1001 6.69403C22.1001 6.85975 22.2344 6.99405 22.4001 6.99405ZM23.9001 7.29389C23.9001 7.4596 23.7657 7.59391 23.6001 7.59391C23.4344 7.59391 23.3 7.4596 23.3 7.29389C23.3 7.12821 23.4344 6.9939 23.6001 6.9939C23.7657 6.9939 23.9001 7.12821 23.9001 7.29389ZM23.6001 8.7941C23.7657 8.7941 23.9001 8.65979 23.9001 8.49408C23.9001 8.3284 23.7657 8.1941 23.6001 8.1941C23.4344 8.1941 23.3 8.3284 23.3 8.49408C23.3 8.65979 23.4344 8.7941 23.6001 8.7941ZM25.1001 5.49384C25.1001 5.65955 24.9658 5.79386 24.8001 5.79386C24.6344 5.79386 24.5001 5.65955 24.5001 5.49384C24.5001 5.32816 24.6344 5.19385 24.8001 5.19385C24.9658 5.19385 25.1001 5.32816 25.1001 5.49384ZM26.0002 6.3942C26.1659 6.3942 26.3002 6.25989 26.3002 6.09418C26.3002 5.9285 26.1659 5.79419 26.0002 5.79419C25.8345 5.79419 25.7002 5.9285 25.7002 6.09418C25.7002 6.25989 25.8345 6.3942 26.0002 6.3942ZM25.1001 6.69403C25.1001 6.85975 24.9658 6.99405 24.8001 6.99405C24.6344 6.99405 24.5001 6.85975 24.5001 6.69403C24.5001 6.52835 24.6344 6.39405 24.8001 6.39405C24.9658 6.39405 25.1001 6.52835 25.1001 6.69403ZM26.0002 7.59391C26.1659 7.59391 26.3002 7.4596 26.3002 7.29389C26.3002 7.12821 26.1659 6.9939 26.0002 6.9939C25.8345 6.9939 25.7002 7.12821 25.7002 7.29389C25.7002 7.4596 25.8345 7.59391 26.0002 7.59391ZM25.1001 7.89374C25.1001 8.05945 24.9658 8.19376 24.8001 8.19376C24.6344 8.19376 24.5001 8.05945 24.5001 7.89374C24.5001 7.72806 24.6344 7.59375 24.8001 7.59375C24.9658 7.59375 25.1001 7.72806 25.1001 7.89374ZM24.8001 9.3942C24.9658 9.3942 25.1001 9.25989 25.1001 9.09418C25.1001 8.9285 24.9658 8.79419 24.8001 8.79419C24.6344 8.79419 24.5001 8.9285 24.5001 9.09418C24.5001 9.25989 24.6344 9.3942 24.8001 9.3942ZM26.3002 8.49408C26.3002 8.65979 26.1659 8.7941 26.0002 8.7941C25.8345 8.7941 25.7002 8.65979 25.7002 8.49408C25.7002 8.3284 25.8345 8.1941 26.0002 8.1941C26.1659 8.1941 26.3002 8.3284 26.3002 8.49408ZM26.0002 9.99405C26.1659 9.99405 26.3002 9.85975 26.3002 9.69403C26.3002 9.52835 26.1659 9.39405 26.0002 9.39405C25.8345 9.39405 25.7002 9.52835 25.7002 9.69403C25.7002 9.85975 25.8345 9.99405 26.0002 9.99405ZM25.1001 10.2939C25.1001 10.4596 24.9658 10.5939 24.8001 10.5939C24.6344 10.5939 24.5001 10.4596 24.5001 10.2939C24.5001 10.1282 24.6344 9.9939 24.8001 9.9939C24.9658 9.9939 25.1001 10.1282 25.1001 10.2939ZM26.0002 11.1938C26.1659 11.1938 26.3002 11.0595 26.3002 10.8937C26.3002 10.7281 26.1659 10.5938 26.0002 10.5938C25.8345 10.5938 25.7002 10.7281 25.7002 10.8937C25.7002 11.0595 25.8345 11.1938 26.0002 11.1938ZM5.59993 11.7939C5.76561 11.7939 5.89993 11.6595 5.89993 11.4938C5.89993 11.3282 5.76561 11.1939 5.59993 11.1939C5.43423 11.1939 5.29993 11.3282 5.29993 11.4938C5.29993 11.6595 5.43423 11.7939 5.59993 11.7939ZM7.10001 12.0942C7.10001 12.2599 6.96568 12.3942 6.8 12.3942C6.63431 12.3942 6.5 12.2599 6.5 12.0942C6.5 11.9285 6.63431 11.7942 6.8 11.7942C6.96568 11.7942 7.10001 11.9285 7.10001 12.0942ZM8.00008 11.7939C8.16576 11.7939 8.30008 11.6595 8.30008 11.4938C8.30008 11.3282 8.16576 11.1939 8.00008 11.1939C7.83438 11.1939 7.70007 11.3282 7.70007 11.4938C7.70007 11.6595 7.83438 11.7939 8.00008 11.7939ZM9.50015 12.0942C9.50015 12.2599 9.36583 12.3942 9.20015 12.3942C9.03445 12.3942 8.90015 12.2599 8.90015 12.0942C8.90015 11.9285 9.03445 11.7942 9.20015 11.7942C9.36583 11.7942 9.50015 11.9285 9.50015 12.0942ZM8.00008 12.9941C8.16576 12.9941 8.30008 12.8597 8.30008 12.694C8.30008 12.5284 8.16576 12.394 8.00008 12.394C7.83438 12.394 7.70007 12.5284 7.70007 12.694C7.70007 12.8597 7.83438 12.9941 8.00008 12.9941ZM9.50015 13.2939C9.50015 13.4596 9.36583 13.5939 9.20015 13.5939C9.03445 13.5939 8.90015 13.4596 8.90015 13.2939C8.90015 13.1282 9.03445 12.9939 9.20015 12.9939C9.36583 12.9939 9.50015 13.1282 9.50015 13.2939ZM10.7001 11.4938C10.7001 11.6595 10.5658 11.7939 10.4001 11.7939C10.2344 11.7939 10.1001 11.6595 10.1001 11.4938C10.1001 11.3282 10.2344 11.1939 10.4001 11.1939C10.5658 11.1939 10.7001 11.3282 10.7001 11.4938ZM11.5999 12.3942C11.7656 12.3942 11.8999 12.2599 11.8999 12.0942C11.8999 11.9285 11.7656 11.7942 11.5999 11.7942C11.4342 11.7942 11.2999 11.9285 11.2999 12.0942C11.2999 12.2599 11.4342 12.3942 11.5999 12.3942ZM10.7001 12.694C10.7001 12.8597 10.5658 12.9941 10.4001 12.9941C10.2344 12.9941 10.1001 12.8597 10.1001 12.694C10.1001 12.5284 10.2344 12.394 10.4001 12.394C10.5658 12.394 10.7001 12.5284 10.7001 12.694ZM12.8001 11.7939C12.9658 11.7939 13.1001 11.6595 13.1001 11.4938C13.1001 11.3282 12.9658 11.1939 12.8001 11.1939C12.6344 11.1939 12.5001 11.3282 12.5001 11.4938C12.5001 11.6595 12.6344 11.7939 12.8001 11.7939ZM12.8001 12.9941C12.9658 12.9941 13.1001 12.8597 13.1001 12.694C13.1001 12.5284 12.9658 12.394 12.8001 12.394C12.6344 12.394 12.5001 12.5284 12.5001 12.694C12.5001 12.8597 12.6344 12.9941 12.8001 12.9941ZM27.5002 6.69403C27.5002 6.85975 27.3658 6.99405 27.2001 6.99405C27.0345 6.99405 26.9001 6.85975 26.9001 6.69403C26.9001 6.52835 27.0345 6.39405 27.2001 6.39405C27.3658 6.39405 27.5002 6.52835 27.5002 6.69403ZM28.4001 7.59391C28.5658 7.59391 28.7001 7.4596 28.7001 7.29389C28.7001 7.12821 28.5658 6.9939 28.4001 6.9939C28.2344 6.9939 28.1001 7.12821 28.1001 7.29389C28.1001 7.4596 28.2344 7.59391 28.4001 7.59391ZM27.5002 7.89374C27.5002 8.05945 27.3658 8.19376 27.2001 8.19376C27.0345 8.19376 26.9001 8.05945 26.9001 7.89374C26.9001 7.72806 27.0345 7.59375 27.2001 7.59375C27.3658 7.59375 27.5002 7.72806 27.5002 7.89374ZM27.2001 9.3942C27.3658 9.3942 27.5002 9.25989 27.5002 9.09418C27.5002 8.9285 27.3658 8.79419 27.2001 8.79419C27.0345 8.79419 26.9001 8.9285 26.9001 9.09418C26.9001 9.25989 27.0345 9.3942 27.2001 9.3942ZM28.7001 8.49408C28.7001 8.65979 28.5658 8.7941 28.4001 8.7941C28.2344 8.7941 28.1001 8.65979 28.1001 8.49408C28.1001 8.3284 28.2344 8.1941 28.4001 8.1941C28.5658 8.1941 28.7001 8.3284 28.7001 8.49408ZM28.4001 9.99405C28.5658 9.99405 28.7001 9.85975 28.7001 9.69403C28.7001 9.52835 28.5658 9.39405 28.4001 9.39405C28.2344 9.39405 28.1001 9.52835 28.1001 9.69403C28.1001 9.85975 28.2344 9.99405 28.4001 9.99405ZM27.5002 10.2939C27.5002 10.4596 27.3658 10.5939 27.2001 10.5939C27.0345 10.5939 26.9001 10.4596 26.9001 10.2939C26.9001 10.1282 27.0345 9.9939 27.2001 9.9939C27.3658 9.9939 27.5002 10.1282 27.5002 10.2939ZM28.4001 11.1938C28.5658 11.1938 28.7001 11.0595 28.7001 10.8937C28.7001 10.7281 28.5658 10.5938 28.4001 10.5938C28.2344 10.5938 28.1001 10.7281 28.1001 10.8937C28.1001 11.0595 28.2344 11.1938 28.4001 11.1938ZM29.9002 7.89374C29.9002 8.05945 29.7659 8.19376 29.6002 8.19376C29.4345 8.19376 29.3002 8.05945 29.3002 7.89374C29.3002 7.72806 29.4345 7.59375 29.6002 7.59375C29.7659 7.59375 29.9002 7.72806 29.9002 7.89374ZM29.6002 9.3942C29.7659 9.3942 29.9002 9.25989 29.9002 9.09418C29.9002 8.9285 29.7659 8.79419 29.6002 8.79419C29.4345 8.79419 29.3002 8.9285 29.3002 9.09418C29.3002 9.25989 29.4345 9.3942 29.6002 9.3942ZM31.1001 8.49408C31.1001 8.65979 30.9658 8.7941 30.8001 8.7941C30.6344 8.7941 30.5001 8.65979 30.5001 8.49408C30.5001 8.3284 30.6344 8.1941 30.8001 8.1941C30.9658 8.1941 31.1001 8.3284 31.1001 8.49408ZM30.8001 9.99405C30.9658 9.99405 31.1001 9.85975 31.1001 9.69403C31.1001 9.52835 30.9658 9.39405 30.8001 9.39405C30.6344 9.39405 30.5001 9.52835 30.5001 9.69403C30.5001 9.85975 30.6344 9.99405 30.8001 9.99405ZM29.9002 10.2939C29.9002 10.4596 29.7659 10.5939 29.6002 10.5939C29.4345 10.5939 29.3002 10.4596 29.3002 10.2939C29.3002 10.1282 29.4345 9.9939 29.6002 9.9939C29.7659 9.9939 29.9002 10.1282 29.9002 10.2939ZM30.8001 11.1938C30.9658 11.1938 31.1001 11.0595 31.1001 10.8937C31.1001 10.7281 30.9658 10.5938 30.8001 10.5938C30.6344 10.5938 30.5001 10.7281 30.5001 10.8937C30.5001 11.0595 30.6344 11.1938 30.8001 11.1938ZM27.5002 11.4938C27.5002 11.6595 27.3658 11.7939 27.2001 11.7939C27.0345 11.7939 26.9001 11.6595 26.9001 11.4938C26.9001 11.3282 27.0345 11.1939 27.2001 11.1939C27.3658 11.1939 27.5002 11.3282 27.5002 11.4938ZM28.4001 12.3942C28.5658 12.3942 28.7001 12.2599 28.7001 12.0942C28.7001 11.9285 28.5658 11.7942 28.4001 11.7942C28.2344 11.7942 28.1001 11.9285 28.1001 12.0942C28.1001 12.2599 28.2344 12.3942 28.4001 12.3942ZM27.5002 12.694C27.5002 12.8597 27.3658 12.9941 27.2001 12.9941C27.0345 12.9941 26.9001 12.8597 26.9001 12.694C26.9001 12.5284 27.0345 12.394 27.2001 12.394C27.3658 12.394 27.5002 12.5284 27.5002 12.694ZM29.9002 11.4938C29.9002 11.6595 29.7659 11.7939 29.6002 11.7939C29.4345 11.7939 29.3002 11.6595 29.3002 11.4938C29.3002 11.3282 29.4345 11.1939 29.6002 11.1939C29.7659 11.1939 29.9002 11.3282 29.9002 11.4938ZM30.8001 12.3942C30.9658 12.3942 31.1001 12.2599 31.1001 12.0942C31.1001 11.9285 30.9658 11.7942 30.8001 11.7942C30.6344 11.7942 30.5001 11.9285 30.5001 12.0942C30.5001 12.2599 30.6344 12.3942 30.8001 12.3942ZM29.9002 12.694C29.9002 12.8597 29.7659 12.9941 29.6002 12.9941C29.4345 12.9941 29.3002 12.8597 29.3002 12.694C29.3002 12.5284 29.4345 12.394 29.6002 12.394C29.7659 12.394 29.9002 12.5284 29.9002 12.694ZM30.8001 13.5939C30.9658 13.5939 31.1001 13.4596 31.1001 13.2939C31.1001 13.1282 30.9658 12.9939 30.8001 12.9939C30.6344 12.9939 30.5001 13.1282 30.5001 13.2939C30.5001 13.4596 30.6344 13.5939 30.8001 13.5939ZM32 9.3942C32.1656 9.3942 32.3 9.25989 32.3 9.09418C32.3 8.9285 32.1656 8.79419 32 8.79419C31.8343 8.79419 31.7 8.9285 31.7 9.09418C31.7 9.25989 31.8343 9.3942 32 9.3942ZM33.4999 9.69403C33.4999 9.85975 33.3656 9.99405 33.1999 9.99405C33.0342 9.99405 32.8999 9.85975 32.8999 9.69403C32.8999 9.52835 33.0342 9.39405 33.1999 9.39405C33.3656 9.39405 33.4999 9.52835 33.4999 9.69403ZM32 10.5939C32.1656 10.5939 32.3 10.4596 32.3 10.2939C32.3 10.1282 32.1656 9.9939 32 9.9939C31.8343 9.9939 31.7 10.1282 31.7 10.2939C31.7 10.4596 31.8343 10.5939 32 10.5939ZM33.4999 10.8937C33.4999 11.0595 33.3656 11.1938 33.1999 11.1938C33.0342 11.1938 32.8999 11.0595 32.8999 10.8937C32.8999 10.7281 33.0342 10.5938 33.1999 10.5938C33.3656 10.5938 33.4999 10.7281 33.4999 10.8937ZM34.4 10.5939C34.5657 10.5939 34.7 10.4596 34.7 10.2939C34.7 10.1282 34.5657 9.9939 34.4 9.9939C34.2343 9.9939 34.1 10.1282 34.1 10.2939C34.1 10.4596 34.2343 10.5939 34.4 10.5939ZM35.9001 10.8937C35.9001 11.0595 35.7657 11.1938 35.6001 11.1938C35.4344 11.1938 35.3 11.0595 35.3 10.8937C35.3 10.7281 35.4344 10.5938 35.6001 10.5938C35.7657 10.5938 35.9001 10.7281 35.9001 10.8937ZM32 11.7939C32.1656 11.7939 32.3 11.6595 32.3 11.4938C32.3 11.3282 32.1656 11.1939 32 11.1939C31.8343 11.1939 31.7 11.3282 31.7 11.4938C31.7 11.6595 31.8343 11.7939 32 11.7939ZM33.4999 12.0942C33.4999 12.2599 33.3656 12.3942 33.1999 12.3942C33.0342 12.3942 32.8999 12.2599 32.8999 12.0942C32.8999 11.9285 33.0342 11.7942 33.1999 11.7942C33.3656 11.7942 33.4999 11.9285 33.4999 12.0942ZM32 12.9941C32.1656 12.9941 32.3 12.8597 32.3 12.694C32.3 12.5284 32.1656 12.394 32 12.394C31.8343 12.394 31.7 12.5284 31.7 12.694C31.7 12.8597 31.8343 12.9941 32 12.9941ZM34.7 11.4938C34.7 11.6595 34.5657 11.7939 34.4 11.7939C34.2343 11.7939 34.1 11.6595 34.1 11.4938C34.1 11.3282 34.2343 11.1939 34.4 11.1939C34.5657 11.1939 34.7 11.3282 34.7 11.4938Z"
        fill="#B89B64" fill-rule="evenodd" />
</svg>
