<svg fill="none" height="30" viewBox="0 0 34 30" width="34" xmlns="http://www.w3.org/2000/svg">
    <path clip-rule="evenodd"
        d="M13.3128 1.08105C11.9321 1.08105 10.8128 2.20035 10.8128 3.58105V4.05142H11.4846V3.58856C11.4846 3.03625 11.9323 2.58856 12.4846 2.58856H21.5152C22.0674 2.58856 22.5152 3.03625 22.5152 3.58856V4.05142H23.1869V3.58105C23.1869 2.20035 22.0676 1.08105 20.6869 1.08105H13.3128ZM23.1869 5.05142H22.5152V5.51428H23.1869V5.05142ZM10.8128 5.51428V5.05142H11.4846V5.51428H10.8128ZM21.5152 5.51428V3.58856H12.4846V5.51428H21.5152ZM9.81281 3.58105V5.51428H8.72311V5.26038C8.72311 4.7081 8.2754 4.26038 7.72311 4.26038H4.96165C4.40937 4.26038 3.96165 4.7081 3.96165 5.26038V5.51428H2.11816C1.28973 5.51428 0.618164 6.18585 0.618164 7.01428V14.0448V28.4189C0.618164 29.2473 1.28973 29.9189 2.11816 29.9189H31.8816C32.71 29.9189 33.3816 29.2473 33.3816 28.4189V14.0448V7.01428C33.3816 6.18585 32.71 5.51428 31.8816 5.51428H30.0381V5.26038C30.0381 4.7081 29.5904 4.26038 29.0381 4.26038H26.2766C25.7243 4.26038 25.2766 4.7081 25.2766 5.26038V5.51428H24.1869V3.58105C24.1869 1.64807 22.6199 0.0810547 20.6869 0.0810547H13.3128C11.3798 0.0810547 9.81281 1.64807 9.81281 3.58105ZM4.96165 5.51428V5.26038H7.72311V5.51428H4.96165ZM29.0381 5.26038V5.51428H26.2766V5.26038H29.0381ZM32.3816 14.0448C32.3816 14.8733 31.71 15.5448 30.8816 15.5448H19.0896V13.7013C19.0896 13.149 18.6419 12.7013 18.0896 12.7013H15.9102C15.3579 12.7013 14.9102 13.149 14.9102 13.7013V15.5448H3.11816C2.28973 15.5448 1.61816 14.8733 1.61816 14.0448V7.01428C1.61816 7.00439 1.61845 6.99457 1.61902 6.98483C1.61944 6.97757 1.62002 6.97034 1.62074 6.96317C1.64635 6.71103 1.85928 6.51428 2.11816 6.51428H31.8816C32.1577 6.51428 32.3816 6.73813 32.3816 7.01428V14.0448ZM19.0896 18.3883V16.5448H30.8816C31.4444 16.5448 31.9638 16.3589 32.3816 16.045V28.4189C32.3816 28.695 32.1577 28.9189 31.8816 28.9189H30.99C31.0615 28.8641 31.1077 28.7777 31.1077 28.6806C31.1077 28.5149 30.9734 28.3806 30.8077 28.3806C30.642 28.3806 30.5077 28.5149 30.5077 28.6806C30.5077 28.7777 30.5538 28.8641 30.6254 28.9189H28.5898C28.6614 28.8641 28.7076 28.7777 28.7076 28.6806C28.7076 28.5149 28.5732 28.3806 28.4075 28.3806C28.2419 28.3806 28.1075 28.5149 28.1075 28.6806C28.1075 28.7777 28.1537 28.8641 28.2253 28.9189H26.1899C26.2615 28.8641 26.3076 28.7777 26.3076 28.6806C26.3076 28.5149 26.1733 28.3806 26.0076 28.3806C25.842 28.3806 25.7076 28.5149 25.7076 28.6806C25.7076 28.7777 25.7538 28.8641 25.8254 28.9189H23.7899C23.8615 28.8641 23.9076 28.7777 23.9076 28.6806C23.9076 28.5149 23.7733 28.3806 23.6076 28.3806C23.4419 28.3806 23.3076 28.5149 23.3076 28.6806C23.3076 28.7777 23.3538 28.8641 23.4253 28.9189H21.3898C21.4613 28.8641 21.5075 28.7777 21.5075 28.6806C21.5075 28.5149 21.3732 28.3806 21.2075 28.3806C21.0418 28.3806 20.9075 28.5149 20.9075 28.6806C20.9075 28.7777 20.9536 28.8641 21.0252 28.9189H18.99C19.0615 28.8641 19.1077 28.7777 19.1077 28.6806C19.1077 28.5149 18.9734 28.3806 18.8077 28.3806C18.642 28.3806 18.5077 28.5149 18.5077 28.6806C18.5077 28.7777 18.5538 28.8641 18.6254 28.9189H16.59C16.6615 28.8641 16.7077 28.7777 16.7077 28.6806C16.7077 28.5149 16.5734 28.3806 16.4077 28.3806C16.242 28.3806 16.1077 28.5149 16.1077 28.6806C16.1077 28.7777 16.1538 28.8641 16.2254 28.9189H14.19C14.2616 28.8641 14.3078 28.7777 14.3078 28.6806C14.3078 28.5149 14.1735 28.3806 14.0078 28.3806C13.8421 28.3806 13.7078 28.5149 13.7078 28.6806C13.7078 28.7777 13.7539 28.8641 13.8255 28.9189H11.7899C11.8615 28.8641 11.9076 28.7777 11.9076 28.6806C11.9076 28.5149 11.7733 28.3806 11.6076 28.3806C11.4419 28.3806 11.3076 28.5149 11.3076 28.6806C11.3076 28.7777 11.3538 28.8641 11.4253 28.9189H9.39C9.46157 28.8641 9.50772 28.7777 9.50772 28.6806C9.50772 28.5149 9.37341 28.3806 9.20772 28.3806C9.04203 28.3806 8.90771 28.5149 8.90771 28.6806C8.90771 28.7777 8.95387 28.8641 9.02544 28.9189H6.98997C7.06155 28.8641 7.1077 28.7777 7.1077 28.6806C7.1077 28.5149 6.97338 28.3806 6.80769 28.3806C6.64201 28.3806 6.50769 28.5149 6.50769 28.6806C6.50769 28.7777 6.55384 28.8641 6.62541 28.9189H4.58995C4.66152 28.8641 4.70767 28.7777 4.70767 28.6806C4.70767 28.5149 4.57336 28.3806 4.40767 28.3806C4.24198 28.3806 4.10767 28.5149 4.10767 28.6806C4.10767 28.7777 4.15382 28.8641 4.22539 28.9189H2.18993C2.2615 28.8641 2.30765 28.7777 2.30765 28.6806C2.30765 28.5149 2.17333 28.3806 2.00764 28.3806C1.84196 28.3806 1.70764 28.5149 1.70764 28.6806C1.70764 28.6891 1.70801 28.6976 1.7087 28.7059C1.65165 28.6247 1.61816 28.5257 1.61816 28.4189V16.045C2.036 16.3589 2.55536 16.5448 3.11816 16.5448H14.9102V18.3883C14.9102 18.9406 15.3579 19.3883 15.9102 19.3883H18.0896C18.6419 19.3883 19.0896 18.9406 19.0896 18.3883ZM18.0896 13.7013H15.9102V16.7986H18.0896V13.7013ZM18.0896 18.3883V17.7986H15.9102V18.3883H18.0896ZM2.30765 23.8808C2.30765 24.0465 2.17333 24.1808 2.00764 24.1808C1.84196 24.1808 1.70764 24.0465 1.70764 23.8808C1.70764 23.7151 1.84196 23.5808 2.00764 23.5808C2.17333 23.5808 2.30765 23.7151 2.30765 23.8808ZM2.00764 25.3805C2.17333 25.3805 2.30765 25.2462 2.30765 25.0805C2.30765 24.9148 2.17333 24.7805 2.00764 24.7805C1.84196 24.7805 1.70764 24.9148 1.70764 25.0805C1.70764 25.2462 1.84196 25.3805 2.00764 25.3805ZM4.70767 23.8808C4.70767 24.0465 4.57336 24.1808 4.40767 24.1808C4.24198 24.1808 4.10767 24.0465 4.10767 23.8808C4.10767 23.7151 4.24198 23.5808 4.40767 23.5808C4.57336 23.5808 4.70767 23.7151 4.70767 23.8808ZM3.20772 24.7807C3.37341 24.7807 3.50772 24.6464 3.50772 24.4807C3.50772 24.315 3.37341 24.1807 3.20772 24.1807C3.04203 24.1807 2.90771 24.315 2.90771 24.4807C2.90771 24.6464 3.04203 24.7807 3.20772 24.7807ZM4.70767 25.0805C4.70767 25.2462 4.57336 25.3805 4.40767 25.3805C4.24198 25.3805 4.10767 25.2462 4.10767 25.0805C4.10767 24.9148 4.24198 24.7805 4.40767 24.7805C4.57336 24.7805 4.70767 24.9148 4.70767 25.0805ZM6.80769 24.1808C6.97338 24.1808 7.1077 24.0465 7.1077 23.8808C7.1077 23.7151 6.97338 23.5808 6.80769 23.5808C6.64201 23.5808 6.50769 23.7151 6.50769 23.8808C6.50769 24.0465 6.64201 24.1808 6.80769 24.1808ZM5.90762 24.4807C5.90762 24.6464 5.77331 24.7807 5.60762 24.7807C5.44193 24.7807 5.30762 24.6464 5.30762 24.4807C5.30762 24.315 5.44193 24.1807 5.60762 24.1807C5.77331 24.1807 5.90762 24.315 5.90762 24.4807ZM6.80769 25.3805C6.97338 25.3805 7.1077 25.2462 7.1077 25.0805C7.1077 24.9148 6.97338 24.7805 6.80769 24.7805C6.64201 24.7805 6.50769 24.9148 6.50769 25.0805C6.50769 25.2462 6.64201 25.3805 6.80769 25.3805ZM9.50772 23.8808C9.50772 24.0465 9.37341 24.1808 9.20772 24.1808C9.04203 24.1808 8.90771 24.0465 8.90771 23.8808C8.90771 23.7151 9.04203 23.5808 9.20772 23.5808C9.37341 23.5808 9.50772 23.7151 9.50772 23.8808ZM8.00764 24.7807C8.17333 24.7807 8.30765 24.6464 8.30765 24.4807C8.30765 24.315 8.17333 24.1807 8.00764 24.1807C7.84196 24.1807 7.70764 24.315 7.70764 24.4807C7.70764 24.6464 7.84196 24.7807 8.00764 24.7807ZM9.50772 25.0805C9.50772 25.2462 9.37341 25.3805 9.20772 25.3805C9.04203 25.3805 8.90771 25.2462 8.90771 25.0805C8.90771 24.9148 9.04203 24.7805 9.20772 24.7805C9.37341 24.7805 9.50772 24.9148 9.50772 25.0805ZM11.6076 24.1808C11.7733 24.1808 11.9076 24.0465 11.9076 23.8808C11.9076 23.7151 11.7733 23.5808 11.6076 23.5808C11.4419 23.5808 11.3076 23.7151 11.3076 23.8808C11.3076 24.0465 11.4419 24.1808 11.6076 24.1808ZM10.7077 24.4807C10.7077 24.6464 10.5734 24.7807 10.4077 24.7807C10.242 24.7807 10.1077 24.6464 10.1077 24.4807C10.1077 24.315 10.242 24.1807 10.4077 24.1807C10.5734 24.1807 10.7077 24.315 10.7077 24.4807ZM11.6076 25.3805C11.7733 25.3805 11.9076 25.2462 11.9076 25.0805C11.9076 24.9148 11.7733 24.7805 11.6076 24.7805C11.4419 24.7805 11.3076 24.9148 11.3076 25.0805C11.3076 25.2462 11.4419 25.3805 11.6076 25.3805ZM14.3078 23.8808C14.3078 24.0465 14.1735 24.1808 14.0078 24.1808C13.8421 24.1808 13.7078 24.0465 13.7078 23.8808C13.7078 23.7151 13.8421 23.5808 14.0078 23.5808C14.1735 23.5808 14.3078 23.7151 14.3078 23.8808ZM12.8077 24.7807C12.9734 24.7807 13.1077 24.6464 13.1077 24.4807C13.1077 24.315 12.9734 24.1807 12.8077 24.1807C12.642 24.1807 12.5077 24.315 12.5077 24.4807C12.5077 24.6464 12.642 24.7807 12.8077 24.7807ZM14.3078 25.0805C14.3078 25.2462 14.1735 25.3805 14.0078 25.3805C13.8421 25.3805 13.7078 25.2462 13.7078 25.0805C13.7078 24.9148 13.8421 24.7805 14.0078 24.7805C14.1735 24.7805 14.3078 24.9148 14.3078 25.0805ZM2.00764 26.581C2.17333 26.581 2.30765 26.4467 2.30765 26.2809C2.30765 26.1153 2.17333 25.981 2.00764 25.981C1.84196 25.981 1.70764 26.1153 1.70764 26.2809C1.70764 26.4467 1.84196 26.581 2.00764 26.581ZM2.30765 27.4807C2.30765 27.6464 2.17333 27.7807 2.00764 27.7807C1.84196 27.7807 1.70764 27.6464 1.70764 27.4807C1.70764 27.315 1.84196 27.1807 2.00764 27.1807C2.17333 27.1807 2.30765 27.315 2.30765 27.4807ZM3.50772 25.6806C3.50772 25.8463 3.37341 25.9806 3.20772 25.9806C3.04203 25.9806 2.90771 25.8463 2.90771 25.6806C2.90771 25.5149 3.04203 25.3806 3.20772 25.3806C3.37341 25.3806 3.50772 25.5149 3.50772 25.6806ZM4.40767 26.581C4.57336 26.581 4.70767 26.4467 4.70767 26.2809C4.70767 26.1153 4.57336 25.981 4.40767 25.981C4.24198 25.981 4.10767 26.1153 4.10767 26.2809C4.10767 26.4467 4.24198 26.581 4.40767 26.581ZM3.50772 26.8808C3.50772 27.0465 3.37341 27.1808 3.20772 27.1808C3.04203 27.1808 2.90771 27.0465 2.90771 26.8808C2.90771 26.7151 3.04203 26.5808 3.20772 26.5808C3.37341 26.5808 3.50772 26.7151 3.50772 26.8808ZM4.40767 27.7807C4.57336 27.7807 4.70767 27.6464 4.70767 27.4807C4.70767 27.315 4.57336 27.1807 4.40767 27.1807C4.24198 27.1807 4.10767 27.315 4.10767 27.4807C4.10767 27.6464 4.24198 27.7807 4.40767 27.7807ZM3.50772 28.0805C3.50772 28.2462 3.37341 28.3805 3.20772 28.3805C3.04203 28.3805 2.90771 28.2462 2.90771 28.0805C2.90771 27.9148 3.04203 27.7805 3.20772 27.7805C3.37341 27.7805 3.50772 27.9148 3.50772 28.0805ZM5.60762 25.9806C5.77331 25.9806 5.90762 25.8463 5.90762 25.6806C5.90762 25.5149 5.77331 25.3806 5.60762 25.3806C5.44193 25.3806 5.30762 25.5149 5.30762 25.6806C5.30762 25.8463 5.44193 25.9806 5.60762 25.9806ZM7.1077 26.2809C7.1077 26.4467 6.97338 26.581 6.80769 26.581C6.64201 26.581 6.50769 26.4467 6.50769 26.2809C6.50769 26.1153 6.64201 25.981 6.80769 25.981C6.97338 25.981 7.1077 26.1153 7.1077 26.2809ZM5.60762 27.1808C5.77331 27.1808 5.90762 27.0465 5.90762 26.8808C5.90762 26.7151 5.77331 26.5808 5.60762 26.5808C5.44193 26.5808 5.30762 26.7151 5.30762 26.8808C5.30762 27.0465 5.44193 27.1808 5.60762 27.1808ZM7.1077 27.4807C7.1077 27.6464 6.97338 27.7807 6.80769 27.7807C6.64201 27.7807 6.50769 27.6464 6.50769 27.4807C6.50769 27.315 6.64201 27.1807 6.80769 27.1807C6.97338 27.1807 7.1077 27.315 7.1077 27.4807ZM5.60762 28.3805C5.77331 28.3805 5.90762 28.2462 5.90762 28.0805C5.90762 27.9148 5.77331 27.7805 5.60762 27.7805C5.44193 27.7805 5.30762 27.9148 5.30762 28.0805C5.30762 28.2462 5.44193 28.3805 5.60762 28.3805ZM8.30765 25.6806C8.30765 25.8463 8.17333 25.9806 8.00764 25.9806C7.84196 25.9806 7.70764 25.8463 7.70764 25.6806C7.70764 25.5149 7.84196 25.3806 8.00764 25.3806C8.17333 25.3806 8.30765 25.5149 8.30765 25.6806ZM9.20772 26.581C9.37341 26.581 9.50772 26.4467 9.50772 26.2809C9.50772 26.1153 9.37341 25.981 9.20772 25.981C9.04203 25.981 8.90771 26.1153 8.90771 26.2809C8.90771 26.4467 9.04203 26.581 9.20772 26.581ZM8.30765 26.8808C8.30765 27.0465 8.17333 27.1808 8.00764 27.1808C7.84196 27.1808 7.70764 27.0465 7.70764 26.8808C7.70764 26.7151 7.84196 26.5808 8.00764 26.5808C8.17333 26.5808 8.30765 26.7151 8.30765 26.8808ZM9.20772 27.7807C9.37341 27.7807 9.50772 27.6464 9.50772 27.4807C9.50772 27.315 9.37341 27.1807 9.20772 27.1807C9.04203 27.1807 8.90771 27.315 8.90771 27.4807C8.90771 27.6464 9.04203 27.7807 9.20772 27.7807ZM8.30765 28.0805C8.30765 28.2462 8.17333 28.3805 8.00764 28.3805C7.84196 28.3805 7.70764 28.2462 7.70764 28.0805C7.70764 27.9148 7.84196 27.7805 8.00764 27.7805C8.17333 27.7805 8.30765 27.9148 8.30765 28.0805ZM10.4077 25.9806C10.5734 25.9806 10.7077 25.8463 10.7077 25.6806C10.7077 25.5149 10.5734 25.3806 10.4077 25.3806C10.242 25.3806 10.1077 25.5149 10.1077 25.6806C10.1077 25.8463 10.242 25.9806 10.4077 25.9806ZM11.9076 26.2809C11.9076 26.4467 11.7733 26.581 11.6076 26.581C11.4419 26.581 11.3076 26.4467 11.3076 26.2809C11.3076 26.1153 11.4419 25.981 11.6076 25.981C11.7733 25.981 11.9076 26.1153 11.9076 26.2809ZM10.4077 27.1808C10.5734 27.1808 10.7077 27.0465 10.7077 26.8808C10.7077 26.7151 10.5734 26.5808 10.4077 26.5808C10.242 26.5808 10.1077 26.7151 10.1077 26.8808C10.1077 27.0465 10.242 27.1808 10.4077 27.1808ZM11.9076 27.4807C11.9076 27.6464 11.7733 27.7807 11.6076 27.7807C11.4419 27.7807 11.3076 27.6464 11.3076 27.4807C11.3076 27.315 11.4419 27.1807 11.6076 27.1807C11.7733 27.1807 11.9076 27.315 11.9076 27.4807ZM10.4077 28.3805C10.5734 28.3805 10.7077 28.2462 10.7077 28.0805C10.7077 27.9148 10.5734 27.7805 10.4077 27.7805C10.242 27.7805 10.1077 27.9148 10.1077 28.0805C10.1077 28.2462 10.242 28.3805 10.4077 28.3805ZM13.1077 25.6806C13.1077 25.8463 12.9734 25.9806 12.8077 25.9806C12.642 25.9806 12.5077 25.8463 12.5077 25.6806C12.5077 25.5149 12.642 25.3806 12.8077 25.3806C12.9734 25.3806 13.1077 25.5149 13.1077 25.6806ZM14.0078 26.581C14.1735 26.581 14.3078 26.4467 14.3078 26.2809C14.3078 26.1153 14.1735 25.981 14.0078 25.981C13.8421 25.981 13.7078 26.1153 13.7078 26.2809C13.7078 26.4467 13.8421 26.581 14.0078 26.581ZM13.1077 26.8808C13.1077 27.0465 12.9734 27.1808 12.8077 27.1808C12.642 27.1808 12.5077 27.0465 12.5077 26.8808C12.5077 26.7151 12.642 26.5808 12.8077 26.5808C12.9734 26.5808 13.1077 26.7151 13.1077 26.8808ZM14.0078 27.7807C14.1735 27.7807 14.3078 27.6464 14.3078 27.4807C14.3078 27.315 14.1735 27.1807 14.0078 27.1807C13.8421 27.1807 13.7078 27.315 13.7078 27.4807C13.7078 27.6464 13.8421 27.7807 14.0078 27.7807ZM13.1077 28.0805C13.1077 28.2462 12.9734 28.3805 12.8077 28.3805C12.642 28.3805 12.5077 28.2462 12.5077 28.0805C12.5077 27.9148 12.642 27.7805 12.8077 27.7805C12.9734 27.7805 13.1077 27.9148 13.1077 28.0805ZM16.4077 24.1808C16.5734 24.1808 16.7077 24.0465 16.7077 23.8808C16.7077 23.7151 16.5734 23.5808 16.4077 23.5808C16.242 23.5808 16.1077 23.7151 16.1077 23.8808C16.1077 24.0465 16.242 24.1808 16.4077 24.1808ZM15.5077 24.4807C15.5077 24.6464 15.3734 24.7807 15.2077 24.7807C15.042 24.7807 14.9077 24.6464 14.9077 24.4807C14.9077 24.315 15.042 24.1807 15.2077 24.1807C15.3734 24.1807 15.5077 24.315 15.5077 24.4807ZM16.4077 25.3805C16.5734 25.3805 16.7077 25.2462 16.7077 25.0805C16.7077 24.9148 16.5734 24.7805 16.4077 24.7805C16.242 24.7805 16.1077 24.9148 16.1077 25.0805C16.1077 25.2462 16.242 25.3805 16.4077 25.3805ZM19.1077 23.8808C19.1077 24.0465 18.9734 24.1808 18.8077 24.1808C18.642 24.1808 18.5077 24.0465 18.5077 23.8808C18.5077 23.7151 18.642 23.5808 18.8077 23.5808C18.9734 23.5808 19.1077 23.7151 19.1077 23.8808ZM17.6077 24.7807C17.7734 24.7807 17.9077 24.6464 17.9077 24.4807C17.9077 24.315 17.7734 24.1807 17.6077 24.1807C17.4421 24.1807 17.3077 24.315 17.3077 24.4807C17.3077 24.6464 17.4421 24.7807 17.6077 24.7807ZM19.1077 25.0805C19.1077 25.2462 18.9734 25.3805 18.8077 25.3805C18.642 25.3805 18.5077 25.2462 18.5077 25.0805C18.5077 24.9148 18.642 24.7805 18.8077 24.7805C18.9734 24.7805 19.1077 24.9148 19.1077 25.0805ZM15.2077 25.9806C15.3734 25.9806 15.5077 25.8463 15.5077 25.6806C15.5077 25.5149 15.3734 25.3806 15.2077 25.3806C15.042 25.3806 14.9077 25.5149 14.9077 25.6806C14.9077 25.8463 15.042 25.9806 15.2077 25.9806ZM16.7077 26.2809C16.7077 26.4467 16.5734 26.581 16.4077 26.581C16.242 26.581 16.1077 26.4467 16.1077 26.2809C16.1077 26.1153 16.242 25.981 16.4077 25.981C16.5734 25.981 16.7077 26.1153 16.7077 26.2809ZM15.2077 27.1808C15.3734 27.1808 15.5077 27.0465 15.5077 26.8808C15.5077 26.7151 15.3734 26.5808 15.2077 26.5808C15.042 26.5808 14.9077 26.7151 14.9077 26.8808C14.9077 27.0465 15.042 27.1808 15.2077 27.1808ZM16.7077 27.4807C16.7077 27.6464 16.5734 27.7807 16.4077 27.7807C16.242 27.7807 16.1077 27.6464 16.1077 27.4807C16.1077 27.315 16.242 27.1807 16.4077 27.1807C16.5734 27.1807 16.7077 27.315 16.7077 27.4807ZM15.2077 28.3805C15.3734 28.3805 15.5077 28.2462 15.5077 28.0805C15.5077 27.9148 15.3734 27.7805 15.2077 27.7805C15.042 27.7805 14.9077 27.9148 14.9077 28.0805C14.9077 28.2462 15.042 28.3805 15.2077 28.3805ZM17.9077 25.6806C17.9077 25.8463 17.7734 25.9806 17.6077 25.9806C17.4421 25.9806 17.3077 25.8463 17.3077 25.6806C17.3077 25.5149 17.4421 25.3806 17.6077 25.3806C17.7734 25.3806 17.9077 25.5149 17.9077 25.6806ZM18.8077 26.581C18.9734 26.581 19.1077 26.4467 19.1077 26.2809C19.1077 26.1153 18.9734 25.981 18.8077 25.981C18.642 25.981 18.5077 26.1153 18.5077 26.2809C18.5077 26.4467 18.642 26.581 18.8077 26.581ZM17.9077 26.8808C17.9077 27.0465 17.7734 27.1808 17.6077 27.1808C17.4421 27.1808 17.3077 27.0465 17.3077 26.8808C17.3077 26.7151 17.4421 26.5808 17.6077 26.5808C17.7734 26.5808 17.9077 26.7151 17.9077 26.8808ZM18.8077 27.7807C18.9734 27.7807 19.1077 27.6464 19.1077 27.4807C19.1077 27.315 18.9734 27.1807 18.8077 27.1807C18.642 27.1807 18.5077 27.315 18.5077 27.4807C18.5077 27.6464 18.642 27.7807 18.8077 27.7807ZM17.9077 28.0805C17.9077 28.2462 17.7734 28.3805 17.6077 28.3805C17.4421 28.3805 17.3077 28.2462 17.3077 28.0805C17.3077 27.9148 17.4421 27.7805 17.6077 27.7805C17.7734 27.7805 17.9077 27.9148 17.9077 28.0805ZM21.2075 24.1808C21.3732 24.1808 21.5075 24.0465 21.5075 23.8808C21.5075 23.7151 21.3732 23.5808 21.2075 23.5808C21.0418 23.5808 20.9075 23.7151 20.9075 23.8808C20.9075 24.0465 21.0418 24.1808 21.2075 24.1808ZM20.3075 24.4807C20.3075 24.6464 20.1732 24.7807 20.0075 24.7807C19.8418 24.7807 19.7075 24.6464 19.7075 24.4807C19.7075 24.315 19.8418 24.1807 20.0075 24.1807C20.1732 24.1807 20.3075 24.315 20.3075 24.4807ZM21.2075 25.3805C21.3732 25.3805 21.5075 25.2462 21.5075 25.0805C21.5075 24.9148 21.3732 24.7805 21.2075 24.7805C21.0418 24.7805 20.9075 24.9148 20.9075 25.0805C20.9075 25.2462 21.0418 25.3805 21.2075 25.3805ZM23.9076 23.8808C23.9076 24.0465 23.7733 24.1808 23.6076 24.1808C23.4419 24.1808 23.3076 24.0465 23.3076 23.8808C23.3076 23.7151 23.4419 23.5808 23.6076 23.5808C23.7733 23.5808 23.9076 23.7151 23.9076 23.8808ZM22.4075 24.7807C22.5732 24.7807 22.7076 24.6464 22.7076 24.4807C22.7076 24.315 22.5732 24.1807 22.4075 24.1807C22.2419 24.1807 22.1075 24.315 22.1075 24.4807C22.1075 24.6464 22.2419 24.7807 22.4075 24.7807ZM23.9076 25.0805C23.9076 25.2462 23.7733 25.3805 23.6076 25.3805C23.4419 25.3805 23.3076 25.2462 23.3076 25.0805C23.3076 24.9148 23.4419 24.7805 23.6076 24.7805C23.7733 24.7805 23.9076 24.9148 23.9076 25.0805ZM26.0076 24.1808C26.1733 24.1808 26.3076 24.0465 26.3076 23.8808C26.3076 23.7151 26.1733 23.5808 26.0076 23.5808C25.842 23.5808 25.7076 23.7151 25.7076 23.8808C25.7076 24.0465 25.842 24.1808 26.0076 24.1808ZM25.1077 24.4807C25.1077 24.6464 24.9734 24.7807 24.8077 24.7807C24.642 24.7807 24.5077 24.6464 24.5077 24.4807C24.5077 24.315 24.642 24.1807 24.8077 24.1807C24.9734 24.1807 25.1077 24.315 25.1077 24.4807ZM26.0076 25.3805C26.1733 25.3805 26.3076 25.2462 26.3076 25.0805C26.3076 24.9148 26.1733 24.7805 26.0076 24.7805C25.842 24.7805 25.7076 24.9148 25.7076 25.0805C25.7076 25.2462 25.842 25.3805 26.0076 25.3805ZM28.7076 23.8808C28.7076 24.0465 28.5732 24.1808 28.4075 24.1808C28.2419 24.1808 28.1075 24.0465 28.1075 23.8808C28.1075 23.7151 28.2419 23.5808 28.4075 23.5808C28.5732 23.5808 28.7076 23.7151 28.7076 23.8808ZM27.2075 24.7807C27.3732 24.7807 27.5075 24.6464 27.5075 24.4807C27.5075 24.315 27.3732 24.1807 27.2075 24.1807C27.0418 24.1807 26.9075 24.315 26.9075 24.4807C26.9075 24.6464 27.0418 24.7807 27.2075 24.7807ZM28.7076 25.0805C28.7076 25.2462 28.5732 25.3805 28.4075 25.3805C28.2419 25.3805 28.1075 25.2462 28.1075 25.0805C28.1075 24.9148 28.2419 24.7805 28.4075 24.7805C28.5732 24.7805 28.7076 24.9148 28.7076 25.0805ZM30.8077 24.1808C30.9734 24.1808 31.1077 24.0465 31.1077 23.8808C31.1077 23.7151 30.9734 23.5808 30.8077 23.5808C30.642 23.5808 30.5077 23.7151 30.5077 23.8808C30.5077 24.0465 30.642 24.1808 30.8077 24.1808ZM29.9076 24.4807C29.9076 24.6464 29.7733 24.7807 29.6076 24.7807C29.4419 24.7807 29.3076 24.6464 29.3076 24.4807C29.3076 24.315 29.4419 24.1807 29.6076 24.1807C29.7733 24.1807 29.9076 24.315 29.9076 24.4807ZM30.8077 25.3805C30.9734 25.3805 31.1077 25.2462 31.1077 25.0805C31.1077 24.9148 30.9734 24.7805 30.8077 24.7805C30.642 24.7805 30.5077 24.9148 30.5077 25.0805C30.5077 25.2462 30.642 25.3805 30.8077 25.3805ZM32.3076 24.4807C32.3076 24.6464 32.1733 24.7807 32.0076 24.7807C31.842 24.7807 31.7076 24.6464 31.7076 24.4807C31.7076 24.315 31.842 24.1807 32.0076 24.1807C32.1733 24.1807 32.3076 24.315 32.3076 24.4807ZM20.0075 25.9806C20.1732 25.9806 20.3075 25.8463 20.3075 25.6806C20.3075 25.5149 20.1732 25.3806 20.0075 25.3806C19.8418 25.3806 19.7075 25.5149 19.7075 25.6806C19.7075 25.8463 19.8418 25.9806 20.0075 25.9806ZM21.5075 26.2809C21.5075 26.4467 21.3732 26.581 21.2075 26.581C21.0418 26.581 20.9075 26.4467 20.9075 26.2809C20.9075 26.1153 21.0418 25.981 21.2075 25.981C21.3732 25.981 21.5075 26.1153 21.5075 26.2809ZM20.0075 27.1808C20.1732 27.1808 20.3075 27.0465 20.3075 26.8808C20.3075 26.7151 20.1732 26.5808 20.0075 26.5808C19.8418 26.5808 19.7075 26.7151 19.7075 26.8808C19.7075 27.0465 19.8418 27.1808 20.0075 27.1808ZM21.5075 27.4807C21.5075 27.6464 21.3732 27.7807 21.2075 27.7807C21.0418 27.7807 20.9075 27.6464 20.9075 27.4807C20.9075 27.315 21.0418 27.1807 21.2075 27.1807C21.3732 27.1807 21.5075 27.315 21.5075 27.4807ZM20.0075 28.3805C20.1732 28.3805 20.3075 28.2462 20.3075 28.0805C20.3075 27.9148 20.1732 27.7805 20.0075 27.7805C19.8418 27.7805 19.7075 27.9148 19.7075 28.0805C19.7075 28.2462 19.8418 28.3805 20.0075 28.3805ZM22.7076 25.6806C22.7076 25.8463 22.5732 25.9806 22.4075 25.9806C22.2419 25.9806 22.1075 25.8463 22.1075 25.6806C22.1075 25.5149 22.2419 25.3806 22.4075 25.3806C22.5732 25.3806 22.7076 25.5149 22.7076 25.6806ZM23.6076 26.581C23.7733 26.581 23.9076 26.4467 23.9076 26.2809C23.9076 26.1153 23.7733 25.981 23.6076 25.981C23.4419 25.981 23.3076 26.1153 23.3076 26.2809C23.3076 26.4467 23.4419 26.581 23.6076 26.581ZM22.7076 26.8808C22.7076 27.0465 22.5732 27.1808 22.4075 27.1808C22.2419 27.1808 22.1075 27.0465 22.1075 26.8808C22.1075 26.7151 22.2419 26.5808 22.4075 26.5808C22.5732 26.5808 22.7076 26.7151 22.7076 26.8808ZM23.6076 27.7807C23.7733 27.7807 23.9076 27.6464 23.9076 27.4807C23.9076 27.315 23.7733 27.1807 23.6076 27.1807C23.4419 27.1807 23.3076 27.315 23.3076 27.4807C23.3076 27.6464 23.4419 27.7807 23.6076 27.7807ZM22.7076 28.0805C22.7076 28.2462 22.5732 28.3805 22.4075 28.3805C22.2419 28.3805 22.1075 28.2462 22.1075 28.0805C22.1075 27.9148 22.2419 27.7805 22.4075 27.7805C22.5732 27.7805 22.7076 27.9148 22.7076 28.0805ZM24.8077 25.9806C24.9734 25.9806 25.1077 25.8463 25.1077 25.6806C25.1077 25.5149 24.9734 25.3806 24.8077 25.3806C24.642 25.3806 24.5077 25.5149 24.5077 25.6806C24.5077 25.8463 24.642 25.9806 24.8077 25.9806ZM26.3076 26.2809C26.3076 26.4467 26.1733 26.581 26.0076 26.581C25.842 26.581 25.7076 26.4467 25.7076 26.2809C25.7076 26.1153 25.842 25.981 26.0076 25.981C26.1733 25.981 26.3076 26.1153 26.3076 26.2809ZM24.8077 27.1808C24.9734 27.1808 25.1077 27.0465 25.1077 26.8808C25.1077 26.7151 24.9734 26.5808 24.8077 26.5808C24.642 26.5808 24.5077 26.7151 24.5077 26.8808C24.5077 27.0465 24.642 27.1808 24.8077 27.1808ZM26.3076 27.4807C26.3076 27.6464 26.1733 27.7807 26.0076 27.7807C25.842 27.7807 25.7076 27.6464 25.7076 27.4807C25.7076 27.315 25.842 27.1807 26.0076 27.1807C26.1733 27.1807 26.3076 27.315 26.3076 27.4807ZM24.8077 28.3805C24.9734 28.3805 25.1077 28.2462 25.1077 28.0805C25.1077 27.9148 24.9734 27.7805 24.8077 27.7805C24.642 27.7805 24.5077 27.9148 24.5077 28.0805C24.5077 28.2462 24.642 28.3805 24.8077 28.3805ZM27.5075 25.6806C27.5075 25.8463 27.3732 25.9806 27.2075 25.9806C27.0418 25.9806 26.9075 25.8463 26.9075 25.6806C26.9075 25.5149 27.0418 25.3806 27.2075 25.3806C27.3732 25.3806 27.5075 25.5149 27.5075 25.6806ZM28.4075 26.581C28.5732 26.581 28.7076 26.4467 28.7076 26.2809C28.7076 26.1153 28.5732 25.981 28.4075 25.981C28.2419 25.981 28.1075 26.1153 28.1075 26.2809C28.1075 26.4467 28.2419 26.581 28.4075 26.581ZM27.5075 26.8808C27.5075 27.0465 27.3732 27.1808 27.2075 27.1808C27.0418 27.1808 26.9075 27.0465 26.9075 26.8808C26.9075 26.7151 27.0418 26.5808 27.2075 26.5808C27.3732 26.5808 27.5075 26.7151 27.5075 26.8808ZM28.4075 27.7807C28.5732 27.7807 28.7076 27.6464 28.7076 27.4807C28.7076 27.315 28.5732 27.1807 28.4075 27.1807C28.2419 27.1807 28.1075 27.315 28.1075 27.4807C28.1075 27.6464 28.2419 27.7807 28.4075 27.7807ZM27.5075 28.0805C27.5075 28.2462 27.3732 28.3805 27.2075 28.3805C27.0418 28.3805 26.9075 28.2462 26.9075 28.0805C26.9075 27.9148 27.0418 27.7805 27.2075 27.7805C27.3732 27.7805 27.5075 27.9148 27.5075 28.0805ZM29.6076 25.9806C29.7733 25.9806 29.9076 25.8463 29.9076 25.6806C29.9076 25.5149 29.7733 25.3806 29.6076 25.3806C29.4419 25.3806 29.3076 25.5149 29.3076 25.6806C29.3076 25.8463 29.4419 25.9806 29.6076 25.9806ZM31.1077 26.2809C31.1077 26.4467 30.9734 26.581 30.8077 26.581C30.642 26.581 30.5077 26.4467 30.5077 26.2809C30.5077 26.1153 30.642 25.981 30.8077 25.981C30.9734 25.981 31.1077 26.1153 31.1077 26.2809ZM29.6076 27.1808C29.7733 27.1808 29.9076 27.0465 29.9076 26.8808C29.9076 26.7151 29.7733 26.5808 29.6076 26.5808C29.4419 26.5808 29.3076 26.7151 29.3076 26.8808C29.3076 27.0465 29.4419 27.1808 29.6076 27.1808ZM31.1077 27.4807C31.1077 27.6464 30.9734 27.7807 30.8077 27.7807C30.642 27.7807 30.5077 27.6464 30.5077 27.4807C30.5077 27.315 30.642 27.1807 30.8077 27.1807C30.9734 27.1807 31.1077 27.315 31.1077 27.4807ZM29.6076 28.3805C29.7733 28.3805 29.9076 28.2462 29.9076 28.0805C29.9076 27.9148 29.7733 27.7805 29.6076 27.7805C29.4419 27.7805 29.3076 27.9148 29.3076 28.0805C29.3076 28.2462 29.4419 28.3805 29.6076 28.3805ZM32.3076 25.6806C32.3076 25.8463 32.1733 25.9806 32.0076 25.9806C31.842 25.9806 31.7076 25.8463 31.7076 25.6806C31.7076 25.5149 31.842 25.3806 32.0076 25.3806C32.1733 25.3806 32.3076 25.5149 32.3076 25.6806ZM32.0076 27.1808C32.1733 27.1808 32.3076 27.0465 32.3076 26.8808C32.3076 26.7151 32.1733 26.5808 32.0076 26.5808C31.842 26.5808 31.7076 26.7151 31.7076 26.8808C31.7076 27.0465 31.842 27.1808 32.0076 27.1808ZM32.3076 28.0805C32.3076 28.2462 32.1733 28.3805 32.0076 28.3805C31.842 28.3805 31.7076 28.2462 31.7076 28.0805C31.7076 27.9148 31.842 27.7805 32.0076 27.7805C32.1733 27.7805 32.3076 27.9148 32.3076 28.0805Z"
        fill="#B89B64" fill-rule="evenodd" />
</svg>
