<svg fill="none" height="35" viewBox="0 0 32 35" width="32" xmlns="http://www.w3.org/2000/svg">
    <path clip-rule="evenodd"
        d="M17.2537 2.05728C16.9672 1.99991 16.6856 1.96188 16.4057 1.94321C16.3568 1.97769 16.2972 1.99796 16.2328 1.99796C16.1606 1.99796 16.0943 1.97238 16.0425 1.92981C15.7206 1.92761 15.399 1.95114 15.0725 2.0004C15.2195 2.01978 15.3329 2.14554 15.3329 2.29779C15.3329 2.4635 15.1986 2.59781 15.0329 2.59781C14.8672 2.59781 14.7329 2.4635 14.7329 2.29779C14.7329 2.17975 14.8011 2.07764 14.9002 2.02866C14.7356 2.05786 14.5695 2.09354 14.4012 2.13568C13.8032 2.28546 13.3478 2.82303 13.2107 3.5083C13.1384 3.86966 13.2399 4.24405 13.4847 4.5195L13.9217 5.01117C14.0272 5.04379 14.1078 5.13293 14.128 5.24323L14.7341 5.92511C14.7333 5.91614 14.7329 5.90707 14.7329 5.89789C14.7329 5.73221 14.8672 5.5979 15.0329 5.5979C15.1986 5.5979 15.3329 5.73221 15.3329 5.89789C15.3329 6.0636 15.1986 6.19791 15.0329 6.19791C15.0117 6.19791 14.9909 6.19571 14.9709 6.1915L15.6275 6.93015C15.8264 7.1539 16.176 7.1539 16.3749 6.93015L17.1678 6.03815C17.1456 5.99628 17.1331 5.94855 17.1331 5.89789C17.1331 5.73221 17.2674 5.5979 17.433 5.5979C17.4712 5.5979 17.5077 5.60504 17.5412 5.61801L18.5177 4.5195C18.5522 4.48059 18.584 4.43973 18.6127 4.39719C18.4565 4.38678 18.333 4.25674 18.333 4.09784C18.333 3.93216 18.4673 3.79785 18.633 3.79785C18.6986 3.79785 18.7594 3.81894 18.8088 3.85471C18.8201 3.74033 18.8148 3.62363 18.7917 3.50827C18.7697 3.39804 18.7393 3.29163 18.7016 3.19003C18.6795 3.19519 18.6566 3.19791 18.633 3.19791C18.4673 3.19791 18.333 3.0636 18.333 2.89789C18.333 2.81464 18.3669 2.73932 18.4217 2.68497C18.2314 2.44159 17.9849 2.25906 17.7022 2.16504C17.722 2.20505 17.7331 2.25012 17.7331 2.29779C17.7331 2.4635 17.5988 2.59781 17.433 2.59781C17.2674 2.59781 17.1331 2.4635 17.1331 2.29779C17.1331 2.19934 17.1805 2.11197 17.2537 2.05728ZM17.8441 1.16562C16.588 0.851044 15.4144 0.851044 14.1583 1.16562C14.0232 1.19946 13.8941 1.24396 13.7714 1.29785L13.768 1.28979C12.811 1.68365 11.9507 2.28961 11.3194 3.16599L5.68108 4.64966L5.61723 4.66599C5.58505 4.67419 5.55312 4.68304 5.52145 4.6925L5.24731 4.76468L5.25081 4.79053C4.5854 5.07587 4.06958 5.63974 3.85001 6.34296L0.695831 16.4444C0.460632 17.1976 0.365372 17.9847 0.411819 18.767C0.404373 18.7932 0.400391 18.8208 0.400391 18.8493C0.400391 18.8938 0.410065 18.936 0.427414 18.9739C0.451004 19.2319 0.490082 19.4889 0.544678 19.7437L2.46204 28.6914C2.52878 29.0028 2.73375 29.2489 2.99873 29.3793L3.24902 30.6308C3.36002 31.1858 3.90903 31.5381 4.45979 31.4079L6.09476 31.0211C6.0894 31.6614 6.08633 32.3204 6.08633 33.0012V33.3413L6.40268 33.4662C8.45844 34.2781 12.2671 34.6628 15.9989 34.6628C19.7308 34.6628 23.5395 34.2781 25.5952 33.4662L25.9116 33.3413V33.0012C25.9116 32.3206 25.9085 31.6616 25.9031 31.0215L27.5367 31.4079C28.0874 31.5381 28.6364 31.1858 28.7474 30.6308L28.9974 29.3811C29.2641 29.2512 29.4707 29.0043 29.5377 28.6914L31.4551 19.7437C31.6896 18.6493 31.6375 17.5128 31.3039 16.4444L28.1497 6.34296C27.93 5.63913 27.4135 5.07489 26.7472 4.78976L26.7506 4.76468L26.4913 4.69641C26.4554 4.68549 26.4191 4.67532 26.3825 4.66599L26.3187 4.64966L26.3184 4.65088L20.6784 3.16595C20.047 2.28922 19.1866 1.68301 18.2293 1.28906L18.2265 1.29584C18.1051 1.24286 17.9776 1.19904 17.8441 1.16562ZM27.7668 30.4347L25.8925 29.9914C25.8891 29.7194 25.8854 29.4507 25.8814 29.1852L25.8771 28.9101L27.9784 29.377L27.7668 30.4347ZM6.10544 29.991C6.10994 29.6251 6.11508 29.2651 6.12074 28.9105L4.50374 29.2698C4.45027 29.3191 4.37885 29.3493 4.30037 29.3493C4.26865 29.3493 4.23808 29.3444 4.20938 29.3352L4.0182 29.3777L4.14159 29.9946C4.18764 29.9659 4.24207 29.9492 4.30037 29.9492C4.46605 29.9492 4.60037 30.0835 4.60037 30.2492C4.60037 30.285 4.5941 30.3194 4.58258 30.3512L6.10544 29.991ZM19.8138 3.79739C19.8 4.30463 19.609 4.79697 19.2651 5.18387L18.7045 5.81458C18.8439 5.86093 18.9783 5.92847 19.103 6.01752L20.7399 7.18677C20.7933 5.85092 20.5264 4.83392 20.0721 4.06454C20.0165 3.97031 19.9578 3.87927 19.8961 3.79135C19.8757 3.79572 19.8546 3.798 19.8329 3.798C19.8265 3.798 19.8201 3.79779 19.8138 3.79739ZM17.1721 7.53851L17.1223 7.59448C16.9461 7.79269 16.7305 7.93237 16.4988 8.01355V27.6243C16.5611 27.6793 16.6004 27.7597 16.6004 27.8493C16.6004 27.9389 16.5611 28.0194 16.4988 28.0743V28.8242C16.5611 28.8792 16.6004 28.9597 16.6004 29.0493C16.6004 29.1389 16.5611 29.2193 16.4988 29.2743V30.0242C16.5611 30.0792 16.6004 30.1596 16.6004 30.2492C16.6004 30.3388 16.5611 30.4193 16.4988 30.4742V31.2242C16.5611 31.2791 16.6004 31.3596 16.6004 31.4492C16.6004 31.5388 16.5611 31.6192 16.4988 31.6742V32.4243C16.5611 32.4793 16.6004 32.5598 16.6004 32.6494C16.6004 32.739 16.5611 32.8194 16.4988 32.8744V33.6243C16.5112 33.6353 16.5228 33.6473 16.5333 33.6602C17.2079 33.6534 17.8773 33.6338 18.5312 33.6016C18.5794 33.5686 18.6377 33.5493 18.7005 33.5493C18.7521 33.5493 18.8006 33.5623 18.843 33.5852C19.1593 33.5676 19.4715 33.547 19.7785 33.5234C19.6736 33.4767 19.6005 33.3715 19.6005 33.2492C19.6005 33.0835 19.7348 32.9492 19.9005 32.9492C20.0662 32.9492 20.2005 33.0835 20.2005 33.2492C20.2005 33.3544 20.1464 33.4469 20.0645 33.5005C20.743 33.4437 21.3935 33.3722 22.0027 33.2863C22.0012 33.2742 22.0004 33.2618 22.0004 33.2492C22.0004 33.0835 22.1347 32.9492 22.3004 32.9492C22.4479 32.9492 22.5706 33.0557 22.5957 33.196C23.4934 33.0484 24.2816 32.8667 24.9113 32.6522C24.9111 32.5219 24.9108 32.3924 24.9103 32.2637C24.8562 32.3166 24.7822 32.3493 24.7005 32.3493C24.5348 32.3493 24.4005 32.215 24.4005 32.0493C24.4005 31.8836 24.5348 31.7493 24.7005 31.7493C24.7813 31.7493 24.8546 31.7812 24.9085 31.8331C24.8963 29.4456 24.8488 27.3152 24.8041 25.3038C24.6781 19.6433 24.573 14.9235 25.3319 8.06079L21.743 7.11032C21.7366 7.34009 21.7217 7.57651 21.698 7.81973C21.6446 8.36621 21.0254 8.61963 20.6001 8.31583L18.5218 6.83124C18.3286 6.6933 18.0651 6.71011 17.8911 6.87155L17.1721 7.53851ZM25.642 5.50687C25.5723 6.03595 25.5075 6.55225 25.4473 7.05688L21.7101 6.06714C21.6505 5.4444 21.5193 4.87967 21.3246 4.37015L25.642 5.50687ZM14.8801 7.59448C15.055 7.79132 15.2689 7.93045 15.4988 8.01184V33.6605C15.0302 33.6561 14.564 33.6455 14.1036 33.6288C14.0502 33.5795 13.9787 33.5493 13.9002 33.5493C13.8304 33.5493 13.7661 33.5732 13.7151 33.6132C12.6137 33.5646 11.552 33.4807 10.5782 33.3626C10.5925 33.3276 10.6004 33.2893 10.6004 33.2492C10.6004 33.0835 10.4661 32.9492 10.3004 32.9492C10.1347 32.9492 10.0004 33.0835 10.0004 33.2492C10.0004 33.2621 10.0012 33.2749 10.0028 33.2874C8.85471 33.1259 7.85315 32.9134 7.08661 32.6522C7.09085 29.9286 7.14397 27.5429 7.1938 25.3044C7.32007 19.6326 7.42531 14.9052 6.66151 8.0206L10.2532 7.0694C10.2589 7.31219 10.2742 7.5625 10.2993 7.82047C10.3528 8.36694 10.9719 8.62036 11.3972 8.31656L13.4756 6.83197C13.6687 6.69403 13.9322 6.71085 14.1062 6.87228L14.8484 7.56076L14.8493 7.55984L14.8801 7.59448ZM10.2915 6.02481C10.3529 5.41879 10.4826 4.86813 10.673 4.37024L6.3559 5.50687C6.42374 6.02194 6.48694 6.5249 6.54576 7.01678L10.2915 6.02481ZM13.2973 5.81384L12.7373 5.18384C12.3651 4.76511 12.1719 4.2229 12.1889 3.67194C12.0946 3.79639 12.0065 3.92743 11.9252 4.06528C11.4709 4.83466 11.204 5.85165 11.2574 7.1875L12.8943 6.01825C13.0203 5.92825 13.1563 5.86023 13.2973 5.81384ZM25.8035 25.2346C25.6643 18.9785 25.5523 13.9451 26.606 5.84711C26.8824 6.03482 27.0927 6.31259 27.1952 6.64102L30.3494 16.7425C30.6317 17.6465 30.6757 18.6081 30.4773 19.5342L28.5599 28.4818L25.8592 27.8817C25.8421 26.9692 25.8225 26.0904 25.8035 25.2346ZM5.39206 5.84827C5.11647 6.03598 4.90689 6.31326 4.80455 6.64102L1.65038 16.7425C1.36809 17.6465 1.32404 18.6081 1.52248 19.5342L1.71149 20.4163C1.76305 20.3745 1.82877 20.3494 1.90034 20.3494C2.06602 20.3494 2.20035 20.4837 2.20035 20.6494C2.20035 20.8151 2.06602 20.9494 1.90034 20.9494C1.87383 20.9494 1.8481 20.946 1.82361 20.9395L1.95537 21.5544C2.09477 21.5802 2.20035 21.7024 2.20035 21.8493C2.20035 21.9514 2.14932 22.0416 2.0714 22.0958L2.87592 25.8503C2.93088 25.7883 3.01109 25.7493 3.10042 25.7493C3.2661 25.7493 3.40042 25.8836 3.40042 26.0493C3.40042 26.215 3.2661 26.3493 3.10042 26.3493C3.0565 26.3493 3.0148 26.3398 2.9772 26.3229L3.11145 26.9494C3.27202 26.9552 3.40042 27.0872 3.40042 27.2492C3.40042 27.3672 3.33235 27.4692 3.23335 27.5182L3.43983 28.4818L6.13866 27.8821C6.15581 26.9695 6.17535 26.0908 6.1944 25.2349L6.19646 25.1422C6.33478 18.9287 6.44753 13.8628 5.39206 5.84827ZM1.90034 18.5495C2.06602 18.5495 2.20035 18.4152 2.20035 18.2495C2.20035 18.0838 2.06602 17.9495 1.90034 17.9495C1.73465 17.9495 1.60034 18.0838 1.60034 18.2495C1.60034 18.4152 1.73465 18.5495 1.90034 18.5495ZM2.20035 19.4492C2.20035 19.6149 2.06602 19.7492 1.90034 19.7492C1.73465 19.7492 1.60034 19.6149 1.60034 19.4492C1.60034 19.2835 1.73465 19.1492 1.90034 19.1492C2.06602 19.1492 2.20035 19.2835 2.20035 19.4492ZM3.10042 19.1493C3.2661 19.1493 3.40042 19.015 3.40042 18.8493C3.40042 18.6836 3.2661 18.5493 3.10042 18.5493C2.93472 18.5493 2.80042 18.6836 2.80042 18.8493C2.80042 19.015 2.93472 19.1493 3.10042 19.1493ZM4.60037 19.4492C4.60037 19.6149 4.46605 19.7492 4.30037 19.7492C4.13467 19.7492 4.00037 19.6149 4.00037 19.4492C4.00037 19.2835 4.13467 19.1492 4.30037 19.1492C4.46605 19.1492 4.60037 19.2835 4.60037 19.4492ZM3.10042 20.3493C3.2661 20.3493 3.40042 20.215 3.40042 20.0493C3.40042 19.8836 3.2661 19.7493 3.10042 19.7493C2.93472 19.7493 2.80042 19.8836 2.80042 20.0493C2.80042 20.215 2.93472 20.3493 3.10042 20.3493ZM3.40042 21.2492C3.40042 21.4149 3.2661 21.5492 3.10042 21.5492C2.93472 21.5492 2.80042 21.4149 2.80042 21.2492C2.80042 21.0835 2.93472 20.9492 3.10042 20.9492C3.2661 20.9492 3.40042 21.0835 3.40042 21.2492ZM4.30037 20.9494C4.46605 20.9494 4.60037 20.8151 4.60037 20.6494C4.60037 20.4837 4.46605 20.3494 4.30037 20.3494C4.13467 20.3494 4.00037 20.4837 4.00037 20.6494C4.00037 20.8151 4.13467 20.9494 4.30037 20.9494ZM4.60037 21.8493C4.60037 22.015 4.46605 22.1493 4.30037 22.1493C4.13467 22.1493 4.00037 22.015 4.00037 21.8493C4.00037 21.6836 4.13467 21.5493 4.30037 21.5493C4.46605 21.5493 4.60037 21.6836 4.60037 21.8493ZM3.10042 22.7492C3.2661 22.7492 3.40042 22.6149 3.40042 22.4492C3.40042 22.2835 3.2661 22.1492 3.10042 22.1492C2.93472 22.1492 2.80042 22.2835 2.80042 22.4492C2.80042 22.6149 2.93472 22.7492 3.10042 22.7492ZM4.60037 23.0493C4.60037 23.215 4.46605 23.3493 4.30037 23.3493C4.13467 23.3493 4.00037 23.215 4.00037 23.0493C4.00037 22.8836 4.13467 22.7493 4.30037 22.7493C4.46605 22.7493 4.60037 22.8836 4.60037 23.0493ZM3.10042 23.9494C3.2661 23.9494 3.40042 23.8151 3.40042 23.6494C3.40042 23.4837 3.2661 23.3494 3.10042 23.3494C2.93472 23.3494 2.80042 23.4837 2.80042 23.6494C2.80042 23.8151 2.93472 23.9494 3.10042 23.9494ZM3.40042 24.8493C3.40042 25.015 3.2661 25.1493 3.10042 25.1493C2.93472 25.1493 2.80042 25.015 2.80042 24.8493C2.80042 24.6836 2.93472 24.5493 3.10042 24.5493C3.2661 24.5493 3.40042 24.6836 3.40042 24.8493ZM4.30037 24.5492C4.46605 24.5492 4.60037 24.4149 4.60037 24.2492C4.60037 24.0835 4.46605 23.9492 4.30037 23.9492C4.13467 23.9492 4.00037 24.0835 4.00037 24.2492C4.00037 24.4149 4.13467 24.5492 4.30037 24.5492ZM4.60037 25.4492C4.60037 25.6149 4.46605 25.7492 4.30037 25.7492C4.13467 25.7492 4.00037 25.6149 4.00037 25.4492C4.00037 25.2835 4.13467 25.1492 4.30037 25.1492C4.46605 25.1492 4.60037 25.2835 4.60037 25.4492ZM4.60037 26.6494C4.60037 26.8151 4.46605 26.9494 4.30037 26.9494C4.13467 26.9494 4.00037 26.8151 4.00037 26.6494C4.00037 26.4837 4.13467 26.3494 4.30037 26.3494C4.46605 26.3494 4.60037 26.4837 4.60037 26.6494ZM4.30037 28.1493C4.46605 28.1493 4.60037 28.015 4.60037 27.8493C4.60037 27.6836 4.46605 27.5493 4.30037 27.5493C4.13467 27.5493 4.00037 27.6836 4.00037 27.8493C4.00037 28.015 4.13467 28.1493 4.30037 28.1493ZM5.80032 20.0493C5.80032 20.215 5.666 20.3493 5.50032 20.3493C5.33463 20.3493 5.20032 20.215 5.20032 20.0493C5.20032 19.8836 5.33463 19.7493 5.50032 19.7493C5.666 19.7493 5.80032 19.8836 5.80032 20.0493ZM5.50032 21.5492C5.666 21.5492 5.80032 21.4149 5.80032 21.2492C5.80032 21.0835 5.666 20.9492 5.50032 20.9492C5.33463 20.9492 5.20032 21.0835 5.20032 21.2492C5.20032 21.4149 5.33463 21.5492 5.50032 21.5492ZM5.80032 22.4492C5.80032 22.6149 5.666 22.7492 5.50032 22.7492C5.33463 22.7492 5.20032 22.6149 5.20032 22.4492C5.20032 22.2835 5.33463 22.1492 5.50032 22.1492C5.666 22.1492 5.80032 22.2835 5.80032 22.4492ZM5.80032 23.6494C5.80032 23.8151 5.666 23.9494 5.50032 23.9494C5.33463 23.9494 5.20032 23.8151 5.20032 23.6494C5.20032 23.4837 5.33463 23.3494 5.50032 23.3494C5.666 23.3494 5.80032 23.4837 5.80032 23.6494ZM5.50032 25.1493C5.666 25.1493 5.80032 25.015 5.80032 24.8493C5.80032 24.6836 5.666 24.5493 5.50032 24.5493C5.33463 24.5493 5.20032 24.6836 5.20032 24.8493C5.20032 25.015 5.33463 25.1493 5.50032 25.1493ZM5.80032 26.0493C5.80032 26.215 5.666 26.3493 5.50032 26.3493C5.33463 26.3493 5.20032 26.215 5.20032 26.0493C5.20032 25.8836 5.33463 25.7493 5.50032 25.7493C5.666 25.7493 5.80032 25.8836 5.80032 26.0493ZM5.80032 27.2492C5.80032 27.4149 5.666 27.5492 5.50032 27.5492C5.33463 27.5492 5.20032 27.4149 5.20032 27.2492C5.20032 27.0835 5.33463 26.9492 5.50032 26.9492C5.666 26.9492 5.80032 27.0835 5.80032 27.2492ZM5.80032 29.6494C5.80032 29.8151 5.666 29.9494 5.50032 29.9494C5.33463 29.9494 5.20032 29.8151 5.20032 29.6494C5.20032 29.4837 5.33463 29.3494 5.50032 29.3494C5.666 29.3494 5.80032 29.4837 5.80032 29.6494ZM7.90021 23.9494C8.06592 23.9494 8.20023 23.8151 8.20023 23.6494C8.20023 23.4837 8.06592 23.3494 7.90021 23.3494C7.73453 23.3494 7.60022 23.4837 7.60022 23.6494C7.60022 23.8151 7.73453 23.9494 7.90021 23.9494ZM8.20023 24.8493C8.20023 25.015 8.06592 25.1493 7.90021 25.1493C7.73453 25.1493 7.60022 25.015 7.60022 24.8493C7.60022 24.6836 7.73453 24.5493 7.90021 24.5493C8.06592 24.5493 8.20023 24.6836 8.20023 24.8493ZM9.1004 24.5492C9.26611 24.5492 9.40042 24.4149 9.40042 24.2492C9.40042 24.0835 9.26611 23.9492 9.1004 23.9492C8.93472 23.9492 8.80042 24.0835 8.80042 24.2492C8.80042 24.4149 8.93472 24.5492 9.1004 24.5492ZM9.40042 25.4492C9.40042 25.6149 9.26611 25.7492 9.1004 25.7492C8.93472 25.7492 8.80042 25.6149 8.80042 25.4492C8.80042 25.2835 8.93472 25.1492 9.1004 25.1492C9.26611 25.1492 9.40042 25.2835 9.40042 25.4492ZM7.90021 26.3493C8.06592 26.3493 8.20023 26.215 8.20023 26.0493C8.20023 25.8836 8.06592 25.7493 7.90021 25.7493C7.73453 25.7493 7.60022 25.8836 7.60022 26.0493C7.60022 26.215 7.73453 26.3493 7.90021 26.3493ZM9.40042 26.6494C9.40042 26.8151 9.26611 26.9494 9.1004 26.9494C8.93472 26.9494 8.80042 26.8151 8.80042 26.6494C8.80042 26.4837 8.93472 26.3494 9.1004 26.3494C9.26611 26.3494 9.40042 26.4837 9.40042 26.6494ZM7.90021 27.5492C8.06592 27.5492 8.20023 27.4149 8.20023 27.2492C8.20023 27.0835 8.06592 26.9492 7.90021 26.9492C7.73453 26.9492 7.60022 27.0835 7.60022 27.2492C7.60022 27.4149 7.73453 27.5492 7.90021 27.5492ZM8.20023 28.4492C8.20023 28.6149 8.06592 28.7492 7.90021 28.7492C7.73453 28.7492 7.60022 28.6149 7.60022 28.4492C7.60022 28.2835 7.73453 28.1492 7.90021 28.1492C8.06592 28.1492 8.20023 28.2835 8.20023 28.4492ZM9.1004 28.1493C9.26611 28.1493 9.40042 28.015 9.40042 27.8493C9.40042 27.6836 9.26611 27.5493 9.1004 27.5493C8.93472 27.5493 8.80042 27.6836 8.80042 27.8493C8.80042 28.015 8.93472 28.1493 9.1004 28.1493ZM9.40042 29.0493C9.40042 29.215 9.26611 29.3493 9.1004 29.3493C8.93472 29.3493 8.80042 29.215 8.80042 29.0493C8.80042 28.8836 8.93472 28.7493 9.1004 28.7493C9.26611 28.7493 9.40042 28.8836 9.40042 29.0493ZM7.90021 29.9494C8.06592 29.9494 8.20023 29.8151 8.20023 29.6494C8.20023 29.4837 8.06592 29.3494 7.90021 29.3494C7.73453 29.3494 7.60022 29.4837 7.60022 29.6494C7.60022 29.8151 7.73453 29.9494 7.90021 29.9494ZM9.40042 30.2492C9.40042 30.4149 9.26611 30.5492 9.1004 30.5492C8.93472 30.5492 8.80042 30.4149 8.80042 30.2492C8.80042 30.0835 8.93472 29.9492 9.1004 29.9492C9.26611 29.9492 9.40042 30.0835 9.40042 30.2492ZM7.90021 31.1493C8.06592 31.1493 8.20023 31.015 8.20023 30.8493C8.20023 30.6836 8.06592 30.5493 7.90021 30.5493C7.73453 30.5493 7.60022 30.6836 7.60022 30.8493C7.60022 31.015 7.73453 31.1493 7.90021 31.1493ZM8.20023 32.0493C8.20023 32.215 8.06592 32.3493 7.90021 32.3493C7.73453 32.3493 7.60022 32.215 7.60022 32.0493C7.60022 31.8836 7.73453 31.7493 7.90021 31.7493C8.06592 31.7493 8.20023 31.8836 8.20023 32.0493ZM9.1004 31.7492C9.26611 31.7492 9.40042 31.6149 9.40042 31.4492C9.40042 31.2835 9.26611 31.1492 9.1004 31.1492C8.93472 31.1492 8.80042 31.2835 8.80042 31.4492C8.80042 31.6149 8.93472 31.7492 9.1004 31.7492ZM9.40042 32.6494C9.40042 32.8151 9.26611 32.9494 9.1004 32.9494C8.93472 32.9494 8.80042 32.8151 8.80042 32.6494C8.80042 32.4837 8.93472 32.3494 9.1004 32.3494C9.26611 32.3494 9.40042 32.4837 9.40042 32.6494ZM10.3004 25.1493C10.4661 25.1493 10.6004 25.015 10.6004 24.8493C10.6004 24.6836 10.4661 24.5493 10.3004 24.5493C10.1347 24.5493 10.0004 24.6836 10.0004 24.8493C10.0004 25.015 10.1347 25.1493 10.3004 25.1493ZM11.8006 25.4492C11.8006 25.6149 11.6663 25.7492 11.5005 25.7492C11.3349 25.7492 11.2006 25.6149 11.2006 25.4492C11.2006 25.2835 11.3349 25.1492 11.5005 25.1492C11.6663 25.1492 11.8006 25.2835 11.8006 25.4492ZM10.3004 26.3493C10.4661 26.3493 10.6004 26.215 10.6004 26.0493C10.6004 25.8836 10.4661 25.7493 10.3004 25.7493C10.1347 25.7493 10.0004 25.8836 10.0004 26.0493C10.0004 26.215 10.1347 26.3493 10.3004 26.3493ZM11.8006 26.6494C11.8006 26.8151 11.6663 26.9494 11.5005 26.9494C11.3349 26.9494 11.2006 26.8151 11.2006 26.6494C11.2006 26.4837 11.3349 26.3494 11.5005 26.3494C11.6663 26.3494 11.8006 26.4837 11.8006 26.6494ZM10.3004 27.5492C10.4661 27.5492 10.6004 27.4149 10.6004 27.2492C10.6004 27.0835 10.4661 26.9492 10.3004 26.9492C10.1347 26.9492 10.0004 27.0835 10.0004 27.2492C10.0004 27.4149 10.1347 27.5492 10.3004 27.5492ZM10.6004 28.4492C10.6004 28.6149 10.4661 28.7492 10.3004 28.7492C10.1347 28.7492 10.0004 28.6149 10.0004 28.4492C10.0004 28.2835 10.1347 28.1492 10.3004 28.1492C10.4661 28.1492 10.6004 28.2835 10.6004 28.4492ZM11.5005 28.1493C11.6663 28.1493 11.8006 28.015 11.8006 27.8493C11.8006 27.6836 11.6663 27.5493 11.5005 27.5493C11.3349 27.5493 11.2006 27.6836 11.2006 27.8493C11.2006 28.015 11.3349 28.1493 11.5005 28.1493ZM11.8006 29.0493C11.8006 29.215 11.6663 29.3493 11.5005 29.3493C11.3349 29.3493 11.2006 29.215 11.2006 29.0493C11.2006 28.8836 11.3349 28.7493 11.5005 28.7493C11.6663 28.7493 11.8006 28.8836 11.8006 29.0493ZM10.3004 29.9494C10.4661 29.9494 10.6004 29.8151 10.6004 29.6494C10.6004 29.4837 10.4661 29.3494 10.3004 29.3494C10.1347 29.3494 10.0004 29.4837 10.0004 29.6494C10.0004 29.8151 10.1347 29.9494 10.3004 29.9494ZM11.8006 30.2492C11.8006 30.4149 11.6663 30.5492 11.5005 30.5492C11.3349 30.5492 11.2006 30.4149 11.2006 30.2492C11.2006 30.0835 11.3349 29.9492 11.5005 29.9492C11.6663 29.9492 11.8006 30.0835 11.8006 30.2492ZM10.3004 31.1493C10.4661 31.1493 10.6004 31.015 10.6004 30.8493C10.6004 30.6836 10.4661 30.5493 10.3004 30.5493C10.1347 30.5493 10.0004 30.6836 10.0004 30.8493C10.0004 31.015 10.1347 31.1493 10.3004 31.1493ZM10.6004 32.0493C10.6004 32.215 10.4661 32.3493 10.3004 32.3493C10.1347 32.3493 10.0004 32.215 10.0004 32.0493C10.0004 31.8836 10.1347 31.7493 10.3004 31.7493C10.4661 31.7493 10.6004 31.8836 10.6004 32.0493ZM11.5005 31.7492C11.6663 31.7492 11.8006 31.6149 11.8006 31.4492C11.8006 31.2835 11.6663 31.1492 11.5005 31.1492C11.3349 31.1492 11.2006 31.2835 11.2006 31.4492C11.2006 31.6149 11.3349 31.7492 11.5005 31.7492ZM11.8006 32.6494C11.8006 32.8151 11.6663 32.9494 11.5005 32.9494C11.3349 32.9494 11.2006 32.8151 11.2006 32.6494C11.2006 32.4837 11.3349 32.3494 11.5005 32.3494C11.6663 32.3494 11.8006 32.4837 11.8006 32.6494ZM12.7005 26.3493C12.8662 26.3493 13.0005 26.215 13.0005 26.0493C13.0005 25.8836 12.8662 25.7493 12.7005 25.7493C12.5348 25.7493 12.4005 25.8836 12.4005 26.0493C12.4005 26.215 12.5348 26.3493 12.7005 26.3493ZM14.2002 26.6494C14.2002 26.8151 14.0659 26.9494 13.9002 26.9494C13.7345 26.9494 13.6002 26.8151 13.6002 26.6494C13.6002 26.4837 13.7345 26.3494 13.9002 26.3494C14.0659 26.3494 14.2002 26.4837 14.2002 26.6494ZM12.7005 27.5492C12.8662 27.5492 13.0005 27.4149 13.0005 27.2492C13.0005 27.0835 12.8662 26.9492 12.7005 26.9492C12.5348 26.9492 12.4005 27.0835 12.4005 27.2492C12.4005 27.4149 12.5348 27.5492 12.7005 27.5492ZM13.0005 28.4492C13.0005 28.6149 12.8662 28.7492 12.7005 28.7492C12.5348 28.7492 12.4005 28.6149 12.4005 28.4492C12.4005 28.2835 12.5348 28.1492 12.7005 28.1492C12.8662 28.1492 13.0005 28.2835 13.0005 28.4492ZM13.9002 28.1493C14.0659 28.1493 14.2002 28.015 14.2002 27.8493C14.2002 27.6836 14.0659 27.5493 13.9002 27.5493C13.7345 27.5493 13.6002 27.6836 13.6002 27.8493C13.6002 28.015 13.7345 28.1493 13.9002 28.1493ZM14.2002 29.0493C14.2002 29.215 14.0659 29.3493 13.9002 29.3493C13.7345 29.3493 13.6002 29.215 13.6002 29.0493C13.6002 28.8836 13.7345 28.7493 13.9002 28.7493C14.0659 28.7493 14.2002 28.8836 14.2002 29.0493ZM12.7005 29.9494C12.8662 29.9494 13.0005 29.8151 13.0005 29.6494C13.0005 29.4837 12.8662 29.3494 12.7005 29.3494C12.5348 29.3494 12.4005 29.4837 12.4005 29.6494C12.4005 29.8151 12.5348 29.9494 12.7005 29.9494ZM14.2002 30.2492C14.2002 30.4149 14.0659 30.5492 13.9002 30.5492C13.7345 30.5492 13.6002 30.4149 13.6002 30.2492C13.6002 30.0835 13.7345 29.9492 13.9002 29.9492C14.0659 29.9492 14.2002 30.0835 14.2002 30.2492ZM12.7005 31.1493C12.8662 31.1493 13.0005 31.015 13.0005 30.8493C13.0005 30.6836 12.8662 30.5493 12.7005 30.5493C12.5348 30.5493 12.4005 30.6836 12.4005 30.8493C12.4005 31.015 12.5348 31.1493 12.7005 31.1493ZM13.0005 32.0493C13.0005 32.215 12.8662 32.3493 12.7005 32.3493C12.5348 32.3493 12.4005 32.215 12.4005 32.0493C12.4005 31.8836 12.5348 31.7493 12.7005 31.7493C12.8662 31.7493 13.0005 31.8836 13.0005 32.0493ZM13.9002 31.7492C14.0659 31.7492 14.2002 31.6149 14.2002 31.4492C14.2002 31.2835 14.0659 31.1492 13.9002 31.1492C13.7345 31.1492 13.6002 31.2835 13.6002 31.4492C13.6002 31.6149 13.7345 31.7492 13.9002 31.7492ZM14.2002 32.6494C14.2002 32.8151 14.0659 32.9494 13.9002 32.9494C13.7345 32.9494 13.6002 32.8151 13.6002 32.6494C13.6002 32.4837 13.7345 32.3494 13.9002 32.3494C14.0659 32.3494 14.2002 32.4837 14.2002 32.6494ZM12.7005 33.5492C12.8662 33.5492 13.0005 33.4149 13.0005 33.2492C13.0005 33.0835 12.8662 32.9492 12.7005 32.9492C12.5348 32.9492 12.4005 33.0835 12.4005 33.2492C12.4005 33.4149 12.5348 33.5492 12.7005 33.5492ZM15.1004 27.5492C15.2661 27.5492 15.4004 27.4149 15.4004 27.2492C15.4004 27.0835 15.2661 26.9492 15.1004 26.9492C14.9347 26.9492 14.8004 27.0835 14.8004 27.2492C14.8004 27.4149 14.9347 27.5492 15.1004 27.5492ZM15.4004 28.4492C15.4004 28.6149 15.2661 28.7492 15.1004 28.7492C14.9347 28.7492 14.8004 28.6149 14.8004 28.4492C14.8004 28.2835 14.9347 28.1492 15.1004 28.1492C15.2661 28.1492 15.4004 28.2835 15.4004 28.4492ZM15.1004 29.9494C15.2661 29.9494 15.4004 29.8151 15.4004 29.6494C15.4004 29.4837 15.2661 29.3494 15.1004 29.3494C14.9347 29.3494 14.8004 29.4837 14.8004 29.6494C14.8004 29.8151 14.9347 29.9494 15.1004 29.9494ZM15.1004 31.1493C15.2661 31.1493 15.4004 31.015 15.4004 30.8493C15.4004 30.6836 15.2661 30.5493 15.1004 30.5493C14.9347 30.5493 14.8004 30.6836 14.8004 30.8493C14.8004 31.015 14.9347 31.1493 15.1004 31.1493ZM15.4004 32.0493C15.4004 32.215 15.2661 32.3493 15.1004 32.3493C14.9347 32.3493 14.8004 32.215 14.8004 32.0493C14.8004 31.8836 14.9347 31.7493 15.1004 31.7493C15.2661 31.7493 15.4004 31.8836 15.4004 32.0493ZM15.1004 33.5492C15.2661 33.5492 15.4004 33.4149 15.4004 33.2492C15.4004 33.0835 15.2661 32.9492 15.1004 32.9492C14.9347 32.9492 14.8004 33.0835 14.8004 33.2492C14.8004 33.4149 14.9347 33.5492 15.1004 33.5492ZM17.5005 28.7492C17.6663 28.7492 17.8006 28.6149 17.8006 28.4492C17.8006 28.2835 17.6663 28.1492 17.5005 28.1492C17.3349 28.1492 17.2006 28.2835 17.2006 28.4492C17.2006 28.6149 17.3349 28.7492 17.5005 28.7492ZM19.0005 29.0493C19.0005 29.215 18.8662 29.3493 18.7005 29.3493C18.5348 29.3493 18.4005 29.215 18.4005 29.0493C18.4005 28.8836 18.5348 28.7493 18.7005 28.7493C18.8662 28.7493 19.0005 28.8836 19.0005 29.0493ZM17.5005 29.9494C17.6663 29.9494 17.8006 29.8151 17.8006 29.6494C17.8006 29.4837 17.6663 29.3494 17.5005 29.3494C17.3349 29.3494 17.2006 29.4837 17.2006 29.6494C17.2006 29.8151 17.3349 29.9494 17.5005 29.9494ZM19.0005 30.2492C19.0005 30.4149 18.8662 30.5492 18.7005 30.5492C18.5348 30.5492 18.4005 30.4149 18.4005 30.2492C18.4005 30.0835 18.5348 29.9492 18.7005 29.9492C18.8662 29.9492 19.0005 30.0835 19.0005 30.2492ZM17.5005 31.1493C17.6663 31.1493 17.8006 31.015 17.8006 30.8493C17.8006 30.6836 17.6663 30.5493 17.5005 30.5493C17.3349 30.5493 17.2006 30.6836 17.2006 30.8493C17.2006 31.015 17.3349 31.1493 17.5005 31.1493ZM17.8006 32.0493C17.8006 32.215 17.6663 32.3493 17.5005 32.3493C17.3349 32.3493 17.2006 32.215 17.2006 32.0493C17.2006 31.8836 17.3349 31.7493 17.5005 31.7493C17.6663 31.7493 17.8006 31.8836 17.8006 32.0493ZM18.7005 31.7492C18.8662 31.7492 19.0005 31.6149 19.0005 31.4492C19.0005 31.2835 18.8662 31.1492 18.7005 31.1492C18.5348 31.1492 18.4005 31.2835 18.4005 31.4492C18.4005 31.6149 18.5348 31.7492 18.7005 31.7492ZM19.0005 32.6494C19.0005 32.8151 18.8662 32.9494 18.7005 32.9494C18.5348 32.9494 18.4005 32.8151 18.4005 32.6494C18.4005 32.4837 18.5348 32.3494 18.7005 32.3494C18.8662 32.3494 19.0005 32.4837 19.0005 32.6494ZM17.5005 33.5492C17.6663 33.5492 17.8006 33.4149 17.8006 33.2492C17.8006 33.0835 17.6663 32.9492 17.5005 32.9492C17.3349 32.9492 17.2006 33.0835 17.2006 33.2492C17.2006 33.4149 17.3349 33.5492 17.5005 33.5492ZM19.9005 29.9494C20.0662 29.9494 20.2005 29.8151 20.2005 29.6494C20.2005 29.4837 20.0662 29.3494 19.9005 29.3494C19.7348 29.3494 19.6005 29.4837 19.6005 29.6494C19.6005 29.8151 19.7348 29.9494 19.9005 29.9494ZM21.4004 30.2492C21.4004 30.4149 21.2661 30.5492 21.1004 30.5492C20.9347 30.5492 20.8004 30.4149 20.8004 30.2492C20.8004 30.0835 20.9347 29.9492 21.1004 29.9492C21.2661 29.9492 21.4004 30.0835 21.4004 30.2492ZM19.9005 31.1493C20.0662 31.1493 20.2005 31.015 20.2005 30.8493C20.2005 30.6836 20.0662 30.5493 19.9005 30.5493C19.7348 30.5493 19.6005 30.6836 19.6005 30.8493C19.6005 31.015 19.7348 31.1493 19.9005 31.1493ZM20.2005 32.0493C20.2005 32.215 20.0662 32.3493 19.9005 32.3493C19.7348 32.3493 19.6005 32.215 19.6005 32.0493C19.6005 31.8836 19.7348 31.7493 19.9005 31.7493C20.0662 31.7493 20.2005 31.8836 20.2005 32.0493ZM21.1004 31.7492C21.2661 31.7492 21.4004 31.6149 21.4004 31.4492C21.4004 31.2835 21.2661 31.1492 21.1004 31.1492C20.9347 31.1492 20.8004 31.2835 20.8004 31.4492C20.8004 31.6149 20.9347 31.7492 21.1004 31.7492ZM21.4004 32.6494C21.4004 32.8151 21.2661 32.9494 21.1004 32.9494C20.9347 32.9494 20.8004 32.8151 20.8004 32.6494C20.8004 32.4837 20.9347 32.3494 21.1004 32.3494C21.2661 32.3494 21.4004 32.4837 21.4004 32.6494ZM22.3004 31.1493C22.4661 31.1493 22.6004 31.015 22.6004 30.8493C22.6004 30.6836 22.4661 30.5493 22.3004 30.5493C22.1347 30.5493 22.0004 30.6836 22.0004 30.8493C22.0004 31.015 22.1347 31.1493 22.3004 31.1493ZM22.6004 32.0493C22.6004 32.215 22.4661 32.3493 22.3004 32.3493C22.1347 32.3493 22.0004 32.215 22.0004 32.0493C22.0004 31.8836 22.1347 31.7493 22.3004 31.7493C22.4661 31.7493 22.6004 31.8836 22.6004 32.0493ZM23.5005 31.7492C23.6663 31.7492 23.8006 31.6149 23.8006 31.4492C23.8006 31.2835 23.6663 31.1492 23.5005 31.1492C23.3349 31.1492 23.2006 31.2835 23.2006 31.4492C23.2006 31.6149 23.3349 31.7492 23.5005 31.7492ZM23.8006 32.6494C23.8006 32.8151 23.6663 32.9494 23.5005 32.9494C23.3349 32.9494 23.2006 32.8151 23.2006 32.6494C23.2006 32.4837 23.3349 32.3494 23.5005 32.3494C23.6663 32.3494 23.8006 32.4837 23.8006 32.6494ZM14.133 2.89789C14.133 3.0636 13.9987 3.19791 13.8329 3.19791C13.6673 3.19791 13.533 3.0636 13.533 2.89789C13.533 2.73221 13.6673 2.5979 13.8329 2.5979C13.9987 2.5979 14.133 2.73221 14.133 2.89789ZM14.133 4.09784C14.133 4.26355 13.9987 4.39786 13.8329 4.39786C13.6673 4.39786 13.533 4.26355 13.533 4.09784C13.533 3.93216 13.6673 3.79785 13.8329 3.79785C13.9987 3.79785 14.133 3.93216 14.133 4.09784ZM16.5329 2.89789C16.5329 3.0636 16.3986 3.19791 16.2328 3.19791C16.0672 3.19791 15.9329 3.0636 15.9329 2.89789C15.9329 2.73221 16.0672 2.5979 16.2328 2.5979C16.3986 2.5979 16.5329 2.73221 16.5329 2.89789ZM15.0329 3.798C15.1986 3.798 15.3329 3.6637 15.3329 3.49799C15.3329 3.33231 15.1986 3.198 15.0329 3.198C14.8672 3.198 14.7329 3.33231 14.7329 3.49799C14.7329 3.6637 14.8672 3.798 15.0329 3.798ZM15.3329 4.69794C15.3329 4.86365 15.1986 4.99796 15.0329 4.99796C14.8672 4.99796 14.7329 4.86365 14.7329 4.69794C14.7329 4.53226 14.8672 4.39795 15.0329 4.39795C15.1986 4.39795 15.3329 4.53226 15.3329 4.69794ZM16.2328 4.39786C16.3986 4.39786 16.5329 4.26355 16.5329 4.09784C16.5329 3.93216 16.3986 3.79785 16.2328 3.79785C16.0672 3.79785 15.9329 3.93216 15.9329 4.09784C15.9329 4.26355 16.0672 4.39786 16.2328 4.39786ZM16.5329 5.29779C16.5329 5.4635 16.3986 5.59781 16.2328 5.59781C16.0672 5.59781 15.9329 5.4635 15.9329 5.29779C15.9329 5.13211 16.0672 4.9978 16.2328 4.9978C16.3986 4.9978 16.5329 5.13211 16.5329 5.29779ZM16.5329 6.49823C16.5329 6.66394 16.3986 6.79825 16.2328 6.79825C16.0672 6.79825 15.9329 6.66394 15.9329 6.49823C15.9329 6.33255 16.0672 6.19824 16.2328 6.19824C16.3986 6.19824 16.5329 6.33255 16.5329 6.49823ZM17.433 3.798C17.5988 3.798 17.7331 3.6637 17.7331 3.49799C17.7331 3.33231 17.5988 3.198 17.433 3.198C17.2674 3.198 17.1331 3.33231 17.1331 3.49799C17.1331 3.6637 17.2674 3.798 17.433 3.798ZM17.7331 4.69794C17.7331 4.86365 17.5988 4.99796 17.433 4.99796C17.2674 4.99796 17.1331 4.86365 17.1331 4.69794C17.1331 4.53226 17.2674 4.39795 17.433 4.39795C17.5988 4.39795 17.7331 4.53226 17.7331 4.69794Z"
        fill="#B89B64" fill-rule="evenodd" />
</svg>
