<svg fill="none" height="23" viewBox="0 0 40 23" width="40" xmlns="http://www.w3.org/2000/svg">
    <path clip-rule="evenodd"
        d="M20.8101 2.4694C20.8475 2.44361 20.8853 2.41902 20.9232 2.3957C21.2712 2.18162 21.6931 2.03816 22.1178 2.09574C22.5739 2.1576 22.9491 2.44053 23.1717 2.90809C23.2781 3.13142 23.3166 3.369 23.265 3.6063C23.2149 3.83647 23.0907 4.01728 22.9585 4.15373C22.7096 4.41084 22.3484 4.59257 22.0797 4.7223C21.7113 4.90019 21.2754 5.10994 20.8833 5.29686C21.1166 5.49983 21.3495 5.70359 21.5813 5.90644L21.5938 5.91734C21.7388 6.04426 21.8833 6.17103 22.0274 6.29747C25.8219 9.62666 29.3509 12.723 35.6448 12.31C37.582 12.1829 39.6038 13.4063 39.7723 15.5026C39.8298 16.2187 39.8691 16.9501 39.8803 17.6705L39.8839 17.6695V19.1446C39.8839 19.7738 39.4853 20.3416 38.8883 20.5505C32.1891 22.8945 26.8053 22.7084 22.4776 21.9775C20.8082 21.6955 19.2896 21.331 17.9297 21.0045C17.5366 20.9102 17.1568 20.819 16.7903 20.7339C15.1349 20.3495 13.7747 20.0952 12.6194 20.1724C12.3284 20.1919 11.9626 20.3121 11.7595 20.5807C11.595 20.7982 11.382 21.0747 11.1246 21.2945C10.8622 21.5184 10.5128 21.7189 10.0749 21.7189H1.85261C1.14529 21.7189 0.507383 21.2178 0.403196 20.4836C0.236547 19.309 0.149885 17.8558 0.136907 16.3058L0.134809 16.1556C0.0244502 13.2694 0.43759 9.40547 1.22957 6.92286C1.47758 6.14546 2.29433 5.80372 3.00865 5.99372C5.46983 6.64842 8.7453 7.15647 11.3907 7.15647C12.1673 7.15647 12.9325 6.76478 13.7488 6.12211C14.2981 5.68968 14.821 5.18666 15.3614 4.66685C15.6341 4.40452 15.9113 4.13783 16.1989 3.87358C16.8444 3.28035 17.7278 3.15492 18.491 3.44453L18.3934 3.2866C18.2367 3.03273 18.03 2.68522 17.9584 2.33457C17.9204 2.14845 17.9129 1.92921 17.9945 1.70823C18.0786 1.48042 18.2389 1.30085 18.4487 1.16978C18.8879 0.895366 19.3563 0.858653 19.7741 1.05186C20.1631 1.23179 20.4416 1.57963 20.6199 1.94731C20.6977 2.10789 20.762 2.28392 20.8101 2.4694ZM20.7202 4.26655C20.7772 4.12516 20.8205 3.97892 20.8512 3.83039C21.0107 3.59309 21.2205 3.38682 21.4471 3.24748C21.6752 3.10716 21.8634 3.07041 21.9834 3.08668C22.072 3.0987 22.1763 3.14369 22.2689 3.33802C22.2767 3.35453 22.2814 3.3672 22.2841 3.37651C22.2866 3.38514 22.2874 3.39091 22.2876 3.39421C22.2859 3.39912 22.2767 3.4203 22.2401 3.45808C22.1327 3.56901 21.9322 3.68302 21.6449 3.82176C21.3586 3.96 21.0333 4.11668 20.7202 4.26655ZM19.8961 3.47502C19.8621 3.53511 19.8302 3.59654 19.8005 3.65913C19.6123 3.35664 19.4162 3.03962 19.2444 2.7613C19.0768 2.48979 18.9691 2.28584 18.9382 2.13453C18.9308 2.09849 18.9304 2.07652 18.9312 2.06483C18.9316 2.05983 18.9322 2.05668 18.9325 2.05516C18.9353 2.05125 18.9422 2.04365 18.9564 2.03297C18.9624 2.02845 18.9697 2.02342 18.9786 2.01786C19.1611 1.90382 19.2732 1.92198 19.3544 1.95951C19.4643 2.01036 19.6032 2.14253 19.72 2.38359C19.8742 2.70146 19.9399 3.10307 19.8961 3.47502ZM16.8756 4.60984C17.324 4.1977 18.0097 4.18745 18.51 4.5959C18.8282 4.85563 19.1446 5.12184 19.4604 5.39231L18.7445 6.24812C18.7343 6.24772 18.7241 6.24751 18.7138 6.24751C18.2965 6.24751 17.9583 6.5858 17.9583 7.00309C17.9583 7.42039 18.2965 7.75868 18.7138 7.75868C19.1311 7.75868 19.4694 7.42039 19.4694 7.00309C19.4694 6.98286 19.4686 6.96278 19.4671 6.94294L20.2165 6.0471C20.4273 6.23133 20.6387 6.41694 20.8502 6.60279L20.8521 6.60441L20.8536 6.60572C20.9743 6.71171 21.0951 6.81785 21.2162 6.92402C21.3024 6.99968 21.3888 7.07533 21.4754 7.15098L20.9416 7.83689C20.9169 7.83445 20.8918 7.8332 20.8664 7.8332C20.4491 7.8332 20.1108 8.17149 20.1108 8.58879C20.1108 9.00608 20.4491 9.34437 20.8664 9.34437C21.283 9.34437 21.6209 9.00718 21.622 8.59083L22.232 7.8069C22.8134 8.30549 23.4043 8.79743 24.0118 9.27015L21.9092 11.8718C21.628 12.2197 21.1923 12.4291 20.7116 12.4594C18.8946 12.574 17.1821 13.0249 15.8629 13.9266C15.7848 13.9446 15.7184 13.993 15.6768 14.0587C15.4297 14.241 15.1977 14.4403 14.983 14.6573C14.9296 14.5743 14.8365 14.5193 14.7304 14.5193C14.5647 14.5193 14.4304 14.6536 14.4304 14.8193C14.4304 14.9376 14.4989 15.0399 14.5983 15.0887C14.2726 15.495 14 15.9539 13.7906 16.4694C13.7388 16.3794 13.6417 16.3189 13.5305 16.3189C13.3648 16.3189 13.2305 16.4532 13.2305 16.6188C13.2305 16.6233 13.2306 16.6277 13.2308 16.6322C12.2548 16.451 11.2487 16.2853 10.2024 16.1459C10.2204 16.1074 10.2305 16.0644 10.2305 16.019C10.2305 15.8533 10.0962 15.719 9.93049 15.719C9.7648 15.719 9.63049 15.8533 9.63049 16.019C9.63049 16.0376 9.6322 16.0558 9.63544 16.0735C9.03689 16.0003 8.42496 15.9361 7.79782 15.8828C7.74818 15.7856 7.64709 15.719 7.53047 15.719C7.43094 15.719 7.34273 15.7675 7.28816 15.8421C6.61674 15.792 5.92781 15.7547 5.21922 15.7324C5.19116 15.7237 5.16136 15.719 5.13045 15.719C5.10582 15.719 5.08188 15.722 5.05897 15.7276C4.71313 15.7178 4.36259 15.7116 4.00714 15.7093C4.13568 15.6754 4.2305 15.5584 4.2305 15.4191C4.2305 15.2535 4.09617 15.1192 3.93049 15.1192C3.7648 15.1192 3.63049 15.2535 3.63049 15.4191C3.63049 15.5573 3.72386 15.6736 3.85093 15.7085C2.97309 15.7055 2.0652 15.7259 1.12361 15.7737C1.08397 14.045 1.22785 12.0088 1.51788 10.1751C3.51302 10.7709 5.9028 11.0096 8.45178 11.2027C9.13698 11.2546 9.81146 11.0196 10.3177 10.5581L14.0929 7.11653C14.1856 7.04863 14.2771 6.97889 14.3674 6.90782C14.9545 6.44557 15.5407 5.88221 16.1025 5.3423L16.1031 5.34175C16.3668 5.08833 16.625 4.84007 16.8756 4.60984ZM8.52731 10.2055C5.91569 10.0077 3.58742 9.76756 1.69325 9.18333C1.83372 8.46958 1.99758 7.80571 2.18226 7.22679C2.24534 7.02906 2.47674 6.887 2.75159 6.96012C5.27981 7.63264 8.64268 8.15647 11.3907 8.15647C11.4168 8.15647 11.4428 8.15617 11.4688 8.15556L9.64398 9.81913C9.33969 10.0965 8.93571 10.2365 8.52731 10.2055ZM17.2829 17.4777C17.5377 17.5347 17.7913 17.5917 18.0438 17.6485L18.0578 17.6516C18.0648 17.6532 18.0717 17.6547 18.0786 17.6563C18.1321 17.5738 18.2249 17.5193 18.3305 17.5193C18.4828 17.5193 18.6085 17.6327 18.6279 17.7796C19.19 17.9056 19.7481 18.0296 20.3041 18.1489C20.7465 18.2438 21.1882 18.3358 21.6305 18.4237C21.6305 18.4222 21.6305 18.4207 21.6305 18.4191C21.6305 18.2535 21.7648 18.1192 21.9305 18.1192C22.0962 18.1192 22.2305 18.2535 22.2305 18.4191C22.2305 18.4605 22.2221 18.4999 22.207 18.5358C22.3814 18.5689 22.5561 18.6013 22.731 18.6329L23.1111 18.1187C22.9543 18.1088 22.8303 17.9785 22.8303 17.8193C22.8303 17.6536 22.9646 17.5193 23.1303 17.5193C23.2586 17.5193 23.368 17.5998 23.4109 17.713L24.5659 16.1505C25.147 15.3644 26.123 15.0034 27.0667 15.1629C29.3446 15.5481 31.4359 15.6583 32.7802 15.3277C33.4535 15.1622 33.8464 14.9086 34.0293 14.6201C34.1906 14.3657 34.2563 13.9729 34.0153 13.3329C30.2846 13.1918 27.3806 11.7425 24.8109 9.87229L22.687 12.5004C22.2088 13.0921 21.4996 13.4117 20.7745 13.4574C18.7904 13.5825 17.1041 14.1159 15.9544 15.1201C16.1089 15.1323 16.2305 15.2615 16.2305 15.4191C16.2305 15.5848 16.0962 15.7192 15.9305 15.7192C15.7686 15.7192 15.6366 15.5909 15.6307 15.4304C15.2288 15.8539 14.9103 16.3483 14.6889 16.9173C14.6938 16.9183 14.6987 16.9194 14.7037 16.9204C14.7125 16.9196 14.7214 16.9192 14.7304 16.9192C14.7821 16.9192 14.8307 16.9322 14.8731 16.9552C15.5544 17.0961 16.2231 17.2419 16.8829 17.3885C16.8499 17.3403 16.8306 17.282 16.8306 17.2192C16.8306 17.0535 16.9649 16.9192 17.1306 16.9192C17.2962 16.9192 17.4306 17.0535 17.4306 17.2192C17.4306 17.3293 17.3713 17.4255 17.2829 17.4777ZM34.8739 15.1556C35.2025 14.6372 35.2516 14.0191 35.0671 13.3379C35.2789 13.3321 35.4932 13.3221 35.7103 13.3079C37.2705 13.2055 38.6632 14.1853 38.7755 15.5827C38.8388 16.3702 38.8789 17.171 38.8832 17.9494C32.7946 19.6079 28.1825 19.5075 23.8359 18.8204L25.3701 16.7449C25.7151 16.2781 26.3075 16.0488 26.9 16.1489C29.1994 16.5377 31.4635 16.6813 33.019 16.2988C33.7957 16.1078 34.4888 15.763 34.8739 15.1556ZM1.24275 18.9338C1.1907 18.2643 1.15758 17.5367 1.1433 16.774C1.18558 16.7718 1.22778 16.7697 1.26991 16.7676C1.32161 16.858 1.41893 16.9189 1.53047 16.9189C1.65134 16.9189 1.75551 16.8474 1.80302 16.7444C2.43187 16.7203 3.04506 16.7085 3.64395 16.708C3.68191 16.8301 3.79584 16.9189 3.93049 16.9189C4.06409 16.9189 4.17727 16.8316 4.21612 16.7109C4.84953 16.7178 5.46689 16.7372 6.06985 16.7675C6.12152 16.8579 6.2189 16.9189 6.33052 16.9189C6.4302 16.9189 6.51854 16.8702 6.57309 16.7954C7.64503 16.8607 8.67169 16.9599 9.66255 17.0841C9.64206 17.1247 9.63049 17.1706 9.63049 17.2192C9.63049 17.3849 9.7648 17.5192 9.93049 17.5192C10.0962 17.5192 10.2305 17.3849 10.2305 17.2192C10.2305 17.1981 10.2283 17.1775 10.2242 17.1577C10.8783 17.2469 11.5172 17.3466 12.1438 17.454C12.195 17.4948 12.2599 17.5192 12.3305 17.5192C12.3644 17.5192 12.3969 17.5136 12.4272 17.5033C12.7129 17.5536 12.9961 17.6055 13.2771 17.6586C13.2476 17.7051 13.2305 17.7602 13.2305 17.8193C13.2305 17.985 13.3648 18.1193 13.5305 18.1193C13.6961 18.1193 13.8305 17.985 13.8305 17.8193C13.8305 17.8005 13.8287 17.7822 13.8255 17.7644C14.8507 17.9661 15.848 18.1829 16.8311 18.402C16.8307 18.4076 16.8306 18.4134 16.8306 18.4191C16.8306 18.5849 16.9649 18.7192 17.1306 18.7192C17.2566 18.7192 17.3645 18.6414 17.4089 18.5312C17.5443 18.5616 17.6794 18.5919 17.8144 18.6222L17.8196 18.6234C17.9704 18.6573 18.121 18.6911 18.2714 18.7248C18.134 18.7523 18.0305 18.8736 18.0305 19.019C18.0305 19.1847 18.1648 19.319 18.3305 19.319C18.4962 19.319 18.6305 19.1847 18.6305 19.019C18.6305 18.9204 18.5829 18.8328 18.5094 18.7781C19.0389 18.8966 19.5665 19.0134 20.0944 19.1267C20.2303 19.1558 20.3661 19.1846 20.5019 19.2132C20.5569 19.278 20.6389 19.319 20.7305 19.319C20.778 19.319 20.8228 19.308 20.8627 19.2884C21.135 19.3446 21.4075 19.3995 21.6806 19.4528C21.649 19.5003 21.6305 19.5574 21.6305 19.6188C21.6305 19.7846 21.7648 19.9189 21.9305 19.9189C22.0962 19.9189 22.2305 19.7846 22.2305 19.6188C22.2305 19.5975 22.2283 19.5766 22.224 19.5565C22.8755 19.678 23.5311 19.7893 24.1946 19.8865C24.2353 19.9072 24.2814 19.9189 24.3303 19.9189C24.3489 19.9189 24.3671 19.9172 24.3847 19.9139C24.6863 19.9568 24.9895 19.9966 25.2948 20.0332C25.2544 20.0842 25.2303 20.1488 25.2303 20.2189C25.2303 20.3847 25.3647 20.519 25.5303 20.519C25.696 20.519 25.8304 20.3847 25.8304 20.2189C25.8304 20.173 25.82 20.1294 25.8015 20.0904C26.4018 20.1542 27.0108 20.2045 27.6311 20.2385C27.6412 20.3951 27.7714 20.519 27.9305 20.519C28.0802 20.519 28.2043 20.4093 28.2268 20.2659C28.8188 20.2879 29.4215 20.2947 30.0373 20.2838C30.067 20.4183 30.1869 20.519 30.3303 20.519C30.4792 20.519 30.6028 20.4104 30.6263 20.2681C31.217 20.2471 31.8201 20.2097 32.4375 20.1539C32.4329 20.1748 32.4304 20.1966 32.4304 20.2189C32.4304 20.3847 32.5647 20.519 32.7304 20.519C32.8961 20.519 33.0304 20.3847 33.0304 20.2189C33.0304 20.1759 33.0213 20.1349 33.005 20.0979C33.9757 19.9938 34.9821 19.8441 36.0312 19.6416C36.0429 19.7967 36.1723 19.9189 36.3304 19.9189C36.4961 19.9189 36.6304 19.7846 36.6304 19.6188C36.6304 19.5858 36.6251 19.554 36.6152 19.5243C36.9219 19.4603 37.2324 19.3918 37.5466 19.3186C37.583 19.3167 37.6176 19.3083 37.6494 19.2945C38.0544 19.1991 38.4658 19.096 38.8839 18.9848V19.1446C38.8839 19.2134 38.8693 19.2799 38.8427 19.3406C38.808 19.3266 38.7701 19.3189 38.7304 19.3189C38.5647 19.3189 38.4304 19.4532 38.4304 19.6188C38.4304 19.6295 38.431 19.6401 38.4321 19.6504C38.1524 19.7472 37.8752 19.8393 37.6004 19.9271C37.5779 19.9218 37.5545 19.919 37.5305 19.919C37.4412 19.919 37.3611 19.9579 37.3061 20.0198C36.2456 20.3486 35.2208 20.6121 34.2305 20.8193C34.2305 20.6536 34.0962 20.5193 33.9305 20.5193C33.7648 20.5193 33.6305 20.6536 33.6305 20.8193C33.6305 20.8601 33.6386 20.8989 33.6534 20.9344C32.6045 21.1336 31.5951 21.27 30.6234 21.3547C30.5939 21.22 30.4739 21.1192 30.3303 21.1192C30.1709 21.1192 30.0405 21.2435 30.0309 21.4004C29.4141 21.4418 28.813 21.4626 28.2269 21.4658C28.2293 21.4506 28.2305 21.435 28.2305 21.4191C28.2305 21.2535 28.0962 21.1192 27.9305 21.1192C27.7648 21.1192 27.6305 21.2535 27.6305 21.4191C27.6305 21.4341 27.6316 21.4488 27.6337 21.4632C27.0148 21.4543 26.4132 21.4263 25.8282 21.383C25.8104 21.2344 25.6838 21.1192 25.5303 21.1192C25.3941 21.1192 25.2792 21.2099 25.2425 21.3342C24.336 21.2502 23.4706 21.131 22.6442 20.9914C22.4997 20.9671 22.3564 20.942 22.2144 20.9165C22.2248 20.886 22.2305 20.8533 22.2305 20.8193C22.2305 20.6536 22.0962 20.5193 21.9305 20.5193C21.7688 20.5193 21.637 20.6472 21.6307 20.8073C20.5618 20.6 19.5625 20.3669 18.6205 20.1417C18.5864 20.0135 18.4695 19.919 18.3305 19.919C18.2418 19.919 18.1621 19.9574 18.1072 20.0186C17.8466 19.9561 17.5905 19.8947 17.3384 19.8352C17.3952 19.7806 17.4306 19.7039 17.4306 19.6188C17.4306 19.4532 17.2962 19.3189 17.1306 19.3189C16.9649 19.3189 16.8306 19.4532 16.8306 19.6188C16.8306 19.6547 16.8369 19.6891 16.8484 19.721C15.7547 19.4698 14.729 19.2637 13.7777 19.1889C13.811 19.1406 13.8305 19.0821 13.8305 19.019C13.8305 18.8533 13.6961 18.719 13.5305 18.719C13.3648 18.719 13.2305 18.8533 13.2305 19.019C13.2305 19.0707 13.2435 19.1192 13.2665 19.1617C13.0233 19.1553 12.7853 19.1591 12.5527 19.1747C12.1198 19.2036 11.422 19.3804 10.9721 19.9641C10.911 20.0021 10.8646 20.0615 10.8433 20.1318C10.7192 20.2898 10.6003 20.4273 10.4754 20.5339C10.3738 20.6206 10.2853 20.672 10.2049 20.6978C10.1582 20.5927 10.0529 20.5193 9.93049 20.5193C9.8 20.5193 9.68898 20.6026 9.64769 20.7189H7.81326C7.77197 20.6026 7.66095 20.5193 7.53047 20.5193C7.39998 20.5193 7.28895 20.6026 7.24766 20.7189H5.41324C5.37195 20.6026 5.26092 20.5193 5.13045 20.5193C4.99995 20.5193 4.88893 20.6026 4.84764 20.7189H3.0131C2.97181 20.6026 2.86078 20.5193 2.7303 20.5193C2.59981 20.5193 2.48879 20.6026 2.4475 20.7189H1.85261C1.67879 20.7189 1.53449 20.6336 1.45521 20.5094C1.47925 20.5157 1.50448 20.519 1.53047 20.519C1.69616 20.519 1.83047 20.3847 1.83047 20.2189C1.83047 20.0533 1.69616 19.919 1.53047 19.919C1.46084 19.919 1.39676 19.9427 1.34586 19.9825C1.31367 19.718 1.28517 19.4397 1.26037 19.1497C1.30894 19.2499 1.41164 19.319 1.53047 19.319C1.69616 19.319 1.83047 19.1847 1.83047 19.019C1.83047 18.8533 1.69616 18.719 1.53047 18.719C1.39439 18.719 1.27948 18.8096 1.24275 18.9338ZM3.0303 13.6188C3.0303 13.7846 2.89599 13.9189 2.7303 13.9189C2.56461 13.9189 2.4303 13.7846 2.4303 13.6188C2.4303 13.4532 2.56461 13.3189 2.7303 13.3189C2.89599 13.3189 3.0303 13.4532 3.0303 13.6188ZM1.83047 14.2189C1.83047 14.3847 1.69616 14.519 1.53047 14.519C1.36478 14.519 1.23047 14.3847 1.23047 14.2189C1.23047 14.0533 1.36478 13.919 1.53047 13.919C1.69616 13.919 1.83047 14.0533 1.83047 14.2189ZM2.7303 15.1193C2.89599 15.1193 3.0303 14.985 3.0303 14.8193C3.0303 14.6536 2.89599 14.5193 2.7303 14.5193C2.56461 14.5193 2.4303 14.6536 2.4303 14.8193C2.4303 14.985 2.56461 15.1193 2.7303 15.1193ZM1.83047 15.4191C1.83047 15.5848 1.69616 15.7192 1.53047 15.7192C1.36478 15.7192 1.23047 15.5848 1.23047 15.4191C1.23047 15.2535 1.36478 15.1192 1.53047 15.1192C1.69616 15.1192 1.83047 15.2535 1.83047 15.4191ZM1.53047 18.1193C1.69616 18.1193 1.83047 17.985 1.83047 17.8193C1.83047 17.6536 1.69616 17.5193 1.53047 17.5193C1.36478 17.5193 1.23047 17.6536 1.23047 17.8193C1.23047 17.985 1.36478 18.1193 1.53047 18.1193ZM3.0303 17.2192C3.0303 17.3849 2.89599 17.5192 2.7303 17.5192C2.56461 17.5192 2.4303 17.3849 2.4303 17.2192C2.4303 17.0535 2.56461 16.9192 2.7303 16.9192C2.89599 16.9192 3.0303 17.0535 3.0303 17.2192ZM2.7303 18.7192C2.89599 18.7192 3.0303 18.5849 3.0303 18.4191C3.0303 18.2535 2.89599 18.1192 2.7303 18.1192C2.56461 18.1192 2.4303 18.2535 2.4303 18.4191C2.4303 18.5849 2.56461 18.7192 2.7303 18.7192ZM2.7303 19.9189C2.89599 19.9189 3.0303 19.7846 3.0303 19.6188C3.0303 19.4532 2.89599 19.3189 2.7303 19.3189C2.56461 19.3189 2.4303 19.4532 2.4303 19.6188C2.4303 19.7846 2.56461 19.9189 2.7303 19.9189ZM4.2305 14.2189C4.2305 14.3847 4.09617 14.519 3.93049 14.519C3.7648 14.519 3.63049 14.3847 3.63049 14.2189C3.63049 14.0533 3.7648 13.919 3.93049 13.919C4.09617 13.919 4.2305 14.0533 4.2305 14.2189ZM5.13045 13.9189C5.29613 13.9189 5.43045 13.7846 5.43045 13.6188C5.43045 13.4532 5.29613 13.3189 5.13045 13.3189C4.96475 13.3189 4.83044 13.4532 4.83044 13.6188C4.83044 13.7846 4.96475 13.9189 5.13045 13.9189ZM5.43045 14.8193C5.43045 14.985 5.29613 15.1193 5.13045 15.1193C4.96475 15.1193 4.83044 14.985 4.83044 14.8193C4.83044 14.6536 4.96475 14.5193 5.13045 14.5193C5.29613 14.5193 5.43045 14.6536 5.43045 14.8193ZM4.2305 17.8193C4.2305 17.985 4.09617 18.1193 3.93049 18.1193C3.7648 18.1193 3.63049 17.985 3.63049 17.8193C3.63049 17.6536 3.7648 17.5193 3.93049 17.5193C4.09617 17.5193 4.2305 17.6536 4.2305 17.8193ZM5.13045 17.5192C5.29613 17.5192 5.43045 17.3849 5.43045 17.2192C5.43045 17.0535 5.29613 16.9192 5.13045 16.9192C4.96475 16.9192 4.83044 17.0535 4.83044 17.2192C4.83044 17.3849 4.96475 17.5192 5.13045 17.5192ZM5.43045 18.4191C5.43045 18.5849 5.29613 18.7192 5.13045 18.7192C4.96475 18.7192 4.83044 18.5849 4.83044 18.4191C4.83044 18.2535 4.96475 18.1192 5.13045 18.1192C5.29613 18.1192 5.43045 18.2535 5.43045 18.4191ZM3.93049 19.319C4.09617 19.319 4.2305 19.1847 4.2305 19.019C4.2305 18.8533 4.09617 18.719 3.93049 18.719C3.7648 18.719 3.63049 18.8533 3.63049 19.019C3.63049 19.1847 3.7648 19.319 3.93049 19.319ZM5.43045 19.6188C5.43045 19.7846 5.29613 19.9189 5.13045 19.9189C4.96475 19.9189 4.83044 19.7846 4.83044 19.6188C4.83044 19.4532 4.96475 19.3189 5.13045 19.3189C5.29613 19.3189 5.43045 19.4532 5.43045 19.6188ZM6.33052 14.519C6.4962 14.519 6.63052 14.3847 6.63052 14.2189C6.63052 14.0533 6.4962 13.919 6.33052 13.919C6.16482 13.919 6.03052 14.0533 6.03052 14.2189C6.03052 14.3847 6.16482 14.519 6.33052 14.519ZM7.83047 13.6188C7.83047 13.7846 7.69615 13.9189 7.53047 13.9189C7.36477 13.9189 7.23047 13.7846 7.23047 13.6188C7.23047 13.4532 7.36477 13.3189 7.53047 13.3189C7.69615 13.3189 7.83047 13.4532 7.83047 13.6188ZM7.53047 15.1193C7.69615 15.1193 7.83047 14.985 7.83047 14.8193C7.83047 14.6536 7.69615 14.5193 7.53047 14.5193C7.36477 14.5193 7.23047 14.6536 7.23047 14.8193C7.23047 14.985 7.36477 15.1193 7.53047 15.1193ZM6.63052 15.4191C6.63052 15.5848 6.4962 15.7192 6.33052 15.7192C6.16482 15.7192 6.03052 15.5848 6.03052 15.4191C6.03052 15.2535 6.16482 15.1192 6.33052 15.1192C6.4962 15.1192 6.63052 15.2535 6.63052 15.4191ZM6.33052 18.1193C6.4962 18.1193 6.63052 17.985 6.63052 17.8193C6.63052 17.6536 6.4962 17.5193 6.33052 17.5193C6.16482 17.5193 6.03052 17.6536 6.03052 17.8193C6.03052 17.985 6.16482 18.1193 6.33052 18.1193ZM7.83047 17.2192C7.83047 17.3849 7.69615 17.5192 7.53047 17.5192C7.36477 17.5192 7.23047 17.3849 7.23047 17.2192C7.23047 17.0535 7.36477 16.9192 7.53047 16.9192C7.69615 16.9192 7.83047 17.0535 7.83047 17.2192ZM7.53047 18.7192C7.69615 18.7192 7.83047 18.5849 7.83047 18.4191C7.83047 18.2535 7.69615 18.1192 7.53047 18.1192C7.36477 18.1192 7.23047 18.2535 7.23047 18.4191C7.23047 18.5849 7.36477 18.7192 7.53047 18.7192ZM6.63052 19.019C6.63052 19.1847 6.4962 19.319 6.33052 19.319C6.16482 19.319 6.03052 19.1847 6.03052 19.019C6.03052 18.8533 6.16482 18.719 6.33052 18.719C6.4962 18.719 6.63052 18.8533 6.63052 19.019ZM7.53047 19.9189C7.69615 19.9189 7.83047 19.7846 7.83047 19.6188C7.83047 19.4532 7.69615 19.3189 7.53047 19.3189C7.36477 19.3189 7.23047 19.4532 7.23047 19.6188C7.23047 19.7846 7.36477 19.9189 7.53047 19.9189ZM9.03042 14.2189C9.03042 14.3847 8.8961 14.519 8.73042 14.519C8.56473 14.519 8.43042 14.3847 8.43042 14.2189C8.43042 14.0533 8.56473 13.919 8.73042 13.919C8.8961 13.919 9.03042 14.0533 9.03042 14.2189ZM9.93049 13.9189C10.0962 13.9189 10.2305 13.7846 10.2305 13.6188C10.2305 13.4532 10.0962 13.3189 9.93049 13.3189C9.7648 13.3189 9.63049 13.4532 9.63049 13.6188C9.63049 13.7846 9.7648 13.9189 9.93049 13.9189ZM10.2305 14.8193C10.2305 14.985 10.0962 15.1193 9.93049 15.1193C9.7648 15.1193 9.63049 14.985 9.63049 14.8193C9.63049 14.6536 9.7648 14.5193 9.93049 14.5193C10.0962 14.5193 10.2305 14.6536 10.2305 14.8193ZM8.73042 15.7192C8.8961 15.7192 9.03042 15.5848 9.03042 15.4191C9.03042 15.2535 8.8961 15.1192 8.73042 15.1192C8.56473 15.1192 8.43042 15.2535 8.43042 15.4191C8.43042 15.5848 8.56473 15.7192 8.73042 15.7192ZM9.03042 17.8193C9.03042 17.985 8.8961 18.1193 8.73042 18.1193C8.56473 18.1193 8.43042 17.985 8.43042 17.8193C8.43042 17.6536 8.56473 17.5193 8.73042 17.5193C8.8961 17.5193 9.03042 17.6536 9.03042 17.8193ZM10.2305 18.4191C10.2305 18.5849 10.0962 18.7192 9.93049 18.7192C9.7648 18.7192 9.63049 18.5849 9.63049 18.4191C9.63049 18.2535 9.7648 18.1192 9.93049 18.1192C10.0962 18.1192 10.2305 18.2535 10.2305 18.4191ZM8.73042 19.319C8.8961 19.319 9.03042 19.1847 9.03042 19.019C9.03042 18.8533 8.8961 18.719 8.73042 18.719C8.56473 18.719 8.43042 18.8533 8.43042 19.019C8.43042 19.1847 8.56473 19.319 8.73042 19.319ZM10.2305 19.6188C10.2305 19.7846 10.0962 19.9189 9.93049 19.9189C9.7648 19.9189 9.63049 19.7846 9.63049 19.6188C9.63049 19.4532 9.7648 19.3189 9.93049 19.3189C10.0962 19.3189 10.2305 19.4532 10.2305 19.6188ZM11.1304 14.519C11.2961 14.519 11.4304 14.3847 11.4304 14.2189C11.4304 14.0533 11.2961 13.919 11.1304 13.919C10.9648 13.919 10.8304 14.0533 10.8304 14.2189C10.8304 14.3847 10.9648 14.519 11.1304 14.519ZM12.6305 13.6188C12.6305 13.7846 12.4962 13.9189 12.3305 13.9189C12.1648 13.9189 12.0305 13.7846 12.0305 13.6188C12.0305 13.4532 12.1648 13.3189 12.3305 13.3189C12.4962 13.3189 12.6305 13.4532 12.6305 13.6188ZM12.3305 15.1193C12.4962 15.1193 12.6305 14.985 12.6305 14.8193C12.6305 14.6536 12.4962 14.5193 12.3305 14.5193C12.1648 14.5193 12.0305 14.6536 12.0305 14.8193C12.0305 14.985 12.1648 15.1193 12.3305 15.1193ZM11.4304 15.4191C11.4304 15.5848 11.2961 15.7192 11.1304 15.7192C10.9648 15.7192 10.8304 15.5848 10.8304 15.4191C10.8304 15.2535 10.9648 15.1192 11.1304 15.1192C11.2961 15.1192 11.4304 15.2535 11.4304 15.4191ZM12.3305 16.319C12.4962 16.319 12.6305 16.1847 12.6305 16.019C12.6305 15.8533 12.4962 15.719 12.3305 15.719C12.1648 15.719 12.0305 15.8533 12.0305 16.019C12.0305 16.1847 12.1648 16.319 12.3305 16.319ZM11.1304 18.1193C11.2961 18.1193 11.4304 17.985 11.4304 17.8193C11.4304 17.6536 11.2961 17.5193 11.1304 17.5193C10.9648 17.5193 10.8304 17.6536 10.8304 17.8193C10.8304 17.985 10.9648 18.1193 11.1304 18.1193ZM12.3305 18.7192C12.4962 18.7192 12.6305 18.5849 12.6305 18.4191C12.6305 18.2535 12.4962 18.1192 12.3305 18.1192C12.1648 18.1192 12.0305 18.2535 12.0305 18.4191C12.0305 18.5849 12.1648 18.7192 12.3305 18.7192ZM11.4304 19.019C11.4304 19.1847 11.2961 19.319 11.1304 19.319C10.9648 19.319 10.8304 19.1847 10.8304 19.019C10.8304 18.8533 10.9648 18.719 11.1304 18.719C11.2961 18.719 11.4304 18.8533 11.4304 19.019ZM13.8305 14.2189C13.8305 14.3847 13.6961 14.519 13.5305 14.519C13.3648 14.519 13.2305 14.3847 13.2305 14.2189C13.2305 14.0533 13.3648 13.919 13.5305 13.919C13.6961 13.919 13.8305 14.0533 13.8305 14.2189ZM13.8305 15.4191C13.8305 15.5848 13.6961 15.7192 13.5305 15.7192C13.3648 15.7192 13.2305 15.5848 13.2305 15.4191C13.2305 15.2535 13.3648 15.1192 13.5305 15.1192C13.6961 15.1192 13.8305 15.2535 13.8305 15.4191ZM14.7304 18.7192C14.8961 18.7192 15.0304 18.5849 15.0304 18.4191C15.0304 18.2535 14.8961 18.1192 14.7304 18.1192C14.5647 18.1192 14.4304 18.2535 14.4304 18.4191C14.4304 18.5849 14.5647 18.7192 14.7304 18.7192ZM17.1306 15.1193C17.2962 15.1193 17.4306 14.985 17.4306 14.8193C17.4306 14.6536 17.2962 14.5193 17.1306 14.5193C16.9649 14.5193 16.8306 14.6536 16.8306 14.8193C16.8306 14.985 16.9649 15.1193 17.1306 15.1193ZM17.1306 16.319C17.2962 16.319 17.4306 16.1847 17.4306 16.019C17.4306 15.8533 17.2962 15.719 17.1306 15.719C16.9649 15.719 16.8306 15.8533 16.8306 16.019C16.8306 16.1847 16.9649 16.319 17.1306 16.319ZM16.2305 16.6188C16.2305 16.7846 16.0962 16.9189 15.9305 16.9189C15.7648 16.9189 15.6305 16.7846 15.6305 16.6188C15.6305 16.4532 15.7648 16.3189 15.9305 16.3189C16.0962 16.3189 16.2305 16.4532 16.2305 16.6188ZM16.2305 19.019C16.2305 19.1847 16.0962 19.319 15.9305 19.319C15.7648 19.319 15.6305 19.1847 15.6305 19.019C15.6305 18.8533 15.7648 18.719 15.9305 18.719C16.0962 18.719 16.2305 18.8533 16.2305 19.019ZM4.2305 20.2189C4.2305 20.3847 4.09617 20.519 3.93049 20.519C3.7648 20.519 3.63049 20.3847 3.63049 20.2189C3.63049 20.0533 3.7648 19.919 3.93049 19.919C4.09617 19.919 4.2305 20.0533 4.2305 20.2189ZM6.63052 20.2189C6.63052 20.3847 6.4962 20.519 6.33052 20.519C6.16482 20.519 6.03052 20.3847 6.03052 20.2189C6.03052 20.0533 6.16482 19.919 6.33052 19.919C6.4962 19.919 6.63052 20.0533 6.63052 20.2189ZM9.03042 20.2189C9.03042 20.3847 8.8961 20.519 8.73042 20.519C8.56473 20.519 8.43042 20.3847 8.43042 20.2189C8.43042 20.0533 8.56473 19.919 8.73042 19.919C8.8961 19.919 9.03042 20.0533 9.03042 20.2189ZM18.6305 15.4191C18.6305 15.5848 18.4962 15.7192 18.3305 15.7192C18.1648 15.7192 18.0305 15.5848 18.0305 15.4191C18.0305 15.2535 18.1648 15.1192 18.3305 15.1192C18.4962 15.1192 18.6305 15.2535 18.6305 15.4191ZM19.5305 16.319C19.6961 16.319 19.8305 16.1847 19.8305 16.019C19.8305 15.8533 19.6961 15.719 19.5305 15.719C19.3648 15.719 19.2305 15.8533 19.2305 16.019C19.2305 16.1847 19.3648 16.319 19.5305 16.319ZM18.6305 16.6188C18.6305 16.7846 18.4962 16.9189 18.3305 16.9189C18.1648 16.9189 18.0305 16.7846 18.0305 16.6188C18.0305 16.4532 18.1648 16.3189 18.3305 16.3189C18.4962 16.3189 18.6305 16.4532 18.6305 16.6188ZM19.8305 17.2192C19.8305 17.3849 19.6961 17.5192 19.5305 17.5192C19.3648 17.5192 19.2305 17.3849 19.2305 17.2192C19.2305 17.0535 19.3648 16.9192 19.5305 16.9192C19.6961 16.9192 19.8305 17.0535 19.8305 17.2192ZM19.5305 19.9189C19.6961 19.9189 19.8305 19.7846 19.8305 19.6188C19.8305 19.4532 19.6961 19.3189 19.5305 19.3189C19.3648 19.3189 19.2305 19.4532 19.2305 19.6188C19.2305 19.7846 19.3648 19.9189 19.5305 19.9189ZM21.0305 16.6188C21.0305 16.7846 20.8962 16.9189 20.7305 16.9189C20.5648 16.9189 20.4305 16.7846 20.4305 16.6188C20.4305 16.4532 20.5648 16.3189 20.7305 16.3189C20.8962 16.3189 21.0305 16.4532 21.0305 16.6188ZM20.7305 18.1193C20.8962 18.1193 21.0305 17.985 21.0305 17.8193C21.0305 17.6536 20.8962 17.5193 20.7305 17.5193C20.5648 17.5193 20.4305 17.6536 20.4305 17.8193C20.4305 17.985 20.5648 18.1193 20.7305 18.1193ZM22.2305 17.2192C22.2305 17.3849 22.0962 17.5192 21.9305 17.5192C21.7648 17.5192 21.6305 17.3849 21.6305 17.2192C21.6305 17.0535 21.7648 16.9192 21.9305 16.9192C22.0962 16.9192 22.2305 17.0535 22.2305 17.2192ZM21.0305 20.2189C21.0305 20.3847 20.8962 20.519 20.7305 20.519C20.5648 20.519 20.4305 20.3847 20.4305 20.2189C20.4305 20.0533 20.5648 19.919 20.7305 19.919C20.8962 19.919 21.0305 20.0533 21.0305 20.2189ZM23.4303 20.2189C23.4303 20.3847 23.296 20.519 23.1303 20.519C22.9646 20.519 22.8303 20.3847 22.8303 20.2189C22.8303 20.0533 22.9646 19.919 23.1303 19.919C23.296 19.919 23.4303 20.0533 23.4303 20.2189ZM24.3303 21.1193C24.496 21.1193 24.6303 20.985 24.6303 20.8193C24.6303 20.6536 24.496 20.5193 24.3303 20.5193C24.1646 20.5193 24.0303 20.6536 24.0303 20.8193C24.0303 20.985 24.1646 21.1193 24.3303 21.1193ZM26.7304 21.1193C26.8961 21.1193 27.0304 20.985 27.0304 20.8193C27.0304 20.6536 26.8961 20.5193 26.7304 20.5193C26.5647 20.5193 26.4304 20.6536 26.4304 20.8193C26.4304 20.985 26.5647 21.1193 26.7304 21.1193ZM29.4304 20.8193C29.4304 20.985 29.2961 21.1193 29.1304 21.1193C28.9648 21.1193 28.8304 20.985 28.8304 20.8193C28.8304 20.6536 28.9648 20.5193 29.1304 20.5193C29.2961 20.5193 29.4304 20.6536 29.4304 20.8193ZM31.5303 21.1193C31.696 21.1193 31.8304 20.985 31.8304 20.8193C31.8304 20.6536 31.696 20.5193 31.5303 20.5193C31.3647 20.5193 31.2303 20.6536 31.2303 20.8193C31.2303 20.985 31.3647 21.1193 31.5303 21.1193ZM35.4304 20.2189C35.4304 20.3847 35.2961 20.519 35.1304 20.519C34.9647 20.519 34.8304 20.3847 34.8304 20.2189C34.8304 20.0533 34.9647 19.919 35.1304 19.919C35.2961 19.919 35.4304 20.0533 35.4304 20.2189Z"
        fill="#B89B64" fill-rule="evenodd" />
</svg>
