<?xml version="1.0" encoding="utf-8"?>
<!-- Generator: Adobe Illustrator 21.1.0, SVG Export Plug-In . SVG Version: 6.00 Build 0)  -->
<svg version="1.1" id="Layer_1" xmlns="http://www.w3.org/2000/svg" xmlns:xlink="http://www.w3.org/1999/xlink" x="0px" y="0px"
	 viewBox="0 0 24 24" style="enable-background:new 0 0 24 24;" xml:space="preserve">
<style type="text/css">
	.st0{fill:none;stroke:#000000;stroke-width:0.9306;stroke-miterlimit:10;}
</style>
<path class="st0" d="M15.3,23.2c1.1,0,2-0.9,2-2V2.8c0-1.1,0.9-2,2-2H6.7c-1.1,0-2,0.9-2,2v18.4"/>
<path class="st0" d="M19.3,0.8c1.1,0,2,0.9,2,2h-4"/>
<path class="st0" d="M4.7,23.2c-1.1,0-2-0.9-2-2h10.5c0,1.1,0.9,2,2,2H4.7z"/>
<path class="st0" d="M11,10.2l-0.1-0.1C10.7,10,7.7,8.3,7.7,6.4c0-1.1,0.9-1.9,1.9-1.9c0.6,0,1.1,0.4,1.3,0.7
	c0.3-0.3,0.8-0.7,1.3-0.7c1.1,0,1.9,0.9,1.9,1.9c0,1.9-3,3.6-3.1,3.7L11,10.2z"/>
<line class="st0" x1="6.7" y1="13.4" x2="15.3" y2="13.4"/>
<line class="st0" x1="6.7" y1="15.7" x2="15.3" y2="15.7"/>
<line class="st0" x1="6.7" y1="18.1" x2="15.3" y2="18.1"/>
</svg>
