<?xml version="1.0" encoding="utf-8"?>
<!-- Generator: Adobe Illustrator 21.1.0, SVG Export Plug-In . SVG Version: 6.00 Build 0)  -->
<svg version="1.1" id="Layer_1" xmlns="http://www.w3.org/2000/svg" xmlns:xlink="http://www.w3.org/1999/xlink" x="0px" y="0px"
	 viewBox="0 0 24 24" style="enable-background:new 0 0 24 24;" xml:space="preserve">
<style type="text/css">
	.st0{fill:none;stroke:#000000;stroke-width:0.9306;stroke-miterlimit:10;}
</style>
<path class="st0" d="M4.8,11.4c0-4,3.2-7.2,7.2-7.2s7.2,3.2,7.2,7.2v4.3H4.8V11.4z"/>
<path class="st0" d="M14.3,20.7c0,1.3-1,2.3-2.3,2.3s-2.3-1-2.3-2.3v-1.2h4.6V20.7z"/>
<path class="st0" d="M13.6,2.5v1.9c-0.5-0.1-1.1-0.2-1.6-0.2c-0.6,0-1.1,0.1-1.6,0.2V2.5c0-0.9,0.7-1.6,1.6-1.6
	C12.9,0.9,13.6,1.6,13.6,2.5z"/>
<path class="st0" d="M19.2,19.5H4.8c-1,0-1.9-0.9-1.9-1.9v0c0-1,0.9-1.9,1.9-1.9h14.4c1,0,1.9,0.9,1.9,1.9v0
	C21.1,18.7,20.3,19.5,19.2,19.5z"/>
</svg>
