<svg fill="none" height="36" viewBox="0 0 36 36" width="36" xmlns="http://www.w3.org/2000/svg">
    <path clip-rule="evenodd"
        d="M15.7762 1.94778C15.9817 1.94778 16.1482 2.11435 16.1482 2.31982C16.1482 2.52527 15.9817 2.69183 15.7762 2.69183C15.5708 2.69183 15.4042 2.52527 15.4042 2.31982C15.4042 2.11435 15.5708 1.94778 15.7762 1.94778ZM18.1261 1.51392C17.7242 1.51392 17.3163 1.54346 16.9051 1.60059C16.6674 1.2283 16.2506 0.981445 15.7762 0.981445C15.3159 0.981445 14.9099 1.21378 14.6691 1.56757C14.4537 1.41248 14.2019 1.30466 13.929 1.25943C13.9091 1.25436 13.8888 1.25137 13.8682 1.25046C13.8387 1.24661 13.8089 1.2435 13.7789 1.24112C13.7476 1.23865 13.716 1.237 13.6843 1.23621C13.669 1.23581 13.6536 1.2356 13.6382 1.2356C12.8535 1.2356 12.1883 1.74738 11.9583 2.45535C11.6706 2.31671 11.348 2.23901 11.0072 2.23901C9.79573 2.23901 8.81363 3.2211 8.81363 4.43259C8.81363 4.45895 8.8141 4.4852 8.81502 4.51132C8.60725 4.45834 8.38956 4.43018 8.1653 4.43018C6.71767 4.43018 5.54413 5.6037 5.54413 7.05133C5.54413 7.32141 5.58498 7.58194 5.66083 7.82709C5.61137 7.82077 5.56155 7.81561 5.51138 7.81168C5.43167 7.80542 5.3511 7.80225 5.26981 7.80225C3.58601 7.80225 2.22104 9.16724 2.22104 10.851C2.22104 11.6661 2.54091 12.4065 3.06197 12.9535C1.63716 13.3878 0.600586 14.7125 0.600586 16.2793C0.600586 17.798 1.5744 19.0892 2.93164 19.5626C2.07281 20.2787 1.52628 21.3568 1.52628 22.5624C1.52628 24.7185 3.27414 26.4664 5.43024 26.4664C5.67326 26.4664 5.91112 26.4442 6.14186 26.4016C5.91365 26.9287 5.78717 27.5102 5.78717 28.1211C5.78717 30.5134 7.72647 32.4527 10.1187 32.4527C11.358 32.4527 12.4756 31.9323 13.2652 31.0981C13.2826 31.1136 13.3017 31.1269 13.3219 31.1378C13.7343 33.3464 15.672 35.0181 18.0001 35.0181C20.3578 35.0181 22.3151 33.3036 22.6932 31.0533C23.4848 31.9136 24.6202 32.4527 25.8814 32.4527C27.5381 32.4527 28.9775 31.5226 29.7061 30.1562C29.7942 30.0956 29.8409 29.9944 29.8353 29.8927C30.078 29.3519 30.213 28.7523 30.213 28.1211C30.213 27.5102 30.0865 26.9288 29.8583 26.4017C30.089 26.4442 30.3268 26.4664 30.5698 26.4664C32.7259 26.4664 34.4738 24.7185 34.4738 22.5624C34.4738 21.3568 33.9272 20.2788 33.0684 19.5627C34.4257 19.0893 35.3996 17.798 35.3996 16.2793C35.3996 14.7125 34.363 13.3878 32.9382 12.9535C33.4593 12.4065 33.7791 11.6661 33.7791 10.851C33.7791 9.16724 32.4141 7.80225 30.7304 7.80225C30.5978 7.80225 30.4673 7.8107 30.3392 7.82712C30.4151 7.58194 30.4559 7.32141 30.4559 7.05133C30.4559 5.6037 29.2824 4.43018 27.8347 4.43018C27.6105 4.43018 27.3929 4.45834 27.1851 4.51129C27.1861 4.48517 27.1865 4.45892 27.1865 4.43259C27.1865 3.2211 26.2044 2.23901 24.993 2.23901C24.6522 2.23901 24.3296 2.31671 24.0419 2.45535C23.8118 1.74738 23.1467 1.2356 22.362 1.2356C21.9772 1.2356 21.6211 1.35867 21.331 1.56766C21.0901 1.21381 20.6841 0.981445 20.2238 0.981445C19.762 0.981445 19.3548 1.21536 19.1143 1.57117C18.7819 1.53333 18.452 1.51392 18.1261 1.51392ZM20.2238 3.65817C20.3882 3.65817 20.5456 3.62857 20.691 3.5744C20.9289 4.26855 21.5872 4.76752 22.362 4.76752C22.5192 4.76752 22.6715 4.74701 22.8166 4.70847C22.9523 5.7897 23.8749 6.62616 24.993 6.62616C25.08 6.62616 25.1659 6.62106 25.2504 6.61121C25.2262 6.7543 25.2136 6.90134 25.2136 7.05133C25.2136 8.49896 26.3871 9.67252 27.8347 9.67252C27.8627 9.67252 27.8905 9.67206 27.9183 9.6712C27.7658 10.0341 27.6816 10.4327 27.6816 10.851C27.6816 12.1383 28.4794 13.2393 29.6076 13.6864C28.8953 14.323 28.4469 15.2488 28.4469 16.2793C28.4469 17.271 28.8621 18.1656 29.5281 18.799C27.8777 19.2548 26.6658 20.7671 26.6658 22.5624C26.6658 23.0365 26.7504 23.4908 26.9051 23.9112C26.5769 23.8317 26.2341 23.7896 25.8814 23.7896C24.6092 23.7896 23.465 24.3381 22.6725 25.2115L22.6678 25.2142C22.6425 25.2288 22.6202 25.2465 22.601 25.2666C22.5727 25.2961 22.5512 25.3308 22.5371 25.3681C22.1068 25.8903 21.7964 26.5149 21.6481 27.1999L21.6469 27.201C20.7739 26.1609 19.4642 25.4998 18.0001 25.4998C16.5356 25.4998 15.2255 26.1613 14.3525 27.2018C13.931 25.2511 12.1955 23.7896 10.1187 23.7896C9.76601 23.7896 9.42314 23.8317 9.09488 23.9113C9.24966 23.4909 9.33418 23.0365 9.33418 22.5624C9.33418 20.7671 8.12233 19.2548 6.47202 18.799C7.13808 18.1657 7.5533 17.271 7.5533 16.2793C7.5533 15.2488 7.10489 14.323 6.39252 13.6864C7.52071 13.2393 8.31856 12.1383 8.31856 10.851C8.31856 10.4327 8.23431 10.0341 8.08188 9.6712C8.10959 9.67206 8.13739 9.67252 8.1653 9.67252C9.61292 9.67252 10.7865 8.49896 10.7865 7.05133C10.7865 6.90134 10.7739 6.7543 10.7497 6.61118C10.8341 6.62106 10.9201 6.62616 11.0072 6.62616C12.1252 6.62616 13.0479 5.7897 13.1836 4.70847C13.3286 4.74701 13.481 4.76752 13.6382 4.76752C14.413 4.76752 15.0712 4.26855 15.3091 3.57443C15.4546 3.6286 15.6119 3.65817 15.7762 3.65817C16.4572 3.65817 17.0194 3.1496 17.1037 2.49155C17.4507 2.44635 17.7921 2.42343 18.1261 2.42343C18.3777 2.42343 18.6336 2.43646 18.8929 2.46222C18.964 3.13443 19.5328 3.65817 20.2238 3.65817ZM31.4585 13.8123C31.4097 13.8242 31.3604 13.835 31.3107 13.8446C30.2205 14.118 29.4132 15.1044 29.4132 16.2793C29.4132 17.6656 30.537 18.7893 31.9232 18.7893C33.3094 18.7893 34.4332 17.6656 34.4332 16.2793C34.4332 14.8931 33.3094 13.7693 31.9232 13.7693C31.7644 13.7693 31.6091 13.7841 31.4585 13.8123ZM32.8128 10.851C32.8128 11.822 32.1481 12.6378 31.249 12.8683C31.2007 12.8778 31.1528 12.8883 31.1052 12.8998C30.9836 12.9219 30.8583 12.9334 30.7304 12.9334C29.5803 12.9334 28.6479 12.0011 28.6479 10.851C28.6479 9.70093 29.5803 8.76859 30.7304 8.76859C31.8804 8.76859 32.8128 9.70093 32.8128 10.851ZM14.4378 3.00156C14.4378 2.55994 14.0798 2.20193 13.6382 2.20193C13.1965 2.20193 12.8385 2.55994 12.8385 3.00156C12.8385 3.06689 12.8464 3.13037 12.8612 3.19116C12.9766 3.17758 13.0944 3.23212 13.1562 3.33914C13.2118 3.43542 13.208 3.54974 13.1561 3.63956C13.2901 3.741 13.4571 3.80118 13.6382 3.80118C14.0798 3.80118 14.4378 3.44318 14.4378 3.00156ZM18.0001 26.4661C16.4743 26.4661 15.1589 27.3671 14.557 28.666C14.6081 28.6914 14.6526 28.7316 14.6833 28.7847C14.7662 28.9282 14.717 29.1117 14.5735 29.1945C14.503 29.2352 14.4229 29.2441 14.3498 29.2255C14.2595 29.545 14.21 29.8816 14.2074 30.2294C14.2205 30.1422 14.2718 30.0615 14.3541 30.014C14.4976 29.9312 14.681 29.9803 14.7639 30.1238C14.8467 30.2673 14.7976 30.4508 14.6541 30.5336C14.5106 30.6165 14.3271 30.5673 14.2443 30.4238C14.2329 30.4041 14.224 30.3837 14.2175 30.3629L14.2151 30.3546C14.212 30.3436 14.2096 30.3325 14.2078 30.3213C14.2138 30.6942 14.2736 31.0541 14.3799 31.3935C14.3961 31.3784 14.4143 31.3649 14.4343 31.3534C14.5778 31.2705 14.7612 31.3197 14.8441 31.4632C14.9269 31.6067 14.8778 31.7901 14.7343 31.873C14.7188 31.8819 14.7029 31.8893 14.6867 31.8952C14.6681 31.902 14.6491 31.9068 14.6299 31.9098C14.6153 31.912 14.6007 31.9131 14.5861 31.9132C14.881 32.5208 15.3334 33.0377 15.89 33.4111L15.8981 33.4142L15.9104 33.4196C15.9164 33.4224 15.9223 33.4254 15.9281 33.4285C15.9389 33.4344 15.9494 33.441 15.9595 33.4482C15.9728 33.4578 15.9854 33.4685 15.9971 33.4803C16.5066 33.7978 17.0969 33.9977 17.7301 34.0422C17.7239 34.0359 17.7179 34.0294 17.7122 34.0225C17.7016 34.0097 17.6919 33.9958 17.6834 33.981C17.6005 33.8375 17.6497 33.654 17.7932 33.5711C17.9367 33.4883 18.1201 33.5375 18.203 33.6809C18.2738 33.8036 18.2481 33.9555 18.1495 34.0488C19.4317 33.9991 20.5506 33.3129 21.1991 32.2973C21.0575 32.3711 20.8815 32.3208 20.8009 32.1812C20.7181 32.0377 20.7672 31.8542 20.9107 31.7713C21.0542 31.6885 21.2377 31.7377 21.3205 31.8811C21.3457 31.9247 21.3587 31.9721 21.3605 32.0191C21.6367 31.4931 21.7929 30.8943 21.7929 30.2589C21.7929 28.1642 20.0948 26.4661 18.0001 26.4661ZM4.83043 12.8849C4.85201 12.8896 4.87352 12.8946 4.89496 12.8998C4.92664 12.9055 4.95856 12.9106 4.99069 12.9149C5.04272 12.9218 5.09537 12.9269 5.14854 12.93C5.18867 12.9323 5.22911 12.9334 5.26981 12.9334C5.41231 12.9334 5.55147 12.9191 5.68593 12.8918C5.69672 12.8738 5.70947 12.8568 5.72408 12.8412C5.74379 12.8202 5.76689 12.8016 5.79317 12.7865C5.88112 12.7357 5.98407 12.7345 6.06969 12.7743C6.82277 12.4607 7.3522 11.7177 7.3522 10.851C7.3522 9.94559 6.77435 9.17511 5.96732 8.88828C6.04263 9.03024 5.99252 9.20749 5.8522 9.28851C5.70871 9.37137 5.52524 9.3222 5.4424 9.17871C5.36441 9.04361 5.40341 8.87305 5.528 8.78442C5.44341 8.77396 5.35724 8.76859 5.26981 8.76859C4.11972 8.76859 3.18739 9.70093 3.18739 10.851C3.18739 11.822 3.85201 12.6378 4.75116 12.8683C4.76814 12.8716 4.78506 12.8751 4.80196 12.8787L4.83043 12.8849ZM4.07695 13.7693C4.23572 13.7693 4.39105 13.7841 4.54166 13.8123C4.56886 13.8189 4.59621 13.8252 4.62369 13.8311C4.6413 13.835 4.65895 13.8386 4.67668 13.8421C4.75156 13.9294 4.87009 13.9655 4.98001 13.9367C5.92006 14.2993 6.58694 15.2114 6.58694 16.2793C6.58694 17.6656 5.46318 18.7893 4.07695 18.7893C3.80183 18.7893 3.53706 18.7451 3.28937 18.6633C3.22546 18.5923 3.1319 18.5569 3.039 18.5653C2.39064 18.2705 1.8898 17.7079 1.67766 17.0188C1.77138 17.0946 1.90576 17.1092 2.01639 17.0453C2.15988 16.9625 2.20905 16.779 2.12619 16.6355C2.04335 16.4921 1.85988 16.4429 1.71638 16.5257C1.69542 16.5378 1.67645 16.5521 1.65964 16.5681C1.6324 16.5939 1.61075 16.6242 1.5952 16.6572C1.57658 16.5339 1.56694 16.4078 1.56694 16.2793C1.56694 16.0814 1.58984 15.8889 1.63313 15.7042C1.72336 15.7576 1.83902 15.7622 1.93631 15.706C2.0798 15.6231 2.12897 15.4397 2.04611 15.2962C1.99931 15.2151 1.92038 15.1642 1.83469 15.1501C2.24799 14.3311 3.09686 13.7693 4.07695 13.7693ZM10.1407 24.756C11.9891 24.7677 13.4839 26.2699 13.4839 28.1211C13.4839 28.5171 13.4155 28.8971 13.2899 29.25C13.2709 29.2563 13.2522 29.2646 13.2342 29.275C13.0986 29.3533 13.0473 29.5213 13.1119 29.6607C12.6141 30.6265 11.6625 31.3204 10.5389 31.4603C10.5782 31.3749 10.5768 31.2724 10.5262 31.1848C10.4434 31.0414 10.2599 30.9922 10.1164 31.075C9.97305 31.1578 9.92386 31.341 10.0064 31.4845C8.64934 31.4399 7.49556 30.5919 7.00542 29.4009C7.02335 29.3947 7.04097 29.3867 7.05801 29.3769C7.20151 29.294 7.25067 29.1106 7.16782 28.9671C7.09796 28.8461 6.95654 28.7922 6.82788 28.8279C6.77916 28.6 6.75352 28.3636 6.75352 28.1211C6.75352 28.1035 6.75365 28.086 6.75392 28.0686C6.82698 28.087 6.90703 28.0782 6.97745 28.0375C7.12094 27.9547 7.1701 27.7712 7.08725 27.6277C7.0295 27.5277 6.92284 27.4735 6.81491 27.4779C6.92357 26.9165 7.1718 26.4048 7.52202 25.9805L7.5265 25.9885C7.60934 26.132 7.79282 26.1812 7.93631 26.0983C8.0798 26.0155 8.12897 25.832 8.04611 25.6885C8.01599 25.6364 7.97255 25.5966 7.92258 25.5712C8.11105 25.4088 8.31775 25.2668 8.53917 25.1489C8.51505 25.2261 8.52205 25.3128 8.56569 25.3884C8.64853 25.5319 8.832 25.5811 8.97549 25.4982C9.11899 25.4154 9.16815 25.2319 9.0853 25.0884C9.05258 25.0317 9.00415 24.9898 8.9487 24.9649C9.15938 24.8867 9.38002 24.8291 9.60818 24.7944C9.69257 24.9334 9.87302 24.9801 10.0146 24.8984C10.0732 24.8645 10.1161 24.8138 10.1407 24.756ZM8.36755 22.6027C8.36354 22.5746 8.3636 22.5462 8.36751 22.5185C8.35019 21.3364 7.6347 20.3234 6.61499 19.8735C6.58972 19.9257 6.54906 19.9712 6.49503 20.0024C6.35153 20.0852 6.16806 20.0361 6.08522 19.8926C6.04846 19.8289 6.03769 19.7574 6.04962 19.6902C5.84993 19.6474 5.64273 19.6248 5.43024 19.6248C5.06964 19.6248 4.72421 19.6898 4.40503 19.8086C4.38541 19.8295 4.36243 19.8479 4.33633 19.863C4.28716 19.8914 4.23331 19.9043 4.1804 19.9032C3.18301 20.3728 2.49263 21.387 2.49263 22.5624C2.49263 24.1757 3.79314 25.4853 5.40298 25.4999C5.42381 25.4764 5.44872 25.4558 5.47737 25.4393C5.59171 25.3733 5.73143 25.3911 5.82539 25.4736C6.0448 25.4441 6.25652 25.3904 6.45778 25.3153C6.43817 25.2963 6.42084 25.2743 6.40651 25.2495C6.32367 25.106 6.37282 24.9225 6.51631 24.8397C6.65981 24.7569 6.84328 24.806 6.92612 24.9495C6.9478 24.9871 6.96045 25.0273 6.96472 25.0679C7.14587 24.9567 7.31404 24.8264 7.46643 24.6798C7.45915 24.6701 7.45238 24.6599 7.44618 24.6492C7.36334 24.5057 7.41249 24.3222 7.55598 24.2393C7.64868 24.1859 7.75806 24.1874 7.84622 24.2339C8.16798 23.7697 8.35941 23.2083 8.36755 22.6027ZM9.68132 6.38693C9.4254 5.8038 8.84291 5.39651 8.1653 5.39651C7.32945 5.39651 6.63834 6.01624 6.52635 6.82126C6.66728 6.75055 6.84065 6.80118 6.9205 6.93948C7.00336 7.08298 6.95419 7.26645 6.8107 7.3493C6.72475 7.39893 6.62444 7.40118 6.54001 7.36417C6.68626 8.12851 7.35832 8.70615 8.1653 8.70615C8.3195 8.70615 8.46878 8.68506 8.6104 8.6456C8.57593 8.51755 8.62991 8.37741 8.7502 8.30795C8.88338 8.23108 9.05101 8.26791 9.14064 8.38831C9.55254 8.08731 9.8201 7.60056 9.8201 7.05133C9.8201 7.00906 9.81851 6.96713 9.8154 6.92566C9.7278 6.91278 9.64671 6.86145 9.59901 6.77881C9.52171 6.6449 9.55936 6.47623 9.68132 6.38693ZM11.0072 3.20535C11.685 3.20535 12.2344 3.75482 12.2344 4.43259C12.2344 4.6951 12.152 4.93835 12.0116 5.13791C11.9384 5.11926 11.8581 5.12805 11.7876 5.16879C11.6746 5.23401 11.6201 5.36151 11.6424 5.48282C11.4571 5.59512 11.2397 5.65979 11.0072 5.65979C10.6327 5.65979 10.2973 5.49203 10.0723 5.22757C10.0708 5.22086 10.0692 5.21414 10.0673 5.20749C10.0607 5.1842 10.0511 5.16135 10.0384 5.13943C10.013 5.09543 9.97813 5.0603 9.93784 5.03513C9.83733 4.85715 9.77998 4.65155 9.77998 4.43259C9.77998 4.3649 9.78546 4.29849 9.79601 4.2338C9.80287 4.23141 9.80969 4.22879 9.81645 4.22589C9.82726 4.22125 9.83788 4.21591 9.8483 4.2099C9.99179 4.12704 10.041 3.94357 9.9581 3.80008L9.95674 3.79776C10.0725 3.60657 10.239 3.44952 10.4376 3.34528C10.4367 3.3978 10.4496 3.4512 10.4778 3.5C10.5606 3.64349 10.7441 3.69266 10.8876 3.6098C11.0293 3.52798 11.079 3.34805 11.0004 3.20538L11.0072 3.20535ZM22.9239 26.5142C23.4943 25.4667 24.6048 24.7559 25.8814 24.7559C27.74 24.7559 29.2466 26.2625 29.2466 28.1211C29.2466 28.9105 28.9749 29.6364 28.5197 30.2103C28.4613 30.2057 28.401 30.2181 28.3464 30.2496C28.2347 30.3141 28.1802 30.4395 28.2005 30.5596C28.0495 30.7033 27.885 30.8332 27.7093 30.9471C27.6233 30.8133 27.4464 30.7693 27.3071 30.8497C27.1745 30.9263 27.1224 31.0888 27.1807 31.2263C26.9697 31.3148 26.7477 31.3823 26.5173 31.4263C26.4377 31.3984 26.3467 31.4041 26.2679 31.4496C26.2584 31.455 26.2493 31.461 26.2406 31.4674C26.1226 31.4799 26.0027 31.4863 25.8814 31.4863C24.622 31.4863 23.5242 30.7945 22.9473 29.7701C23.0297 29.8031 23.1259 29.7993 23.2088 29.7514C23.3523 29.6685 23.4014 29.4851 23.3186 29.3416C23.2357 29.1981 23.0523 29.149 22.9088 29.2318C22.8391 29.272 22.7917 29.3359 22.7708 29.4074C22.6068 29.0111 22.5162 28.5767 22.5162 28.1211C22.5162 27.7408 22.5793 27.3753 22.6956 27.0343C22.7896 27.1205 22.9321 27.1401 23.0484 27.0729C23.1919 26.9901 23.241 26.8066 23.1582 26.6631C23.1072 26.5749 23.0183 26.5223 22.9239 26.5142ZM30.5698 19.6248C28.9474 19.6248 27.6322 20.94 27.6322 22.5624C27.6322 24.1848 28.9474 25.5 30.5698 25.5C32.1922 25.5 33.5074 24.1848 33.5074 22.5624C33.5074 20.94 32.1922 19.6248 30.5698 19.6248ZM26.1799 7.05133C26.1799 6.13742 26.9208 5.39651 27.8347 5.39651C28.7487 5.39651 29.4895 6.13742 29.4895 7.05133C29.4895 7.96527 28.7487 8.70615 27.8347 8.70615C26.9208 8.70615 26.1799 7.96527 26.1799 7.05133ZM24.993 3.20535C24.3152 3.20535 23.7657 3.75482 23.7657 4.43259C23.7657 5.11035 24.3152 5.65979 24.993 5.65979C25.6707 5.65979 26.2202 5.11035 26.2202 4.43259C26.2202 3.75482 25.6707 3.20535 24.993 3.20535ZM21.5624 3.00156C21.5624 2.55994 21.9204 2.20193 22.362 2.20193C22.8036 2.20193 23.1616 2.55994 23.1616 3.00156C23.1616 3.44318 22.8036 3.80118 22.362 3.80118C21.9204 3.80118 21.5624 3.44318 21.5624 3.00156ZM20.2238 1.94778C20.0184 1.94778 19.8518 2.11435 19.8518 2.31982C19.8518 2.52527 20.0184 2.69183 20.2238 2.69183C20.4293 2.69183 20.5958 2.52527 20.5958 2.31982C20.5958 2.11435 20.4293 1.94778 20.2238 1.94778ZM13.6758 3.03931C13.7586 3.1828 13.9421 3.23196 14.0856 3.14911C14.2291 3.06625 14.2783 2.88278 14.1954 2.73929C14.1126 2.59583 13.9291 2.54666 13.7856 2.62949C13.6421 2.71234 13.593 2.89581 13.6758 3.03931ZM12.007 4.34906C11.8635 4.43192 11.68 4.38275 11.5972 4.23926C11.5143 4.09576 11.5635 3.91229 11.707 3.82944C11.8505 3.74661 12.034 3.79578 12.1168 3.93924C12.1996 4.08273 12.1505 4.2662 12.007 4.34906ZM10.558 4.83936C10.6408 4.98285 10.8243 5.03201 10.9678 4.94916C11.1113 4.8663 11.1605 4.68283 11.0776 4.53934C10.9948 4.39587 10.8113 4.34671 10.6678 4.42953C10.5243 4.51239 10.4752 4.69586 10.558 4.83936ZM8.88931 6.14911C8.74582 6.23196 8.56235 6.1828 8.47951 6.03931C8.39667 5.89581 8.44582 5.71234 8.58931 5.62949C8.7328 5.54666 8.91628 5.59583 8.99911 5.73929C9.08197 5.88278 9.03281 6.06625 8.88931 6.14911ZM7.44044 6.63916C7.52328 6.78265 7.70676 6.83182 7.85025 6.74896C7.99374 6.66611 8.04291 6.48264 7.96005 6.33914C7.87721 6.19568 7.69374 6.14651 7.55025 6.22934C7.40675 6.31219 7.3576 6.49567 7.44044 6.63916ZM8.96976 7.48846C8.82626 7.57132 8.64279 7.52216 8.55995 7.37866C8.47711 7.23517 8.52626 7.0517 8.66975 6.96884C8.81325 6.88602 8.99672 6.93518 9.07956 7.07864C9.16241 7.22214 9.11325 7.40561 8.96976 7.48846ZM7.52077 7.97852C7.60361 8.12201 7.78708 8.17117 7.93057 8.08832C8.07407 8.00546 8.12323 7.82199 8.04037 7.6785C7.95753 7.53503 7.77406 7.48587 7.63057 7.5687C7.48708 7.65155 7.43793 7.83502 7.52077 7.97852ZM4.81265 9.88861C4.66916 9.97147 4.48569 9.9223 4.40285 9.77881C4.32001 9.63531 4.36916 9.45184 4.51265 9.36899C4.65614 9.28616 4.83961 9.33533 4.92245 9.47879C5.00531 9.62228 4.95615 9.80576 4.81265 9.88861ZM3.77359 10.4885C3.6301 10.5713 3.44662 10.5222 3.36378 10.3787C3.28094 10.2352 3.33009 10.0517 3.47359 9.96884C3.61708 9.88602 3.80055 9.93518 3.88339 10.0786C3.96625 10.2221 3.91708 10.4056 3.77359 10.4885ZM5.52272 10.5178C5.60556 10.6613 5.78903 10.7105 5.93253 10.6276C6.07602 10.5448 6.12518 10.3613 6.04233 10.2178C5.95949 10.0743 5.77602 10.0252 5.63252 10.108C5.48903 10.1909 5.43988 10.3743 5.52272 10.5178ZM6.01273 11.967C5.86923 12.0498 5.68576 12.0007 5.60292 11.8572C5.52008 11.7137 5.56923 11.5302 5.71272 11.4474C5.85622 11.3645 6.03969 11.4137 6.12253 11.5572C6.20538 11.7007 6.15622 11.8841 6.01273 11.967ZM4.48341 11.1179C4.56625 11.2614 4.74973 11.3106 4.89322 11.2277C5.03671 11.1449 5.08588 10.9614 5.00302 10.8179C4.92018 10.6744 4.73671 10.6253 4.59322 10.7081C4.44972 10.791 4.40057 10.9744 4.48341 11.1179ZM4.97366 12.5668C4.83017 12.6497 4.6467 12.6005 4.56386 12.457C4.48102 12.3135 4.53017 12.1301 4.67366 12.0472C4.81715 11.9644 5.00063 12.0135 5.08347 12.157C5.16632 12.3005 5.11716 12.484 4.97366 12.5668ZM3.44435 11.7178C3.52719 11.8613 3.71066 11.9104 3.85416 11.8276C3.99765 11.7447 4.04681 11.5612 3.96396 11.4178C3.88112 11.2743 3.69765 11.2251 3.55415 11.308C3.41066 11.3908 3.36151 11.5743 3.44435 11.7178ZM3.60475 14.3965C3.68759 14.54 3.87106 14.5891 4.01456 14.5063C4.15805 14.4234 4.20721 14.24 4.12436 14.0965C4.04152 13.953 3.85805 13.9038 3.71455 13.9867C3.57106 14.0695 3.52191 14.253 3.60475 14.3965ZM4.095 15.8454C3.95151 15.9283 3.76804 15.8791 3.6852 15.7356C3.60236 15.5921 3.6515 15.4086 3.795 15.3258C3.93849 15.243 4.12196 15.2921 4.2048 15.4356C4.28766 15.5791 4.23849 15.7625 4.095 15.8454ZM2.56569 14.9963C2.64853 15.1398 2.832 15.189 2.97549 15.1061C3.11899 15.0233 3.16815 14.8398 3.0853 14.6963C3.00246 14.5529 2.81898 14.5037 2.67549 14.5865C2.532 14.6694 2.48285 14.8528 2.56569 14.9963ZM3.05606 16.4453C2.91257 16.5281 2.7291 16.4789 2.64626 16.3354C2.56342 16.192 2.61256 16.0085 2.75606 15.9256C2.89955 15.8428 3.08302 15.892 3.16586 16.0354C3.24872 16.1789 3.19955 16.3624 3.05606 16.4453ZM5.29507 17.924C5.15158 18.0069 4.96811 17.9577 4.88527 17.8142C4.80243 17.6707 4.85158 17.4872 4.99507 17.4044C5.13857 17.3216 5.32204 17.3707 5.40488 17.5142C5.48773 17.6577 5.43857 17.8412 5.29507 17.924ZM3.76576 17.0747C3.8486 17.2182 4.03207 17.2674 4.17557 17.1845C4.31906 17.1017 4.36823 16.9182 4.28537 16.7747C4.20253 16.6312 4.01906 16.5821 3.87556 16.6649C3.73207 16.7477 3.68292 16.9312 3.76576 17.0747ZM4.25613 18.5239C4.11264 18.6067 3.92917 18.5576 3.84633 18.4141C3.76349 18.2706 3.81264 18.0871 3.95613 18.0042C4.09962 17.9214 4.2831 17.9706 4.36594 18.114C4.44879 18.2575 4.39963 18.441 4.25613 18.5239ZM2.72658 17.6748C2.80942 17.8183 2.99289 17.8675 3.13638 17.7846C3.27988 17.7018 3.32904 17.5183 3.24619 17.3748C3.16335 17.2313 2.97987 17.1822 2.83638 17.265C2.69289 17.3478 2.64374 17.5313 2.72658 17.6748ZM5.04628 20.4924C5.12912 20.6359 5.31259 20.6851 5.45609 20.6022C5.59958 20.5194 5.64874 20.3359 5.56589 20.1924C5.48305 20.049 5.29958 19.9998 5.15608 20.0826C5.01259 20.1655 4.96344 20.3489 5.04628 20.4924ZM4.41641 21.2023C4.27292 21.2852 4.08945 21.236 4.00661 21.0925C3.92377 20.949 3.97292 20.7656 4.11641 20.6827C4.2599 20.5999 4.44337 20.649 4.52621 20.7925C4.60907 20.936 4.55991 21.1195 4.41641 21.2023ZM3.37747 21.8022C3.23398 21.885 3.05051 21.8359 2.96767 21.6924C2.88483 21.5489 2.93398 21.3654 3.07747 21.2826C3.22096 21.1997 3.40443 21.2489 3.48727 21.3924C3.57013 21.5359 3.52097 21.7193 3.37747 21.8022ZM5.53641 21.9416C5.39291 22.0244 5.20944 21.9753 5.1266 21.8318C5.04376 21.6883 5.09291 21.5048 5.2364 21.422C5.3799 21.3391 5.56337 21.3883 5.64621 21.5318C5.72906 21.6753 5.6799 21.8587 5.53641 21.9416ZM5.20668 23.1711C5.28952 23.3146 5.47299 23.3638 5.61649 23.2809C5.75998 23.1981 5.80914 23.0146 5.72629 22.8711C5.64345 22.7277 5.45998 22.6785 5.31648 22.7613C5.17299 22.8442 5.12384 23.0276 5.20668 23.1711ZM4.49698 22.5417C4.35349 22.6245 4.17001 22.5754 4.08717 22.4319C4.00433 22.2884 4.05348 22.1049 4.19698 22.0221C4.34047 21.9392 4.52394 21.9884 4.60678 22.1319C4.68964 22.2754 4.64047 22.4588 4.49698 22.5417ZM4.16762 23.771C4.25046 23.9145 4.43393 23.9637 4.57742 23.8808C4.72092 23.7979 4.77008 23.6145 4.68723 23.471C4.60439 23.3275 4.42091 23.2784 4.27742 23.3612C4.13393 23.444 4.08478 23.6275 4.16762 23.771ZM3.45804 23.1415C3.31454 23.2244 3.13107 23.1752 3.04823 23.0317C2.96539 22.8882 3.01454 22.7048 3.15804 22.6219C3.30153 22.5391 3.485 22.5883 3.56784 22.7317C3.6507 22.8752 3.60153 23.0587 3.45804 23.1415ZM3.53824 24.4807C3.39474 24.5635 3.21127 24.5143 3.12843 24.3708C3.04559 24.2274 3.09474 24.0439 3.23824 23.961C3.38173 23.8782 3.5652 23.9274 3.64804 24.0708C3.7309 24.2143 3.68173 24.3978 3.53824 24.4807ZM8.64626 26.7278C8.7291 26.8713 8.91257 26.9204 9.05606 26.8376C9.19955 26.7547 9.24872 26.5713 9.16586 26.4278C9.08302 26.2843 8.89955 26.2351 8.75606 26.318C8.61256 26.4008 8.56342 26.5843 8.64626 26.7278ZM9.84621 28.8062C9.92905 28.9496 10.1125 28.9988 10.256 28.916C10.3995 28.8331 10.4487 28.6496 10.3658 28.5061C10.283 28.3627 10.0995 28.3135 9.95601 28.3963C9.81252 28.4792 9.76337 28.6627 9.84621 28.8062ZM15.6127 28.5947C15.4692 28.6775 15.2857 28.6284 15.2029 28.4849C15.1201 28.3414 15.1692 28.1579 15.3127 28.075C15.4562 27.9922 15.6397 28.0414 15.7225 28.1848C15.8054 28.3283 15.7562 28.5118 15.6127 28.5947ZM12.495 30.3945C12.3515 30.4773 12.1681 30.4282 12.0852 30.2847C12.0024 30.1412 12.0515 29.9577 12.195 29.8748C12.3385 29.792 12.522 29.8412 12.6048 29.9846C12.6877 30.1281 12.6385 30.3116 12.495 30.3945ZM10.9656 29.5454C11.0484 29.6889 11.2319 29.7381 11.3754 29.6552C11.5189 29.5724 11.5681 29.3889 11.4852 29.2454C11.4024 29.1019 11.2189 29.0528 11.0754 29.1356C10.9319 29.2184 10.8828 29.4019 10.9656 29.5454ZM11.456 30.9943C11.3125 31.0772 11.129 31.028 11.0462 30.8845C10.9633 30.741 11.0125 30.5576 11.156 30.4747C11.2995 30.3919 11.4829 30.441 11.5658 30.5845C11.6486 30.728 11.5995 30.9115 11.456 30.9943ZM15.2833 29.824C15.3662 29.9675 15.5497 30.0166 15.6931 29.9338C15.8366 29.8509 15.8858 29.6674 15.8029 29.524C15.7201 29.3805 15.5366 29.3313 15.3931 29.4142C15.2496 29.497 15.2005 29.6805 15.2833 29.824ZM15.7736 31.2731C15.6301 31.356 15.4466 31.3068 15.3638 31.1633C15.2809 31.0198 15.3301 30.8364 15.4736 30.7535C15.6171 30.6707 15.8006 30.7198 15.8834 30.8633C15.9662 31.0068 15.9171 31.1903 15.7736 31.2731ZM23.8385 29.0415C23.9214 29.185 24.1048 29.2342 24.2483 29.1513C24.3918 29.0685 24.441 28.885 24.3581 28.7415C24.2753 28.598 24.0918 28.5489 23.9483 28.6317C23.8048 28.7145 23.7557 28.898 23.8385 29.0415ZM23.1287 28.4123C22.9852 28.4951 22.8017 28.446 22.7189 28.3025C22.636 28.159 22.6852 27.9755 22.8287 27.8927C22.9722 27.8098 23.1557 27.859 23.2385 28.0025C23.3214 28.146 23.2722 28.3294 23.1287 28.4123ZM17.6028 32.6416C17.6856 32.7851 17.8691 32.8343 18.0126 32.7514C18.1561 32.6685 18.2053 32.4851 18.1224 32.3416C18.0396 32.1981 17.8561 32.149 17.7126 32.2318C17.5691 32.3146 17.52 32.4981 17.6028 32.6416ZM16.8932 32.0121C16.7497 32.095 16.5663 32.0458 16.4834 31.9023C16.4006 31.7589 16.4497 31.5754 16.5932 31.4925C16.7367 31.4097 16.9202 31.4589 17.003 31.6023C17.0859 31.7458 17.0367 31.9293 16.8932 32.0121ZM16.5637 33.2417C16.6466 33.3852 16.83 33.4344 16.9735 33.3515C17.117 33.2686 17.1662 33.0852 17.0833 32.9417C17.0005 32.7982 16.817 32.7491 16.6735 32.8319C16.53 32.9147 16.4809 33.0982 16.5637 33.2417ZM15.8542 32.6122C15.7107 32.6951 15.5272 32.6459 15.4444 32.5024C15.3615 32.3589 15.4107 32.1755 15.5542 32.0926C15.6976 32.0098 15.8811 32.059 15.964 32.2024C16.0468 32.3459 15.9977 32.5294 15.8542 32.6122ZM24.958 29.781C25.0409 29.9245 25.2243 29.9737 25.3678 29.8908C25.5113 29.808 25.5605 29.6245 25.4776 29.481C25.3948 29.3375 25.2113 29.2884 25.0678 29.3712C24.9243 29.454 24.8752 29.6375 24.958 29.781ZM26.4875 30.6298C26.344 30.7127 26.1605 30.6635 26.0777 30.52C25.9948 30.3765 26.044 30.1931 26.1875 30.1102C26.3309 30.0274 26.5144 30.0765 26.5973 30.22C26.6801 30.3635 26.631 30.547 26.4875 30.6298ZM25.0386 31.1201C25.1214 31.2636 25.3049 31.3128 25.4484 31.2299C25.5919 31.1471 25.6411 30.9636 25.5582 30.8201C25.4754 30.6766 25.2919 30.6275 25.1484 30.7103C25.0049 30.7932 24.9557 30.9766 25.0386 31.1201ZM24.3286 30.4907C24.1852 30.5735 24.0017 30.5244 23.9188 30.3809C23.836 30.2374 23.8851 30.0539 24.0286 29.971C24.1721 29.8882 24.3556 29.9374 24.4384 30.0808C24.5213 30.2243 24.4721 30.4078 24.3286 30.4907ZM19.7619 32.781C19.8447 32.9245 20.0282 32.9737 20.1717 32.8908C20.3152 32.808 20.3643 32.6245 20.2815 32.481C20.1986 32.3375 20.0152 32.2884 19.8717 32.3712C19.7282 32.454 19.679 32.6375 19.7619 32.781ZM19.1325 33.4907C18.989 33.5735 18.8055 33.5244 18.7227 33.3809C18.6398 33.2374 18.689 33.0539 18.8325 32.971C18.976 32.8882 19.1594 32.9374 19.2423 33.0808C19.3251 33.2243 19.276 33.4078 19.1325 33.4907ZM6.32643 23.9099C6.40927 24.0534 6.59274 24.1026 6.73624 24.0197C6.87973 23.9369 6.92889 23.7534 6.84604 23.6099C6.7632 23.4664 6.57973 23.4173 6.43623 23.5001C6.29274 23.5829 6.24359 23.7664 6.32643 23.9099ZM5.28712 24.51C5.36996 24.6535 5.55344 24.7027 5.69693 24.6198C5.84042 24.537 5.88959 24.3535 5.80673 24.21C5.72389 24.0665 5.54042 24.0174 5.39693 24.1002C5.25343 24.183 5.20428 24.3665 5.28712 24.51ZM4.24806 25.1099C4.3309 25.2534 4.51437 25.3025 4.65787 25.2197C4.80136 25.1368 4.85052 24.9533 4.76767 24.8098C4.68483 24.6664 4.50136 24.6172 4.35786 24.7C4.21437 24.7829 4.16522 24.9664 4.24806 25.1099ZM7.60658 27.3279C7.68942 27.4714 7.87289 27.5205 8.01639 27.4377C8.15988 27.3548 8.20905 27.1714 8.12619 27.0279C8.04335 26.8844 7.85988 26.8352 7.71638 26.9181C7.57289 27.0009 7.52374 27.1844 7.60658 27.3279ZM9.13638 28.1769C8.99289 28.2598 8.80942 28.2106 8.72658 28.0671C8.64374 27.9236 8.69289 27.7402 8.83638 27.6573C8.97987 27.5745 9.16335 27.6237 9.24619 27.7671C9.32904 27.9106 9.27988 28.0941 9.13638 28.1769ZM8.80666 29.4065C8.8895 29.55 9.07297 29.5992 9.21646 29.5163C9.35995 29.4334 9.40912 29.25 9.32626 29.1065C9.24342 28.963 9.05995 28.9138 8.91646 28.9967C8.77296 29.0795 8.72382 29.263 8.80666 29.4065ZM8.09695 28.777C7.95346 28.8599 7.76999 28.8107 7.68715 28.6672C7.60431 28.5237 7.65346 28.3403 7.79695 28.2574C7.94044 28.1746 8.12392 28.2238 8.20676 28.3672C8.28961 28.5107 8.24045 28.6942 8.09695 28.777ZM7.76759 30.0063C7.85043 30.1498 8.03391 30.199 8.1774 30.1161C8.32089 30.0333 8.37006 29.8498 8.2872 29.7063C8.20436 29.5629 8.02089 29.5137 7.8774 29.5965C7.7339 29.6794 7.68475 29.8629 7.76759 30.0063ZM10.3362 30.2551C10.1927 30.3379 10.0092 30.2888 9.92641 30.1453C9.84357 30.0018 9.89272 29.8183 10.0362 29.7354C10.1797 29.6526 10.3632 29.7018 10.446 29.8452C10.5289 29.9887 10.4797 30.1722 10.3362 30.2551ZM9.29691 30.8552C9.15341 30.938 8.96994 30.8889 8.8871 30.7454C8.80426 30.6019 8.85341 30.4184 8.9969 30.3355C9.1404 30.2527 9.32387 30.3019 9.40671 30.4453C9.48956 30.5888 9.4404 30.7723 9.29691 30.8552Z"
        fill="#B89B64" fill-rule="evenodd" />
</svg>
