<svg fill="none" height="36" viewBox="0 0 34 36" width="34" xmlns="http://www.w3.org/2000/svg">
    <path clip-rule="evenodd"
        d="M6.89477 11.357C7.00607 8.19162 8.24472 5.83119 10.0354 4.23944C11.9227 2.5619 14.4531 1.7124 16.9999 1.7124C19.5467 1.7124 22.0771 2.56189 23.9644 4.23943C25.7551 5.83119 26.9937 8.19164 27.105 11.357C26.9826 11.3366 26.8568 11.3259 26.7286 11.3259C26.5944 11.3259 26.463 11.3376 26.3353 11.3599C26.2243 8.50435 25.0926 6.31201 23.4125 4.8186C21.6514 3.25318 19.3175 2.4812 16.9998 2.4812C14.6822 2.4812 12.3482 3.25319 10.5871 4.81861C8.90701 6.31202 7.77534 8.50436 7.66437 11.3599C7.53659 11.3376 7.40513 11.3259 7.27096 11.3259C7.1428 11.3259 7.01713 11.3366 6.89477 11.357ZM24.6287 3.49202C26.7252 5.3556 28.106 8.13782 28.1132 11.7972C28.6231 12.1906 28.961 12.796 28.9947 13.4814H29.1726C30.2771 13.4814 31.1726 14.3769 31.1726 15.4814V16.4524L33.1881 31.3112C33.3507 32.5098 32.6296 33.6941 31.4009 33.9707C27.7132 34.8007 22.3459 35.2105 17.0037 35.2107C11.6614 35.2109 6.29332 34.8015 2.60403 33.9719C1.37216 33.6949 0.650948 32.5059 0.817772 31.3049L2.84888 16.6832V15.4814C2.84888 14.3769 3.74431 13.4814 4.84888 13.4814H5.00486C5.03859 12.7959 5.37658 12.1904 5.88662 11.797C5.8938 8.13774 7.27458 5.35558 9.37107 3.49203C11.4638 1.6318 14.24 0.712405 16.9999 0.712402C19.7598 0.7124 22.536 1.63179 24.6287 3.49202ZM26.7286 12.3259C27.3912 12.3259 27.9351 12.8338 27.9925 13.4814H25.4647C25.5221 12.8338 26.066 12.3259 26.7286 12.3259ZM25.3442 11.7971C24.8342 12.1904 24.4962 12.7959 24.4625 13.4814H9.53706C9.50333 12.796 9.16539 12.1905 8.65543 11.7972C8.66249 8.99918 9.71032 6.93592 11.2515 5.56602C12.807 4.18329 14.8952 3.4812 16.9998 3.4812C19.1044 3.4812 21.1926 4.18328 22.7482 5.56601C24.2893 6.9359 25.3371 8.99914 25.3442 11.7971ZM8.53485 13.4814C8.4775 12.8338 7.93354 12.3259 7.27096 12.3259C6.60838 12.3259 6.06441 12.8338 6.00707 13.4814H8.53485ZM2.26845 28.1297L3.40309 19.9615C5.85264 22.7357 10.3988 24.6387 14.731 25.1482V25.9769C14.731 27.23 15.7468 28.2458 16.9998 28.2458C18.2529 28.2458 19.2687 27.23 19.2687 25.9769V25.1508C23.6125 24.6445 28.1755 22.7358 30.6271 19.9516L30.6366 19.9407L31.8606 28.9645C31.8191 29.016 31.7942 29.0815 31.7942 29.1528C31.7942 29.2532 31.8435 29.3421 31.9193 29.3965L32.0099 30.0647C31.8852 30.1012 31.7942 30.2163 31.7942 30.3527C31.7942 30.5169 31.9261 30.6503 32.0896 30.6527L32.1725 31.2632C32.1475 31.2565 32.1213 31.2529 32.0942 31.2529C31.9285 31.2529 31.7942 31.3872 31.7942 31.5529C31.7942 31.7186 31.9285 31.8529 32.0942 31.8529C32.1315 31.8529 32.1672 31.8461 32.2002 31.8337C32.17 32.0794 32.079 32.3063 31.9408 32.4947C31.8841 32.5285 31.8395 32.5805 31.815 32.6426C31.6455 32.8145 31.4292 32.9393 31.1813 32.9951C31.0937 33.0148 31.0051 33.0343 30.9155 33.0535C30.9085 33.053 30.9013 33.0527 30.8941 33.0527C30.8431 33.0527 30.7951 33.0654 30.7531 33.0879C30.1381 33.2163 29.4782 33.3338 28.7812 33.4403C28.7897 33.4126 28.7942 33.3832 28.7942 33.3527C28.7942 33.187 28.6599 33.0527 28.4942 33.0527C28.3285 33.0527 28.1942 33.187 28.1942 33.3527C28.1942 33.4143 28.2128 33.4715 28.2446 33.5191C27.2814 33.6551 26.2542 33.7711 25.1816 33.8671C25.1447 33.7433 25.0299 33.6531 24.8941 33.6531C24.7406 33.6531 24.614 33.7684 24.5963 33.9171C24.0023 33.9656 23.3959 34.0081 22.7799 34.0445C22.7891 34.0157 22.7941 33.985 22.7941 33.9531C22.7941 33.7874 22.6598 33.6531 22.4941 33.6531C22.3284 33.6531 22.1941 33.7874 22.1941 33.9531C22.1941 33.9968 22.2035 34.0384 22.2203 34.0759C21.5926 34.1091 20.9561 34.1362 20.314 34.1571C20.3637 34.1036 20.3941 34.0319 20.3941 33.9531C20.3941 33.7874 20.2598 33.6531 20.0941 33.6531C19.9284 33.6531 19.7941 33.7874 19.7941 33.9531C19.7941 34.0385 19.8297 34.1155 19.887 34.1701C19.2135 34.1892 18.5346 34.2016 17.8537 34.2072C17.9381 34.1541 17.9942 34.0601 17.9942 33.9531C17.9942 33.7874 17.8599 33.6531 17.6942 33.6531C17.5285 33.6531 17.3942 33.7874 17.3942 33.9531C17.3942 34.0616 17.4518 34.1566 17.538 34.2093C17.36 34.2102 17.1818 34.2107 17.0036 34.2107C16.4902 34.2107 15.977 34.2069 15.4656 34.1993C15.5433 34.1451 15.5941 34.055 15.5941 33.9531C15.5941 33.7874 15.4598 33.6531 15.2941 33.6531C15.1285 33.6531 14.9941 33.7874 14.9941 33.9531C14.9941 34.0515 15.0415 34.1388 15.1147 34.1935C14.4487 34.1813 13.7863 34.1626 13.1308 34.1375C13.1705 34.0866 13.1941 34.0226 13.1941 33.9531C13.1941 33.7874 13.0598 33.6531 12.8941 33.6531C12.7284 33.6531 12.5941 33.7874 12.5941 33.9531C12.5941 34.0138 12.6122 34.0703 12.6432 34.1175C12.0163 34.0902 11.3966 34.057 10.7871 34.0178C10.7917 33.997 10.7941 33.9753 10.7941 33.9531C10.7941 33.7874 10.6598 33.6531 10.4941 33.6531C10.3284 33.6531 10.1941 33.7874 10.1941 33.9531C10.1941 33.9614 10.1944 33.9696 10.1951 33.9777C9.57219 33.9332 8.96119 33.8823 8.36537 33.8251C8.31736 33.7234 8.21387 33.6531 8.09395 33.6531C7.99537 33.6531 7.9079 33.7006 7.85321 33.774C6.77151 33.6619 5.74468 33.5282 4.7934 33.3732C4.79386 33.3665 4.7941 33.3596 4.7941 33.3527C4.7941 33.187 4.65978 33.0527 4.49409 33.0527C4.35606 33.0527 4.23981 33.146 4.20484 33.2729C3.72122 33.1866 3.25974 33.0943 2.82341 32.9962C2.48821 32.9208 2.21078 32.7194 2.02865 32.4457C2.04967 32.4503 2.07152 32.4528 2.09395 32.4528C2.25963 32.4528 2.39395 32.3185 2.39395 32.1528C2.39395 31.9871 2.25963 31.8528 2.09395 31.8528C1.98348 31.8528 1.88697 31.9125 1.8349 32.0014C1.79208 31.8254 1.78133 31.6364 1.80826 31.4425L1.8517 31.1298C1.90628 31.2044 1.99446 31.2528 2.09395 31.2528C2.25963 31.2528 2.39395 31.1185 2.39395 30.9528C2.39395 30.7871 2.25963 30.6528 2.09395 30.6528C2.02422 30.6528 1.96005 30.6766 1.90911 30.7165L2.00327 30.0387C2.03188 30.0478 2.06234 30.0526 2.09395 30.0526C2.25963 30.0526 2.39395 29.9183 2.39395 29.7526C2.39395 29.587 2.25963 29.4526 2.09395 29.4526C2.09084 29.4526 2.08774 29.4527 2.08466 29.4528L2.19531 28.6562C2.31112 28.6146 2.39395 28.5038 2.39395 28.3737C2.39395 28.2731 2.34444 28.1841 2.26845 28.1297ZM19.2687 24.1437C23.4196 23.6359 27.6606 21.8074 29.8766 19.2908C30.0692 19.072 30.1726 18.7702 30.1726 18.438V15.4814C30.1726 14.9292 29.7249 14.4814 29.1726 14.4814H4.84888C4.29659 14.4814 3.84888 14.9292 3.84888 15.4814V16.4968L3.8837 16.5016L3.84888 16.7523V18.438C3.84888 18.7702 3.95221 19.072 4.14488 19.2908C6.35699 21.803 10.587 23.6295 14.731 24.141V23.3236C14.731 22.0705 15.7468 21.0547 16.9998 21.0547C18.2529 21.0547 19.2687 22.0705 19.2687 23.3236V24.1437ZM15.731 23.3236C15.731 22.6228 16.2991 22.0547 16.9998 22.0547C17.7006 22.0547 18.2687 22.6228 18.2687 23.3236V25.0344H15.731V23.3236ZM16.9998 27.2458C16.3183 27.2458 15.7623 26.7085 15.7322 26.0344H18.2674C18.2374 26.7085 17.6813 27.2458 16.9998 27.2458ZM3.59402 29.1528C3.59402 29.3185 3.45971 29.4528 3.29402 29.4528C3.12833 29.4528 2.99402 29.3185 2.99402 29.1528C2.99402 28.9871 3.12833 28.8528 3.29402 28.8528C3.45971 28.8528 3.59402 28.9871 3.59402 29.1528ZM4.49409 30.0526C4.65978 30.0526 4.7941 29.9183 4.7941 29.7526C4.7941 29.587 4.65978 29.4526 4.49409 29.4526C4.32841 29.4526 4.19409 29.587 4.19409 29.7526C4.19409 29.9183 4.32841 30.0526 4.49409 30.0526ZM7.194 29.7526C7.194 29.9183 7.05968 30.0526 6.894 30.0526C6.72831 30.0526 6.59399 29.9183 6.59399 29.7526C6.59399 29.587 6.72831 29.4526 6.894 29.4526C7.05968 29.4526 7.194 29.587 7.194 29.7526ZM9.29402 30.0526C9.45971 30.0526 9.59402 29.9183 9.59402 29.7526C9.59402 29.587 9.45971 29.4526 9.29402 29.4526C9.12833 29.4526 8.99402 29.587 8.99402 29.7526C8.99402 29.9183 9.12833 30.0526 9.29402 30.0526ZM26.3941 29.7526C26.3941 29.9183 26.2598 30.0526 26.0941 30.0526C25.9284 30.0526 25.7941 29.9183 25.7941 29.7526C25.7941 29.587 25.9284 29.4526 26.0941 29.4526C26.2598 29.4526 26.3941 29.587 26.3941 29.7526ZM28.4942 30.0526C28.6599 30.0526 28.7942 29.9183 28.7942 29.7526C28.7942 29.587 28.6599 29.4526 28.4942 29.4526C28.3285 29.4526 28.1942 29.587 28.1942 29.7526C28.1942 29.9183 28.3285 30.0526 28.4942 30.0526ZM3.29402 30.6527C3.45971 30.6527 3.59402 30.5184 3.59402 30.3527C3.59402 30.187 3.45971 30.0527 3.29402 30.0527C3.12833 30.0527 2.99402 30.187 2.99402 30.3527C2.99402 30.5184 3.12833 30.6527 3.29402 30.6527ZM4.7941 30.9528C4.7941 31.1185 4.65978 31.2528 4.49409 31.2528C4.32841 31.2528 4.19409 31.1185 4.19409 30.9528C4.19409 30.7871 4.32841 30.6528 4.49409 30.6528C4.65978 30.6528 4.7941 30.7871 4.7941 30.9528ZM3.29402 31.8529C3.45971 31.8529 3.59402 31.7186 3.59402 31.5529C3.59402 31.3872 3.45971 31.2529 3.29402 31.2529C3.12833 31.2529 2.99402 31.3872 2.99402 31.5529C2.99402 31.7186 3.12833 31.8529 3.29402 31.8529ZM4.7941 32.1528C4.7941 32.3185 4.65978 32.4528 4.49409 32.4528C4.32841 32.4528 4.19409 32.3185 4.19409 32.1528C4.19409 31.9871 4.32841 31.8528 4.49409 31.8528C4.65978 31.8528 4.7941 31.9871 4.7941 32.1528ZM3.29402 33.0526C3.45971 33.0526 3.59402 32.9183 3.59402 32.7526C3.59402 32.587 3.45971 32.4526 3.29402 32.4526C3.12833 32.4526 2.99402 32.587 2.99402 32.7526C2.99402 32.9183 3.12833 33.0526 3.29402 33.0526ZM5.69417 30.6527C5.85985 30.6527 5.99417 30.5184 5.99417 30.3527C5.99417 30.187 5.85985 30.0527 5.69417 30.0527C5.52848 30.0527 5.39417 30.187 5.39417 30.3527C5.39417 30.5184 5.52848 30.6527 5.69417 30.6527ZM7.194 30.9528C7.194 31.1185 7.05968 31.2528 6.894 31.2528C6.72831 31.2528 6.59399 31.1185 6.59399 30.9528C6.59399 30.7871 6.72831 30.6528 6.894 30.6528C7.05968 30.6528 7.194 30.7871 7.194 30.9528ZM5.69417 31.8529C5.85985 31.8529 5.99417 31.7186 5.99417 31.5529C5.99417 31.3872 5.85985 31.2529 5.69417 31.2529C5.52848 31.2529 5.39417 31.3872 5.39417 31.5529C5.39417 31.7186 5.52848 31.8529 5.69417 31.8529ZM7.194 32.1528C7.194 32.3185 7.05968 32.4528 6.894 32.4528C6.72831 32.4528 6.59399 32.3185 6.59399 32.1528C6.59399 31.9871 6.72831 31.8528 6.894 31.8528C7.05968 31.8528 7.194 31.9871 7.194 32.1528ZM5.69417 33.0526C5.85985 33.0526 5.99417 32.9183 5.99417 32.7526C5.99417 32.587 5.85985 32.4526 5.69417 32.4526C5.52848 32.4526 5.39417 32.587 5.39417 32.7526C5.39417 32.9183 5.52848 33.0526 5.69417 33.0526ZM6.894 33.6527C7.05968 33.6527 7.194 33.5184 7.194 33.3527C7.194 33.187 7.05968 33.0527 6.894 33.0527C6.72831 33.0527 6.59399 33.187 6.59399 33.3527C6.59399 33.5184 6.72831 33.6527 6.894 33.6527ZM8.39395 30.3527C8.39395 30.5184 8.25963 30.6527 8.09395 30.6527C7.92826 30.6527 7.79395 30.5184 7.79395 30.3527C7.79395 30.187 7.92826 30.0527 8.09395 30.0527C8.25963 30.0527 8.39395 30.187 8.39395 30.3527ZM9.29402 31.2528C9.45971 31.2528 9.59402 31.1185 9.59402 30.9528C9.59402 30.7871 9.45971 30.6528 9.29402 30.6528C9.12833 30.6528 8.99402 30.7871 8.99402 30.9528C8.99402 31.1185 9.12833 31.2528 9.29402 31.2528ZM8.39395 31.5529C8.39395 31.7186 8.25963 31.8529 8.09395 31.8529C7.92826 31.8529 7.79395 31.7186 7.79395 31.5529C7.79395 31.3872 7.92826 31.2529 8.09395 31.2529C8.25963 31.2529 8.39395 31.3872 8.39395 31.5529ZM9.29402 32.4528C9.45971 32.4528 9.59402 32.3185 9.59402 32.1528C9.59402 31.9871 9.45971 31.8528 9.29402 31.8528C9.12833 31.8528 8.99402 31.9871 8.99402 32.1528C8.99402 32.3185 9.12833 32.4528 9.29402 32.4528ZM8.39395 32.7526C8.39395 32.9183 8.25963 33.0526 8.09395 33.0526C7.92826 33.0526 7.79395 32.9183 7.79395 32.7526C7.79395 32.587 7.92826 32.4526 8.09395 32.4526C8.25963 32.4526 8.39395 32.587 8.39395 32.7526ZM9.59402 33.3527C9.59402 33.5184 9.45971 33.6527 9.29402 33.6527C9.12833 33.6527 8.99402 33.5184 8.99402 33.3527C8.99402 33.187 9.12833 33.0527 9.29402 33.0527C9.45971 33.0527 9.59402 33.187 9.59402 33.3527ZM10.4941 30.6527C10.6598 30.6527 10.7941 30.5184 10.7941 30.3527C10.7941 30.187 10.6598 30.0527 10.4941 30.0527C10.3284 30.0527 10.1941 30.187 10.1941 30.3527C10.1941 30.5184 10.3284 30.6527 10.4941 30.6527ZM11.9942 30.9528C11.9942 31.1185 11.8599 31.2528 11.6942 31.2528C11.5285 31.2528 11.3942 31.1185 11.3942 30.9528C11.3942 30.7871 11.5285 30.6528 11.6942 30.6528C11.8599 30.6528 11.9942 30.7871 11.9942 30.9528ZM10.4941 31.8529C10.6598 31.8529 10.7941 31.7186 10.7941 31.5529C10.7941 31.3872 10.6598 31.2529 10.4941 31.2529C10.3284 31.2529 10.1941 31.3872 10.1941 31.5529C10.1941 31.7186 10.3284 31.8529 10.4941 31.8529ZM11.9942 32.1528C11.9942 32.3185 11.8599 32.4528 11.6942 32.4528C11.5285 32.4528 11.3942 32.3185 11.3942 32.1528C11.3942 31.9871 11.5285 31.8528 11.6942 31.8528C11.8599 31.8528 11.9942 31.9871 11.9942 32.1528ZM10.4941 33.0526C10.6598 33.0526 10.7941 32.9183 10.7941 32.7526C10.7941 32.587 10.6598 32.4526 10.4941 32.4526C10.3284 32.4526 10.1941 32.587 10.1941 32.7526C10.1941 32.9183 10.3284 33.0526 10.4941 33.0526ZM11.6942 33.6527C11.8599 33.6527 11.9942 33.5184 11.9942 33.3527C11.9942 33.187 11.8599 33.0527 11.6942 33.0527C11.5285 33.0527 11.3942 33.187 11.3942 33.3527C11.3942 33.5184 11.5285 33.6527 11.6942 33.6527ZM13.1941 30.3527C13.1941 30.5184 13.0598 30.6527 12.8941 30.6527C12.7284 30.6527 12.5941 30.5184 12.5941 30.3527C12.5941 30.187 12.7284 30.0527 12.8941 30.0527C13.0598 30.0527 13.1941 30.187 13.1941 30.3527ZM14.0941 31.2528C14.2598 31.2528 14.3941 31.1185 14.3941 30.9528C14.3941 30.7871 14.2598 30.6528 14.0941 30.6528C13.9284 30.6528 13.7941 30.7871 13.7941 30.9528C13.7941 31.1185 13.9284 31.2528 14.0941 31.2528ZM13.1941 31.5529C13.1941 31.7186 13.0598 31.8529 12.8941 31.8529C12.7284 31.8529 12.5941 31.7186 12.5941 31.5529C12.5941 31.3872 12.7284 31.2529 12.8941 31.2529C13.0598 31.2529 13.1941 31.3872 13.1941 31.5529ZM14.0941 32.4528C14.2598 32.4528 14.3941 32.3185 14.3941 32.1528C14.3941 31.9871 14.2598 31.8528 14.0941 31.8528C13.9284 31.8528 13.7941 31.9871 13.7941 32.1528C13.7941 32.3185 13.9284 32.4528 14.0941 32.4528ZM13.1941 32.7526C13.1941 32.9183 13.0598 33.0526 12.8941 33.0526C12.7284 33.0526 12.5941 32.9183 12.5941 32.7526C12.5941 32.587 12.7284 32.4526 12.8941 32.4526C13.0598 32.4526 13.1941 32.587 13.1941 32.7526ZM14.3941 33.3527C14.3941 33.5184 14.2598 33.6527 14.0941 33.6527C13.9284 33.6527 13.7941 33.5184 13.7941 33.3527C13.7941 33.187 13.9284 33.0527 14.0941 33.0527C14.2598 33.0527 14.3941 33.187 14.3941 33.3527ZM15.2941 30.6527C15.4598 30.6527 15.5941 30.5184 15.5941 30.3527C15.5941 30.187 15.4598 30.0527 15.2941 30.0527C15.1285 30.0527 14.9941 30.187 14.9941 30.3527C14.9941 30.5184 15.1285 30.6527 15.2941 30.6527ZM16.7941 30.9528C16.7941 31.1185 16.6598 31.2528 16.4941 31.2528C16.3284 31.2528 16.1941 31.1185 16.1941 30.9528C16.1941 30.7871 16.3284 30.6528 16.4941 30.6528C16.6598 30.6528 16.7941 30.7871 16.7941 30.9528ZM15.2941 31.8529C15.4598 31.8529 15.5941 31.7186 15.5941 31.5529C15.5941 31.3872 15.4598 31.2529 15.2941 31.2529C15.1285 31.2529 14.9941 31.3872 14.9941 31.5529C14.9941 31.7186 15.1285 31.8529 15.2941 31.8529ZM16.7941 32.1528C16.7941 32.3185 16.6598 32.4528 16.4941 32.4528C16.3284 32.4528 16.1941 32.3185 16.1941 32.1528C16.1941 31.9871 16.3284 31.8528 16.4941 31.8528C16.6598 31.8528 16.7941 31.9871 16.7941 32.1528ZM15.2941 33.0526C15.4598 33.0526 15.5941 32.9183 15.5941 32.7526C15.5941 32.587 15.4598 32.4526 15.2941 32.4526C15.1285 32.4526 14.9941 32.587 14.9941 32.7526C14.9941 32.9183 15.1285 33.0526 15.2941 33.0526ZM16.4941 33.6527C16.6598 33.6527 16.7941 33.5184 16.7941 33.3527C16.7941 33.187 16.6598 33.0527 16.4941 33.0527C16.3284 33.0527 16.1941 33.187 16.1941 33.3527C16.1941 33.5184 16.3284 33.6527 16.4941 33.6527ZM17.9942 30.3527C17.9942 30.5184 17.8599 30.6527 17.6942 30.6527C17.5285 30.6527 17.3942 30.5184 17.3942 30.3527C17.3942 30.187 17.5285 30.0527 17.6942 30.0527C17.8599 30.0527 17.9942 30.187 17.9942 30.3527ZM18.8941 31.2528C19.0598 31.2528 19.1941 31.1185 19.1941 30.9528C19.1941 30.7871 19.0598 30.6528 18.8941 30.6528C18.7284 30.6528 18.5941 30.7871 18.5941 30.9528C18.5941 31.1185 18.7284 31.2528 18.8941 31.2528ZM17.9942 31.5529C17.9942 31.7186 17.8599 31.8529 17.6942 31.8529C17.5285 31.8529 17.3942 31.7186 17.3942 31.5529C17.3942 31.3872 17.5285 31.2529 17.6942 31.2529C17.8599 31.2529 17.9942 31.3872 17.9942 31.5529ZM18.8941 32.4528C19.0598 32.4528 19.1941 32.3185 19.1941 32.1528C19.1941 31.9871 19.0598 31.8528 18.8941 31.8528C18.7284 31.8528 18.5941 31.9871 18.5941 32.1528C18.5941 32.3185 18.7284 32.4528 18.8941 32.4528ZM17.9942 32.7526C17.9942 32.9183 17.8599 33.0526 17.6942 33.0526C17.5285 33.0526 17.3942 32.9183 17.3942 32.7526C17.3942 32.587 17.5285 32.4526 17.6942 32.4526C17.8599 32.4526 17.9942 32.587 17.9942 32.7526ZM19.1941 33.3527C19.1941 33.5184 19.0598 33.6527 18.8941 33.6527C18.7284 33.6527 18.5941 33.5184 18.5941 33.3527C18.5941 33.187 18.7284 33.0527 18.8941 33.0527C19.0598 33.0527 19.1941 33.187 19.1941 33.3527ZM20.0941 30.6527C20.2598 30.6527 20.3941 30.5184 20.3941 30.3527C20.3941 30.187 20.2598 30.0527 20.0941 30.0527C19.9284 30.0527 19.7941 30.187 19.7941 30.3527C19.7941 30.5184 19.9284 30.6527 20.0941 30.6527ZM21.5941 30.9528C21.5941 31.1185 21.4598 31.2528 21.2941 31.2528C21.1285 31.2528 20.9941 31.1185 20.9941 30.9528C20.9941 30.7871 21.1285 30.6528 21.2941 30.6528C21.4598 30.6528 21.5941 30.7871 21.5941 30.9528ZM20.0941 31.8529C20.2598 31.8529 20.3941 31.7186 20.3941 31.5529C20.3941 31.3872 20.2598 31.2529 20.0941 31.2529C19.9284 31.2529 19.7941 31.3872 19.7941 31.5529C19.7941 31.7186 19.9284 31.8529 20.0941 31.8529ZM21.5941 32.1528C21.5941 32.3185 21.4598 32.4528 21.2941 32.4528C21.1285 32.4528 20.9941 32.3185 20.9941 32.1528C20.9941 31.9871 21.1285 31.8528 21.2941 31.8528C21.4598 31.8528 21.5941 31.9871 21.5941 32.1528ZM20.0941 33.0526C20.2598 33.0526 20.3941 32.9183 20.3941 32.7526C20.3941 32.587 20.2598 32.4526 20.0941 32.4526C19.9284 32.4526 19.7941 32.587 19.7941 32.7526C19.7941 32.9183 19.9284 33.0526 20.0941 33.0526ZM21.2941 33.6527C21.4598 33.6527 21.5941 33.5184 21.5941 33.3527C21.5941 33.187 21.4598 33.0527 21.2941 33.0527C21.1285 33.0527 20.9941 33.187 20.9941 33.3527C20.9941 33.5184 21.1285 33.6527 21.2941 33.6527ZM22.7941 30.3527C22.7941 30.5184 22.6598 30.6527 22.4941 30.6527C22.3284 30.6527 22.1941 30.5184 22.1941 30.3527C22.1941 30.187 22.3284 30.0527 22.4941 30.0527C22.6598 30.0527 22.7941 30.187 22.7941 30.3527ZM23.6943 31.2528C23.86 31.2528 23.9943 31.1185 23.9943 30.9528C23.9943 30.7871 23.86 30.6528 23.6943 30.6528C23.5286 30.6528 23.3943 30.7871 23.3943 30.9528C23.3943 31.1185 23.5286 31.2528 23.6943 31.2528ZM22.7941 31.5529C22.7941 31.7186 22.6598 31.8529 22.4941 31.8529C22.3284 31.8529 22.1941 31.7186 22.1941 31.5529C22.1941 31.3872 22.3284 31.2529 22.4941 31.2529C22.6598 31.2529 22.7941 31.3872 22.7941 31.5529ZM23.6943 32.4528C23.86 32.4528 23.9943 32.3185 23.9943 32.1528C23.9943 31.9871 23.86 31.8528 23.6943 31.8528C23.5286 31.8528 23.3943 31.9871 23.3943 32.1528C23.3943 32.3185 23.5286 32.4528 23.6943 32.4528ZM22.7941 32.7526C22.7941 32.9183 22.6598 33.0526 22.4941 33.0526C22.3284 33.0526 22.1941 32.9183 22.1941 32.7526C22.1941 32.587 22.3284 32.4526 22.4941 32.4526C22.6598 32.4526 22.7941 32.587 22.7941 32.7526ZM23.9943 33.3527C23.9943 33.5184 23.86 33.6527 23.6943 33.6527C23.5286 33.6527 23.3943 33.5184 23.3943 33.3527C23.3943 33.187 23.5286 33.0527 23.6943 33.0527C23.86 33.0527 23.9943 33.187 23.9943 33.3527ZM24.8941 30.6527C25.0598 30.6527 25.1941 30.5184 25.1941 30.3527C25.1941 30.187 25.0598 30.0527 24.8941 30.0527C24.7284 30.0527 24.5941 30.187 24.5941 30.3527C24.5941 30.5184 24.7284 30.6527 24.8941 30.6527ZM26.3941 30.9528C26.3941 31.1185 26.2598 31.2528 26.0941 31.2528C25.9284 31.2528 25.7941 31.1185 25.7941 30.9528C25.7941 30.7871 25.9284 30.6528 26.0941 30.6528C26.2598 30.6528 26.3941 30.7871 26.3941 30.9528ZM24.8941 31.8529C25.0598 31.8529 25.1941 31.7186 25.1941 31.5529C25.1941 31.3872 25.0598 31.2529 24.8941 31.2529C24.7284 31.2529 24.5941 31.3872 24.5941 31.5529C24.5941 31.7186 24.7284 31.8529 24.8941 31.8529ZM26.3941 32.1528C26.3941 32.3185 26.2598 32.4528 26.0941 32.4528C25.9284 32.4528 25.7941 32.3185 25.7941 32.1528C25.7941 31.9871 25.9284 31.8528 26.0941 31.8528C26.2598 31.8528 26.3941 31.9871 26.3941 32.1528ZM24.8941 33.0526C25.0598 33.0526 25.1941 32.9183 25.1941 32.7526C25.1941 32.587 25.0598 32.4526 24.8941 32.4526C24.7284 32.4526 24.5941 32.587 24.5941 32.7526C24.5941 32.9183 24.7284 33.0526 24.8941 33.0526ZM26.0941 33.6527C26.2598 33.6527 26.3941 33.5184 26.3941 33.3527C26.3941 33.187 26.2598 33.0527 26.0941 33.0527C25.9284 33.0527 25.7941 33.187 25.7941 33.3527C25.7941 33.5184 25.9284 33.6527 26.0941 33.6527ZM27.5941 30.3527C27.5941 30.5184 27.4598 30.6527 27.2941 30.6527C27.1285 30.6527 26.9941 30.5184 26.9941 30.3527C26.9941 30.187 27.1285 30.0527 27.2941 30.0527C27.4598 30.0527 27.5941 30.187 27.5941 30.3527ZM28.4942 31.2528C28.6599 31.2528 28.7942 31.1185 28.7942 30.9528C28.7942 30.7871 28.6599 30.6528 28.4942 30.6528C28.3285 30.6528 28.1942 30.7871 28.1942 30.9528C28.1942 31.1185 28.3285 31.2528 28.4942 31.2528ZM27.5941 31.5529C27.5941 31.7186 27.4598 31.8529 27.2941 31.8529C27.1285 31.8529 26.9941 31.7186 26.9941 31.5529C26.9941 31.3872 27.1285 31.2529 27.2941 31.2529C27.4598 31.2529 27.5941 31.3872 27.5941 31.5529ZM28.4942 32.4528C28.6599 32.4528 28.7942 32.3185 28.7942 32.1528C28.7942 31.9871 28.6599 31.8528 28.4942 31.8528C28.3285 31.8528 28.1942 31.9871 28.1942 32.1528C28.1942 32.3185 28.3285 32.4528 28.4942 32.4528ZM27.5941 32.7526C27.5941 32.9183 27.4598 33.0526 27.2941 33.0526C27.1285 33.0526 26.9941 32.9183 26.9941 32.7526C26.9941 32.587 27.1285 32.4526 27.2941 32.4526C27.4598 32.4526 27.5941 32.587 27.5941 32.7526ZM30.8941 30.0526C31.0598 30.0526 31.1941 29.9183 31.1941 29.7526C31.1941 29.587 31.0598 29.4526 30.8941 29.4526C30.7284 29.4526 30.5941 29.587 30.5941 29.7526C30.5941 29.9183 30.7284 30.0526 30.8941 30.0526ZM29.6942 30.6527C29.8599 30.6527 29.9942 30.5184 29.9942 30.3527C29.9942 30.187 29.8599 30.0527 29.6942 30.0527C29.5285 30.0527 29.3942 30.187 29.3942 30.3527C29.3942 30.5184 29.5285 30.6527 29.6942 30.6527ZM31.1941 30.9528C31.1941 31.1185 31.0598 31.2528 30.8941 31.2528C30.7284 31.2528 30.5941 31.1185 30.5941 30.9528C30.5941 30.7871 30.7284 30.6528 30.8941 30.6528C31.0598 30.6528 31.1941 30.7871 31.1941 30.9528ZM29.6942 31.8529C29.8599 31.8529 29.9942 31.7186 29.9942 31.5529C29.9942 31.3872 29.8599 31.2529 29.6942 31.2529C29.5285 31.2529 29.3942 31.3872 29.3942 31.5529C29.3942 31.7186 29.5285 31.8529 29.6942 31.8529ZM31.1941 32.1528C31.1941 32.3185 31.0598 32.4528 30.8941 32.4528C30.7284 32.4528 30.5941 32.3185 30.5941 32.1528C30.5941 31.9871 30.7284 31.8528 30.8941 31.8528C31.0598 31.8528 31.1941 31.9871 31.1941 32.1528ZM29.6942 33.0526C29.8599 33.0526 29.9942 32.9183 29.9942 32.7526C29.9942 32.587 29.8599 32.4526 29.6942 32.4526C29.5285 32.4526 29.3942 32.587 29.3942 32.7526C29.3942 32.9183 29.5285 33.0526 29.6942 33.0526Z"
        fill="#B89B64" fill-rule="evenodd" />
</svg>
