<svg fill="none" height="39" viewBox="0 0 26 39" width="26" xmlns="http://www.w3.org/2000/svg">
    <path clip-rule="evenodd"
        d="M18.0529 1.06326C17.6853 2.11337 16.8483 3.25299 16.0233 4.21375C15.6244 4.67831 15.216 5.11478 14.8418 5.4964L14.8462 5.50031C13.8024 6.67224 12.2261 8.10461 10.6318 9.37607C9.21487 10.5062 7.75223 11.5344 6.61127 12.1426C6.75027 12.5996 6.87149 13.039 6.96457 13.5033C6.98239 13.5 7.00079 13.4983 7.01959 13.4983C7.1853 13.4983 7.31961 13.6326 7.31961 13.7983C7.31961 13.9486 7.20907 14.0731 7.06485 14.0949C7.09253 14.2952 7.11484 14.5024 7.13107 14.7196C7.24158 14.7639 7.31961 14.8719 7.31961 14.9982C7.31961 15.114 7.25409 15.2144 7.15814 15.2644C7.16043 15.3537 7.16177 15.4448 7.16211 15.5378H7.9256C7.95349 15.401 8.07449 15.2981 8.21954 15.2981C8.36462 15.2981 8.48562 15.401 8.51352 15.5378H10.3256C10.3535 15.401 10.4745 15.2981 10.6196 15.2981C10.7646 15.2981 10.8856 15.401 10.9135 15.5378H12.0942H12.7256C12.7535 15.401 12.8745 15.2981 13.0196 15.2981C13.1647 15.2981 13.2857 15.401 13.3136 15.5378H13.9048H15.1257C15.1536 15.401 15.2746 15.2981 15.4196 15.2981C15.5647 15.2981 15.6857 15.401 15.7136 15.5378H17.5257C17.5536 15.401 17.6746 15.2981 17.8196 15.2981C17.9647 15.2981 18.0857 15.401 18.1136 15.5378H18.8369C18.8373 15.4362 18.8389 15.3369 18.8416 15.2397C18.7676 15.1851 18.7196 15.0973 18.7196 14.9982C18.7196 14.8885 18.7785 14.7925 18.8664 14.7402C18.883 14.5124 18.9063 14.2955 18.9354 14.0863C18.8107 14.0499 18.7196 13.9348 18.7196 13.7983C18.7196 13.6326 18.8539 13.4983 19.0196 13.4983C19.0249 13.4983 19.0302 13.4984 19.0354 13.4987C19.1761 12.7986 19.3807 12.1549 19.6137 11.4219C19.7499 10.9934 19.8958 10.5341 20.0443 10.0156C20.7248 7.63904 21.081 5.79306 21.0994 3.12994C19.7915 1.93509 19.0839 1.36765 18.0529 1.06326ZM10.0072 4.25024C10.8968 5.28174 11.8278 6.17041 12.317 6.62027C11.602 7.27798 10.8103 7.95471 10.0083 8.59427C8.67313 9.65912 7.33829 10.598 6.3056 11.1707C6.19281 10.8143 6.07458 10.4344 5.95468 10.0156C5.27585 7.64481 4.91977 5.80206 4.89975 3.14941C6.27719 2.04312 7.02344 1.47226 7.97644 1.14706C8.36218 2.18463 9.1915 3.30447 10.0072 4.25024ZM13.9048 16.5378H12.0942C11.8703 16.5378 11.6888 16.7193 11.6888 16.9432C11.6888 17.167 11.8703 17.3485 12.0942 17.3485H13.9048C14.1287 17.3485 14.3102 17.167 14.3102 16.9432C14.3102 16.7193 14.1287 16.5378 13.9048 16.5378ZM10.7482 16.5378H7.03973C6.98694 16.7871 6.91873 17.0583 6.83847 17.3486H10.7482C10.7096 17.2202 10.6888 17.0841 10.6888 16.9432C10.6888 16.8022 10.7096 16.6662 10.7482 16.5378ZM15.2508 17.3486C15.2894 17.2202 15.3102 17.0841 15.3102 16.9432C15.3102 16.8022 15.2894 16.6662 15.2508 16.5378H18.9593C19.0121 16.7871 19.0803 17.0583 19.1606 17.3486H15.2508ZM5.77316 20.6948L5.71734 20.8618L5.69583 20.9261C5.62857 21.1273 5.55984 21.3329 5.48993 21.5427C5.37665 21.8825 5.26019 22.2331 5.14151 22.5938C4.0323 25.9641 2.70015 30.2896 1.79057 35.2156C2.85895 35.7005 4.18799 36.0909 5.67621 36.3842L7.98608 22.987C7.94446 22.9355 7.91955 22.8699 7.91955 22.7985C7.91955 22.6903 7.97681 22.5955 8.06268 22.5428L8.1011 22.3199C8.14801 22.0478 8.40665 21.8652 8.67877 21.9121C8.95093 21.959 9.13348 22.2177 9.08655 22.4898L6.66058 36.5604C8.48648 36.856 10.5024 37.0163 12.5431 37.0371V23.4048C12.5431 23.2251 12.6379 23.0675 12.7802 22.9794C12.7422 22.9291 12.7196 22.8665 12.7196 22.7985C12.7196 22.6328 12.8539 22.4985 13.0196 22.4985C13.1853 22.4985 13.3196 22.6328 13.3196 22.7985C13.3196 22.8581 13.3022 22.9136 13.2723 22.9603C13.4331 23.0434 13.5431 23.2112 13.5431 23.4048V37.0362C15.6226 37.0109 17.6738 36.8407 19.5218 36.5302L17.1011 22.4898C17.0541 22.2177 17.2367 21.959 17.5088 21.9121C17.781 21.8652 18.0396 22.0478 18.0865 22.3199L20.5051 36.3477C21.9196 36.0587 23.1839 35.6806 24.2084 35.2156C23.2989 30.2896 21.9667 25.9641 20.8575 22.5938C20.7419 22.2426 20.6285 21.9011 20.5181 21.5698C20.519 21.5791 20.5194 21.5886 20.5194 21.5981C20.5194 21.7638 20.3851 21.8981 20.2194 21.8981C20.0537 21.8981 19.9194 21.7638 19.9194 21.5981C19.9194 21.4324 20.0537 21.2981 20.2194 21.2981C20.3277 21.2981 20.4225 21.3554 20.4752 21.4413L20.2835 20.8674L20.2831 20.8661L20.2828 20.8651L20.2823 20.8636L20.2817 20.8618L20.2811 20.8601L20.227 20.6983L20.2194 20.6984C20.0537 20.6984 19.9194 20.5641 19.9194 20.3984C19.9194 20.2976 19.9691 20.2084 20.0453 20.154C19.8255 19.4941 19.6265 18.8896 19.4576 18.3486H19.1863C19.2667 18.4025 19.3196 18.4941 19.3196 18.5981C19.3196 18.7638 19.1853 18.8981 19.0196 18.8981C18.8539 18.8981 18.7196 18.7638 18.7196 18.5981C18.7196 18.4941 18.7725 18.4025 18.8529 18.3486H16.7863C16.8667 18.4025 16.9196 18.4941 16.9196 18.5981C16.9196 18.7638 16.7853 18.8981 16.6196 18.8981C16.4539 18.8981 16.3196 18.7638 16.3196 18.5981C16.3196 18.4941 16.3725 18.4025 16.4529 18.3486H14.3864C14.4668 18.4025 14.5197 18.4941 14.5197 18.5981C14.5197 18.7638 14.3854 18.8981 14.2197 18.8981C14.054 18.8981 13.9197 18.7638 13.9197 18.5981C13.9197 18.4941 13.9726 18.4025 14.053 18.3486H11.9862C12.0666 18.4025 12.1195 18.4941 12.1195 18.5981C12.1195 18.7638 11.9852 18.8981 11.8195 18.8981C11.6538 18.8981 11.5195 18.7638 11.5195 18.5981C11.5195 18.4941 11.5724 18.4025 11.6528 18.3486H9.58633C9.66672 18.4025 9.71963 18.4941 9.71963 18.5981C9.71963 18.7638 9.58533 18.8981 9.41962 18.8981C9.25394 18.8981 9.11963 18.7638 9.11963 18.5981C9.11963 18.4941 9.17255 18.4025 9.25293 18.3486H7.18631C7.26669 18.4025 7.31961 18.4941 7.31961 18.5981C7.31961 18.7638 7.1853 18.8981 7.01959 18.8981C6.85391 18.8981 6.7196 18.7638 6.7196 18.5981C6.7196 18.4941 6.77252 18.4025 6.8529 18.3486H6.54144C6.37421 18.8841 6.17761 19.4816 5.96051 20.1335C6.05514 20.184 6.11954 20.2837 6.11954 20.3984C6.11954 20.5641 5.98523 20.6984 5.81952 20.6984C5.80374 20.6984 5.78827 20.6972 5.77316 20.6948ZM15.4822 3.30463C15.8329 2.88199 16.1589 2.45184 16.4331 2.03329C16.3885 1.99789 16.3543 1.95007 16.3355 1.89508C16.0915 1.99323 15.8441 2.07947 15.5938 2.15387C15.67 2.20828 15.7196 2.29739 15.7196 2.39813C15.7196 2.56384 15.5853 2.69815 15.4196 2.69815C15.2539 2.69815 15.1196 2.56384 15.1196 2.39813C15.1196 2.37534 15.1222 2.35312 15.127 2.33176C15.1295 2.32098 15.1324 2.31043 15.136 2.30011C15.1391 2.29105 15.1427 2.28217 15.1467 2.2735C14.5434 2.41724 13.9257 2.49393 13.3004 2.50409C13.2575 2.61752 13.148 2.69815 13.0196 2.69815C12.8879 2.69815 12.7761 2.61331 12.7357 2.4953C12.1123 2.46591 11.4833 2.37143 10.8552 2.21237C10.8955 2.26346 10.9196 2.32797 10.9196 2.39813C10.9196 2.56384 10.7853 2.69815 10.6196 2.69815C10.4539 2.69815 10.3196 2.56384 10.3196 2.39813C10.3196 2.27094 10.3987 2.16223 10.5105 2.11859C10.2448 2.04123 9.97937 1.95233 9.71484 1.8519C9.69958 1.93646 9.64889 2.00873 9.5787 2.0527C9.85251 2.4686 10.1767 2.89514 10.5243 3.31354C10.5379 3.30902 10.5518 3.30542 10.5662 3.30283C10.5835 3.29971 10.6013 3.2981 10.6196 3.2981C10.7853 3.2981 10.9196 3.4324 10.9196 3.59808C10.9196 3.62009 10.9172 3.64151 10.9127 3.66217C10.907 3.68842 10.8979 3.71338 10.8858 3.73657C11.6228 4.57669 12.3771 5.30981 12.8499 5.75079C12.8982 5.71765 12.9566 5.69824 13.0196 5.69824C13.0481 5.69824 13.0757 5.70224 13.1019 5.70969C13.1242 5.716 13.1454 5.72485 13.1652 5.73587C13.6447 5.28796 14.4027 4.54962 15.1398 3.70639C15.1268 3.67279 15.1196 3.63626 15.1196 3.59808C15.1196 3.4324 15.2539 3.2981 15.4196 3.2981C15.4411 3.2981 15.462 3.30035 15.4822 3.30463ZM18.0165 0.018921C17.7321 -0.0493773 17.4707 0.0647584 17.311 0.260224C14.7814 1.92249 11.5963 1.93365 8.58536 0.213135L8.58472 0.214295C8.42181 0.0910036 8.20505 0.0356141 7.9776 0.0998231C6.62854 0.48056 5.71011 1.21466 4.16083 2.46036C3.99615 2.59274 3.89838 2.79462 3.899 3.00842C3.90741 5.85233 4.28355 7.81201 4.99332 10.2908C5.15909 10.8698 5.3147 11.3604 5.45495 11.8025C5.87866 13.1382 6.1622 14.032 6.1622 15.5852C6.1622 16.0289 5.96887 16.8224 5.60403 17.9956C5.37625 18.7281 5.09357 19.5737 4.77411 20.5292C4.59091 21.0772 4.3956 21.6614 4.19163 22.2811C3.07692 25.6682 1.72751 30.0467 0.805678 35.0423C0.726576 35.4709 0.933104 35.9236 1.35702 36.117C4.19636 37.4122 8.62591 38.0395 12.9995 38.0395C17.3731 38.0395 21.8026 37.4122 24.642 36.117C25.0659 35.9236 25.2724 35.4709 25.1933 35.0423C24.2715 30.0467 22.9221 25.6682 21.8074 22.2811C21.6035 21.6618 21.4084 21.078 21.2253 20.5303L21.2249 20.5292C20.9055 19.5737 20.6228 18.7281 20.395 17.9956C20.0301 16.8224 19.8368 16.0289 19.8368 15.5852C19.8368 14.032 20.1204 13.1382 20.544 11.8026L20.5445 11.8012L20.545 11.7996C20.685 11.3582 20.8403 10.8685 21.0057 10.2908C21.7162 7.80963 22.0923 5.8486 22.1 3.0004C22.1006 2.80261 22.0168 2.61407 21.8726 2.48193C20.3943 1.12747 19.507 0.376892 18.0165 0.018921ZM8.51956 13.1982C8.51956 13.3639 8.38525 13.4982 8.21954 13.4982C8.05386 13.4982 7.91955 13.3639 7.91955 13.1982C7.91955 13.0325 8.05386 12.8982 8.21954 12.8982C8.38525 12.8982 8.51956 13.0325 8.51956 13.1982ZM9.41962 14.0983C9.58533 14.0983 9.71963 13.964 9.71963 13.7983C9.71963 13.6326 9.58533 13.4983 9.41962 13.4983C9.25394 13.4983 9.11963 13.6326 9.11963 13.7983C9.11963 13.964 9.25394 14.0983 9.41962 14.0983ZM8.51956 14.3981C8.51956 14.5638 8.38525 14.6982 8.21954 14.6982C8.05386 14.6982 7.91955 14.5638 7.91955 14.3981C7.91955 14.2325 8.05386 14.0981 8.21954 14.0981C8.38525 14.0981 8.51956 14.2325 8.51956 14.3981ZM9.41962 15.2982C9.58533 15.2982 9.71963 15.1639 9.71963 14.9982C9.71963 14.8326 9.58533 14.6982 9.41962 14.6982C9.25394 14.6982 9.11963 14.8326 9.11963 14.9982C9.11963 15.1639 9.25394 15.2982 9.41962 15.2982ZM11.8195 3.29825C11.9852 3.29825 12.1195 3.16394 12.1195 2.99823C12.1195 2.83255 11.9852 2.69824 11.8195 2.69824C11.6538 2.69824 11.5195 2.83255 11.5195 2.99823C11.5195 3.16394 11.6538 3.29825 11.8195 3.29825ZM11.8195 4.4982C11.9852 4.4982 12.1195 4.36389 12.1195 4.19818C12.1195 4.0325 11.9852 3.89819 11.8195 3.89819C11.6538 3.89819 11.5195 4.0325 11.5195 4.19818C11.5195 4.36389 11.6538 4.4982 11.8195 4.4982ZM10.6196 13.4982C10.7853 13.4982 10.9196 13.3639 10.9196 13.1982C10.9196 13.0325 10.7853 12.8982 10.6196 12.8982C10.4539 12.8982 10.3196 13.0325 10.3196 13.1982C10.3196 13.3639 10.4539 13.4982 10.6196 13.4982ZM12.1195 13.7983C12.1195 13.964 11.9852 14.0983 11.8195 14.0983C11.6538 14.0983 11.5195 13.964 11.5195 13.7983C11.5195 13.6326 11.6538 13.4983 11.8195 13.4983C11.9852 13.4983 12.1195 13.6326 12.1195 13.7983ZM10.6196 14.6982C10.7853 14.6982 10.9196 14.5638 10.9196 14.3981C10.9196 14.2325 10.7853 14.0981 10.6196 14.0981C10.4539 14.0981 10.3196 14.2325 10.3196 14.3981C10.3196 14.5638 10.4539 14.6982 10.6196 14.6982ZM12.1195 14.9982C12.1195 15.1639 11.9852 15.2982 11.8195 15.2982C11.6538 15.2982 11.5195 15.1639 11.5195 14.9982C11.5195 14.8326 11.6538 14.6982 11.8195 14.6982C11.9852 14.6982 12.1195 14.8326 12.1195 14.9982ZM14.5197 2.99823C14.5197 3.16394 14.3854 3.29825 14.2197 3.29825C14.054 3.29825 13.9197 3.16394 13.9197 2.99823C13.9197 2.83255 14.054 2.69824 14.2197 2.69824C14.3854 2.69824 14.5197 2.83255 14.5197 2.99823ZM13.0196 3.8981C13.1853 3.8981 13.3196 3.76379 13.3196 3.59808C13.3196 3.4324 13.1853 3.2981 13.0196 3.2981C12.8539 3.2981 12.7196 3.4324 12.7196 3.59808C12.7196 3.76379 12.8539 3.8981 13.0196 3.8981ZM14.5197 4.19818C14.5197 4.36389 14.3854 4.4982 14.2197 4.4982C14.054 4.4982 13.9197 4.36389 13.9197 4.19818C13.9197 4.0325 14.054 3.89819 14.2197 3.89819C14.3854 3.89819 14.5197 4.0325 14.5197 4.19818ZM13.0196 5.0983C13.1853 5.0983 13.3196 4.96399 13.3196 4.79828C13.3196 4.6326 13.1853 4.49829 13.0196 4.49829C12.8539 4.49829 12.7196 4.6326 12.7196 4.79828C12.7196 4.96399 12.8539 5.0983 13.0196 5.0983ZM13.3196 13.1982C13.3196 13.3639 13.1853 13.4982 13.0196 13.4982C12.8539 13.4982 12.7196 13.3639 12.7196 13.1982C12.7196 13.0325 12.8539 12.8982 13.0196 12.8982C13.1853 12.8982 13.3196 13.0325 13.3196 13.1982ZM14.2197 14.0983C14.3854 14.0983 14.5197 13.964 14.5197 13.7983C14.5197 13.6326 14.3854 13.4983 14.2197 13.4983C14.054 13.4983 13.9197 13.6326 13.9197 13.7983C13.9197 13.964 14.054 14.0983 14.2197 14.0983ZM13.3196 14.3981C13.3196 14.5638 13.1853 14.6982 13.0196 14.6982C12.8539 14.6982 12.7196 14.5638 12.7196 14.3981C12.7196 14.2325 12.8539 14.0981 13.0196 14.0981C13.1853 14.0981 13.3196 14.2325 13.3196 14.3981ZM14.2197 15.2982C14.3854 15.2982 14.5197 15.1639 14.5197 14.9982C14.5197 14.8326 14.3854 14.6982 14.2197 14.6982C14.054 14.6982 13.9197 14.8326 13.9197 14.9982C13.9197 15.1639 14.054 15.2982 14.2197 15.2982ZM7.31961 19.7985C7.31961 19.9642 7.1853 20.0985 7.01959 20.0985C6.85391 20.0985 6.7196 19.9642 6.7196 19.7985C6.7196 19.6328 6.85391 19.4985 7.01959 19.4985C7.1853 19.4985 7.31961 19.6328 7.31961 19.7985ZM7.31961 20.9982C7.31961 21.1639 7.1853 21.2982 7.01959 21.2982C6.85391 21.2982 6.7196 21.1639 6.7196 20.9982C6.7196 20.8326 6.85391 20.6982 7.01959 20.6982C7.1853 20.6982 7.31961 20.8326 7.31961 20.9982ZM8.21954 19.4982C8.38525 19.4982 8.51956 19.3639 8.51956 19.1982C8.51956 19.0325 8.38525 18.8982 8.21954 18.8982C8.05386 18.8982 7.91955 19.0325 7.91955 19.1982C7.91955 19.3639 8.05386 19.4982 8.21954 19.4982ZM9.71963 19.7985C9.71963 19.9642 9.58533 20.0985 9.41962 20.0985C9.25394 20.0985 9.11963 19.9642 9.11963 19.7985C9.11963 19.6328 9.25394 19.4985 9.41962 19.4985C9.58533 19.4985 9.71963 19.6328 9.71963 19.7985ZM8.21954 20.6984C8.38525 20.6984 8.51956 20.5641 8.51956 20.3984C8.51956 20.2327 8.38525 20.0984 8.21954 20.0984C8.05386 20.0984 7.91955 20.2327 7.91955 20.3984C7.91955 20.5641 8.05386 20.6984 8.21954 20.6984ZM9.71963 20.9982C9.71963 21.1639 9.58533 21.2982 9.41962 21.2982C9.25394 21.2982 9.11963 21.1639 9.11963 20.9982C9.11963 20.8326 9.25394 20.6982 9.41962 20.6982C9.58533 20.6982 9.71963 20.8326 9.71963 20.9982ZM10.6196 19.4982C10.7853 19.4982 10.9196 19.3639 10.9196 19.1982C10.9196 19.0325 10.7853 18.8982 10.6196 18.8982C10.4539 18.8982 10.3196 19.0325 10.3196 19.1982C10.3196 19.3639 10.4539 19.4982 10.6196 19.4982ZM12.1195 19.7985C12.1195 19.9642 11.9852 20.0985 11.8195 20.0985C11.6538 20.0985 11.5195 19.9642 11.5195 19.7985C11.5195 19.6328 11.6538 19.4985 11.8195 19.4985C11.9852 19.4985 12.1195 19.6328 12.1195 19.7985ZM10.6196 20.6984C10.7853 20.6984 10.9196 20.5641 10.9196 20.3984C10.9196 20.2327 10.7853 20.0984 10.6196 20.0984C10.4539 20.0984 10.3196 20.2327 10.3196 20.3984C10.3196 20.5641 10.4539 20.6984 10.6196 20.6984ZM12.1195 20.9982C12.1195 21.1639 11.9852 21.2982 11.8195 21.2982C11.6538 21.2982 11.5195 21.1639 11.5195 20.9982C11.5195 20.8326 11.6538 20.6982 11.8195 20.6982C11.9852 20.6982 12.1195 20.8326 12.1195 20.9982ZM13.0196 19.4982C13.1853 19.4982 13.3196 19.3639 13.3196 19.1982C13.3196 19.0325 13.1853 18.8982 13.0196 18.8982C12.8539 18.8982 12.7196 19.0325 12.7196 19.1982C12.7196 19.3639 12.8539 19.4982 13.0196 19.4982ZM14.5197 19.7985C14.5197 19.9642 14.3854 20.0985 14.2197 20.0985C14.054 20.0985 13.9197 19.9642 13.9197 19.7985C13.9197 19.6328 14.054 19.4985 14.2197 19.4985C14.3854 19.4985 14.5197 19.6328 14.5197 19.7985ZM13.0196 20.6984C13.1853 20.6984 13.3196 20.5641 13.3196 20.3984C13.3196 20.2327 13.1853 20.0984 13.0196 20.0984C12.8539 20.0984 12.7196 20.2327 12.7196 20.3984C12.7196 20.5641 12.8539 20.6984 13.0196 20.6984ZM14.5197 20.9982C14.5197 21.1639 14.3854 21.2982 14.2197 21.2982C14.054 21.2982 13.9197 21.1639 13.9197 20.9982C13.9197 20.8326 14.054 20.6982 14.2197 20.6982C14.3854 20.6982 14.5197 20.8326 14.5197 20.9982ZM15.7196 13.1982C15.7196 13.3639 15.5853 13.4982 15.4196 13.4982C15.2539 13.4982 15.1196 13.3639 15.1196 13.1982C15.1196 13.0325 15.2539 12.8982 15.4196 12.8982C15.5853 12.8982 15.7196 13.0325 15.7196 13.1982ZM16.6196 14.0983C16.7853 14.0983 16.9196 13.964 16.9196 13.7983C16.9196 13.6326 16.7853 13.4983 16.6196 13.4983C16.4539 13.4983 16.3196 13.6326 16.3196 13.7983C16.3196 13.964 16.4539 14.0983 16.6196 14.0983ZM15.7196 14.3981C15.7196 14.5638 15.5853 14.6982 15.4196 14.6982C15.2539 14.6982 15.1196 14.5638 15.1196 14.3981C15.1196 14.2325 15.2539 14.0981 15.4196 14.0981C15.5853 14.0981 15.7196 14.2325 15.7196 14.3981ZM16.6196 15.2982C16.7853 15.2982 16.9196 15.1639 16.9196 14.9982C16.9196 14.8326 16.7853 14.6982 16.6196 14.6982C16.4539 14.6982 16.3196 14.8326 16.3196 14.9982C16.3196 15.1639 16.4539 15.2982 16.6196 15.2982ZM17.8196 13.4982C17.9853 13.4982 18.1197 13.3639 18.1197 13.1982C18.1197 13.0325 17.9853 12.8982 17.8196 12.8982C17.654 12.8982 17.5197 13.0325 17.5197 13.1982C17.5197 13.3639 17.654 13.4982 17.8196 13.4982ZM17.8196 14.6982C17.9853 14.6982 18.1197 14.5638 18.1197 14.3981C18.1197 14.2325 17.9853 14.0981 17.8196 14.0981C17.654 14.0981 17.5197 14.2325 17.5197 14.3981C17.5197 14.5638 17.654 14.6982 17.8196 14.6982ZM15.7196 19.1982C15.7196 19.3639 15.5853 19.4982 15.4196 19.4982C15.2539 19.4982 15.1196 19.3639 15.1196 19.1982C15.1196 19.0325 15.2539 18.8982 15.4196 18.8982C15.5853 18.8982 15.7196 19.0325 15.7196 19.1982ZM16.6196 20.0985C16.7853 20.0985 16.9196 19.9642 16.9196 19.7985C16.9196 19.6328 16.7853 19.4985 16.6196 19.4985C16.4539 19.4985 16.3196 19.6328 16.3196 19.7985C16.3196 19.9642 16.4539 20.0985 16.6196 20.0985ZM15.7196 20.3984C15.7196 20.5641 15.5853 20.6984 15.4196 20.6984C15.2539 20.6984 15.1196 20.5641 15.1196 20.3984C15.1196 20.2327 15.2539 20.0984 15.4196 20.0984C15.5853 20.0984 15.7196 20.2327 15.7196 20.3984ZM16.6196 21.2982C16.7853 21.2982 16.9196 21.1639 16.9196 20.9982C16.9196 20.8326 16.7853 20.6982 16.6196 20.6982C16.4539 20.6982 16.3196 20.8326 16.3196 20.9982C16.3196 21.1639 16.4539 21.2982 16.6196 21.2982ZM18.1197 19.1982C18.1197 19.3639 17.9853 19.4982 17.8196 19.4982C17.654 19.4982 17.5197 19.3639 17.5197 19.1982C17.5197 19.0325 17.654 18.8982 17.8196 18.8982C17.9853 18.8982 18.1197 19.0325 18.1197 19.1982ZM19.0196 20.0985C19.1853 20.0985 19.3196 19.9642 19.3196 19.7985C19.3196 19.6328 19.1853 19.4985 19.0196 19.4985C18.8539 19.4985 18.7196 19.6328 18.7196 19.7985C18.7196 19.9642 18.8539 20.0985 19.0196 20.0985ZM18.1197 20.3984C18.1197 20.5641 17.9853 20.6984 17.8196 20.6984C17.654 20.6984 17.5197 20.5641 17.5197 20.3984C17.5197 20.2327 17.654 20.0984 17.8196 20.0984C17.9853 20.0984 18.1197 20.2327 18.1197 20.3984ZM19.0196 21.2982C19.1853 21.2982 19.3196 21.1639 19.3196 20.9982C19.3196 20.8326 19.1853 20.6982 19.0196 20.6982C18.8539 20.6982 18.7196 20.8326 18.7196 20.9982C18.7196 21.1639 18.8539 21.2982 19.0196 21.2982ZM6.11954 21.5981C6.11954 21.7638 5.98523 21.8981 5.81952 21.8981C5.65384 21.8981 5.51953 21.7638 5.51953 21.5981C5.51953 21.4324 5.65384 21.2981 5.81952 21.2981C5.98523 21.2981 6.11954 21.4324 6.11954 21.5981ZM7.01959 22.498C7.1853 22.498 7.31961 22.3636 7.31961 22.1979C7.31961 22.0323 7.1853 21.8979 7.01959 21.8979C6.85391 21.8979 6.7196 22.0323 6.7196 22.1979C6.7196 22.3636 6.85391 22.498 7.01959 22.498ZM8.51956 21.5981C8.51956 21.7638 8.38525 21.8981 8.21954 21.8981C8.05386 21.8981 7.91955 21.7638 7.91955 21.5981C7.91955 21.4324 8.05386 21.2981 8.21954 21.2981C8.38525 21.2981 8.51956 21.4324 8.51956 21.5981ZM9.41962 22.498C9.58533 22.498 9.71963 22.3636 9.71963 22.1979C9.71963 22.0323 9.58533 21.8979 9.41962 21.8979C9.25394 21.8979 9.11963 22.0323 9.11963 22.1979C9.11963 22.3636 9.25394 22.498 9.41962 22.498ZM10.9196 21.5981C10.9196 21.7638 10.7853 21.8981 10.6196 21.8981C10.4539 21.8981 10.3196 21.7638 10.3196 21.5981C10.3196 21.4324 10.4539 21.2981 10.6196 21.2981C10.7853 21.2981 10.9196 21.4324 10.9196 21.5981ZM11.8195 22.498C11.9852 22.498 12.1195 22.3636 12.1195 22.1979C12.1195 22.0323 11.9852 21.8979 11.8195 21.8979C11.6538 21.8979 11.5195 22.0323 11.5195 22.1979C11.5195 22.3636 11.6538 22.498 11.8195 22.498ZM13.3196 21.5981C13.3196 21.7638 13.1853 21.8981 13.0196 21.8981C12.8539 21.8981 12.7196 21.7638 12.7196 21.5981C12.7196 21.4324 12.8539 21.2981 13.0196 21.2981C13.1853 21.2981 13.3196 21.4324 13.3196 21.5981ZM14.2197 22.498C14.3854 22.498 14.5197 22.3636 14.5197 22.1979C14.5197 22.0323 14.3854 21.8979 14.2197 21.8979C14.054 21.8979 13.9197 22.0323 13.9197 22.1979C13.9197 22.3636 14.054 22.498 14.2197 22.498ZM15.7196 21.5981C15.7196 21.7638 15.5853 21.8981 15.4196 21.8981C15.2539 21.8981 15.1196 21.7638 15.1196 21.5981C15.1196 21.4324 15.2539 21.2981 15.4196 21.2981C15.5853 21.2981 15.7196 21.4324 15.7196 21.5981ZM16.6196 22.498C16.7853 22.498 16.9196 22.3636 16.9196 22.1979C16.9196 22.0323 16.7853 21.8979 16.6196 21.8979C16.4539 21.8979 16.3196 22.0323 16.3196 22.1979C16.3196 22.3636 16.4539 22.498 16.6196 22.498ZM18.1197 21.5981C18.1197 21.7638 17.9853 21.8981 17.8196 21.8981C17.654 21.8981 17.5197 21.7638 17.5197 21.5981C17.5197 21.4324 17.654 21.2981 17.8196 21.2981C17.9853 21.2981 18.1197 21.4324 18.1197 21.5981ZM19.0196 22.498C19.1853 22.498 19.3196 22.3636 19.3196 22.1979C19.3196 22.0323 19.1853 21.8979 19.0196 21.8979C18.8539 21.8979 18.7196 22.0323 18.7196 22.1979C18.7196 22.3636 18.8539 22.498 19.0196 22.498ZM9.71963 23.3984C9.71963 23.5641 9.58533 23.6984 9.41962 23.6984C9.25394 23.6984 9.11963 23.5641 9.11963 23.3984C9.11963 23.2327 9.25394 23.0984 9.41962 23.0984C9.58533 23.0984 9.71963 23.2327 9.71963 23.3984ZM10.6196 23.0985C10.7853 23.0985 10.9196 22.9642 10.9196 22.7985C10.9196 22.6328 10.7853 22.4985 10.6196 22.4985C10.4539 22.4985 10.3196 22.6328 10.3196 22.7985C10.3196 22.9642 10.4539 23.0985 10.6196 23.0985ZM12.1195 23.3984C12.1195 23.5641 11.9852 23.6984 11.8195 23.6984C11.6538 23.6984 11.5195 23.5641 11.5195 23.3984C11.5195 23.2327 11.6538 23.0984 11.8195 23.0984C11.9852 23.0984 12.1195 23.2327 12.1195 23.3984ZM14.5197 23.3984C14.5197 23.5641 14.3854 23.6984 14.2197 23.6984C14.054 23.6984 13.9197 23.5641 13.9197 23.3984C13.9197 23.2327 14.054 23.0984 14.2197 23.0984C14.3854 23.0984 14.5197 23.2327 14.5197 23.3984ZM15.4196 23.0985C15.5853 23.0985 15.7196 22.9642 15.7196 22.7985C15.7196 22.6328 15.5853 22.4985 15.4196 22.4985C15.2539 22.4985 15.1196 22.6328 15.1196 22.7985C15.1196 22.9642 15.2539 23.0985 15.4196 23.0985ZM16.9196 23.3984C16.9196 23.5641 16.7853 23.6984 16.6196 23.6984C16.4539 23.6984 16.3196 23.5641 16.3196 23.3984C16.3196 23.2327 16.4539 23.0984 16.6196 23.0984C16.7853 23.0984 16.9196 23.2327 16.9196 23.3984Z"
        fill="#B89B64" fill-rule="evenodd" />
</svg>
