<svg fill="none" height="27" viewBox="0 0 38 27" width="38" xmlns="http://www.w3.org/2000/svg">
    <path clip-rule="evenodd"
        d="M3.26074 1.53949C6.1067 2.86401 8.1387 4.64541 9.92545 6.48901C10.4776 7.0588 11.0135 7.64303 11.5456 8.22326L11.5473 8.22519L11.5489 8.22693C12.2057 8.9432 12.8574 9.65396 13.5293 10.326L11.7797 12.2155C10.6035 11.1569 9.80467 10.2166 9.05714 9.33667L9.05225 9.3309C8.81116 9.04715 8.57538 8.76965 8.33386 8.49649C6.99146 6.97796 5.52757 5.6687 2.22369 4.35721C2.22062 4.35598 2.21795 4.35382 2.21617 4.35147C2.48139 3.22488 2.74219 2.50503 3.26074 1.53949ZM12.5376 12.8689L14.2487 11.021C14.3773 11.1404 14.5068 11.2582 14.6376 11.374L12.9467 13.2C12.879 13.1463 12.8124 13.093 12.7467 13.0399C12.6758 12.9825 12.6061 12.9255 12.5376 12.8689ZM14.3754 14.9599C14.2361 14.8357 14.0969 14.7116 13.9576 14.5878C13.7868 14.436 13.616 14.2846 13.4448 14.134L15.4076 12.0142C15.5975 12.1529 15.7832 12.2697 15.9657 12.3652L15.9621 12.3717C16.5028 12.6721 16.7276 13.0487 16.7896 13.3981C16.8544 13.763 16.7531 14.1659 16.5165 14.5149C16.2796 14.8641 15.9308 15.1233 15.556 15.2199C15.1995 15.3119 14.7914 15.2654 14.3754 14.9599ZM16.5672 16.878C16.335 16.6828 16.1049 16.4857 15.8765 16.2874C15.9885 16.2701 16.08 16.1909 16.1151 16.0859C16.6199 15.8806 17.0472 15.5139 17.3441 15.0761C17.7001 14.5512 17.8922 13.8882 17.7742 13.2233C17.7401 13.0314 17.6811 12.8446 17.5966 12.6656C18.2584 12.5545 18.8207 12.1716 19.3188 11.8076C19.3986 11.7492 19.4781 11.6904 19.5576 11.6316C20.5843 10.8718 21.6076 10.1145 23.3598 10.4047L23.3613 10.4052C23.3623 10.4056 23.3638 10.4063 23.3661 10.4076C23.3708 10.4102 23.3743 10.4134 23.3761 10.4155C23.9761 11.1169 24.4677 11.808 24.9547 12.4927L25.0461 12.6212C25.5594 13.3423 26.0767 14.0591 26.6999 14.7292C27.9662 16.0909 29.6405 17.2291 32.6034 18.0047C34.7895 18.577 36.3682 20.493 36.164 22.6274C31.8907 23.0687 28.5023 22.7509 25.6983 21.9759C25.7186 21.9355 25.7301 21.8897 25.7301 21.8412C25.7301 21.6756 25.5958 21.5413 25.4301 21.5413C25.2747 21.5413 25.1469 21.6594 25.1317 21.8108C24.8492 21.7242 24.5728 21.6328 24.3021 21.5371C23.5071 21.2561 22.7594 20.9369 22.0507 20.587C22.0024 20.5348 21.9359 20.4999 21.8613 20.4923C20.1239 19.6128 18.6204 18.55 17.2239 17.4201C17.289 17.365 17.3303 17.2828 17.3303 17.1909C17.3303 17.0252 17.196 16.8909 17.0303 16.8909C16.9173 16.8909 16.8189 16.9534 16.7677 17.0457L16.6747 16.9681L16.5672 16.878ZM37.1473 22.836L37.13 22.981V24.0369C37.13 24.847 36.5132 25.5288 35.7198 25.6306C30.0757 26.3547 25.9006 25.969 22.5929 24.9615C19.2832 23.9533 16.8768 22.3325 14.7648 20.6434C14.1147 20.1234 13.4939 19.5995 12.8857 19.0861L12.8831 19.0839L12.8822 19.0831L12.8799 19.0811L12.8766 19.0783C12.2236 18.5271 11.5841 17.9874 10.9355 17.4756C10.8692 17.4535 10.8132 17.4089 10.7765 17.3509C10.2609 16.9487 9.73827 16.5649 9.19746 16.2078C8.90457 16.0517 8.60251 16.0533 8.37816 16.156C8.13623 16.2669 7.91286 16.5286 7.91286 17.0217V24.4918C7.91286 24.7367 7.82967 24.9621 7.69 25.1413C7.67084 25.1743 7.64561 25.2033 7.61575 25.2268C7.42343 25.4258 7.15375 25.5495 6.85516 25.5495H4.96368C4.5305 25.5495 4.14111 25.2854 3.98094 24.8829L1.10672 17.6602C0.607109 16.4048 0.339714 15.0695 0.317009 13.7195H0.31543V13.5317V10.0937C0.31543 9.20843 1.04476 8.45507 1.96711 8.51535C4.71048 8.69458 6.92734 9.51657 8.88548 10.6746C8.67508 10.4326 8.47565 10.1976 8.28188 9.96936L8.28055 9.9678L8.27684 9.96341L8.27034 9.95572C8.03679 9.68069 7.81137 9.41525 7.58466 9.15881C6.33583 7.74615 4.99869 6.53466 1.85474 5.28668C1.40868 5.10962 1.12422 4.62655 1.2412 4.12903C1.52582 2.91851 1.81672 2.11227 2.38774 1.05151C2.6355 0.591244 3.19853 0.407956 3.66899 0.626492C6.67706 2.02377 8.81116 3.90237 10.6435 5.79306C11.2421 6.41061 11.8014 7.0209 12.3453 7.61438L12.3456 7.61474C13.4874 8.86059 14.561 10.0319 15.7852 11.0395L15.7839 11.0412C16.4821 11.6126 16.9679 11.7287 17.3431 11.6912C17.7706 11.6485 18.1813 11.4003 18.7288 11.0002C18.7689 10.9709 18.8094 10.941 18.8505 10.9106L18.9721 10.8201L18.9754 10.8177C19.9996 10.055 21.3405 9.05658 23.5232 9.41815C23.7645 9.45813 23.9823 9.58584 24.136 9.76547C24.7661 10.5021 25.2816 11.227 25.7648 11.9064L25.8608 12.0413C26.376 12.765 26.859 13.4319 27.4322 14.0482C28.5587 15.2595 30.0618 16.3057 32.8566 17.0373C35.4507 17.7164 37.4767 20.0682 37.1473 22.836ZM7.72997 15.375C7.7406 15.368 7.75133 15.3612 7.76213 15.3544L7.72519 15.335C7.72765 15.3481 7.72926 15.3614 7.72997 15.375ZM7.37518 15.6858C7.23586 15.6598 7.13037 15.5377 7.13037 15.3908C7.13037 15.2721 7.19933 15.1695 7.29938 15.1208C7.04866 14.9998 6.79248 14.8852 6.53 14.7774C6.5302 14.7819 6.5303 14.7864 6.5303 14.791C6.5303 14.9567 6.39598 15.091 6.2303 15.091C6.06461 15.091 5.9303 14.9567 5.9303 14.791C5.9303 14.7083 5.96373 14.6335 6.01781 14.5792C5.78122 14.4931 5.5394 14.4126 5.29181 14.3381C5.24034 14.4293 5.14255 14.4909 5.03035 14.4909C4.86465 14.4909 4.73035 14.3566 4.73035 14.1909L4.73047 14.1822C3.80644 13.9467 2.80196 13.7929 1.6908 13.74C1.63907 13.8303 1.54182 13.891 1.43037 13.891C1.415 13.891 1.3999 13.8899 1.38515 13.8876C1.3629 13.8843 1.34145 13.8784 1.32108 13.8705C1.32808 14.0805 1.34158 14.2901 1.36154 14.4989C1.36713 14.4976 1.37279 14.4964 1.37849 14.4954C1.39535 14.4925 1.41268 14.491 1.43037 14.491C1.59606 14.491 1.73038 14.6253 1.73038 14.791C1.73038 14.9549 1.59893 15.0881 1.43571 15.0909C1.46828 15.3008 1.50743 15.5097 1.55309 15.7171C1.65759 15.764 1.73038 15.869 1.73038 15.9909C1.73038 16.0612 1.70618 16.1259 1.66564 16.1771C1.76731 16.5543 1.89084 16.9261 2.03585 17.2905L2.59401 18.6931L2.59991 18.6924L2.60924 18.6916C2.6162 18.6912 2.62323 18.6909 2.63033 18.6909C2.79601 18.6909 2.93033 18.8252 2.93033 18.9909C2.93033 19.0898 2.88243 19.1776 2.80856 19.2323L3.78815 21.6938C3.80191 21.6919 3.81598 21.6909 3.83028 21.6909C3.99596 21.6909 4.13028 21.8252 4.13028 21.9909C4.13028 22.0919 4.08034 22.1813 4.00378 22.2357L4.91008 24.5131C4.91882 24.5351 4.94006 24.5495 4.96368 24.5495H5.97565C5.9469 24.5035 5.9303 24.4491 5.9303 24.3908C5.9303 24.2251 6.06461 24.0908 6.2303 24.0908C6.39598 24.0908 6.5303 24.2251 6.5303 24.3908C6.5303 24.4491 6.5137 24.5035 6.48495 24.5495H6.85516C6.88702 24.5495 6.91286 24.5237 6.91286 24.4918V17.0217C6.91286 16.479 7.08487 16.0208 7.37518 15.6858ZM6.51047 13.6985C6.74969 13.7885 6.98381 13.8838 7.21324 13.9839C7.26788 13.9266 7.34496 13.8909 7.43037 13.8909C7.59605 13.8909 7.73038 14.0252 7.73038 14.1909C7.73038 14.2008 7.72989 14.2106 7.72894 14.2203C7.96463 14.3337 8.19548 14.4521 8.42203 14.5751C8.47598 14.523 8.54941 14.491 8.63033 14.491C8.79601 14.491 8.93033 14.6253 8.93033 14.791C8.93033 14.814 8.92773 14.8364 8.92282 14.8579C9.14021 14.9855 9.35382 15.1171 9.56413 15.2522C9.61418 15.1563 9.71458 15.0908 9.83028 15.0908C9.99596 15.0908 10.1303 15.2251 10.1303 15.3908C10.1303 15.4635 10.1044 15.5301 10.0614 15.5821C10.2906 15.7388 10.5163 15.8994 10.7391 16.0633C10.737 16.0547 10.7353 16.046 10.7339 16.0372C10.7316 16.0221 10.7303 16.0066 10.7303 15.9909C10.7303 15.8252 10.8647 15.6909 11.0303 15.6909C11.196 15.6909 11.3304 15.8252 11.3304 15.9909C11.3304 16.1521 11.2033 16.2836 11.0438 16.2906C11.8159 16.8746 12.5571 17.4945 13.2984 18.1213C13.3383 18.1018 13.383 18.0908 13.4304 18.0908C13.5961 18.0908 13.7304 18.2251 13.7304 18.3908C13.7304 18.4206 13.726 18.4493 13.718 18.4764C13.9214 18.6486 14.1254 18.8209 14.3303 18.9927L14.3303 18.9909C14.3303 18.8252 14.4646 18.6909 14.6303 18.6909C14.796 18.6909 14.9303 18.8252 14.9303 18.9909C14.9303 19.1388 14.8234 19.2616 14.6827 19.2864C14.9161 19.4797 15.1513 19.6721 15.3894 19.8624C15.9136 20.2817 16.4529 20.6939 17.0174 21.0911L17.0303 21.0908C17.1636 21.0908 17.2766 21.1777 17.3157 21.298C17.5491 21.4574 17.7869 21.6141 18.0299 21.7676C18.083 21.7199 18.1532 21.6909 18.2302 21.6909C18.3959 21.6909 18.5302 21.8252 18.5302 21.9909C18.5302 22.0177 18.5267 22.0437 18.5201 22.0685C18.7327 22.1952 18.9495 22.3193 19.1707 22.4406C19.2226 22.3513 19.3194 22.2913 19.4301 22.2913C19.5958 22.2913 19.7301 22.4256 19.7301 22.5912C19.7301 22.6377 19.7196 22.6817 19.7007 22.721C19.9186 22.8321 20.1409 22.9404 20.3679 23.0455C20.4191 22.9534 20.5174 22.8911 20.6302 22.8911C20.7959 22.8911 20.9302 23.0254 20.9302 23.1911C20.9302 23.2251 20.9245 23.2578 20.9141 23.2883C21.1455 23.3868 21.3817 23.4821 21.6232 23.5739C21.677 23.5225 21.75 23.491 21.8303 23.491C21.9848 23.491 22.1121 23.6079 22.1285 23.7581C22.375 23.8441 22.6268 23.9264 22.8843 24.0049C23.603 24.2238 24.3679 24.4128 25.1864 24.5658C25.151 24.5165 25.1301 24.4561 25.1301 24.3908C25.1301 24.2251 25.2644 24.0908 25.4301 24.0908C25.5958 24.0908 25.7301 24.2251 25.7301 24.3908C25.7301 24.494 25.678 24.585 25.5987 24.639C25.8711 24.6848 26.1492 24.7267 26.4335 24.7644C26.4861 24.7186 26.5549 24.6909 26.6302 24.6909C26.732 24.6909 26.822 24.7417 26.8763 24.8192C27.4681 24.8873 28.0857 24.9376 28.7312 24.9684C28.7427 24.8133 28.8722 24.6909 29.0303 24.6909C29.196 24.6909 29.3304 24.8252 29.3304 24.9909C29.9081 25.0072 30.5076 25.0083 31.1303 24.9929L31.1302 24.9909C31.1302 24.8252 31.2646 24.6909 31.4303 24.6909C31.59 24.6909 31.7206 24.8158 31.7297 24.9732C32.3198 24.9491 32.9302 24.9106 33.5619 24.8567C33.6112 24.7584 33.7128 24.6909 33.8303 24.6909C33.9282 24.6909 34.0152 24.7379 34.0699 24.8104C34.5645 24.7626 35.0718 24.7055 35.5925 24.6387C35.8845 24.6013 36.1107 24.3553 36.1289 24.0734C36.0131 24.0318 35.9303 23.921 35.9303 23.791C35.9303 23.7409 35.9426 23.6937 35.9642 23.6522C35.3351 23.7126 34.7241 23.7569 34.1302 23.7859L34.1303 23.791C34.1303 23.9567 33.996 24.091 33.8303 24.091C33.671 24.091 33.5408 23.9669 33.5309 23.8101C32.9115 23.83 32.3111 23.833 31.7289 23.8201C31.7142 23.9721 31.5861 24.091 31.4303 24.091C31.2679 24.091 31.1357 23.9621 31.1304 23.801C30.5003 23.7747 29.8918 23.7294 29.3034 23.6665C29.3207 23.7044 29.3304 23.7465 29.3304 23.791C29.3304 23.9567 29.196 24.091 29.0303 24.091C28.8647 24.091 28.7303 23.9567 28.7303 23.791C28.7303 23.7216 28.7539 23.6578 28.7933 23.607C28.4943 23.5692 28.2006 23.5267 27.912 23.4798C27.9044 23.482 27.8967 23.4838 27.8889 23.4854C27.881 23.4869 27.873 23.4882 27.8649 23.4891C27.8536 23.4904 27.842 23.4911 27.8303 23.4911C27.7665 23.4911 27.7075 23.4712 27.6589 23.4374C26.9649 23.3172 26.3007 23.1713 25.6634 23.0025C25.7052 23.054 25.7301 23.1197 25.7301 23.1911C25.7301 23.3568 25.5958 23.4911 25.4301 23.4911C25.2644 23.4911 25.1301 23.3568 25.1301 23.1911C25.1301 23.0624 25.2112 22.9526 25.3251 22.91C25.052 22.8331 24.784 22.7519 24.5207 22.6667C24.4872 22.7959 24.3699 22.8913 24.2303 22.8913C24.0646 22.8913 23.9303 22.757 23.9303 22.5912C23.9303 22.5499 23.9387 22.5105 23.9538 22.4746C23.7112 22.3887 23.4729 22.2993 23.2386 22.2068C23.1847 22.2589 23.1112 22.2909 23.0303 22.2909C22.8672 22.2909 22.7345 22.1608 22.7304 21.9987C22.4714 21.8886 22.2174 21.7747 21.9682 21.6573C21.9269 21.6787 21.88 21.6908 21.8303 21.6908C21.6841 21.6908 21.5623 21.5862 21.5357 21.4478C21.2782 21.3195 21.0258 21.1874 20.7782 21.052C20.7345 21.0768 20.684 21.091 20.6302 21.091C20.4677 21.091 20.3354 20.9618 20.3304 20.8006C20.0999 20.6678 19.8736 20.5322 19.6511 20.394C19.5963 20.4537 19.5176 20.4911 19.4301 20.4911C19.2644 20.4911 19.1301 20.3568 19.1301 20.1911C19.1301 20.1841 19.1304 20.1772 19.1308 20.1703C19.1312 20.1652 19.1317 20.16 19.1323 20.1549C19.1332 20.1472 19.1344 20.1396 19.1359 20.132C19.1373 20.1251 19.139 20.1182 19.1408 20.1114L19.1433 20.1027L19.1463 20.0935C19.1483 20.0877 19.1505 20.082 19.1528 20.0764C18.9398 19.9371 18.7303 19.7956 18.5239 19.6522C18.4957 19.7886 18.3749 19.891 18.2302 19.891C18.0645 19.891 17.9302 19.7567 17.9302 19.591C17.9302 19.482 17.9883 19.3866 18.0753 19.334C17.3213 18.7885 16.609 18.2197 15.9237 17.6434C15.8764 17.6037 15.8293 17.5639 15.7823 17.5241L15.7167 17.4686C15.6574 17.4443 15.6076 17.4015 15.5745 17.3475C14.9362 16.8024 14.3216 16.2559 13.7179 15.719C10.241 12.627 7.12328 9.85437 1.90191 9.51321C1.59486 9.49316 1.31543 9.74698 1.31543 10.0937V12.7259C3.07236 12.7707 4.59059 13.0516 5.94476 13.4987C5.98369 13.3782 6.0968 13.291 6.2303 13.291C6.39598 13.291 6.5303 13.4253 6.5303 13.591C6.5303 13.6289 6.52328 13.6651 6.51047 13.6985ZM2.93033 14.1909C2.93033 14.3566 2.79601 14.4909 2.63033 14.4909C2.46464 14.4909 2.33032 14.3566 2.33032 14.1909C2.33032 14.0252 2.46464 13.8909 2.63033 13.8909C2.79601 13.8909 2.93033 14.0252 2.93033 14.1909ZM2.63033 15.6908C2.79601 15.6908 2.93033 15.5565 2.93033 15.3908C2.93033 15.2251 2.79601 15.0908 2.63033 15.0908C2.46464 15.0908 2.33032 15.2251 2.33032 15.3908C2.33032 15.5565 2.46464 15.6908 2.63033 15.6908ZM2.93033 16.591C2.93033 16.7567 2.79601 16.891 2.63033 16.891C2.46464 16.891 2.33032 16.7567 2.33032 16.591C2.33032 16.4253 2.46464 16.291 2.63033 16.291C2.79601 16.291 2.93033 16.4253 2.93033 16.591ZM2.93033 17.791C2.93033 17.9567 2.79601 18.091 2.63033 18.091C2.46464 18.091 2.33032 17.9567 2.33032 17.791C2.33032 17.6253 2.46464 17.491 2.63033 17.491C2.79601 17.491 2.93033 17.6253 2.93033 17.791ZM3.83028 15.091C3.99596 15.091 4.13028 14.9567 4.13028 14.791C4.13028 14.6253 3.99596 14.491 3.83028 14.491C3.66458 14.491 3.53027 14.6253 3.53027 14.791C3.53027 14.9567 3.66458 15.091 3.83028 15.091ZM4.13028 15.9909C4.13028 16.1566 3.99596 16.2909 3.83028 16.2909C3.66458 16.2909 3.53027 16.1566 3.53027 15.9909C3.53027 15.8252 3.66458 15.6909 3.83028 15.6909C3.99596 15.6909 4.13028 15.8252 4.13028 15.9909ZM5.03035 15.6908C5.19603 15.6908 5.33035 15.5565 5.33035 15.3908C5.33035 15.2251 5.19603 15.0908 5.03035 15.0908C4.86465 15.0908 4.73035 15.2251 4.73035 15.3908C4.73035 15.5565 4.86465 15.6908 5.03035 15.6908ZM5.33035 16.591C5.33035 16.7567 5.19603 16.891 5.03035 16.891C4.86465 16.891 4.73035 16.7567 4.73035 16.591C4.73035 16.4253 4.86465 16.291 5.03035 16.291C5.19603 16.291 5.33035 16.4253 5.33035 16.591ZM3.83028 17.4909C3.99596 17.4909 4.13028 17.3566 4.13028 17.1909C4.13028 17.0252 3.99596 16.8909 3.83028 16.8909C3.66458 16.8909 3.53027 17.0252 3.53027 17.1909C3.53027 17.3566 3.66458 17.4909 3.83028 17.4909ZM5.33035 17.791C5.33035 17.9567 5.19603 18.091 5.03035 18.091C4.86465 18.091 4.73035 17.9567 4.73035 17.791C4.73035 17.6253 4.86465 17.491 5.03035 17.491C5.19603 17.491 5.33035 17.6253 5.33035 17.791ZM3.83028 18.6908C3.99596 18.6908 4.13028 18.5565 4.13028 18.3908C4.13028 18.2251 3.99596 18.0908 3.83028 18.0908C3.66458 18.0908 3.53027 18.2251 3.53027 18.3908C3.53027 18.5565 3.66458 18.6908 3.83028 18.6908ZM4.13028 19.591C4.13028 19.7567 3.99596 19.891 3.83028 19.891C3.66458 19.891 3.53027 19.7567 3.53027 19.591C3.53027 19.4253 3.66458 19.291 3.83028 19.291C3.99596 19.291 4.13028 19.4253 4.13028 19.591ZM5.03035 19.2909C5.19603 19.2909 5.33035 19.1566 5.33035 18.9909C5.33035 18.8252 5.19603 18.6909 5.03035 18.6909C4.86465 18.6909 4.73035 18.8252 4.73035 18.9909C4.73035 19.1566 4.86465 19.2909 5.03035 19.2909ZM5.33035 20.1911C5.33035 20.3568 5.19603 20.4911 5.03035 20.4911C4.86465 20.4911 4.73035 20.3568 4.73035 20.1911C4.73035 20.0254 4.86465 19.8911 5.03035 19.8911C5.19603 19.8911 5.33035 20.0254 5.33035 20.1911ZM3.83028 21.091C3.99596 21.091 4.13028 20.9567 4.13028 20.791C4.13028 20.6253 3.99596 20.491 3.83028 20.491C3.66458 20.491 3.53027 20.6253 3.53027 20.791C3.53027 20.9567 3.66458 21.091 3.83028 21.091ZM5.33035 21.3908C5.33035 21.5565 5.19603 21.6908 5.03035 21.6908C4.86465 21.6908 4.73035 21.5565 4.73035 21.3908C4.73035 21.2251 4.86465 21.0908 5.03035 21.0908C5.19603 21.0908 5.33035 21.2251 5.33035 21.3908ZM6.5303 15.9909C6.5303 16.1566 6.39598 16.2909 6.2303 16.2909C6.06461 16.2909 5.9303 16.1566 5.9303 15.9909C5.9303 15.8252 6.06461 15.6909 6.2303 15.6909C6.39598 15.6909 6.5303 15.8252 6.5303 15.9909ZM6.2303 17.4909C6.39598 17.4909 6.5303 17.3566 6.5303 17.1909C6.5303 17.0252 6.39598 16.8909 6.2303 16.8909C6.06461 16.8909 5.9303 17.0252 5.9303 17.1909C5.9303 17.3566 6.06461 17.4909 6.2303 17.4909ZM6.2303 18.6908C6.39598 18.6908 6.5303 18.5565 6.5303 18.3908C6.5303 18.2251 6.39598 18.0908 6.2303 18.0908C6.06461 18.0908 5.9303 18.2251 5.9303 18.3908C5.9303 18.5565 6.06461 18.6908 6.2303 18.6908ZM6.5303 19.591C6.5303 19.7567 6.39598 19.891 6.2303 19.891C6.06461 19.891 5.9303 19.7567 5.9303 19.591C5.9303 19.4253 6.06461 19.291 6.2303 19.291C6.39598 19.291 6.5303 19.4253 6.5303 19.591ZM6.2303 21.091C6.39598 21.091 6.5303 20.9567 6.5303 20.791C6.5303 20.6253 6.39598 20.491 6.2303 20.491C6.06461 20.491 5.9303 20.6253 5.9303 20.791C5.9303 20.9567 6.06461 21.091 6.2303 21.091ZM12.2304 16.891C12.3961 16.891 12.5304 16.7567 12.5304 16.591C12.5304 16.4253 12.3961 16.291 12.2304 16.291C12.0647 16.291 11.9304 16.4253 11.9304 16.591C11.9304 16.7567 12.0647 16.891 12.2304 16.891ZM5.33035 22.5912C5.33035 22.757 5.19603 22.8913 5.03035 22.8913C4.86465 22.8913 4.73035 22.757 4.73035 22.5912C4.73035 22.4256 4.86465 22.2913 5.03035 22.2913C5.19603 22.2913 5.33035 22.4256 5.33035 22.5912ZM5.33035 23.791C5.33035 23.9567 5.19603 24.091 5.03035 24.091C4.86465 24.091 4.73035 23.9567 4.73035 23.791C4.73035 23.6253 4.86465 23.491 5.03035 23.491C5.19603 23.491 5.33035 23.6253 5.33035 23.791ZM6.5303 21.9909C6.5303 22.1566 6.39598 22.2909 6.2303 22.2909C6.06461 22.2909 5.9303 22.1566 5.9303 21.9909C5.9303 21.8252 6.06461 21.6909 6.2303 21.6909C6.39598 21.6909 6.5303 21.8252 6.5303 21.9909ZM6.5303 23.1911C6.5303 23.3568 6.39598 23.4911 6.2303 23.4911C6.06461 23.4911 5.9303 23.3568 5.9303 23.1911C5.9303 23.0254 6.06461 22.8911 6.2303 22.8911C6.39598 22.8911 6.5303 23.0254 6.5303 23.1911ZM13.7304 17.1909C13.7304 17.3566 13.5961 17.4909 13.4304 17.4909C13.2647 17.4909 13.1304 17.3566 13.1304 17.1909C13.1304 17.0252 13.2647 16.8909 13.4304 16.8909C13.5961 16.8909 13.7304 17.0252 13.7304 17.1909ZM14.6303 18.091C14.796 18.091 14.9303 17.9567 14.9303 17.791C14.9303 17.6253 14.796 17.491 14.6303 17.491C14.4646 17.491 14.3303 17.6253 14.3303 17.791C14.3303 17.9567 14.4646 18.091 14.6303 18.091ZM15.8304 18.6908C15.9961 18.6908 16.1304 18.5565 16.1304 18.3908C16.1304 18.2251 15.9961 18.0908 15.8304 18.0908C15.6647 18.0908 15.5304 18.2251 15.5304 18.3908C15.5304 18.5565 15.6647 18.6908 15.8304 18.6908ZM16.1304 19.591C16.1304 19.7567 15.9961 19.891 15.8304 19.891C15.6647 19.891 15.5304 19.7567 15.5304 19.591C15.5304 19.4253 15.6647 19.291 15.8304 19.291C15.9961 19.291 16.1304 19.4253 16.1304 19.591ZM17.0303 19.2909C17.196 19.2909 17.3304 19.1566 17.3304 18.9909C17.3304 18.8252 17.196 18.6909 17.0303 18.6909C16.8647 18.6909 16.7303 18.8252 16.7303 18.9909C16.7303 19.1566 16.8647 19.2909 17.0303 19.2909ZM17.3304 20.1911C17.3304 20.3568 17.196 20.4911 17.0303 20.4911C16.8647 20.4911 16.7303 20.3568 16.7303 20.1911C16.7303 20.0254 16.8647 19.8911 17.0303 19.8911C17.196 19.8911 17.3304 20.0254 17.3304 20.1911ZM18.2302 21.091C18.3959 21.091 18.5302 20.9567 18.5302 20.791C18.5302 20.6253 18.3959 20.491 18.2302 20.491C18.0645 20.491 17.9302 20.6253 17.9302 20.791C17.9302 20.9567 18.0645 21.091 18.2302 21.091ZM19.7301 21.3908C19.7301 21.5565 19.5958 21.6908 19.4301 21.6908C19.2644 21.6908 19.1301 21.5565 19.1301 21.3908C19.1301 21.2251 19.2644 21.0908 19.4301 21.0908C19.5958 21.0908 19.7301 21.2251 19.7301 21.3908ZM20.6302 22.2909C20.7959 22.2909 20.9302 22.1566 20.9302 21.9909C20.9302 21.8252 20.7959 21.6909 20.6302 21.6909C20.4645 21.6909 20.3302 21.8252 20.3302 21.9909C20.3302 22.1566 20.4645 22.2909 20.6302 22.2909ZM22.1303 22.5912C22.1303 22.757 21.996 22.8913 21.8303 22.8913C21.6646 22.8913 21.5303 22.757 21.5303 22.5912C21.5303 22.4256 21.6646 22.2913 21.8303 22.2913C21.996 22.2913 22.1303 22.4256 22.1303 22.5912ZM23.0303 23.4911C23.196 23.4911 23.3304 23.3568 23.3304 23.1911C23.3304 23.0254 23.196 22.8911 23.0303 22.8911C22.8647 22.8911 22.7303 23.0254 22.7303 23.1911C22.7303 23.3568 22.8647 23.4911 23.0303 23.4911ZM24.5303 23.791C24.5303 23.9567 24.396 24.091 24.2303 24.091C24.0646 24.091 23.9303 23.9567 23.9303 23.791C23.9303 23.6253 24.0646 23.491 24.2303 23.491C24.396 23.491 24.5303 23.6253 24.5303 23.791ZM26.9302 23.791C26.9302 23.9567 26.7959 24.091 26.6302 24.091C26.4645 24.091 26.3302 23.9567 26.3302 23.791C26.3302 23.6253 26.4645 23.491 26.6302 23.491C26.7959 23.491 26.9302 23.6253 26.9302 23.791ZM27.8303 24.6908C27.996 24.6908 28.1303 24.5565 28.1303 24.3908C28.1303 24.2251 27.996 24.0908 27.8303 24.0908C27.6646 24.0908 27.5303 24.2251 27.5303 24.3908C27.5303 24.5565 27.6646 24.6908 27.8303 24.6908ZM30.5303 24.3908C30.5303 24.5565 30.396 24.6908 30.2303 24.6908C30.0646 24.6908 29.9303 24.5565 29.9303 24.3908C29.9303 24.2251 30.0646 24.0908 30.2303 24.0908C30.396 24.0908 30.5303 24.2251 30.5303 24.3908ZM23.0306 20.5812C22.8649 20.5812 22.7306 20.4469 22.7306 20.2812C22.7306 20.1155 22.8649 19.9812 23.0306 19.9812C23.1963 19.9812 23.3306 20.1155 23.3306 20.2812C23.3306 20.4469 23.1963 20.5812 23.0306 20.5812ZM21.5305 19.5908C21.5305 19.7565 21.6648 19.8908 21.8305 19.8908C21.9962 19.8908 22.1305 19.7565 22.1305 19.5908C22.1305 19.4251 21.9962 19.2908 21.8305 19.2908C21.6648 19.2908 21.5305 19.4251 21.5305 19.5908ZM24.2305 21.2279C24.0648 21.2279 23.9305 21.0936 23.9305 20.9279C23.9305 20.7622 24.0648 20.6279 24.2305 20.6279C24.3962 20.6279 24.5305 20.7622 24.5305 20.9279C24.5305 21.0936 24.3962 21.2279 24.2305 21.2279ZM19.4303 16.2912C19.2647 16.2912 19.1303 16.1569 19.1303 15.9911C19.1303 15.8255 19.2647 15.6912 19.4303 15.6912C19.596 15.6912 19.7303 15.8255 19.7303 15.9911C19.7303 16.1569 19.596 16.2912 19.4303 16.2912ZM19.1303 17.1909C19.1303 17.3566 19.2647 17.4909 19.4303 17.4909C19.596 17.4909 19.7303 17.3566 19.7303 17.1909C19.7303 17.0252 19.596 16.8909 19.4303 16.8909C19.2647 16.8909 19.1303 17.0252 19.1303 17.1909ZM18.2303 14.4909C18.0646 14.4909 17.9303 14.3566 17.9303 14.1909C17.9303 14.0252 18.0646 13.8909 18.2303 13.8909C18.396 13.8909 18.5303 14.0252 18.5303 14.1909C18.5303 14.3566 18.396 14.4909 18.2303 14.4909ZM17.9303 15.391C17.9303 15.5568 18.0646 15.6911 18.2303 15.6911C18.396 15.6911 18.5303 15.5568 18.5303 15.391C18.5303 15.2254 18.396 15.0911 18.2303 15.0911C18.0646 15.0911 17.9303 15.2254 17.9303 15.391ZM16.7303 15.9911C16.7303 16.1569 16.8646 16.2912 17.0303 16.2912C17.196 16.2912 17.3303 16.1569 17.3303 15.9911C17.3303 15.8255 17.196 15.6912 17.0303 15.6912C16.8646 15.6912 16.7303 15.8255 16.7303 15.9911ZM18.2303 16.891C18.0646 16.891 17.9303 16.7567 17.9303 16.591C17.9303 16.4253 18.0646 16.291 18.2303 16.291C18.396 16.291 18.5303 16.4253 18.5303 16.591C18.5303 16.7567 18.396 16.891 18.2303 16.891ZM20.6303 18.091C20.4646 18.091 20.3303 17.9567 20.3303 17.791C20.3303 17.6253 20.4646 17.491 20.6303 17.491C20.796 17.491 20.9303 17.6253 20.9303 17.791C20.9303 17.9567 20.796 18.091 20.6303 18.091ZM19.7304 18.3906C19.7304 18.5563 19.5961 18.6906 19.4304 18.6906C19.2647 18.6906 19.1304 18.5563 19.1304 18.3906C19.1304 18.2249 19.2647 18.0906 19.4304 18.0906C19.5961 18.0906 19.7304 18.2249 19.7304 18.3906ZM20.6304 19.2907C20.7961 19.2907 20.9305 19.1564 20.9305 18.9907C20.9305 18.825 20.7961 18.6907 20.6304 18.6907C20.4648 18.6907 20.3304 18.825 20.3304 18.9907C20.3304 19.1564 20.4648 19.2907 20.6304 19.2907ZM17.9303 17.791C17.9303 17.9567 18.0646 18.091 18.2303 18.091C18.396 18.091 18.5303 17.9567 18.5303 17.791C18.5303 17.6253 18.396 17.491 18.2303 17.491C18.0646 17.491 17.9303 17.6253 17.9303 17.791ZM32.6303 24.6908C32.796 24.6908 32.9303 24.5565 32.9303 24.3908C32.9303 24.2251 32.796 24.0908 32.6303 24.0908C32.4646 24.0908 32.3303 24.2251 32.3303 24.3908C32.3303 24.5565 32.4646 24.6908 32.6303 24.6908ZM35.3304 24.3908C35.3304 24.5565 35.196 24.6908 35.0303 24.6908C34.8647 24.6908 34.7303 24.5565 34.7303 24.3908C34.7303 24.2251 34.8647 24.0908 35.0303 24.0908C35.196 24.0908 35.3304 24.2251 35.3304 24.3908Z"
        fill="#B89B64" fill-rule="evenodd" />
</svg>
