<svg fill="none" height="31" viewBox="0 0 37 31" width="37" xmlns="http://www.w3.org/2000/svg">
    <path clip-rule="evenodd"
        d="M11.0173 1.37434C11.4932 0.820992 12.1649 0.479623 12.9662 0.709176C14.6638 1.1955 16.2212 2.31068 17.5332 3.62428C18.7292 4.82185 19.745 6.20777 20.5011 7.49818C21.2076 6.95741 22.0997 6.75855 23.161 7.06257C24.1355 7.34174 24.7628 7.91737 25.1035 8.6598C27.8243 7.23847 31.7047 6.14753 34.8898 6.99152L34.8994 6.99427C35.7244 7.23078 36.1547 7.86323 36.2933 8.60133C36.4266 9.31086 36.3024 10.1417 36.0453 10.9351C35.7855 11.7369 35.3748 12.548 34.883 13.2346C34.4825 13.7938 34.0096 14.2962 33.4966 14.6371C33.7288 15.9244 33.6987 17.6554 33.3958 19.0621C33.2576 19.7039 33.0543 20.3187 32.7656 20.8019C32.9781 21.8768 33.0895 22.9886 33.0895 24.1265C33.0895 26.2762 32.6918 28.3323 31.9669 30.2215C31.8503 30.5252 31.6097 30.7181 31.3232 30.7776C31.0639 30.8315 30.8095 30.7694 30.6107 30.673C30.2379 30.4922 29.8099 30.0506 29.8817 29.4559C29.9427 28.9489 29.9742 28.4328 29.9742 27.9092C29.9742 24.5364 28.6677 21.4632 26.5216 19.1503C24.0988 16.5391 20.608 14.8995 16.7249 14.8995C16.3899 14.8995 16.0578 14.9118 15.7291 14.9357C15.2039 15.1102 14.6651 15.2632 14.1204 15.3875C13.4081 15.5501 12.68 15.665 11.9545 15.7137L11.9567 15.7196C7.03528 17.6245 3.47565 22.4145 3.47565 27.9092C3.47565 28.4328 3.50708 28.9489 3.56824 29.4559C3.63995 30.0507 3.21198 30.4923 2.83917 30.6731C2.64038 30.7695 2.38599 30.8315 2.12665 30.7776C1.84021 30.7181 1.59955 30.5252 1.48303 30.2216C0.758057 28.3324 0.360352 26.2762 0.360352 24.1265C0.360352 22.5648 0.565979 21.0546 0.952209 19.6231L0.952148 19.6169C0.952148 19.5923 0.955078 19.5684 0.960693 19.5455C0.968384 19.5141 0.980957 19.4846 0.997681 19.4579C1.69324 16.9799 2.93164 14.7427 4.5813 12.8884C4.60626 12.8359 4.64606 12.7919 4.69531 12.7616C5.72186 11.6315 6.90295 10.6477 8.20789 9.84315C8.2547 9.7776 8.32727 9.7317 8.41077 9.72016C8.67676 9.56153 8.94769 9.41023 9.22339 9.26661C9.55798 8.78516 9.90991 8.34321 10.2495 7.97547C9.99554 7.41456 9.86243 6.73872 9.81921 6.0536C9.76611 5.21131 9.84583 4.30683 10.0423 3.48933C10.2367 2.68031 10.5565 1.91023 11.0173 1.37434ZM16.8256 4.33094C18.03 5.53687 19.0484 6.95472 19.7795 8.24897C19.5861 8.51338 19.4166 8.80622 19.2678 9.11756L19.2618 9.11732L19.2523 9.1172C19.2117 9.1172 19.1729 9.12525 19.1376 9.1399L17.4293 7.31129C17.2408 7.10944 16.9244 7.0987 16.7226 7.28718C16.5208 7.47572 16.51 7.79212 16.6985 7.99391L18.3853 9.79951L14.4808 8.68098C14.2153 8.60493 13.9385 8.75843 13.8624 9.02393C13.7864 9.28938 13.9399 9.56623 14.2054 9.64228L18.1105 10.7611L15.7229 11.3998C15.4562 11.4711 15.2977 11.7452 15.3691 12.012C15.4405 12.2788 15.7146 12.4372 15.9813 12.3659L18.5117 11.6889C18.4703 12.0179 18.4558 12.3406 18.4754 12.6519C17.1626 13.3719 15.5533 14.0347 13.8978 14.4126C12.2081 14.7983 10.5051 14.8795 9.02789 14.4563C8.82672 14.3987 8.70752 14.3101 8.63135 14.2141C8.55261 14.1148 8.49365 13.9743 8.47003 13.7752C8.42078 13.3604 8.53583 12.7803 8.80286 12.1009C9.07153 11.4173 9.46875 10.6956 9.90588 10.0409L9.90991 10.0388L9.90881 10.0365C10.3323 9.4026 10.7932 8.83167 11.2108 8.41908L11.4919 8.1413L11.2865 7.8036C11.0291 7.38032 10.8646 6.74104 10.8173 5.99067C10.7704 5.24885 10.8413 4.44434 11.0146 3.72297C11.1901 2.99299 11.4592 2.39423 11.7756 2.02631C12.0768 1.67597 12.3701 1.57862 12.6909 1.67054C14.1658 2.09303 15.5809 3.08473 16.8256 4.33094ZM18.111 13.965C18.1449 13.9486 18.1787 13.932 18.2123 13.9154L18.2999 13.8721L18.3566 13.8437C18.39 13.8269 18.4232 13.81 18.4563 13.7931L18.5391 13.7506L18.5781 13.7304L18.6381 13.6992L18.6892 13.6723C18.7412 13.8066 18.8025 13.9353 18.8732 14.0577C18.6212 14.0203 18.3671 13.9893 18.111 13.965ZM23.8131 15.7532C23.5521 15.6058 23.2858 15.4663 23.0148 15.3349C23.156 15.2693 23.2916 15.1912 23.4214 15.101L23.4573 15.1632L23.4814 15.2048L23.5339 15.2943C23.6237 15.4466 23.7168 15.5997 23.8131 15.7532ZM31.1027 20.7804C28.1263 19.9277 25.6481 17.054 24.1606 14.3765C24.3763 14.0899 24.5604 13.7642 24.7181 13.4118L26.6454 15.4749C26.834 15.6766 27.1504 15.6874 27.3522 15.4989C27.554 15.3104 27.5647 14.994 27.3762 14.7922L25.6895 12.9866L29.5939 14.1052C29.8594 14.1812 30.1362 14.0277 30.2123 13.7622C30.2883 13.4968 30.1348 13.2199 29.8694 13.1439L25.9651 12.0253L28.3517 11.3868C28.6185 11.3154 28.7769 11.0413 28.7055 10.7746C28.6342 10.5078 28.36 10.3494 28.0933 10.4208L25.3608 11.1518C25.4332 10.6362 25.4482 10.1256 25.3819 9.64417C28.0039 8.22962 31.7189 7.18824 34.6284 7.95686C35.0099 8.06782 35.226 8.33564 35.3105 8.78596C35.4009 9.26667 35.3245 9.91554 35.094 10.6269C34.8663 11.3298 34.5024 12.0485 34.07 12.6523C33.6328 13.2628 33.1526 13.7178 32.7094 13.941L32.3564 14.1187L32.4478 14.5032C32.7202 15.649 32.7238 17.4322 32.4182 18.8516C32.2646 19.5648 32.0447 20.128 31.7869 20.4687C31.6611 20.6349 31.5432 20.7256 31.4421 20.7688C31.3501 20.8082 31.2441 20.821 31.1027 20.7804ZM1.4259 22.6511C1.41681 22.7527 1.40863 22.8546 1.40143 22.9567C1.49152 23.0085 1.55212 23.1056 1.55212 23.217C1.55212 23.3399 1.47821 23.4455 1.37238 23.4919C1.36438 23.7023 1.36035 23.9139 1.36035 24.1265V24.1373C1.47253 24.1807 1.55212 24.2897 1.55212 24.4172C1.55212 24.541 1.47717 24.6472 1.37012 24.693C1.37787 24.9166 1.3902 25.1388 1.40698 25.3599C1.49396 25.4124 1.55212 25.5079 1.55212 25.6169C1.55212 25.7064 1.51294 25.7867 1.45081 25.8417C1.58795 27.134 1.8783 28.3788 2.30267 29.5569C2.34668 29.5315 2.39777 29.5171 2.45221 29.5171C2.49457 29.5171 2.53485 29.5259 2.57141 29.5417C2.54675 29.3328 2.52673 29.1226 2.51154 28.911C2.49237 28.9148 2.47253 28.9169 2.45221 28.9169C2.2865 28.9169 2.15222 28.7826 2.15222 28.6169C2.15222 28.4512 2.2865 28.3169 2.45221 28.3169L2.46283 28.3171L2.47461 28.3177L2.48157 28.3183C2.47766 28.1824 2.47565 28.0461 2.47565 27.9092L2.47577 27.852L2.47601 27.8018C2.47626 27.7732 2.47656 27.7447 2.47699 27.7161C2.46881 27.7168 2.46057 27.7172 2.45221 27.7172C2.2865 27.7172 2.15222 27.5829 2.15222 27.4172C2.15222 27.2515 2.2865 27.1172 2.45221 27.1172C2.46124 27.1172 2.47015 27.1175 2.47894 27.1183C2.48547 27.1189 2.49194 27.1197 2.49829 27.1207C2.51025 26.9131 2.52692 26.7066 2.5481 26.5013C2.51801 26.5115 2.48578 26.517 2.45221 26.517C2.2865 26.517 2.15222 26.3827 2.15222 26.217C2.15222 26.0513 2.2865 25.917 2.45221 25.917C2.51196 25.917 2.56763 25.9344 2.61438 25.9645C2.79773 24.6882 3.15833 23.4637 3.66974 22.3168C3.66394 22.3171 3.65808 22.3173 3.65216 22.3173C3.48645 22.3173 3.35217 22.183 3.35217 22.0173C3.35217 21.8516 3.48645 21.7173 3.65216 21.7173C3.75116 21.7173 3.83893 21.7652 3.89355 21.8391C4.12756 21.3633 4.38782 20.902 4.67242 20.4571C4.59949 20.4025 4.55225 20.3152 4.55225 20.217C4.55225 20.0513 4.68652 19.917 4.85223 19.917C4.90839 19.917 4.96094 19.9324 5.00586 19.9593C5.31012 19.525 5.63818 19.108 5.98798 18.7103C5.85315 18.6808 5.7522 18.5608 5.7522 18.4172C5.7522 18.2515 5.88647 18.1172 6.05219 18.1172C6.18616 18.1172 6.29968 18.205 6.33813 18.3262C6.54602 18.1064 6.76074 17.893 6.98199 17.6865C7.01508 17.6182 7.07336 17.5643 7.14478 17.5369C7.90955 16.8445 8.7489 16.2332 9.64771 15.7171C9.54065 15.7155 9.44727 15.6579 9.39545 15.5723C9.17853 15.5296 8.96405 15.4783 8.7525 15.4177C8.37775 15.3103 8.07043 15.1159 7.84814 14.8358C7.70776 14.6589 7.61157 14.461 7.54999 14.2531C7.53217 14.4017 7.40564 14.517 7.25214 14.517C7.08643 14.517 6.95215 14.3827 6.95215 14.217C6.95215 14.0513 7.08643 13.917 7.25214 13.917C7.35571 13.917 7.44702 13.9695 7.50092 14.0493C7.49615 14.0241 7.49182 13.9988 7.48792 13.9734L7.48505 13.9542L7.48145 13.9282L7.47699 13.893C7.45129 13.6762 7.45398 13.4479 7.47955 13.213C7.42456 13.2769 7.34308 13.3173 7.25214 13.3173C7.08643 13.3173 6.95215 13.183 6.95215 13.0173C6.95215 12.8516 7.08643 12.7173 7.25214 12.7173C7.37469 12.7173 7.4801 12.7908 7.52667 12.8961C7.5979 12.514 7.7207 12.1204 7.87219 11.7351C7.9599 11.512 8.05957 11.2858 8.16876 11.0595C7.92126 11.2276 7.67896 11.4028 7.44214 11.5849C7.50928 11.6399 7.55212 11.7235 7.55212 11.8171C7.55212 11.9828 7.41785 12.1171 7.25214 12.1171C7.13477 12.1171 7.03314 12.0497 6.98389 11.9515C6.76117 12.1367 6.54382 12.3282 6.33197 12.5257C6.29962 12.6091 6.23114 12.6743 6.14569 12.7023C5.73755 13.0959 5.35095 13.5122 4.98779 13.9493C5.08533 13.9988 5.15222 14.1001 5.15222 14.217C5.15222 14.3827 5.01794 14.517 4.85223 14.517C4.75916 14.517 4.67603 14.4746 4.62097 14.4082C4.29712 14.8295 3.99414 15.2685 3.7135 15.7236C3.84979 15.7519 3.95215 15.8726 3.95215 16.0173C3.95215 16.183 3.81787 16.3173 3.65216 16.3173C3.56097 16.3173 3.47931 16.2766 3.42432 16.2124C3.16046 16.6774 2.91943 17.1576 2.7027 17.6519C2.73401 17.6993 2.7522 17.756 2.7522 17.8171C2.7522 17.9631 2.64795 18.0847 2.50977 18.1116C2.41992 18.3355 2.33496 18.562 2.25507 18.7911C2.3078 18.7451 2.37677 18.7173 2.45221 18.7173C2.61792 18.7173 2.7522 18.8516 2.7522 19.0173C2.7522 19.183 2.61792 19.3173 2.45221 19.3173C2.30713 19.3173 2.18616 19.2143 2.15826 19.0774C1.8645 19.9743 1.6474 20.9083 1.5144 21.8715C1.53845 21.9147 1.55212 21.9643 1.55212 22.0173C1.55212 22.0973 1.52081 22.1701 1.46973 22.2239C1.45325 22.3657 1.43866 22.5081 1.4259 22.6511ZM31.9011 21.6583C31.8796 21.6687 31.8578 21.6786 31.8358 21.6881C31.5212 21.8227 31.1782 21.8423 30.8273 21.7418C30.25 21.5764 29.6937 21.3461 29.1605 21.0642C29.4984 21.6565 29.7939 22.2755 30.0429 22.9171L30.0524 22.917C30.2181 22.917 30.3524 23.0513 30.3524 23.217C30.3524 23.2691 30.3391 23.3181 30.3157 23.3609C30.2962 23.3965 30.2697 23.4277 30.238 23.4527C30.657 24.6812 30.9077 25.9858 30.9627 27.3399C30.9968 27.2117 31.1137 27.1172 31.2526 27.1172C31.4183 27.1172 31.5526 27.2515 31.5526 27.4172C31.5526 27.5829 31.4183 27.7172 31.2526 27.7172C31.1209 27.7172 31.009 27.6323 30.9687 27.5142C30.9724 27.6454 30.9742 27.7771 30.9742 27.9092C30.9742 28.125 30.9693 28.3396 30.9595 28.553C30.9888 28.418 31.1089 28.3169 31.2526 28.3169C31.356 28.3169 31.447 28.3691 31.501 28.4485C31.8842 27.0759 32.0895 25.6261 32.0895 24.1265C32.0895 23.2864 32.0251 22.4621 31.9011 21.6583ZM31.3698 28.8932C31.3338 28.9084 31.2942 28.9169 31.2526 28.9169C31.0986 28.9169 30.9717 28.8008 30.9546 28.6513C30.9381 28.9621 30.9113 29.2703 30.8745 29.5756C30.8735 29.5836 30.8729 29.6087 30.9032 29.6527C30.9352 29.6992 30.9881 29.7447 31.047 29.7732C31.0532 29.7762 31.059 29.7789 31.0645 29.7811C31.1746 29.4893 31.2765 29.1932 31.3698 28.8932ZM19.7368 10.7185C19.9137 10.1008 20.136 9.55476 20.4043 9.11323C20.4199 9.11573 20.436 9.11707 20.4523 9.11707C20.618 9.11707 20.7523 8.9828 20.7523 8.81709C20.7523 8.79379 20.7496 8.77111 20.7446 8.74932C20.742 8.73783 20.7386 8.7266 20.7347 8.71566C20.7295 8.70115 20.7232 8.68716 20.7159 8.67378C20.7333 8.65308 20.7507 8.63282 20.7683 8.61292C20.7921 8.58595 20.8162 8.55976 20.8405 8.53431C20.8717 8.50166 20.9033 8.47022 20.9354 8.44001C21.4199 7.98402 22.0327 7.77955 22.8856 8.02393C23.7313 8.26618 24.1511 8.77888 24.326 9.44904C24.5115 10.1589 24.4253 11.0747 24.1435 12.0583C24.0723 12.307 23.9946 12.5388 23.9103 12.7529C23.8163 12.8036 23.7523 12.903 23.7523 13.0173C23.7523 13.0446 23.756 13.071 23.7628 13.0961C23.5429 13.5627 23.2853 13.9252 22.9889 14.174C22.5338 14.556 21.9284 14.7193 21.0403 14.4649C20.162 14.2133 19.7467 13.7468 19.572 13.1661C19.563 13.1362 19.5546 13.1057 19.5468 13.0748L19.5489 13.0624L19.5502 13.0532L19.551 13.0445C19.5516 13.0389 19.5519 13.0334 19.5521 13.0277L19.5522 13.0173C19.5522 12.9553 19.5335 12.8978 19.5013 12.85C19.462 12.5957 19.4567 12.3144 19.4831 12.0087C19.5263 11.9568 19.5522 11.89 19.5522 11.8171C19.5522 11.8075 19.5518 11.7981 19.5509 11.7888C19.5505 11.7843 19.55 11.7798 19.5494 11.7754L19.5482 11.7671C19.5464 11.7569 19.5442 11.7468 19.5414 11.7369C19.5385 11.7264 19.535 11.716 19.531 11.7059L19.5262 11.6946L19.5216 11.6848C19.5667 11.3826 19.639 11.0599 19.7368 10.7185ZM3.65216 17.517C3.81787 17.517 3.95215 17.3827 3.95215 17.217C3.95215 17.0513 3.81787 16.917 3.65216 16.917C3.48645 16.917 3.35217 17.0513 3.35217 17.217C3.35217 17.3827 3.48645 17.517 3.65216 17.517ZM6.35217 13.6169C6.35217 13.7826 6.2179 13.9169 6.05219 13.9169C5.88647 13.9169 5.7522 13.7826 5.7522 13.6169C5.7522 13.4512 5.88647 13.3169 6.05219 13.3169C6.2179 13.3169 6.35217 13.4512 6.35217 13.6169ZM5.15222 15.4172C5.15222 15.5829 5.01794 15.7172 4.85223 15.7172C4.68652 15.7172 4.55225 15.5829 4.55225 15.4172C4.55225 15.2515 4.68652 15.1172 4.85223 15.1172C5.01794 15.1172 5.15222 15.2515 5.15222 15.4172ZM6.05219 15.1171C6.2179 15.1171 6.35217 14.9828 6.35217 14.8171C6.35217 14.6514 6.2179 14.5171 6.05219 14.5171C5.88647 14.5171 5.7522 14.6514 5.7522 14.8171C5.7522 14.9828 5.88647 15.1171 6.05219 15.1171ZM6.35217 16.0173C6.35217 16.183 6.2179 16.3173 6.05219 16.3173C5.88647 16.3173 5.7522 16.183 5.7522 16.0173C5.7522 15.8516 5.88647 15.7173 6.05219 15.7173C6.2179 15.7173 6.35217 15.8516 6.35217 16.0173ZM4.85223 16.9169C5.01794 16.9169 5.15222 16.7826 5.15222 16.6169C5.15222 16.4512 5.01794 16.3169 4.85223 16.3169C4.68652 16.3169 4.55225 16.4512 4.55225 16.6169C4.55225 16.7826 4.68652 16.9169 4.85223 16.9169ZM6.35217 17.217C6.35217 17.3827 6.2179 17.517 6.05219 17.517C5.88647 17.517 5.7522 17.3827 5.7522 17.217C5.7522 17.0513 5.88647 16.917 6.05219 16.917C6.2179 16.917 6.35217 17.0513 6.35217 17.217ZM7.55212 15.4172C7.55212 15.5829 7.41785 15.7172 7.25214 15.7172C7.08643 15.7172 6.95215 15.5829 6.95215 15.4172C6.95215 15.2515 7.08643 15.1172 7.25214 15.1172C7.41785 15.1172 7.55212 15.2515 7.55212 15.4172ZM8.7522 16.0173C8.7522 16.183 8.61792 16.3173 8.45221 16.3173C8.2865 16.3173 8.15222 16.183 8.15222 16.0173C8.15222 15.8516 8.2865 15.7173 8.45221 15.7173C8.61792 15.7173 8.7522 15.8516 8.7522 16.0173ZM7.25214 16.9169C7.41785 16.9169 7.55212 16.7826 7.55212 16.6169C7.55212 16.4512 7.41785 16.3169 7.25214 16.3169C7.08643 16.3169 6.95215 16.4512 6.95215 16.6169C6.95215 16.7826 7.08643 16.9169 7.25214 16.9169ZM20.7523 10.0173C20.7523 10.183 20.618 10.3173 20.4523 10.3173C20.2866 10.3173 20.1523 10.183 20.1523 10.0173C20.1523 9.85163 20.2866 9.71729 20.4523 9.71729C20.618 9.71729 20.7523 9.85163 20.7523 10.0173ZM20.4523 11.517C20.618 11.517 20.7523 11.3827 20.7523 11.217C20.7523 11.0513 20.618 10.917 20.4523 10.917C20.2866 10.917 20.1523 11.0513 20.1523 11.217C20.1523 11.3827 20.2866 11.517 20.4523 11.517ZM20.7523 12.4172C20.7523 12.5829 20.618 12.7172 20.4523 12.7172C20.2866 12.7172 20.1523 12.5829 20.1523 12.4172C20.1523 12.2515 20.2866 12.1172 20.4523 12.1172C20.618 12.1172 20.7523 12.2515 20.7523 12.4172ZM20.7523 13.6169C20.7523 13.7826 20.618 13.9169 20.4523 13.9169C20.2866 13.9169 20.1523 13.7826 20.1523 13.6169C20.1523 13.4512 20.2866 13.3169 20.4523 13.3169C20.618 13.3169 20.7523 13.4512 20.7523 13.6169ZM21.9523 13.0173C21.9523 13.183 21.818 13.3173 21.6523 13.3173C21.4866 13.3173 21.3523 13.183 21.3523 13.0173C21.3523 12.8516 21.4866 12.7173 21.6523 12.7173C21.818 12.7173 21.9523 12.8516 21.9523 13.0173ZM22.8524 13.9169C23.0181 13.9169 23.1523 13.7826 23.1523 13.6169C23.1523 13.4512 23.0181 13.3169 22.8524 13.3169C22.6866 13.3169 22.5524 13.4512 22.5524 13.6169C22.5524 13.7826 22.6866 13.9169 22.8524 13.9169ZM21.9523 14.217C21.9523 14.3827 21.818 14.517 21.6523 14.517C21.4866 14.517 21.3523 14.3827 21.3523 14.217C21.3523 14.0513 21.4866 13.917 21.6523 13.917C21.818 13.917 21.9523 14.0513 21.9523 14.217ZM3.95215 18.4172C3.95215 18.5829 3.81787 18.7172 3.65216 18.7172C3.48645 18.7172 3.35217 18.5829 3.35217 18.4172C3.35217 18.2515 3.48645 18.1172 3.65216 18.1172C3.81787 18.1172 3.95215 18.2515 3.95215 18.4172ZM3.95215 19.6169C3.95215 19.7826 3.81787 19.9169 3.65216 19.9169C3.48645 19.9169 3.35217 19.7826 3.35217 19.6169C3.35217 19.4512 3.48645 19.3169 3.65216 19.3169C3.81787 19.3169 3.95215 19.4512 3.95215 19.6169ZM2.45221 20.517C2.61792 20.517 2.7522 20.3827 2.7522 20.217C2.7522 20.0513 2.61792 19.917 2.45221 19.917C2.2865 19.917 2.15222 20.0513 2.15222 20.217C2.15222 20.3827 2.2865 20.517 2.45221 20.517ZM2.7522 21.4172C2.7522 21.5829 2.61792 21.7172 2.45221 21.7172C2.2865 21.7172 2.15222 21.5829 2.15222 21.4172C2.15222 21.2515 2.2865 21.1172 2.45221 21.1172C2.61792 21.1172 2.7522 21.2515 2.7522 21.4172ZM3.65216 21.1171C3.81787 21.1171 3.95215 20.9828 3.95215 20.8171C3.95215 20.6514 3.81787 20.5171 3.65216 20.5171C3.48645 20.5171 3.35217 20.6514 3.35217 20.8171C3.35217 20.9828 3.48645 21.1171 3.65216 21.1171ZM2.45221 22.9169C2.61792 22.9169 2.7522 22.7826 2.7522 22.6169C2.7522 22.4512 2.61792 22.3169 2.45221 22.3169C2.2865 22.3169 2.15222 22.4512 2.15222 22.6169C2.15222 22.7826 2.2865 22.9169 2.45221 22.9169ZM4.85223 18.1171C5.01794 18.1171 5.15222 17.9828 5.15222 17.8171C5.15222 17.6514 5.01794 17.5171 4.85223 17.5171C4.68652 17.5171 4.55225 17.6514 4.55225 17.8171C4.55225 17.9828 4.68652 18.1171 4.85223 18.1171ZM4.85223 19.3173C5.01794 19.3173 5.15222 19.183 5.15222 19.0173C5.15222 18.8516 5.01794 18.7173 4.85223 18.7173C4.68652 18.7173 4.55225 18.8516 4.55225 19.0173C4.55225 19.183 4.68652 19.3173 4.85223 19.3173ZM2.7522 23.8171C2.7522 23.9828 2.61792 24.1171 2.45221 24.1171C2.2865 24.1171 2.15222 23.9828 2.15222 23.8171C2.15222 23.6514 2.2865 23.5171 2.45221 23.5171C2.61792 23.5171 2.7522 23.6514 2.7522 23.8171ZM2.45221 25.3168C2.61792 25.3168 2.7522 25.1825 2.7522 25.0168C2.7522 24.8511 2.61792 24.7168 2.45221 24.7168C2.2865 24.7168 2.15222 24.8511 2.15222 25.0168C2.15222 25.1825 2.2865 25.3168 2.45221 25.3168ZM30.0524 22.3173C30.2181 22.3173 30.3524 22.183 30.3524 22.0173C30.3524 21.8516 30.2181 21.7173 30.0524 21.7173C29.8868 21.7173 29.7524 21.8516 29.7524 22.0173C29.7524 22.183 29.8868 22.3173 30.0524 22.3173ZM31.5526 22.6169C31.5526 22.7826 31.4183 22.9169 31.2526 22.9169C31.087 22.9169 30.9526 22.7826 30.9526 22.6169C30.9526 22.4512 31.087 22.3169 31.2526 22.3169C31.4183 22.3169 31.5526 22.4512 31.5526 22.6169ZM31.5526 23.8171C31.5526 23.9828 31.4183 24.1171 31.2526 24.1171C31.087 24.1171 30.9526 23.9828 30.9526 23.8171C30.9526 23.6514 31.087 23.5171 31.2526 23.5171C31.4183 23.5171 31.5526 23.6514 31.5526 23.8171ZM31.2526 25.3168C31.4183 25.3168 31.5526 25.1825 31.5526 25.0168C31.5526 24.8511 31.4183 24.7168 31.2526 24.7168C31.087 24.7168 30.9526 24.8511 30.9526 25.0168C30.9526 25.1825 31.087 25.3168 31.2526 25.3168ZM31.5526 26.217C31.5526 26.3827 31.4183 26.517 31.2526 26.517C31.087 26.517 30.9526 26.3827 30.9526 26.217C30.9526 26.0513 31.087 25.917 31.2526 25.917C31.4183 25.917 31.5526 26.0513 31.5526 26.217Z"
        fill="#B89B64" fill-rule="evenodd" />
</svg>
