<svg fill="none" height="38" viewBox="0 0 32 38" width="32" xmlns="http://www.w3.org/2000/svg">
    <path clip-rule="evenodd"
        d="M7.2704 0.780273L7.25694 0.780396H6.84518C5.95843 0.780396 5.26524 1.54547 5.35245 2.42792L6.34431 12.4643C6.00693 13.7141 5.66682 15.112 5.34329 16.6549C3.65305 16.8276 2.24908 18.0875 1.91888 19.7856L0.346572 27.8718C-0.297753 31.1854 2.20933 34.2573 5.52904 34.4152C7.02576 36.1369 9.27152 37.2194 11.7471 37.2194H20.2531C22.7279 37.2194 24.973 36.1376 26.4697 34.4169C29.8122 34.2816 32.2996 31.1935 31.6537 27.8718L30.0814 19.7856C29.7512 18.0875 28.3472 16.8275 26.6569 16.6549C26.3374 15.1311 26.0017 13.7487 25.6685 12.5108L26.6497 2.42566C26.7355 1.54401 26.0426 0.780396 25.1568 0.780396H24.7434L24.7299 0.780273H22.9775C22.5491 0.780273 22.1411 0.963501 21.8564 1.28372L18.686 4.85046C17.823 4.62646 16.9195 4.51074 16.0001 4.51074C15.0807 4.51074 14.1773 4.62646 13.3143 4.85046L10.1439 1.28372C9.85924 0.963501 9.45123 0.780273 9.02277 0.780273H7.2704ZM30.6721 28.0626C31.1435 30.4871 29.5715 32.7643 27.2793 33.3022C28.0568 32.0038 28.4601 30.4644 28.3387 28.8123C28.0268 24.5678 27.4881 20.8553 26.8689 17.6994C27.9819 17.9389 28.8752 18.8213 29.0998 19.9765L30.6721 28.0626ZM4.03307 31.8102C3.72085 30.8793 3.58386 29.8688 3.66151 28.8123C3.97343 24.5678 4.51218 20.8553 5.13136 17.6994C4.33147 17.8716 3.64508 18.3757 3.23882 19.0746C3.33611 19.1242 3.40274 19.2253 3.40274 19.342C3.40274 19.5077 3.26842 19.642 3.10274 19.642C3.06405 19.642 3.02706 19.6346 2.9931 19.6213C2.95518 19.7364 2.92414 19.8549 2.9005 19.9765L2.20096 23.5741C2.19912 23.5914 2.19581 23.6082 2.19116 23.6245L2.02699 24.4688C2.13063 24.5161 2.20267 24.6205 2.20267 24.7419C2.20267 24.9033 2.07529 25.0349 1.91561 25.0416L1.79503 25.6617C1.82844 25.6489 1.86473 25.6418 1.90266 25.6418C2.06835 25.6418 2.20267 25.7762 2.20267 25.9418C2.20267 26.1075 2.06835 26.2418 1.90266 26.2418C1.82352 26.2418 1.75153 26.2112 1.69793 26.1611L1.32819 28.0626C1.14958 28.9812 1.26873 29.8796 1.61122 30.6704C1.64328 30.5392 1.7616 30.4419 1.90266 30.4419C2.06835 30.4419 2.20267 30.5762 2.20267 30.7419C2.20267 30.9076 2.06835 31.0419 1.90266 31.0419C1.85822 31.0419 1.81604 31.0322 1.7781 31.0149C2.05263 31.5253 2.42369 31.9808 2.86848 32.3546C2.92345 32.2859 3.00796 32.2419 3.10274 32.2419C3.26842 32.2419 3.40274 32.3763 3.40274 32.5419C3.40274 32.6039 3.38391 32.6616 3.35166 32.7094C3.5612 32.8431 3.78266 32.9604 4.01428 33.0591C4.05025 32.9338 4.16576 32.842 4.30269 32.842C4.38248 32.842 4.45499 32.8732 4.50874 32.924C4.38844 32.6948 4.27947 32.4588 4.18256 32.2168C4.07667 32.1705 4.00268 32.0648 4.00268 31.9418C4.00268 31.8946 4.01361 31.8499 4.03307 31.8102ZM4.59808 33.0893C4.60111 33.1064 4.60269 33.124 4.60269 33.142C4.60269 33.1828 4.59457 33.2217 4.57985 33.2571C4.62463 33.2695 4.66969 33.2812 4.71503 33.2922C4.67504 33.2252 4.63605 33.1575 4.59808 33.0893ZM24.9122 9.95697L24.9034 10.0474C24.8948 10.0269 24.8861 10.0065 24.8773 9.98621C24.8897 9.97736 24.9014 9.96759 24.9122 9.95697ZM24.9497 9.57166L25.6544 2.3288C25.6764 2.10327 25.5454 1.90088 25.3499 1.81897L24.7298 3.44336C24.8829 3.45703 25.0028 3.58557 25.0028 3.74213C25.0028 3.90784 24.8685 4.04211 24.7028 4.04211C24.6358 4.04211 24.5738 4.02008 24.5239 3.98291L23.5812 6.45251C23.7089 6.487 23.8028 6.60364 23.8028 6.74213C23.8028 6.90784 23.6684 7.04211 23.5028 7.04211C23.4544 7.04211 23.4087 7.0307 23.3683 7.01038L23.1992 7.45331C23.2648 7.52197 23.3293 7.5918 23.3926 7.66272C23.4267 7.64923 23.4639 7.64185 23.5028 7.64185C23.6684 7.64185 23.8028 7.77618 23.8028 7.94183C23.8028 7.99969 23.7864 8.05371 23.758 8.09955C24.0849 8.51764 24.3757 8.96918 24.6248 9.45239C24.6497 9.44574 24.6759 9.44214 24.7028 9.44214C24.8052 9.44214 24.8956 9.49341 24.9497 9.57166ZM19.7295 5.18164C20.7074 5.55109 21.6141 6.06812 22.4087 6.72028L24.2943 1.78027H22.9775C22.8347 1.78027 22.6987 1.84137 22.6038 1.94812L19.7295 5.18164ZM6.41467 2.02594C6.36249 2.11395 6.33668 2.21906 6.3476 2.32959L6.41843 3.0462C6.45848 2.92767 6.57062 2.84229 6.70271 2.84229C6.8684 2.84229 7.00272 2.97662 7.00272 3.14227C7.00272 3.30798 6.8684 3.44226 6.70271 3.44226C6.59158 3.44226 6.49456 3.38184 6.44272 3.29205L6.52276 4.10193C6.57289 4.06427 6.6352 4.04199 6.70271 4.04199C6.8684 4.04199 7.00272 4.17633 7.00272 4.34198C7.00272 4.50769 6.8684 4.64197 6.70271 4.64197C6.65634 4.64197 6.61243 4.63147 6.57323 4.61267L6.63615 5.24933C6.65756 5.24451 6.67984 5.24194 6.70271 5.24194C6.8684 5.24194 7.00272 5.37628 7.00272 5.54193C7.00272 5.70764 6.8684 5.84192 6.70271 5.84192C6.70003 5.84192 6.69736 5.8418 6.6947 5.8418L6.75447 6.44659C6.89549 6.47113 7.00272 6.59412 7.00272 6.74213C7.00272 6.86951 6.92332 6.97833 6.81132 7.02185L6.8782 7.69849C6.95363 7.75299 7.00272 7.84167 7.00272 7.94183C7.00272 8.02075 6.97225 8.09259 6.92243 8.14612L7.10777 10.0215C7.29121 9.59155 7.50608 9.18384 7.74904 8.79956C7.66144 8.74719 7.60278 8.65143 7.60278 8.54193C7.60278 8.37628 7.7371 8.24194 7.90279 8.24194C7.97204 8.24194 8.03581 8.26538 8.08659 8.30481C8.30722 8.00452 8.546 7.72046 8.80105 7.45325L7.9552 5.23724C7.93818 5.24023 7.92067 5.24182 7.90279 5.24182C7.7371 5.24182 7.60278 5.10754 7.60278 4.94183C7.60278 4.83405 7.65965 4.73956 7.74503 4.68665L6.80499 2.22394C6.77307 2.23553 6.73863 2.24182 6.70271 2.24182C6.56623 2.24182 6.45104 2.1507 6.41467 2.02594ZM10.0249 2.65503L9.39648 1.94812C9.3016 1.84137 9.1656 1.78027 9.02277 1.78027H7.70602L9.59162 6.72021C10.3862 6.06805 11.2929 5.55109 12.2707 5.18164L10.1578 2.80463C10.0981 2.77161 10.0508 2.71881 10.0249 2.65503ZM7.93425 10.6435C9.18667 7.43219 12.4111 5.51074 16.0001 5.51074C19.8187 5.51074 23.2247 7.68591 24.2818 11.2756C24.7271 12.7879 25.1929 14.577 25.6306 16.6346H18.769C18.9029 16.6045 19.0028 16.4849 19.0028 16.342C19.0028 16.1763 18.8685 16.042 18.7028 16.042C18.5371 16.042 18.4028 16.1763 18.4028 16.342C18.4028 16.4849 18.5028 16.6045 18.6366 16.6346H16.369C16.5028 16.6045 16.6028 16.4849 16.6028 16.342C16.6028 16.1763 16.4685 16.042 16.3028 16.042C16.1371 16.042 16.0028 16.1763 16.0028 16.342C16.0028 16.4849 16.1028 16.6045 16.2366 16.6346H13.969C14.1028 16.6045 14.2028 16.4849 14.2028 16.342C14.2028 16.1763 14.0685 16.042 13.9028 16.042C13.7371 16.042 13.6028 16.1763 13.6028 16.342C13.6028 16.4849 13.7028 16.6045 13.8366 16.6346H11.5688C11.7027 16.6045 11.8026 16.4849 11.8026 16.342C11.8026 16.1763 11.6683 16.042 11.5026 16.042C11.337 16.042 11.2026 16.1763 11.2026 16.342C11.2026 16.4849 11.3026 16.6045 11.4364 16.6346H9.16905C9.30289 16.6045 9.40286 16.4849 9.40286 16.342C9.40286 16.1763 9.26855 16.042 9.10286 16.042C8.93717 16.042 8.80286 16.1763 8.80286 16.342C8.80286 16.4849 8.90282 16.6045 9.03667 16.6346H6.76891C6.90275 16.6045 7.00272 16.4849 7.00272 16.342C7.00272 16.1763 6.8684 16.042 6.70271 16.042C6.61165 16.042 6.53007 16.0826 6.47504 16.1466C6.52795 15.9054 6.58121 15.668 6.63473 15.4345C6.65657 15.4396 6.67933 15.4423 6.70271 15.4423C6.8684 15.4423 7.00272 15.308 7.00272 15.1423C7.00272 15.0001 6.90384 14.881 6.77111 14.8501C6.8308 14.5988 6.89074 14.3524 6.95079 14.1106C6.98357 14.0625 7.00272 14.0044 7.00272 13.9418C7.00272 13.931 7.00214 13.9202 7.00101 13.9097C7.2411 12.9548 7.48267 12.0764 7.71847 11.2756C7.72636 11.2488 7.73438 11.2221 7.74253 11.1955C7.78889 11.2249 7.84386 11.2418 7.90279 11.2418C8.06847 11.2418 8.20279 11.1075 8.20279 10.9418C8.20279 10.7868 8.08515 10.6592 7.93425 10.6435ZM6.41444 16.4254C6.39947 16.4948 6.38454 16.5646 6.36963 16.6346H6.63652C6.52976 16.6106 6.44456 16.5297 6.41444 16.4254ZM6.16356 17.6346C5.53052 20.8075 4.97621 24.5666 4.65881 28.8856C4.56834 30.1168 4.81515 31.2816 5.31837 32.3052C5.36922 32.2656 5.43317 32.2419 5.50264 32.2419C5.66833 32.2419 5.80264 32.3763 5.80264 32.5419C5.80264 32.6725 5.71931 32.7835 5.60295 32.8248C5.87666 33.2761 6.20258 33.6942 6.5726 34.0716C6.61196 34.0526 6.6561 34.042 6.70271 34.042C6.8684 34.042 7.00272 34.1763 7.00272 34.342C7.00272 34.3822 6.9948 34.4206 6.98044 34.4556C7.17815 34.6274 7.38593 34.7888 7.60281 34.9385C7.60458 34.7744 7.7382 34.6418 7.90279 34.6418C8.06847 34.6418 8.20279 34.7762 8.20279 34.9418C8.20279 35.0613 8.1329 35.1646 8.03177 35.2128C8.28171 35.3603 8.54181 35.4933 8.81079 35.6108C8.8056 35.5887 8.80286 35.5656 8.80286 35.5419C8.80286 35.3763 8.93717 35.2419 9.10286 35.2419C9.26855 35.2419 9.40286 35.3763 9.40286 35.5419C9.40286 35.6465 9.3494 35.7385 9.26833 35.7922C9.51588 35.8807 9.76987 35.9564 10.0294 36.0184C10.0765 35.9144 10.1812 35.842 10.3028 35.842C10.4649 35.842 10.5969 35.9706 10.6026 36.1312C10.9754 36.1892 11.3577 36.2194 11.7471 36.2194H12.4129C12.4063 36.1947 12.4028 36.1688 12.4028 36.142C12.4028 35.9764 12.5371 35.842 12.7028 35.842C12.8685 35.842 13.0028 35.9764 13.0028 36.142C13.0028 36.1688 12.9993 36.1947 12.9928 36.2194H14.8129C14.8064 36.1947 14.8029 36.1688 14.8029 36.142C14.8029 35.9764 14.9372 35.842 15.1029 35.842C15.2685 35.842 15.4029 35.9764 15.4029 36.142C15.4029 36.1688 15.3994 36.1947 15.3928 36.2194H17.2128C17.2063 36.1947 17.2028 36.1688 17.2028 36.142C17.2028 35.9764 17.3371 35.842 17.5028 35.842C17.6684 35.842 17.8028 35.9764 17.8028 36.142C17.8028 36.1688 17.7993 36.1947 17.7927 36.2194H19.6128C19.6063 36.1947 19.6028 36.1688 19.6028 36.142C19.6028 35.9764 19.7371 35.842 19.9028 35.842C20.0685 35.842 20.2028 35.9764 20.2028 36.142C20.2028 36.1688 20.1993 36.1947 20.1927 36.2194H20.2531C20.8688 36.2194 21.4668 36.144 22.0374 36.0021C22.0877 35.9069 22.1877 35.842 22.3028 35.842C22.3591 35.842 22.4117 35.8575 22.4567 35.8845C22.7141 35.8038 22.9651 35.7095 23.2088 35.6023C23.2048 35.5828 23.2028 35.5626 23.2028 35.5419C23.2028 35.3763 23.3371 35.2419 23.5028 35.2419C23.594 35.2419 23.6758 35.2827 23.7308 35.347C23.9632 35.2215 24.1875 35.0838 24.4029 34.9348C24.4067 34.7724 24.5395 34.6418 24.7028 34.6418C24.7306 34.6418 24.7574 34.6456 24.7829 34.6526C25.2328 34.2947 25.6363 33.8845 25.9831 33.4312C25.9576 33.4383 25.9307 33.442 25.9029 33.442C25.7372 33.442 25.6029 33.3077 25.6029 33.142C25.6029 32.9764 25.7372 32.842 25.9029 32.842C26.0637 32.842 26.1949 32.9685 26.2026 33.1274C26.5212 32.6598 26.782 32.152 26.9747 31.6133C26.8731 31.5652 26.8029 31.4619 26.8029 31.342C26.8029 31.1763 26.9372 31.042 27.1029 31.042C27.1187 31.042 27.1342 31.0432 27.1494 31.0456C27.3264 30.3616 27.3966 29.6359 27.3414 28.8856C27.024 24.5666 26.4697 20.8075 25.8367 17.6346H25.3255L25.1577 19.9835C24.9895 22.3384 23.03 24.1629 20.6691 24.1629H18.1322V24.8287C18.1322 26.0062 17.1777 26.9608 16.0002 26.9608C14.8227 26.9608 13.8681 26.0062 13.8681 24.8287V24.1629H11.3312C8.97031 24.1629 7.01083 22.3384 6.84262 19.9835L6.67484 17.6346H6.16356ZM20.6691 23.1629H18.1322V22.0309C18.1322 20.8534 17.1777 19.8988 16.0002 19.8988C14.8227 19.8988 13.8681 20.8534 13.8681 22.0309V23.1629H11.3312C9.49495 23.1629 7.9709 21.7438 7.84008 19.9122L7.67739 17.6346H24.3229L24.1602 19.9122C24.0294 21.7438 22.5054 23.1629 20.6691 23.1629ZM17.1322 22.0309C17.1322 21.4056 16.6254 20.8988 16.0002 20.8988C15.375 20.8988 14.8681 21.4056 14.8681 22.0309V24.0955H17.1322V22.0309ZM14.8997 25.0955C15.0197 25.5919 15.4668 25.9608 16.0002 25.9608C16.5335 25.9608 16.9807 25.5919 17.1006 25.0955H14.8997ZM8.20279 6.14227C8.20279 6.30798 8.06847 6.44226 7.90279 6.44226C7.7371 6.44226 7.60278 6.30798 7.60278 6.14227C7.60278 5.97662 7.7371 5.84229 7.90279 5.84229C8.06847 5.84229 8.20279 5.97662 8.20279 6.14227ZM8.20279 7.34198C8.20279 7.50769 8.06847 7.64197 7.90279 7.64197C7.7371 7.64197 7.60278 7.50769 7.60278 7.34198C7.60278 7.17633 7.7371 7.04199 7.90279 7.04199C8.06847 7.04199 8.20279 7.17633 8.20279 7.34198ZM7.90279 12.4423C8.06847 12.4423 8.20279 12.308 8.20279 12.1423C8.20279 11.9766 8.06847 11.8423 7.90279 11.8423C7.7371 11.8423 7.60278 11.9766 7.60278 12.1423C7.60278 12.308 7.7371 12.4423 7.90279 12.4423ZM9.40286 11.5422C9.40286 11.7079 9.26855 11.8422 9.10286 11.8422C8.93717 11.8422 8.80286 11.7079 8.80286 11.5422C8.80286 11.3765 8.93717 11.2422 9.10286 11.2422C9.26855 11.2422 9.40286 11.3765 9.40286 11.5422ZM9.10286 13.0421C9.26855 13.0421 9.40286 12.9078 9.40286 12.7421C9.40286 12.5765 9.26855 12.4421 9.10286 12.4421C8.93717 12.4421 8.80286 12.5765 8.80286 12.7421C8.80286 12.9078 8.93717 13.0421 9.10286 13.0421ZM8.20279 13.342C8.20279 13.5077 8.06847 13.642 7.90279 13.642C7.7371 13.642 7.60278 13.5077 7.60278 13.342C7.60278 13.1763 7.7371 13.042 7.90279 13.042C8.06847 13.042 8.20279 13.1763 8.20279 13.342ZM9.10286 14.2418C9.26855 14.2418 9.40286 14.1075 9.40286 13.9418C9.40286 13.7762 9.26855 13.6418 9.10286 13.6418C8.93717 13.6418 8.80286 13.7762 8.80286 13.9418C8.80286 14.1075 8.93717 14.2418 9.10286 14.2418ZM10.3028 12.4423C10.4685 12.4423 10.6028 12.308 10.6028 12.1423C10.6028 11.9766 10.4685 11.8423 10.3028 11.8423C10.1371 11.8423 10.0028 11.9766 10.0028 12.1423C10.0028 12.308 10.1371 12.4423 10.3028 12.4423ZM11.8026 12.7421C11.8026 12.9078 11.6683 13.0421 11.5026 13.0421C11.337 13.0421 11.2026 12.9078 11.2026 12.7421C11.2026 12.5765 11.337 12.4421 11.5026 12.4421C11.6683 12.4421 11.8026 12.5765 11.8026 12.7421ZM10.3028 13.642C10.4685 13.642 10.6028 13.5077 10.6028 13.342C10.6028 13.1763 10.4685 13.042 10.3028 13.042C10.1371 13.042 10.0028 13.1763 10.0028 13.342C10.0028 13.5077 10.1371 13.642 10.3028 13.642ZM11.8026 13.9418C11.8026 14.1075 11.6683 14.2418 11.5026 14.2418C11.337 14.2418 11.2026 14.1075 11.2026 13.9418C11.2026 13.7762 11.337 13.6418 11.5026 13.6418C11.6683 13.6418 11.8026 13.7762 11.8026 13.9418ZM12.7028 13.642C12.8685 13.642 13.0028 13.5077 13.0028 13.342C13.0028 13.1763 12.8685 13.042 12.7028 13.042C12.5371 13.042 12.4028 13.1763 12.4028 13.342C12.4028 13.5077 12.5371 13.642 12.7028 13.642ZM14.2028 13.9418C14.2028 14.1075 14.0685 14.2418 13.9028 14.2418C13.7371 14.2418 13.6028 14.1075 13.6028 13.9418C13.6028 13.7762 13.7371 13.6418 13.9028 13.6418C14.0685 13.6418 14.2028 13.7762 14.2028 13.9418ZM25.0028 4.94183C25.0028 5.10754 24.8685 5.24182 24.7028 5.24182C24.5371 5.24182 24.4028 5.10754 24.4028 4.94183C24.4028 4.77618 24.5371 4.64185 24.7028 4.64185C24.8685 4.64185 25.0028 4.77618 25.0028 4.94183ZM24.7028 6.44226C24.8685 6.44226 25.0028 6.30798 25.0028 6.14227C25.0028 5.97662 24.8685 5.84229 24.7028 5.84229C24.5371 5.84229 24.4028 5.97662 24.4028 6.14227C24.4028 6.30798 24.5371 6.44226 24.7028 6.44226ZM25.0028 7.34198C25.0028 7.50769 24.8685 7.64197 24.7028 7.64197C24.5371 7.64197 24.4028 7.50769 24.4028 7.34198C24.4028 7.17633 24.5371 7.04199 24.7028 7.04199C24.8685 7.04199 25.0028 7.17633 25.0028 7.34198ZM24.7028 8.84192C24.8685 8.84192 25.0028 8.70764 25.0028 8.54193C25.0028 8.37628 24.8685 8.24194 24.7028 8.24194C24.5371 8.24194 24.4028 8.37628 24.4028 8.54193C24.4028 8.70764 24.5371 8.84192 24.7028 8.84192ZM7.90279 14.8419C8.06847 14.8419 8.20279 14.7076 8.20279 14.5419C8.20279 14.3763 8.06847 14.2419 7.90279 14.2419C7.7371 14.2419 7.60278 14.3763 7.60278 14.5419C7.60278 14.7076 7.7371 14.8419 7.90279 14.8419ZM9.40286 15.1423C9.40286 15.308 9.26855 15.4423 9.10286 15.4423C8.93717 15.4423 8.80286 15.308 8.80286 15.1423C8.80286 14.9766 8.93717 14.8423 9.10286 14.8423C9.26855 14.8423 9.40286 14.9766 9.40286 15.1423ZM7.90279 16.0421C8.06847 16.0421 8.20279 15.9078 8.20279 15.7421C8.20279 15.5765 8.06847 15.4421 7.90279 15.4421C7.7371 15.4421 7.60278 15.5765 7.60278 15.7421C7.60278 15.9078 7.7371 16.0421 7.90279 16.0421ZM10.3028 14.8419C10.4685 14.8419 10.6028 14.7076 10.6028 14.5419C10.6028 14.3763 10.4685 14.2419 10.3028 14.2419C10.1371 14.2419 10.0028 14.3763 10.0028 14.5419C10.0028 14.7076 10.1371 14.8419 10.3028 14.8419ZM11.8026 15.1423C11.8026 15.308 11.6683 15.4423 11.5026 15.4423C11.337 15.4423 11.2026 15.308 11.2026 15.1423C11.2026 14.9766 11.337 14.8423 11.5026 14.8423C11.6683 14.8423 11.8026 14.9766 11.8026 15.1423ZM10.3028 16.0421C10.4685 16.0421 10.6028 15.9078 10.6028 15.7421C10.6028 15.5765 10.4685 15.4421 10.3028 15.4421C10.1371 15.4421 10.0028 15.5765 10.0028 15.7421C10.0028 15.9078 10.1371 16.0421 10.3028 16.0421ZM12.7028 14.8419C12.8685 14.8419 13.0028 14.7076 13.0028 14.5419C13.0028 14.3763 12.8685 14.2419 12.7028 14.2419C12.5371 14.2419 12.4028 14.3763 12.4028 14.5419C12.4028 14.7076 12.5371 14.8419 12.7028 14.8419ZM14.2028 15.1423C14.2028 15.308 14.0685 15.4423 13.9028 15.4423C13.7371 15.4423 13.6028 15.308 13.6028 15.1423C13.6028 14.9766 13.7371 14.8423 13.9028 14.8423C14.0685 14.8423 14.2028 14.9766 14.2028 15.1423ZM12.7028 16.0421C12.8685 16.0421 13.0028 15.9078 13.0028 15.7421C13.0028 15.5765 12.8685 15.4421 12.7028 15.4421C12.5371 15.4421 12.4028 15.5765 12.4028 15.7421C12.4028 15.9078 12.5371 16.0421 12.7028 16.0421ZM15.1029 14.8419C15.2685 14.8419 15.4029 14.7076 15.4029 14.5419C15.4029 14.3763 15.2685 14.2419 15.1029 14.2419C14.9372 14.2419 14.8029 14.3763 14.8029 14.5419C14.8029 14.7076 14.9372 14.8419 15.1029 14.8419ZM16.6028 15.1423C16.6028 15.308 16.4685 15.4423 16.3028 15.4423C16.1371 15.4423 16.0028 15.308 16.0028 15.1423C16.0028 14.9766 16.1371 14.8423 16.3028 14.8423C16.4685 14.8423 16.6028 14.9766 16.6028 15.1423ZM15.1029 16.0421C15.2685 16.0421 15.4029 15.9078 15.4029 15.7421C15.4029 15.5765 15.2685 15.4421 15.1029 15.4421C14.9372 15.4421 14.8029 15.5765 14.8029 15.7421C14.8029 15.9078 14.9372 16.0421 15.1029 16.0421ZM17.5028 16.0421C17.6684 16.0421 17.8028 15.9078 17.8028 15.7421C17.8028 15.5765 17.6684 15.4421 17.5028 15.4421C17.3371 15.4421 17.2028 15.5765 17.2028 15.7421C17.2028 15.9078 17.3371 16.0421 17.5028 16.0421ZM1.90266 27.442C2.06835 27.442 2.20267 27.3077 2.20267 27.142C2.20267 26.9764 2.06835 26.842 1.90266 26.842C1.73698 26.842 1.60266 26.9764 1.60266 27.142C1.60266 27.3077 1.73698 27.442 1.90266 27.442ZM2.20267 28.342C2.20267 28.5077 2.06835 28.642 1.90266 28.642C1.73698 28.642 1.60266 28.5077 1.60266 28.342C1.60266 28.1763 1.73698 28.042 1.90266 28.042C2.06835 28.042 2.20267 28.1763 2.20267 28.342ZM1.90266 29.8419C2.06835 29.8419 2.20267 29.7076 2.20267 29.5419C2.20267 29.3763 2.06835 29.2419 1.90266 29.2419C1.73698 29.2419 1.60266 29.3763 1.60266 29.5419C1.60266 29.7076 1.73698 29.8419 1.90266 29.8419ZM3.40274 20.5419C3.40274 20.7076 3.26842 20.8419 3.10274 20.8419C2.93705 20.8419 2.80273 20.7076 2.80273 20.5419C2.80273 20.3763 2.93705 20.2419 3.10274 20.2419C3.26842 20.2419 3.40274 20.3763 3.40274 20.5419ZM3.10274 22.0419C3.26842 22.0419 3.40274 21.9076 3.40274 21.7419C3.40274 21.5762 3.26842 21.4419 3.10274 21.4419C2.93705 21.4419 2.80273 21.5762 2.80273 21.7419C2.80273 21.9076 2.93705 22.0419 3.10274 22.0419ZM3.40274 22.9418C3.40274 23.1075 3.26842 23.2418 3.10274 23.2418C2.93705 23.2418 2.80273 23.1075 2.80273 22.9418C2.80273 22.7762 2.93705 22.6418 3.10274 22.6418C3.26842 22.6418 3.40274 22.7762 3.40274 22.9418ZM3.10274 24.442C3.26842 24.442 3.40274 24.3077 3.40274 24.142C3.40274 23.9764 3.26842 23.842 3.10274 23.842C2.93705 23.842 2.80273 23.9764 2.80273 24.142C2.80273 24.3077 2.93705 24.442 3.10274 24.442ZM3.40274 25.342C3.40274 25.5077 3.26842 25.642 3.10274 25.642C2.93705 25.642 2.80273 25.5077 2.80273 25.342C2.80273 25.1763 2.93705 25.042 3.10274 25.042C3.26842 25.042 3.40274 25.1763 3.40274 25.342ZM3.10274 26.8419C3.26842 26.8419 3.40274 26.7076 3.40274 26.5419C3.40274 26.3763 3.26842 26.2419 3.10274 26.2419C2.93705 26.2419 2.80273 26.3763 2.80273 26.5419C2.80273 26.7076 2.93705 26.8419 3.10274 26.8419ZM3.10274 28.0419C3.26842 28.0419 3.40274 27.9076 3.40274 27.7419C3.40274 27.5762 3.26842 27.4419 3.10274 27.4419C2.93705 27.4419 2.80273 27.5762 2.80273 27.7419C2.80273 27.9076 2.93705 28.0419 3.10274 28.0419ZM3.40274 28.9418C3.40274 29.1075 3.26842 29.2418 3.10274 29.2418C2.93705 29.2418 2.80273 29.1075 2.80273 28.9418C2.80273 28.7762 2.93705 28.6418 3.10274 28.6418C3.26842 28.6418 3.40274 28.7762 3.40274 28.9418ZM3.10274 30.442C3.26842 30.442 3.40274 30.3077 3.40274 30.142C3.40274 29.9764 3.26842 29.842 3.10274 29.842C2.93705 29.842 2.80273 29.9764 2.80273 30.142C2.80273 30.3077 2.93705 30.442 3.10274 30.442ZM3.10274 31.642C3.26842 31.642 3.40274 31.5077 3.40274 31.342C3.40274 31.1763 3.26842 31.042 3.10274 31.042C2.93705 31.042 2.80273 31.1763 2.80273 31.342C2.80273 31.5077 2.93705 31.642 3.10274 31.642ZM5.50264 31.642C5.66833 31.642 5.80264 31.5077 5.80264 31.342C5.80264 31.1763 5.66833 31.042 5.50264 31.042C5.33695 31.042 5.20264 31.1763 5.20264 31.342C5.20264 31.5077 5.33695 31.642 5.50264 31.642ZM6.70271 32.2418C6.8684 32.2418 7.00272 32.1075 7.00272 31.9418C7.00272 31.7762 6.8684 31.6418 6.70271 31.6418C6.53702 31.6418 6.40271 31.7762 6.40271 31.9418C6.40271 32.1075 6.53702 32.2418 6.70271 32.2418ZM7.00272 33.142C7.00272 33.3077 6.8684 33.442 6.70271 33.442C6.53702 33.442 6.40271 33.3077 6.40271 33.142C6.40271 32.9764 6.53702 32.842 6.70271 32.842C6.8684 32.842 7.00272 32.9764 7.00272 33.142ZM7.90279 31.642C8.06847 31.642 8.20279 31.5077 8.20279 31.342C8.20279 31.1763 8.06847 31.042 7.90279 31.042C7.7371 31.042 7.60278 31.1763 7.60278 31.342C7.60278 31.5077 7.7371 31.642 7.90279 31.642ZM8.20279 32.5419C8.20279 32.7076 8.06847 32.8419 7.90279 32.8419C7.7371 32.8419 7.60278 32.7076 7.60278 32.5419C7.60278 32.3763 7.7371 32.2419 7.90279 32.2419C8.06847 32.2419 8.20279 32.3763 8.20279 32.5419ZM9.10286 32.2418C9.26855 32.2418 9.40286 32.1075 9.40286 31.9418C9.40286 31.7762 9.26855 31.6418 9.10286 31.6418C8.93717 31.6418 8.80286 31.7762 8.80286 31.9418C8.80286 32.1075 8.93717 32.2418 9.10286 32.2418ZM9.40286 33.142C9.40286 33.3077 9.26855 33.442 9.10286 33.442C8.93717 33.442 8.80286 33.3077 8.80286 33.142C8.80286 32.9764 8.93717 32.842 9.10286 32.842C9.26855 32.842 9.40286 32.9764 9.40286 33.142ZM7.90279 34.0419C8.06847 34.0419 8.20279 33.9076 8.20279 33.7419C8.20279 33.5762 8.06847 33.4419 7.90279 33.4419C7.7371 33.4419 7.60278 33.5762 7.60278 33.7419C7.60278 33.9076 7.7371 34.0419 7.90279 34.0419ZM9.40286 34.342C9.40286 34.5077 9.26855 34.642 9.10286 34.642C8.93717 34.642 8.80286 34.5077 8.80286 34.342C8.80286 34.1763 8.93717 34.042 9.10286 34.042C9.26855 34.042 9.40286 34.1763 9.40286 34.342ZM10.3028 31.642C10.4685 31.642 10.6028 31.5077 10.6028 31.342C10.6028 31.1763 10.4685 31.042 10.3028 31.042C10.1371 31.042 10.0028 31.1763 10.0028 31.342C10.0028 31.5077 10.1371 31.642 10.3028 31.642ZM10.6028 32.5419C10.6028 32.7076 10.4685 32.8419 10.3028 32.8419C10.1371 32.8419 10.0028 32.7076 10.0028 32.5419C10.0028 32.3763 10.1371 32.2419 10.3028 32.2419C10.4685 32.2419 10.6028 32.3763 10.6028 32.5419ZM11.5026 32.2418C11.6683 32.2418 11.8026 32.1075 11.8026 31.9418C11.8026 31.7762 11.6683 31.6418 11.5026 31.6418C11.337 31.6418 11.2026 31.7762 11.2026 31.9418C11.2026 32.1075 11.337 32.2418 11.5026 32.2418ZM11.8026 33.142C11.8026 33.3077 11.6683 33.442 11.5026 33.442C11.337 33.442 11.2026 33.3077 11.2026 33.142C11.2026 32.9764 11.337 32.842 11.5026 32.842C11.6683 32.842 11.8026 32.9764 11.8026 33.142ZM10.3028 34.0419C10.4685 34.0419 10.6028 33.9076 10.6028 33.7419C10.6028 33.5762 10.4685 33.4419 10.3028 33.4419C10.1371 33.4419 10.0028 33.5762 10.0028 33.7419C10.0028 33.9076 10.1371 34.0419 10.3028 34.0419ZM11.8026 34.342C11.8026 34.5077 11.6683 34.642 11.5026 34.642C11.337 34.642 11.2026 34.5077 11.2026 34.342C11.2026 34.1763 11.337 34.042 11.5026 34.042C11.6683 34.042 11.8026 34.1763 11.8026 34.342ZM10.3028 35.2418C10.4685 35.2418 10.6028 35.1075 10.6028 34.9418C10.6028 34.7762 10.4685 34.6418 10.3028 34.6418C10.1371 34.6418 10.0028 34.7762 10.0028 34.9418C10.0028 35.1075 10.1371 35.2418 10.3028 35.2418ZM11.5026 35.8419C11.6683 35.8419 11.8026 35.7076 11.8026 35.5419C11.8026 35.3763 11.6683 35.2419 11.5026 35.2419C11.337 35.2419 11.2026 35.3763 11.2026 35.5419C11.2026 35.7076 11.337 35.8419 11.5026 35.8419ZM12.7028 31.642C12.8685 31.642 13.0028 31.5077 13.0028 31.342C13.0028 31.1763 12.8685 31.042 12.7028 31.042C12.5371 31.042 12.4028 31.1763 12.4028 31.342C12.4028 31.5077 12.5371 31.642 12.7028 31.642ZM13.0028 32.5419C13.0028 32.7076 12.8685 32.8419 12.7028 32.8419C12.5371 32.8419 12.4028 32.7076 12.4028 32.5419C12.4028 32.3763 12.5371 32.2419 12.7028 32.2419C12.8685 32.2419 13.0028 32.3763 13.0028 32.5419ZM13.9028 32.2418C14.0685 32.2418 14.2028 32.1075 14.2028 31.9418C14.2028 31.7762 14.0685 31.6418 13.9028 31.6418C13.7371 31.6418 13.6028 31.7762 13.6028 31.9418C13.6028 32.1075 13.7371 32.2418 13.9028 32.2418ZM14.2028 33.142C14.2028 33.3077 14.0685 33.442 13.9028 33.442C13.7371 33.442 13.6028 33.3077 13.6028 33.142C13.6028 32.9764 13.7371 32.842 13.9028 32.842C14.0685 32.842 14.2028 32.9764 14.2028 33.142ZM12.7028 34.0419C12.8685 34.0419 13.0028 33.9076 13.0028 33.7419C13.0028 33.5762 12.8685 33.4419 12.7028 33.4419C12.5371 33.4419 12.4028 33.5762 12.4028 33.7419C12.4028 33.9076 12.5371 34.0419 12.7028 34.0419ZM14.2028 34.342C14.2028 34.5077 14.0685 34.642 13.9028 34.642C13.7371 34.642 13.6028 34.5077 13.6028 34.342C13.6028 34.1763 13.7371 34.042 13.9028 34.042C14.0685 34.042 14.2028 34.1763 14.2028 34.342ZM12.7028 35.2418C12.8685 35.2418 13.0028 35.1075 13.0028 34.9418C13.0028 34.7762 12.8685 34.6418 12.7028 34.6418C12.5371 34.6418 12.4028 34.7762 12.4028 34.9418C12.4028 35.1075 12.5371 35.2418 12.7028 35.2418ZM13.9028 35.8419C14.0685 35.8419 14.2028 35.7076 14.2028 35.5419C14.2028 35.3763 14.0685 35.2419 13.9028 35.2419C13.7371 35.2419 13.6028 35.3763 13.6028 35.5419C13.6028 35.7076 13.7371 35.8419 13.9028 35.8419ZM15.4029 31.342C15.4029 31.5077 15.2685 31.642 15.1029 31.642C14.9372 31.642 14.8029 31.5077 14.8029 31.342C14.8029 31.1763 14.9372 31.042 15.1029 31.042C15.2685 31.042 15.4029 31.1763 15.4029 31.342ZM15.1029 32.8419C15.2685 32.8419 15.4029 32.7076 15.4029 32.5419C15.4029 32.3763 15.2685 32.2419 15.1029 32.2419C14.9372 32.2419 14.8029 32.3763 14.8029 32.5419C14.8029 32.7076 14.9372 32.8419 15.1029 32.8419ZM16.6028 31.9418C16.6028 32.1075 16.4685 32.2418 16.3028 32.2418C16.1371 32.2418 16.0028 32.1075 16.0028 31.9418C16.0028 31.7762 16.1371 31.6418 16.3028 31.6418C16.4685 31.6418 16.6028 31.7762 16.6028 31.9418ZM16.3028 33.442C16.4685 33.442 16.6028 33.3077 16.6028 33.142C16.6028 32.9764 16.4685 32.842 16.3028 32.842C16.1371 32.842 16.0028 32.9764 16.0028 33.142C16.0028 33.3077 16.1371 33.442 16.3028 33.442ZM15.4029 33.7419C15.4029 33.9076 15.2685 34.0419 15.1029 34.0419C14.9372 34.0419 14.8029 33.9076 14.8029 33.7419C14.8029 33.5762 14.9372 33.4419 15.1029 33.4419C15.2685 33.4419 15.4029 33.5762 15.4029 33.7419ZM16.3028 34.642C16.4685 34.642 16.6028 34.5077 16.6028 34.342C16.6028 34.1763 16.4685 34.042 16.3028 34.042C16.1371 34.042 16.0028 34.1763 16.0028 34.342C16.0028 34.5077 16.1371 34.642 16.3028 34.642ZM15.4029 34.9418C15.4029 35.1075 15.2685 35.2418 15.1029 35.2418C14.9372 35.2418 14.8029 35.1075 14.8029 34.9418C14.8029 34.7762 14.9372 34.6418 15.1029 34.6418C15.2685 34.6418 15.4029 34.7762 15.4029 34.9418ZM16.6028 35.5419C16.6028 35.7076 16.4685 35.8419 16.3028 35.8419C16.1371 35.8419 16.0028 35.7076 16.0028 35.5419C16.0028 35.3763 16.1371 35.2419 16.3028 35.2419C16.4685 35.2419 16.6028 35.3763 16.6028 35.5419ZM17.8028 31.342C17.8028 31.5077 17.6684 31.642 17.5028 31.642C17.3371 31.642 17.2028 31.5077 17.2028 31.342C17.2028 31.1763 17.3371 31.042 17.5028 31.042C17.6684 31.042 17.8028 31.1763 17.8028 31.342ZM17.5028 32.8419C17.6684 32.8419 17.8028 32.7076 17.8028 32.5419C17.8028 32.3763 17.6684 32.2419 17.5028 32.2419C17.3371 32.2419 17.2028 32.3763 17.2028 32.5419C17.2028 32.7076 17.3371 32.8419 17.5028 32.8419ZM19.0028 31.9418C19.0028 32.1075 18.8685 32.2418 18.7028 32.2418C18.5371 32.2418 18.4028 32.1075 18.4028 31.9418C18.4028 31.7762 18.5371 31.6418 18.7028 31.6418C18.8685 31.6418 19.0028 31.7762 19.0028 31.9418ZM18.7028 33.442C18.8685 33.442 19.0028 33.3077 19.0028 33.142C19.0028 32.9764 18.8685 32.842 18.7028 32.842C18.5371 32.842 18.4028 32.9764 18.4028 33.142C18.4028 33.3077 18.5371 33.442 18.7028 33.442ZM17.8028 33.7419C17.8028 33.9076 17.6684 34.0419 17.5028 34.0419C17.3371 34.0419 17.2028 33.9076 17.2028 33.7419C17.2028 33.5762 17.3371 33.4419 17.5028 33.4419C17.6684 33.4419 17.8028 33.5762 17.8028 33.7419ZM18.7028 34.642C18.8685 34.642 19.0028 34.5077 19.0028 34.342C19.0028 34.1763 18.8685 34.042 18.7028 34.042C18.5371 34.042 18.4028 34.1763 18.4028 34.342C18.4028 34.5077 18.5371 34.642 18.7028 34.642ZM17.8028 34.9418C17.8028 35.1075 17.6684 35.2418 17.5028 35.2418C17.3371 35.2418 17.2028 35.1075 17.2028 34.9418C17.2028 34.7762 17.3371 34.6418 17.5028 34.6418C17.6684 34.6418 17.8028 34.7762 17.8028 34.9418ZM19.0028 35.5419C19.0028 35.7076 18.8685 35.8419 18.7028 35.8419C18.5371 35.8419 18.4028 35.7076 18.4028 35.5419C18.4028 35.3763 18.5371 35.2419 18.7028 35.2419C18.8685 35.2419 19.0028 35.3763 19.0028 35.5419ZM20.2028 31.342C20.2028 31.5077 20.0685 31.642 19.9028 31.642C19.7371 31.642 19.6028 31.5077 19.6028 31.342C19.6028 31.1763 19.7371 31.042 19.9028 31.042C20.0685 31.042 20.2028 31.1763 20.2028 31.342ZM19.9028 32.8419C20.0685 32.8419 20.2028 32.7076 20.2028 32.5419C20.2028 32.3763 20.0685 32.2419 19.9028 32.2419C19.7371 32.2419 19.6028 32.3763 19.6028 32.5419C19.6028 32.7076 19.7371 32.8419 19.9028 32.8419ZM21.4029 31.9418C21.4029 32.1075 21.2685 32.2418 21.1029 32.2418C20.9372 32.2418 20.8029 32.1075 20.8029 31.9418C20.8029 31.7762 20.9372 31.6418 21.1029 31.6418C21.2685 31.6418 21.4029 31.7762 21.4029 31.9418ZM21.1029 33.442C21.2685 33.442 21.4029 33.3077 21.4029 33.142C21.4029 32.9764 21.2685 32.842 21.1029 32.842C20.9372 32.842 20.8029 32.9764 20.8029 33.142C20.8029 33.3077 20.9372 33.442 21.1029 33.442ZM20.2028 33.7419C20.2028 33.9076 20.0685 34.0419 19.9028 34.0419C19.7371 34.0419 19.6028 33.9076 19.6028 33.7419C19.6028 33.5762 19.7371 33.4419 19.9028 33.4419C20.0685 33.4419 20.2028 33.5762 20.2028 33.7419ZM21.1029 34.642C21.2685 34.642 21.4029 34.5077 21.4029 34.342C21.4029 34.1763 21.2685 34.042 21.1029 34.042C20.9372 34.042 20.8029 34.1763 20.8029 34.342C20.8029 34.5077 20.9372 34.642 21.1029 34.642ZM20.2028 34.9418C20.2028 35.1075 20.0685 35.2418 19.9028 35.2418C19.7371 35.2418 19.6028 35.1075 19.6028 34.9418C19.6028 34.7762 19.7371 34.6418 19.9028 34.6418C20.0685 34.6418 20.2028 34.7762 20.2028 34.9418ZM21.4029 35.5419C21.4029 35.7076 21.2685 35.8419 21.1029 35.8419C20.9372 35.8419 20.8029 35.7076 20.8029 35.5419C20.8029 35.3763 20.9372 35.2419 21.1029 35.2419C21.2685 35.2419 21.4029 35.3763 21.4029 35.5419ZM22.6028 31.342C22.6028 31.5077 22.4685 31.642 22.3028 31.642C22.1371 31.642 22.0028 31.5077 22.0028 31.342C22.0028 31.1763 22.1371 31.042 22.3028 31.042C22.4685 31.042 22.6028 31.1763 22.6028 31.342ZM22.3028 32.8419C22.4685 32.8419 22.6028 32.7076 22.6028 32.5419C22.6028 32.3763 22.4685 32.2419 22.3028 32.2419C22.1371 32.2419 22.0028 32.3763 22.0028 32.5419C22.0028 32.7076 22.1371 32.8419 22.3028 32.8419ZM23.8028 31.9418C23.8028 32.1075 23.6684 32.2418 23.5028 32.2418C23.3371 32.2418 23.2028 32.1075 23.2028 31.9418C23.2028 31.7762 23.3371 31.6418 23.5028 31.6418C23.6684 31.6418 23.8028 31.7762 23.8028 31.9418ZM23.5028 33.442C23.6684 33.442 23.8028 33.3077 23.8028 33.142C23.8028 32.9764 23.6684 32.842 23.5028 32.842C23.3371 32.842 23.2028 32.9764 23.2028 33.142C23.2028 33.3077 23.3371 33.442 23.5028 33.442ZM22.6028 33.7419C22.6028 33.9076 22.4685 34.0419 22.3028 34.0419C22.1371 34.0419 22.0028 33.9076 22.0028 33.7419C22.0028 33.5762 22.1371 33.4419 22.3028 33.4419C22.4685 33.4419 22.6028 33.5762 22.6028 33.7419ZM23.5028 34.642C23.6684 34.642 23.8028 34.5077 23.8028 34.342C23.8028 34.1763 23.6684 34.042 23.5028 34.042C23.3371 34.042 23.2028 34.1763 23.2028 34.342C23.2028 34.5077 23.3371 34.642 23.5028 34.642ZM22.6028 34.9418C22.6028 35.1075 22.4685 35.2418 22.3028 35.2418C22.1371 35.2418 22.0028 35.1075 22.0028 34.9418C22.0028 34.7762 22.1371 34.6418 22.3028 34.6418C22.4685 34.6418 22.6028 34.7762 22.6028 34.9418ZM24.7028 31.642C24.8685 31.642 25.0028 31.5077 25.0028 31.342C25.0028 31.1763 24.8685 31.042 24.7028 31.042C24.5371 31.042 24.4028 31.1763 24.4028 31.342C24.4028 31.5077 24.5371 31.642 24.7028 31.642ZM25.0028 32.5419C25.0028 32.7076 24.8685 32.8419 24.7028 32.8419C24.5371 32.8419 24.4028 32.7076 24.4028 32.5419C24.4028 32.3763 24.5371 32.2419 24.7028 32.2419C24.8685 32.2419 25.0028 32.3763 25.0028 32.5419ZM25.9029 32.2418C26.0686 32.2418 26.2029 32.1075 26.2029 31.9418C26.2029 31.7762 26.0686 31.6418 25.9029 31.6418C25.7372 31.6418 25.6029 31.7762 25.6029 31.9418C25.6029 32.1075 25.7372 32.2418 25.9029 32.2418ZM24.7028 34.0419C24.8685 34.0419 25.0028 33.9076 25.0028 33.7419C25.0028 33.5762 24.8685 33.4419 24.7028 33.4419C24.5371 33.4419 24.4028 33.5762 24.4028 33.7419C24.4028 33.9076 24.5371 34.0419 24.7028 34.0419Z"
        fill="#B89B64" fill-rule="evenodd" />
</svg>
