<svg fill="none" height="40" viewBox="0 0 26 40" width="26" xmlns="http://www.w3.org/2000/svg">
    <path clip-rule="evenodd"
        d="M13.0049 0.648438C11.1182 0.648438 8.753 1.00504 6.8798 1.35516C5.93885 1.53101 5.11393 1.70682 4.52407 1.83871C4.22904 1.90466 3.99257 1.95969 3.82953 1.99829C3.74801 2.01761 3.6848 2.03284 3.64181 2.04324L3.59269 2.05524L3.58281 2.05768C3.45609 2.08542 3.33297 2.116 3.21303 2.14932L3.19553 2.15366C2.77746 2.27106 2.39802 2.4223 2.03971 2.60132C0.884268 3.17865 0.257879 4.26947 0.0984095 5.4306C-0.0602209 6.58563 0.234747 7.84479 0.953237 8.8396L4.30678 13.483C3.91654 13.7538 3.66102 14.2051 3.66102 14.7161V15.9744C3.66102 16.6719 4.13704 17.2582 4.78193 17.4261C4.14307 18.8737 3.32665 21.4142 2.64419 24.406C1.83079 27.9718 1.1932 32.2414 1.27791 36.1741C1.29935 37.1694 1.946 38.0615 2.93715 38.3228C5.55494 39.0131 9.29386 39.3514 13.0049 39.3514C16.716 39.3514 20.4549 39.0131 23.0727 38.3228C24.0638 38.0615 24.7105 37.1694 24.7319 36.1741C24.8166 32.2414 24.1791 27.9718 23.3657 24.406C22.6832 21.4142 21.8668 18.8737 21.228 17.4261C21.8728 17.2581 22.3488 16.6719 22.3488 15.9744V14.7161C22.3488 14.205 22.0931 13.7535 21.7026 13.4827L25.051 8.8385C25.7682 7.84369 26.0623 6.58527 25.9033 5.43091C25.7434 4.27045 25.1172 3.18036 23.9629 2.60291C23.6066 2.42468 23.2295 2.27444 22.8143 2.15714V2.15366L22.6464 2.11206C22.6178 2.10477 22.589 2.09763 22.56 2.09064L22.4346 2.05954L22.4333 2.0592L22.4299 2.05838L22.4172 2.05524L22.368 2.04324L22.3063 2.02835L22.1803 1.99829C22.0172 1.95969 21.7808 1.90466 21.4858 1.83871C20.8959 1.70682 20.071 1.53101 19.13 1.35516C17.2568 1.00504 14.8917 0.648438 13.0049 0.648438ZM24.2398 8.25372L21.4466 12.1278C22.2018 9.50305 22.7525 6.99353 22.8094 3.20221C23.0586 3.28638 23.2915 3.38519 23.5155 3.49725C24.3212 3.90027 24.7889 4.66937 24.9126 5.56732C25.0371 6.47144 24.8043 7.47076 24.2398 8.25372ZM4.59842 12.1788C3.83364 9.53625 3.25925 7.0174 3.20051 3.19867C2.94837 3.28333 2.7129 3.38287 2.48665 3.49591C1.68038 3.89874 1.21251 4.66815 1.08912 5.56665C0.96488 6.47125 1.19846 7.47119 1.76391 8.25409L4.59842 12.1788ZM20.1486 17.4744H19.9804C19.7134 18.0729 19.2177 18.4532 18.6259 18.6127C18.4397 18.6628 18.2462 18.6909 18.049 18.6986C17.9952 18.7787 17.9037 18.8314 17.7999 18.8314C17.6861 18.8314 17.5872 18.7681 17.5363 18.6748C17.236 18.6362 16.9346 18.5554 16.6445 18.4385C16.6915 18.5895 16.7381 18.7415 16.7843 18.8945C16.8545 18.9495 16.8997 19.035 16.8997 19.131C16.8997 19.1648 16.8941 19.1973 16.8838 19.2276C18.3887 24.3166 19.4718 30.4658 19.5513 37.9645C20.7633 37.8083 21.8723 37.6052 22.8177 37.3559C23.3492 37.2157 23.7197 36.7318 23.7322 36.1526C23.8145 32.3298 23.1934 28.1471 22.3907 24.6284C21.6426 21.3488 20.7493 18.6998 20.1486 17.4744ZM15.542 18.2673C15.4951 18.1208 15.4479 17.9752 15.4004 17.8306L14.8753 17.5681C14.7148 17.4878 14.5729 17.381 14.454 17.2546C14.1968 17.5139 13.8704 17.7045 13.5049 17.7965V38.3494C15.2448 38.3348 16.9671 38.2447 18.5524 38.0803C18.4981 32.2414 17.8282 27.2381 16.8259 22.9282C16.7709 22.9913 16.69 23.0311 16.5997 23.0311C16.434 23.0311 16.2997 22.8969 16.2997 22.7311C16.2997 22.5655 16.434 22.4312 16.5997 22.4312C16.64 22.4312 16.6784 22.4391 16.7135 22.4535C16.6629 22.2436 16.6116 22.0353 16.5595 21.8287C16.4128 21.8091 16.2997 21.6835 16.2997 21.5314C16.2997 21.4327 16.3474 21.3452 16.421 21.2905C16.1832 20.3836 15.9312 19.5093 15.668 18.6659C15.6187 18.764 15.5171 18.8314 15.3997 18.8314C15.234 18.8314 15.0997 18.6971 15.0997 18.5314C15.0997 18.3658 15.234 18.2314 15.3997 18.2314C15.4512 18.2314 15.4997 18.2444 15.542 18.2673ZM12.5049 38.3494V17.7965C12.1394 17.7045 11.8131 17.5139 11.5559 17.2546C11.4369 17.381 11.295 17.4878 11.1345 17.5681L10.0688 18.1009C9.8657 18.7323 9.67454 19.3806 9.49528 20.0468C9.61414 20.0867 9.69974 20.199 9.69974 20.3312C9.69974 20.4969 9.56544 20.6312 9.39972 20.6312C9.38053 20.6312 9.36176 20.6294 9.34357 20.626C9.28333 20.8624 9.22452 21.101 9.16718 21.3419C9.2222 21.2745 9.30594 21.2314 9.39972 21.2314C9.56544 21.2314 9.69974 21.3658 9.69974 21.5314C9.69974 21.6971 9.56544 21.8314 9.39972 21.8314C9.25678 21.8314 9.13718 21.7314 9.10706 21.5976C8.04239 26.1813 7.49595 31.5785 7.45615 38.0802C9.04181 38.2446 10.7645 38.3348 12.5049 38.3494ZM6.45688 37.9643C6.50287 31.3973 7.06376 25.9126 8.16617 21.2294C8.0163 21.2127 7.89979 21.0857 7.89979 20.9313C7.89979 20.7657 8.03409 20.6313 8.19977 20.6313C8.23725 20.6313 8.27311 20.6382 8.30616 20.6508C8.48044 19.9495 8.66721 19.2664 8.86661 18.6006C8.73246 18.6339 8.59742 18.6593 8.46262 18.6762C8.41154 18.7687 8.31299 18.8314 8.19977 18.8314C8.0958 18.8314 8.00422 18.7785 7.95038 18.6982C7.75684 18.6899 7.56687 18.6619 7.38398 18.6127C6.79212 18.4532 6.29636 18.0729 6.02946 17.4744H5.86127C5.26056 18.6998 4.36725 21.3488 3.61915 24.6284C2.8165 28.1471 2.19533 32.3298 2.27768 36.1526C2.29017 36.7318 2.6606 37.2157 3.19213 37.3559C4.13715 37.605 5.24549 37.8081 6.45688 37.9643ZM9.2497 17.3889L9.25397 17.3903L10.6872 16.6736C10.8566 16.5889 10.9636 16.4158 10.9636 16.2264V15.8306L10.9636 15.8169V15.8031H9.79377C9.51761 15.8031 9.29377 15.5792 9.29377 15.3031C9.29377 15.0269 9.51761 14.8031 9.79377 14.8031H10.9636V14.7893L10.9636 14.7756V14.3161C10.9636 14.1437 10.8748 13.9835 10.7286 13.8921L9.27842 12.9857C8.69629 12.6219 8.08558 12.5129 7.63441 12.6181C7.22104 12.7144 6.89887 12.9944 6.80829 13.5681C6.64728 14.588 6.66202 15.7807 6.85029 16.7656C6.94724 17.2727 7.24573 17.5398 7.64411 17.6471C8.07291 17.7626 8.64652 17.694 9.20606 17.4142L9.2483 17.3931L9.2497 17.3889ZM20.8488 16.4744H20.2194C20.3171 15.7502 20.3377 14.9655 20.2817 14.2161H20.8488C21.125 14.2161 21.3488 14.44 21.3488 14.7161V15.9744C21.3488 16.2505 21.125 16.4744 20.8488 16.4744ZM5.79041 16.4744H5.16102C4.88486 16.4744 4.66102 16.2505 4.66102 15.9744V14.7161C4.66102 14.44 4.88486 14.2161 5.16102 14.2161H5.72816C5.67212 14.965 5.69269 15.7497 5.79041 16.4744ZM14.0462 15.8273C14.0406 16.3976 13.5765 16.8582 13.0049 16.8582C12.4331 16.8582 11.9689 16.3973 11.9636 15.8267V14.7795C11.9689 14.209 12.4331 13.748 13.0049 13.748C13.5765 13.748 14.0406 14.2086 14.0462 14.779V15.8273ZM14.4585 13.2831C14.5445 13.1924 14.6426 13.1119 14.7512 13.0441L15.2055 12.7601C15.1408 12.7051 15.0997 12.623 15.0997 12.5314C15.0997 12.3658 15.234 12.2314 15.3997 12.2314C15.5397 12.2314 15.6573 12.3273 15.6904 12.457L16.3279 12.0586C16.3209 12.0436 16.315 12.0278 16.3105 12.0115C16.3073 12.0001 16.3048 11.9884 16.303 11.9765C16.3008 11.9618 16.2997 11.9467 16.2997 11.9313C16.2997 11.7657 16.434 11.6313 16.5997 11.6313C16.7107 11.6313 16.8075 11.6916 16.8594 11.7811C17.1037 11.6779 17.3555 11.6033 17.6072 11.5612C17.5416 11.5062 17.4999 11.4236 17.4999 11.3312C17.4999 11.1656 17.6342 11.0312 17.7999 11.0312C17.9656 11.0312 18.0999 11.1656 18.0999 11.3312C18.0999 11.3453 18.0989 11.3591 18.0971 11.3726C18.0961 11.3793 18.095 11.386 18.0936 11.3925L18.0909 11.4045C18.0799 11.4481 18.0595 11.4879 18.0318 11.5215C18.231 11.5181 18.4274 11.5367 18.6171 11.5793C18.7072 11.5996 18.7951 11.6252 18.8803 11.6561C18.917 11.6401 18.9573 11.6313 18.9998 11.6313C19.1411 11.6313 19.2596 11.7291 19.2914 11.8606C19.6881 12.1198 19.9881 12.526 20.1246 13.0728C21.0682 9.93994 21.7728 7.33173 21.8125 2.93909C21.667 2.90509 21.4833 2.86285 21.2676 2.81464C20.6863 2.68463 19.8732 2.51135 18.9463 2.33813C18.399 2.23584 17.8149 2.13409 17.2173 2.04144C17.1679 2.94196 16.948 3.83521 16.3743 4.53741C15.6934 5.37109 14.597 5.83771 13.0049 5.83771C11.4128 5.83771 10.3165 5.37109 9.6355 4.53741C9.06186 3.83521 8.84196 2.94196 8.79255 2.04144C8.19501 2.13409 7.61082 2.23584 7.06351 2.33813C6.13663 2.51135 5.32349 2.68463 4.74225 2.81464C4.52653 2.86285 4.34287 2.90509 4.19736 2.93909C4.23821 7.32343 4.96204 9.92938 5.90143 13.058C6.05076 12.5688 6.33356 12.1971 6.70035 11.9489L6.69996 11.9394L6.69983 11.9313C6.69983 11.7657 6.83414 11.6313 6.99982 11.6313C7.07483 11.6313 7.14341 11.6589 7.19602 11.7044C7.2649 11.6811 7.33545 11.661 7.40742 11.6442C7.60938 11.5972 7.8191 11.5765 8.03217 11.5801C7.95231 11.5262 7.89979 11.4349 7.89979 11.3312C7.89979 11.1656 8.03409 11.0312 8.19977 11.0312C8.36548 11.0312 8.49979 11.1656 8.49979 11.3312C8.49979 11.4496 8.43125 11.5519 8.33173 11.6007C8.59858 11.6327 8.86744 11.7004 9.12995 11.8C9.17866 11.7001 9.28116 11.6313 9.39972 11.6313C9.56544 11.6313 9.69974 11.7657 9.69974 11.9313C9.69974 11.9366 9.69959 11.9418 9.69932 11.947L9.69852 11.9586L9.69727 11.9701L9.69626 11.9772L9.69468 11.9866C9.69013 12.011 9.68259 12.0345 9.67249 12.0565C9.71824 12.0826 9.76356 12.1097 9.80842 12.1377L10.3105 12.4515C10.3455 12.3246 10.4617 12.2314 10.5997 12.2314C10.7654 12.2314 10.8997 12.3658 10.8997 12.5314C10.8997 12.621 10.8605 12.7014 10.7983 12.7563L11.2586 13.0441C11.3578 13.106 11.4481 13.1785 11.5285 13.2596C11.521 13.2438 11.5148 13.2273 11.5101 13.2101C11.5033 13.1849 11.4996 13.1584 11.4996 13.131C11.4996 12.9654 11.6339 12.8311 11.7996 12.8311C11.9103 12.8311 12.0069 12.8909 12.0589 12.98C12.2853 12.8615 12.5367 12.7841 12.8031 12.7579C12.7398 12.7029 12.6998 12.6218 12.6998 12.5314C12.6998 12.3658 12.8341 12.2314 12.9998 12.2314C13.1655 12.2314 13.2998 12.3658 13.2998 12.5314C13.2998 12.6214 13.2603 12.702 13.1976 12.757C13.4643 12.782 13.7161 12.8583 13.943 12.9759C13.9956 12.8891 14.0909 12.8311 14.1998 12.8311C14.3655 12.8311 14.4998 12.9654 14.4998 13.131C14.4998 13.1865 14.4847 13.2385 14.4585 13.2831ZM13.0049 1.64844C13.2918 1.64844 13.5915 1.65723 13.9002 1.6734C13.8998 1.6799 13.8995 1.68646 13.8995 1.69305C13.8995 1.85876 14.0338 1.99307 14.1995 1.99307C14.3586 1.99307 14.4887 1.86932 14.4989 1.71286C15.0601 1.75693 15.6418 1.8212 16.223 1.89816C16.1896 2.71979 16.0046 3.40936 15.5999 3.90479C15.1936 4.40216 14.497 4.78577 13.2651 4.83282C13.2871 4.79108 13.2996 4.74353 13.2996 4.69305C13.2996 4.5274 13.1653 4.39307 12.9996 4.39307C12.8339 4.39307 12.6996 4.5274 12.6996 4.69305C12.6996 4.74335 12.712 4.79077 12.7339 4.8324C11.5088 4.78351 10.815 4.4007 10.41 3.90479C10.0053 3.40936 9.82026 2.71979 9.78681 1.89816C10.3644 1.82169 10.9424 1.75772 11.5003 1.71368C11.5109 1.86978 11.6409 1.99307 11.7996 1.99307C11.9653 1.99307 12.0996 1.85876 12.0996 1.69305C12.0996 1.68665 12.0994 1.68027 12.099 1.67395C12.4115 1.65741 12.7148 1.64844 13.0049 1.64844ZM15.0462 15.8314L15.0462 15.8169V15.8031H16.1979C16.474 15.8031 16.6979 15.5792 16.6979 15.3031C16.6979 15.0269 16.474 14.8031 16.1979 14.8031H15.0462V14.7893L15.0462 14.7748V14.316C15.0462 14.1437 15.135 13.9835 15.2812 13.8921L16.8663 12.9014C17.4075 12.5631 17.9763 12.4602 18.3978 12.555C18.7831 12.6416 19.0835 12.8959 19.1767 13.4202C19.3633 14.4696 19.3572 15.7313 19.1595 16.7656C19.0626 17.2726 18.7641 17.5398 18.3657 17.6471C17.9369 17.7626 17.3633 17.694 16.8037 17.4142L15.3226 16.6736C15.1532 16.5889 15.0462 16.4158 15.0462 16.2264V15.8314ZM10.5997 11.6312C10.7654 11.6312 10.8997 11.4969 10.8997 11.3312C10.8997 11.1656 10.7654 11.0312 10.5997 11.0312C10.434 11.0312 10.2997 11.1656 10.2997 11.3312C10.2997 11.4969 10.434 11.6312 10.5997 11.6312ZM12.0996 11.9313C12.0996 12.097 11.9653 12.2313 11.7996 12.2313C11.6339 12.2313 11.4996 12.097 11.4996 11.9313C11.4996 11.7657 11.6339 11.6313 11.7996 11.6313C11.9653 11.6313 12.0996 11.7657 12.0996 11.9313ZM12.9998 11.6312C13.1655 11.6312 13.2998 11.4969 13.2998 11.3312C13.2998 11.1656 13.1655 11.0312 12.9998 11.0312C12.8341 11.0312 12.6998 11.1656 12.6998 11.3312C12.6998 11.4969 12.8341 11.6312 12.9998 11.6312ZM14.4998 11.9313C14.4998 12.097 14.3655 12.2313 14.1998 12.2313C14.0341 12.2313 13.8998 12.097 13.8998 11.9313C13.8998 11.7657 14.0341 11.6313 14.1998 11.6313C14.3655 11.6313 14.4998 11.7657 14.4998 11.9313ZM6.09965 18.5314C6.09965 18.6971 5.96534 18.8314 5.79963 18.8314C5.63395 18.8314 5.49964 18.6971 5.49964 18.5314C5.49964 18.3658 5.63395 18.2314 5.79963 18.2314C5.96534 18.2314 6.09965 18.3658 6.09965 18.5314ZM6.99982 19.431C7.16553 19.431 7.29984 19.2968 7.29984 19.131C7.29984 18.9654 7.16553 18.8311 6.99982 18.8311C6.83414 18.8311 6.69983 18.9654 6.69983 19.131C6.69983 19.2968 6.83414 19.431 6.99982 19.431ZM11.7996 18.2313C11.9653 18.2313 12.0996 18.097 12.0996 17.9313C12.0996 17.7657 11.9653 17.6313 11.7996 17.6313C11.6339 17.6313 11.4996 17.7657 11.4996 17.9313C11.4996 18.097 11.6339 18.2313 11.7996 18.2313ZM10.8997 18.5314C10.8997 18.6971 10.7654 18.8314 10.5997 18.8314C10.434 18.8314 10.2997 18.6971 10.2997 18.5314C10.2997 18.3658 10.434 18.2314 10.5997 18.2314C10.7654 18.2314 10.8997 18.3658 10.8997 18.5314ZM11.7996 19.431C11.9653 19.431 12.0996 19.2968 12.0996 19.131C12.0996 18.9654 11.9653 18.8311 11.7996 18.8311C11.6339 18.8311 11.4996 18.9654 11.4996 19.131C11.4996 19.2968 11.6339 19.431 11.7996 19.431ZM14.1998 18.2313C14.3655 18.2313 14.4998 18.097 14.4998 17.9313C14.4998 17.7657 14.3655 17.6313 14.1998 17.6313C14.0341 17.6313 13.8998 17.7657 13.8998 17.9313C13.8998 18.097 14.0341 18.2313 14.1998 18.2313ZM14.1998 19.431C14.3655 19.431 14.4998 19.2968 14.4998 19.131C14.4998 18.9654 14.3655 18.8311 14.1998 18.8311C14.0341 18.8311 13.8998 18.9654 13.8998 19.131C13.8998 19.2968 14.0341 19.431 14.1998 19.431ZM15.6997 11.3312C15.6997 11.4969 15.5654 11.6312 15.3997 11.6312C15.234 11.6312 15.0997 11.4969 15.0997 11.3312C15.0997 11.1656 15.234 11.0312 15.3997 11.0312C15.5654 11.0312 15.6997 11.1656 15.6997 11.3312ZM18.9998 19.431C19.1655 19.431 19.2998 19.2968 19.2998 19.131C19.2998 18.9654 19.1655 18.8311 18.9998 18.8311C18.8341 18.8311 18.6998 18.9654 18.6998 19.131C18.6998 19.2968 18.8341 19.431 18.9998 19.431ZM20.4995 18.5314C20.4995 18.6971 20.3652 18.8314 20.1995 18.8314C20.0338 18.8314 19.8995 18.6971 19.8995 18.5314C19.8995 18.3658 20.0338 18.2314 20.1995 18.2314C20.3652 18.2314 20.4995 18.3658 20.4995 18.5314ZM5.79963 20.0311C5.96534 20.0311 6.09965 19.8969 6.09965 19.7311C6.09965 19.5655 5.96534 19.4312 5.79963 19.4312C5.63395 19.4312 5.49964 19.5655 5.49964 19.7311C5.49964 19.8969 5.63395 20.0311 5.79963 20.0311ZM7.29984 20.3312C7.29984 20.4969 7.16553 20.6312 6.99982 20.6312C6.83414 20.6312 6.69983 20.4969 6.69983 20.3312C6.69983 20.1656 6.83414 20.0312 6.99982 20.0312C7.16553 20.0312 7.29984 20.1656 7.29984 20.3312ZM8.19977 20.0311C8.36548 20.0311 8.49979 19.8969 8.49979 19.7311C8.49979 19.5655 8.36548 19.4312 8.19977 19.4312C8.03409 19.4312 7.89979 19.5655 7.89979 19.7311C7.89979 19.8969 8.03409 20.0311 8.19977 20.0311ZM10.5997 20.0311C10.7654 20.0311 10.8997 19.8969 10.8997 19.7311C10.8997 19.5655 10.7654 19.4312 10.5997 19.4312C10.434 19.4312 10.2997 19.5655 10.2997 19.7311C10.2997 19.8969 10.434 20.0311 10.5997 20.0311ZM12.0996 20.3312C12.0996 20.4969 11.9653 20.6312 11.7996 20.6312C11.6339 20.6312 11.4996 20.4969 11.4996 20.3312C11.4996 20.1656 11.6339 20.0312 11.7996 20.0312C11.9653 20.0312 12.0996 20.1656 12.0996 20.3312ZM14.4998 20.3312C14.4998 20.4969 14.3655 20.6312 14.1998 20.6312C14.0341 20.6312 13.8998 20.4969 13.8998 20.3312C13.8998 20.1656 14.0341 20.0312 14.1998 20.0312C14.3655 20.0312 14.4998 20.1656 14.4998 20.3312ZM15.3997 20.0311C15.5654 20.0311 15.6997 19.8969 15.6997 19.7311C15.6997 19.5655 15.5654 19.4312 15.3997 19.4312C15.234 19.4312 15.0997 19.5655 15.0997 19.7311C15.0997 19.8969 15.234 20.0311 15.3997 20.0311ZM17.7999 20.0311C17.9656 20.0311 18.0999 19.8969 18.0999 19.7311C18.0999 19.5655 17.9656 19.4312 17.7999 19.4312C17.6342 19.4312 17.4999 19.5655 17.4999 19.7311C17.4999 19.8969 17.6342 20.0311 17.7999 20.0311ZM19.2998 20.3312C19.2998 20.4969 19.1655 20.6312 18.9998 20.6312C18.8341 20.6312 18.6998 20.4969 18.6998 20.3312C18.6998 20.1656 18.8341 20.0312 18.9998 20.0312C19.1655 20.0312 19.2998 20.1656 19.2998 20.3312ZM20.1995 20.0311C20.3652 20.0311 20.4995 19.8969 20.4995 19.7311C20.4995 19.5655 20.3652 19.4312 20.1995 19.4312C20.0338 19.4312 19.8995 19.5655 19.8995 19.7311C19.8995 19.8969 20.0338 20.0311 20.1995 20.0311ZM10.8997 20.9313C10.8997 21.097 10.7654 21.2313 10.5997 21.2313C10.434 21.2313 10.2997 21.097 10.2997 20.9313C10.2997 20.7657 10.434 20.6313 10.5997 20.6313C10.7654 20.6313 10.8997 20.7657 10.8997 20.9313ZM11.7996 21.8314C11.9653 21.8314 12.0996 21.6971 12.0996 21.5314C12.0996 21.3658 11.9653 21.2314 11.7996 21.2314C11.6339 21.2314 11.4996 21.3658 11.4996 21.5314C11.4996 21.6971 11.6339 21.8314 11.7996 21.8314ZM14.1998 21.8314C14.3655 21.8314 14.4998 21.6971 14.4998 21.5314C14.4998 21.3658 14.3655 21.2314 14.1998 21.2314C14.0341 21.2314 13.8998 21.3658 13.8998 21.5314C13.8998 21.6971 14.0341 21.8314 14.1998 21.8314ZM15.6997 20.9313C15.6997 21.097 15.5654 21.2313 15.3997 21.2313C15.234 21.2313 15.0997 21.097 15.0997 20.9313C15.0997 20.7657 15.234 20.6313 15.3997 20.6313C15.5654 20.6313 15.6997 20.7657 15.6997 20.9313ZM18.0999 20.9313C18.0999 21.097 17.9656 21.2313 17.7999 21.2313C17.6342 21.2313 17.4999 21.097 17.4999 20.9313C17.4999 20.7657 17.6342 20.6313 17.7999 20.6313C17.9656 20.6313 18.0999 20.7657 18.0999 20.9313ZM9.39972 23.0311C9.56544 23.0311 9.69974 22.8969 9.69974 22.7311C9.69974 22.5655 9.56544 22.4312 9.39972 22.4312C9.23405 22.4312 9.09974 22.5655 9.09974 22.7311C9.09974 22.8969 9.23405 23.0311 9.39972 23.0311ZM10.8997 22.1315C10.8997 22.2972 10.7654 22.4315 10.5997 22.4315C10.434 22.4315 10.2997 22.2972 10.2997 22.1315C10.2997 21.9659 10.434 21.8315 10.5997 21.8315C10.7654 21.8315 10.8997 21.9659 10.8997 22.1315ZM11.7996 23.0311C11.9653 23.0311 12.0996 22.8969 12.0996 22.7311C12.0996 22.5655 11.9653 22.4312 11.7996 22.4312C11.6339 22.4312 11.4996 22.5655 11.4996 22.7311C11.4996 22.8969 11.6339 23.0311 11.7996 23.0311ZM14.1998 23.0311C14.3655 23.0311 14.4998 22.8969 14.4998 22.7311C14.4998 22.5655 14.3655 22.4312 14.1998 22.4312C14.0341 22.4312 13.8998 22.5655 13.8998 22.7311C13.8998 22.8969 14.0341 23.0311 14.1998 23.0311ZM15.6997 22.1315C15.6997 22.2972 15.5654 22.4315 15.3997 22.4315C15.234 22.4315 15.0997 22.2972 15.0997 22.1315C15.0997 21.9659 15.234 21.8315 15.3997 21.8315C15.5654 21.8315 15.6997 21.9659 15.6997 22.1315ZM10.5997 23.6312C10.7654 23.6312 10.8997 23.4969 10.8997 23.3312C10.8997 23.1656 10.7654 23.0312 10.5997 23.0312C10.434 23.0312 10.2997 23.1656 10.2997 23.3312C10.2997 23.4969 10.434 23.6312 10.5997 23.6312ZM12.0996 23.9313C12.0996 24.097 11.9653 24.2313 11.7996 24.2313C11.6339 24.2313 11.4996 24.097 11.4996 23.9313C11.4996 23.7657 11.6339 23.6313 11.7996 23.6313C11.9653 23.6313 12.0996 23.7657 12.0996 23.9313ZM14.4998 23.9313C14.4998 24.097 14.3655 24.2313 14.1998 24.2313C14.0341 24.2313 13.8998 24.097 13.8998 23.9313C13.8998 23.7657 14.0341 23.6313 14.1998 23.6313C14.3655 23.6313 14.4998 23.7657 14.4998 23.9313ZM15.3997 23.6312C15.5654 23.6312 15.6997 23.4969 15.6997 23.3312C15.6997 23.1656 15.5654 23.0312 15.3997 23.0312C15.234 23.0312 15.0997 23.1656 15.0997 23.3312C15.0997 23.4969 15.234 23.6312 15.3997 23.6312ZM10.5996 2.59265C10.7653 2.59265 10.8996 2.45837 10.8996 2.29266C10.8996 2.12698 10.7653 1.99268 10.5996 1.99268C10.4339 1.99268 10.2996 2.12698 10.2996 2.29266C10.2996 2.45837 10.4339 2.59265 10.5996 2.59265ZM12.9996 2.59265C13.1653 2.59265 13.2996 2.45837 13.2996 2.29266C13.2996 2.12698 13.1653 1.99268 12.9996 1.99268C12.8339 1.99268 12.6996 2.12698 12.6996 2.29266C12.6996 2.45837 12.8339 2.59265 12.9996 2.59265ZM15.3996 2.59265C15.5653 2.59265 15.6996 2.45837 15.6996 2.29266C15.6996 2.12698 15.5653 1.99268 15.3996 1.99268C15.2339 1.99268 15.0996 2.12698 15.0996 2.29266C15.0996 2.45837 15.2339 2.59265 15.3996 2.59265ZM10.8996 3.49335C10.8996 3.65906 10.7653 3.79333 10.5996 3.79333C10.4339 3.79333 10.2996 3.65906 10.2996 3.49335C10.2996 3.3277 10.4339 3.19336 10.5996 3.19336C10.7653 3.19336 10.8996 3.3277 10.8996 3.49335ZM12.0996 2.89276C12.0996 3.05847 11.9653 3.19275 11.7996 3.19275C11.6339 3.19275 11.4996 3.05847 11.4996 2.89276C11.4996 2.72711 11.6339 2.59277 11.7996 2.59277C11.9653 2.59277 12.0996 2.72711 12.0996 2.89276ZM12.9996 3.79333C13.1653 3.79333 13.2996 3.65906 13.2996 3.49335C13.2996 3.3277 13.1653 3.19336 12.9996 3.19336C12.8339 3.19336 12.6996 3.3277 12.6996 3.49335C12.6996 3.65906 12.8339 3.79333 12.9996 3.79333ZM12.0996 4.09296C12.0996 4.25867 11.9653 4.39294 11.7996 4.39294C11.6339 4.39294 11.4996 4.25867 11.4996 4.09296C11.4996 3.92731 11.6339 3.79297 11.7996 3.79297C11.9653 3.79297 12.0996 3.92731 12.0996 4.09296ZM14.4995 2.89276C14.4995 3.05847 14.3652 3.19275 14.1995 3.19275C14.0338 3.19275 13.8995 3.05847 13.8995 2.89276C13.8995 2.72711 14.0338 2.59277 14.1995 2.59277C14.3652 2.59277 14.4995 2.72711 14.4995 2.89276ZM15.3996 3.79333C15.5653 3.79333 15.6996 3.65906 15.6996 3.49335C15.6996 3.3277 15.5653 3.19336 15.3996 3.19336C15.2339 3.19336 15.0996 3.3277 15.0996 3.49335C15.0996 3.65906 15.2339 3.79333 15.3996 3.79333ZM14.4995 4.09296C14.4995 4.25867 14.3652 4.39294 14.1995 4.39294C14.0338 4.39294 13.8995 4.25867 13.8995 4.09296C13.8995 3.92731 14.0338 3.79297 14.1995 3.79297C14.3652 3.79297 14.4995 3.92731 14.4995 4.09296Z"
        fill="#B89B64" fill-rule="evenodd" />
</svg>
