<svg fill="none" height="22" viewBox="0 0 40 22" width="40" xmlns="http://www.w3.org/2000/svg">
    <path clip-rule="evenodd"
        d="M20.1373 1.21607C20.4435 0.857131 20.9697 0.783887 21.3622 1.04558L23.5907 2.53119C24.0506 2.83779 24.1481 3.47303 23.8013 3.90347L23.2193 4.626C24.3177 5.5328 25.6943 6.32477 27.8527 7.29259C28.2589 6.8422 28.8916 6.72107 29.4312 6.92767C29.6666 7.01782 29.8996 7.10682 30.1298 7.19479C32.8571 8.23686 35.2073 9.13481 36.9065 10.0958C38.7343 11.1296 40 12.3423 40 14.0635C40 15.9464 39.7231 17.3793 39.5093 18.2052C39.3427 18.8486 38.8788 19.3549 38.2767 19.6004C34.8858 20.9828 30.8908 21.0772 26.6852 20.7781C24.7378 20.6396 22.729 20.4151 20.7023 20.1885L20.2031 20.1328C18.0029 19.8874 15.7831 19.6475 13.575 19.5152C13.4256 19.5062 13.2788 19.5683 13.1787 19.6849L12.3102 20.697C12.0291 21.0246 11.619 21.2131 11.1873 21.2131H2.77834C1.53707 21.2131 0.478154 20.288 0.344852 19.0424C-0.125965 14.643 -0.234861 10.3886 0.797942 6.96102C1.0105 6.25558 1.53361 5.78069 2.13884 5.52903C2.73838 5.27974 3.43862 5.23797 4.08007 5.39732C5.80207 5.8251 8.2318 6.10971 10.6874 6.05853C12.9908 6.01053 15.2652 5.66796 16.9874 4.90911L20.1373 1.21607ZM20.1697 8.41171L21.1667 7.17406L21.1747 7.17441L21.1838 7.17454C21.3473 7.17454 21.4797 7.04205 21.4797 6.87862C21.4797 6.85101 21.476 6.82428 21.4689 6.79893L22.6005 5.3942C23.7436 6.33608 25.1346 7.13958 27.1759 8.06923C26.8711 8.41593 26.5878 8.71146 26.2377 8.96059C26.2017 8.98623 26.1649 9.01137 26.1272 9.03596C26.0737 8.98282 26 8.94998 25.9186 8.94998C25.7552 8.94998 25.6227 9.08247 25.6227 9.24591C25.6227 9.26504 25.6245 9.28375 25.628 9.30187C25.3834 9.40542 25.1035 9.48856 24.7742 9.54452C24.7613 9.54281 24.7482 9.54193 24.7349 9.54193C24.6902 9.54193 24.6477 9.55185 24.6097 9.56961C24.3467 9.60532 24.0536 9.62467 23.7242 9.62467C23.3152 9.62467 22.9178 9.61313 22.5311 9.59123C22.4842 9.56008 22.428 9.54193 22.3675 9.54193C22.3204 9.54193 22.276 9.5529 22.2365 9.57241C21.9352 9.55098 21.6403 9.52325 21.3514 9.48981C21.4289 9.43645 21.4797 9.34711 21.4797 9.24591C21.4797 9.08247 21.3473 8.94998 21.1838 8.94998C21.0204 8.94998 20.8879 9.08247 20.8879 9.24591C20.8879 9.32051 20.9155 9.38865 20.9611 9.4407C20.4707 9.37409 19.9975 9.29116 19.5388 9.19486L19.7993 8.87158C19.852 8.92034 19.9226 8.95013 20.0001 8.95013C20.1635 8.95013 20.296 8.81764 20.296 8.65421C20.296 8.55389 20.2461 8.46522 20.1697 8.41171ZM15.7221 11.7164C15.3842 11.6317 15.0594 11.4716 14.7736 11.2334C13.7503 10.3807 13.6205 8.85642 14.4849 7.843L15.7227 6.39185C15.6535 6.41068 15.584 6.42906 15.5141 6.44699C15.4614 6.52859 15.3697 6.5826 15.2654 6.5826C15.2115 6.5826 15.1611 6.56823 15.1176 6.54312C13.722 6.86223 12.2019 7.0136 10.708 7.04473C8.17492 7.09752 5.65756 6.80559 3.84225 6.35463C3.39284 6.24299 2.90973 6.27677 2.51756 6.43984C2.13109 6.60054 1.85413 6.87482 1.74241 7.2456C1.22014 8.97887 1.00343 10.9603 0.987453 13.1025C1.01094 13.0965 1.03555 13.0933 1.0609 13.0933C1.22433 13.0933 1.35682 13.2258 1.35682 13.3893C1.35682 13.5527 1.22433 13.6852 1.0609 13.6852C1.03569 13.6852 1.01123 13.682 0.987865 13.6761C0.989607 13.8773 0.992995 14.0797 0.997944 14.2835C1.01823 14.2791 1.0393 14.2767 1.0609 14.2767C1.22433 14.2767 1.35682 14.4092 1.35682 14.5727C1.35682 14.7361 1.22433 14.8686 1.0609 14.8686C1.04568 14.8686 1.03073 14.8674 1.01612 14.8652C1.02363 15.0627 1.0325 15.2613 1.04266 15.4609C1.04869 15.4606 1.05477 15.4604 1.0609 15.4604C1.22433 15.4604 1.35682 15.5929 1.35682 15.7563C1.35682 15.8761 1.28567 15.9792 1.18333 16.0258C1.8818 16.0091 2.57403 16.0006 3.25987 15.9997C3.18283 15.9462 3.13238 15.8572 3.13238 15.7563C3.13238 15.5929 3.26487 15.4604 3.42831 15.4604C3.59174 15.4604 3.72423 15.5929 3.72423 15.7563C3.72423 15.8572 3.67372 15.9463 3.5966 15.9998C4.29558 16.0012 4.98785 16.0102 5.67323 16.0258C5.57085 15.9793 5.49967 15.8761 5.49967 15.7563C5.49967 15.5929 5.63216 15.4604 5.7956 15.4604C5.95903 15.4604 6.09152 15.5929 6.09152 15.7563C6.09152 15.8811 6.01427 15.9879 5.90498 16.0314C6.24114 16.0398 6.57564 16.0497 6.90844 16.0611C6.93116 16.0555 6.95491 16.0526 6.97936 16.0526C7.01107 16.0526 7.04161 16.0576 7.07024 16.0668C7.76096 16.0915 8.44436 16.1223 9.12024 16.1582C9.17453 16.0936 9.25591 16.0526 9.34689 16.0526C9.44956 16.0526 9.54 16.1049 9.59308 16.1842L9.73265 16.1923C9.87213 15.6671 10.1172 15.2285 10.4339 14.8524C10.3179 14.8124 10.2346 14.7023 10.2346 14.5727C10.2346 14.4092 10.3671 14.2767 10.5305 14.2767C10.6562 14.2767 10.7636 14.3551 10.8065 14.4656C10.8976 14.3822 10.9924 14.3021 11.0905 14.225C11.1957 14.1423 11.3051 14.0626 11.4182 13.9854L11.4181 13.981C11.4181 13.8175 11.5506 13.685 11.7141 13.685C11.7608 13.685 11.805 13.6959 11.8443 13.7152C12.0923 13.5682 12.3518 13.4299 12.6169 13.2964C12.6558 13.1784 12.767 13.0933 12.8979 13.0933C12.9323 13.0933 12.9652 13.0992 12.9958 13.1099C13.1494 13.0358 13.3038 12.9627 13.4581 12.8899L13.5218 12.8598C13.6121 12.8171 13.7025 12.7744 13.793 12.7315C13.8229 12.5998 13.9408 12.5014 14.0816 12.5014C14.128 12.5014 14.172 12.5121 14.2111 12.5312C14.7241 12.282 15.234 12.019 15.7221 11.7164ZM12.0099 16.3432C12.6202 16.3884 13.2236 16.4367 13.8201 16.4872C13.7981 16.4458 13.7857 16.3986 13.7857 16.3485C13.7857 16.1851 13.9182 16.0526 14.0816 16.0526C14.245 16.0526 14.3775 16.1851 14.3775 16.3485C14.3775 16.4168 14.3544 16.4797 14.3155 16.5297C15.3536 16.6203 16.3702 16.7168 17.3645 16.8148C17.4118 16.714 17.5141 16.6443 17.6326 16.6443C17.7718 16.6443 17.8886 16.7404 17.9202 16.8698C18.5176 16.9294 19.1068 16.9891 19.6875 17.048L19.6891 17.0482L19.6914 17.0484L19.7259 17.0519C19.7119 17.0175 19.7041 16.9797 19.7041 16.9402C19.7041 16.7768 19.8366 16.6443 20.0001 16.6443C20.1635 16.6443 20.296 16.7768 20.296 16.9402C20.296 17.001 20.2776 17.0576 20.2461 17.1046C21.2871 17.21 22.3003 17.3115 23.2847 17.4029C23.3326 17.3041 23.4339 17.236 23.5511 17.236C23.6873 17.236 23.8021 17.328 23.8365 17.4533C24.4469 17.5082 25.0452 17.5585 25.6313 17.6029C25.6257 17.5802 25.6227 17.5564 25.6227 17.5319C25.6227 17.3685 25.7552 17.236 25.9186 17.236C26.0821 17.236 26.2146 17.3685 26.2146 17.5319C26.2146 17.5715 26.2068 17.6093 26.1926 17.6439C31.4402 18.0117 35.6834 17.8604 38.8864 16.1755C38.9615 15.5672 39.0136 14.8587 39.0136 14.0635C39.0136 12.9185 38.1972 11.959 36.4209 10.9544C34.7898 10.0319 32.5099 9.16054 29.7492 8.10536L29.0785 7.84887C28.8916 7.77731 28.698 7.82723 28.5841 7.95447C28.4645 8.08805 28.3459 8.22595 28.2262 8.36515C27.8003 8.86059 27.3602 9.37251 26.8096 9.76431C26.0656 10.2937 25.1305 10.6111 23.7242 10.6111C21.9226 10.6111 20.3332 10.3971 18.8813 10.0596C17.9178 11.5338 16.5831 12.4201 15.2905 13.0944C15.4422 13.1072 15.5613 13.2343 15.5613 13.3893C15.5613 13.5527 15.4288 13.6852 15.2654 13.6852C15.1019 13.6852 14.9694 13.5527 14.9694 13.3893C14.9694 13.3337 14.9847 13.2817 15.0114 13.2373C14.696 13.3958 14.385 13.5432 14.0844 13.6851C14.2465 13.6866 14.3775 13.8185 14.3775 13.981C14.3775 14.1444 14.245 14.2769 14.0816 14.2769C13.9182 14.2769 13.7857 14.1444 13.7857 13.981C13.7857 13.9105 13.8103 13.8458 13.8514 13.795C13.5006 13.9608 13.1699 14.119 12.8627 14.2788C12.8742 14.2775 12.886 14.2767 12.8979 14.2767C13.0614 14.2767 13.1939 14.4092 13.1939 14.5727C13.1939 14.7361 13.0614 14.8686 12.8979 14.8686C12.7345 14.8686 12.602 14.7361 12.602 14.5727C12.602 14.4984 12.6294 14.4305 12.6746 14.3786C12.369 14.5439 12.089 14.713 11.8384 14.8958C11.9397 14.9428 12.01 15.0454 12.01 15.1644C12.01 15.3278 11.8775 15.4603 11.7141 15.4603C11.5752 15.4603 11.4587 15.3647 11.4268 15.2357C11.116 15.5303 10.8847 15.8596 10.7449 16.2548C10.9715 16.2696 11.1972 16.285 11.422 16.3007C11.4448 16.16 11.5669 16.0526 11.7141 16.0526C11.8757 16.0526 12.0071 16.1822 12.0099 16.3432ZM19.8784 7.20098C19.8346 7.22073 19.7966 7.25081 19.7672 7.2881L19.0296 6.67341C19.0146 6.65775 18.9978 6.64375 18.9796 6.63171L17.776 5.62876L17.7789 5.62734L17.7392 5.54763L20.8559 1.89356L23.0015 3.32395L19.8784 7.20098ZM19.1729 8.07679L18.5109 8.89848L16.3892 7.1304L17.0739 6.32767L19.1729 8.07679ZM15.7491 7.88094L17.892 9.66676L17.4 10.2775C16.9072 10.8893 16.0086 10.9786 15.4051 10.4756C14.8037 9.97448 14.7274 9.0787 15.2354 8.48312L15.7491 7.88094ZM1.26387 18.3389C1.28362 18.5378 1.30424 18.7373 1.32566 18.9374C1.37243 19.3745 1.61372 19.7487 1.95962 19.9796C1.95245 19.9541 1.94862 19.9272 1.94862 19.8994C1.94862 19.736 2.08111 19.6035 2.24454 19.6035C2.40798 19.6035 2.54047 19.736 2.54047 19.8994C2.54047 20.0192 2.46936 20.1223 2.36709 20.1689C2.49776 20.2066 2.63582 20.2267 2.77834 20.2267H3.29526C3.33526 20.2066 3.38046 20.1952 3.42831 20.1952C3.47616 20.1952 3.52136 20.2066 3.56136 20.2267H5.66255C5.70255 20.2066 5.74775 20.1952 5.7956 20.1952C5.84345 20.1952 5.88865 20.2066 5.92865 20.2267H8.03008C8.07008 20.2066 8.11528 20.1952 8.16313 20.1952C8.21098 20.1952 8.25618 20.2066 8.29618 20.2267H10.3975C10.4375 20.2066 10.4827 20.1952 10.5305 20.1952C10.5784 20.1952 10.6236 20.2066 10.6636 20.2267H11.1873C11.3049 20.2267 11.4176 20.1848 11.5061 20.1099C11.4518 20.0563 11.4181 19.9818 11.4181 19.8994C11.4181 19.736 11.5506 19.6035 11.7141 19.6035C11.7824 19.6035 11.8454 19.6267 11.8955 19.6656L12.4301 19.0426C12.7284 18.6949 13.1726 18.5029 13.634 18.5305C13.703 18.5346 13.772 18.5389 13.841 18.5432C13.8947 18.4684 13.9824 18.4196 14.0816 18.4196C14.1948 18.4196 14.2931 18.4832 14.3429 18.5765C14.9465 18.6185 15.5503 18.6677 16.1531 18.7218L16.1531 18.7155C16.1531 18.5521 16.2856 18.4196 16.449 18.4196C16.6124 18.4196 16.7449 18.5521 16.7449 18.7155C16.7449 18.7362 16.7428 18.7564 16.7388 18.7759C17.3839 18.8372 18.0276 18.9034 18.6687 18.972C18.5801 18.9209 18.5205 18.8252 18.5205 18.7155C18.5205 18.5521 18.653 18.4196 18.8164 18.4196C18.9798 18.4196 19.1123 18.5521 19.1123 18.7155C19.1123 18.8477 19.0258 18.9596 18.9063 18.9976C19.203 19.0296 19.4991 19.0622 19.7945 19.0949C19.8477 19.0434 19.9202 19.0118 20.0001 19.0118C20.1034 19.0118 20.1945 19.0648 20.2474 19.1452L20.3124 19.1524L20.8079 19.2078L20.8112 19.2081C21.2341 19.2554 21.6552 19.3025 22.0743 19.3486C22.0725 19.3352 22.0715 19.3216 22.0715 19.3077C22.0715 19.1443 22.204 19.0118 22.3675 19.0118C22.5309 19.0118 22.6634 19.1443 22.6634 19.3077C22.6634 19.344 22.6569 19.3788 22.6449 19.4109C23.6738 19.5222 24.69 19.6258 25.6906 19.7108C25.7449 19.6453 25.8269 19.6035 25.9186 19.6035C26.0278 19.6035 26.1231 19.6626 26.1744 19.7505C26.3686 19.7659 26.5622 19.7805 26.7552 19.7942C27.1711 19.8238 27.5832 19.8493 27.9914 19.87C28.0062 19.7204 28.1324 19.6035 28.2859 19.6035C28.4484 19.6035 28.5803 19.7345 28.5818 19.8966C29.1835 19.9202 29.7762 19.9323 30.359 19.9305C30.358 19.9203 30.3574 19.9099 30.3574 19.8994C30.3574 19.736 30.4899 19.6035 30.6533 19.6035C30.8168 19.6035 30.9493 19.736 30.9493 19.8994C30.9493 19.9076 30.9489 19.9156 30.9483 19.9236C31.5543 19.9114 32.1491 19.8827 32.7317 19.8346C32.7613 19.7023 32.8793 19.6035 33.0205 19.6035C33.1422 19.6035 33.2467 19.6769 33.2921 19.7819C34.333 19.6716 35.3326 19.4946 36.2852 19.2336C36.3182 19.106 36.434 19.0118 36.5718 19.0118C36.6497 19.0118 36.7205 19.0419 36.7734 19.0911C37.0157 19.0159 37.2548 18.9348 37.4906 18.8477C37.4707 18.8079 37.4595 18.763 37.4595 18.7155C37.4595 18.5521 37.592 18.4196 37.7554 18.4196C37.8866 18.4196 37.9978 18.5049 38.0366 18.623C38.2952 18.4773 38.4813 18.2399 38.5543 17.958C38.5979 17.7896 38.6448 17.5921 38.6913 17.3673C38.4746 17.4649 38.2541 17.5566 38.0299 17.6426C37.9861 17.7512 37.8797 17.8278 37.7554 17.8278C37.7054 17.8278 37.6583 17.8154 37.6169 17.7935C37.367 17.8802 37.1126 17.9604 36.854 18.0343C36.8629 18.0625 36.8677 18.0925 36.8677 18.1236C36.8677 18.287 36.7352 18.4195 36.5718 18.4195C36.4298 18.4195 36.3112 18.3195 36.2825 18.1862C35.3445 18.4168 34.3535 18.5728 33.3128 18.6691C33.3152 18.6843 33.3164 18.6998 33.3164 18.7155C33.3164 18.879 33.1839 19.0115 33.0205 19.0115C32.8576 19.0115 32.7254 18.8798 32.7246 18.717C32.1441 18.7579 31.5489 18.7818 30.9395 18.7911C30.9061 18.918 30.7906 19.0115 30.6533 19.0115C30.5177 19.0115 30.4033 18.9202 30.3684 18.7957C29.784 18.7962 29.1871 18.7845 28.5781 18.7625C28.5557 18.9036 28.4334 19.0115 28.2859 19.0115C28.1302 19.0115 28.0025 18.8912 27.9909 18.7384C27.4056 18.7116 26.8096 18.6762 26.2032 18.634C26.2106 18.6599 26.2146 18.6873 26.2146 18.7155C26.2146 18.879 26.0821 19.0115 25.9186 19.0115C25.7552 19.0115 25.6227 18.879 25.6227 18.7155C25.6227 18.6722 25.632 18.631 25.6488 18.5939C24.9574 18.5418 24.253 18.4819 23.5361 18.4166C23.2206 18.3879 22.9026 18.3581 22.582 18.3274C22.5281 18.3842 22.4519 18.4195 22.3675 18.4195C22.2626 18.4195 22.1704 18.365 22.1179 18.2827C21.5192 18.2244 20.9116 18.1635 20.2951 18.1013C20.2957 18.1086 20.296 18.1161 20.296 18.1236C20.296 18.287 20.1635 18.4195 20.0001 18.4195C19.8366 18.4195 19.7041 18.287 19.7041 18.1236C19.7041 18.0955 19.708 18.0683 19.7154 18.0426L19.5627 18.0271L19.5606 18.0269L19.5564 18.0265L19.5552 18.0263L19.5521 18.026C18.9506 17.9651 18.341 17.9033 17.7232 17.8418C17.8424 17.8801 17.9286 17.9918 17.9286 18.1236C17.9286 18.287 17.7961 18.4195 17.6326 18.4195C17.4692 18.4195 17.3367 18.287 17.3367 18.1236C17.3367 17.9714 17.4517 17.846 17.5995 17.8295C17.289 17.7987 16.9764 17.768 16.6619 17.7375C16.608 17.7932 16.5326 17.8278 16.449 17.8278C16.345 17.8278 16.2536 17.7742 16.2008 17.6931C15.6002 17.6358 14.9924 17.5796 14.3774 17.5255L14.3775 17.5319C14.3775 17.6953 14.245 17.8278 14.0816 17.8278C13.9182 17.8278 13.7857 17.6953 13.7857 17.5319C13.7857 17.5123 13.7876 17.4932 13.7912 17.4747C13.1766 17.4225 12.5551 17.3726 11.9266 17.326C11.9782 17.3793 12.01 17.4519 12.01 17.5319C12.01 17.6953 11.8775 17.8278 11.7141 17.8278C11.5506 17.8278 11.4181 17.6953 11.4181 17.5319C11.4181 17.4364 11.4634 17.3515 11.5335 17.2974C11.2169 17.2748 10.8986 17.253 10.5785 17.2323C10.5629 17.2348 10.5469 17.2361 10.5305 17.2361C10.501 17.2361 10.4724 17.2318 10.4455 17.2237C9.77312 17.1808 9.09321 17.1424 8.40581 17.1096C8.35231 17.1861 8.26356 17.2361 8.16313 17.2361C8.05303 17.2361 7.95698 17.176 7.90601 17.0868C7.30298 17.0606 6.69427 17.0389 6.07995 17.0224C6.04432 17.1458 5.93051 17.2361 5.7956 17.2361C5.65571 17.2361 5.5385 17.1391 5.50763 17.0086C4.91706 16.996 4.32138 16.9884 3.72064 16.9864C3.69846 17.1279 3.57603 17.2361 3.42831 17.2361C3.28054 17.2361 3.15807 17.1278 3.13595 16.9862C2.54506 16.9879 1.94934 16.9952 1.34887 17.0086C1.32578 17.1061 1.25446 17.185 1.16148 17.2186C1.17951 17.436 1.19875 17.6543 1.21911 17.8735C1.30188 17.9259 1.35682 18.0184 1.35682 18.1236C1.35682 18.2085 1.3211 18.285 1.26387 18.3389ZM2.24454 13.0932C2.40798 13.0932 2.54047 12.9608 2.54047 12.7973C2.54047 12.6339 2.40798 12.5014 2.24454 12.5014C2.08111 12.5014 1.94862 12.6339 1.94862 12.7973C1.94862 12.9608 2.08111 13.0932 2.24454 13.0932ZM2.54047 13.981C2.54047 14.1444 2.40798 14.2769 2.24454 14.2769C2.08111 14.2769 1.94862 14.1444 1.94862 13.981C1.94862 13.8175 2.08111 13.685 2.24454 13.685C2.40798 13.685 2.54047 13.8175 2.54047 13.981ZM2.54047 15.1644C2.54047 15.3278 2.40798 15.4603 2.24454 15.4603C2.08111 15.4603 1.94862 15.3278 1.94862 15.1644C1.94862 15.0009 2.08111 14.8684 2.24454 14.8684C2.40798 14.8684 2.54047 15.0009 2.54047 15.1644ZM3.42831 13.6852C3.59174 13.6852 3.72423 13.5527 3.72423 13.3893C3.72423 13.2258 3.59174 13.0933 3.42831 13.0933C3.26487 13.0933 3.13238 13.2258 3.13238 13.3893C3.13238 13.5527 3.26487 13.6852 3.42831 13.6852ZM4.90788 12.7973C4.90788 12.9608 4.77539 13.0932 4.61195 13.0932C4.44852 13.0932 4.31603 12.9608 4.31603 12.7973C4.31603 12.6339 4.44852 12.5014 4.61195 12.5014C4.77539 12.5014 4.90788 12.6339 4.90788 12.7973ZM4.61195 14.2769C4.77539 14.2769 4.90788 14.1444 4.90788 13.981C4.90788 13.8175 4.77539 13.685 4.61195 13.685C4.44852 13.685 4.31603 13.8175 4.31603 13.981C4.31603 14.1444 4.44852 14.2769 4.61195 14.2769ZM3.72423 14.5727C3.72423 14.7361 3.59174 14.8686 3.42831 14.8686C3.26487 14.8686 3.13238 14.7361 3.13238 14.5727C3.13238 14.4092 3.26487 14.2767 3.42831 14.2767C3.59174 14.2767 3.72423 14.4092 3.72423 14.5727ZM4.61195 15.4603C4.77539 15.4603 4.90788 15.3278 4.90788 15.1644C4.90788 15.0009 4.77539 14.8684 4.61195 14.8684C4.44852 14.8684 4.31603 15.0009 4.31603 15.1644C4.31603 15.3278 4.44852 15.4603 4.61195 15.4603ZM6.09152 13.3893C6.09152 13.5527 5.95903 13.6852 5.7956 13.6852C5.63216 13.6852 5.49967 13.5527 5.49967 13.3893C5.49967 13.2258 5.63216 13.0933 5.7956 13.0933C5.95903 13.0933 6.09152 13.2258 6.09152 13.3893ZM6.97936 13.0932C7.1428 13.0932 7.27529 12.9608 7.27529 12.7973C7.27529 12.6339 7.1428 12.5014 6.97936 12.5014C6.81593 12.5014 6.68344 12.6339 6.68344 12.7973C6.68344 12.9608 6.81593 13.0932 6.97936 13.0932ZM7.27529 13.981C7.27529 14.1444 7.1428 14.2769 6.97936 14.2769C6.81593 14.2769 6.68344 14.1444 6.68344 13.981C6.68344 13.8175 6.81593 13.685 6.97936 13.685C7.1428 13.685 7.27529 13.8175 7.27529 13.981ZM5.7956 14.8686C5.95903 14.8686 6.09152 14.7361 6.09152 14.5727C6.09152 14.4092 5.95903 14.2767 5.7956 14.2767C5.63216 14.2767 5.49967 14.4092 5.49967 14.5727C5.49967 14.7361 5.63216 14.8686 5.7956 14.8686ZM7.27529 15.1644C7.27529 15.3278 7.1428 15.4603 6.97936 15.4603C6.81593 15.4603 6.68344 15.3278 6.68344 15.1644C6.68344 15.0009 6.81593 14.8684 6.97936 14.8684C7.1428 14.8684 7.27529 15.0009 7.27529 15.1644ZM8.16313 13.6852C8.32656 13.6852 8.45905 13.5527 8.45905 13.3893C8.45905 13.2258 8.32656 13.0933 8.16313 13.0933C7.99969 13.0933 7.8672 13.2258 7.8672 13.3893C7.8672 13.5527 7.99969 13.6852 8.16313 13.6852ZM9.64282 12.7973C9.64282 12.9608 9.51033 13.0932 9.34689 13.0932C9.18346 13.0932 9.05097 12.9608 9.05097 12.7973C9.05097 12.6339 9.18346 12.5014 9.34689 12.5014C9.51033 12.5014 9.64282 12.6339 9.64282 12.7973ZM9.34689 14.2769C9.51033 14.2769 9.64282 14.1444 9.64282 13.981C9.64282 13.8175 9.51033 13.685 9.34689 13.685C9.18346 13.685 9.05097 13.8175 9.05097 13.981C9.05097 14.1444 9.18346 14.2769 9.34689 14.2769ZM8.45905 14.5727C8.45905 14.7361 8.32656 14.8686 8.16313 14.8686C7.99969 14.8686 7.8672 14.7361 7.8672 14.5727C7.8672 14.4092 7.99969 14.2767 8.16313 14.2767C8.32656 14.2767 8.45905 14.4092 8.45905 14.5727ZM9.34689 15.4603C9.51033 15.4603 9.64282 15.3278 9.64282 15.1644C9.64282 15.0009 9.51033 14.8684 9.34689 14.8684C9.18346 14.8684 9.05097 15.0009 9.05097 15.1644C9.05097 15.3278 9.18346 15.4603 9.34689 15.4603ZM10.8265 13.3893C10.8265 13.5527 10.694 13.6852 10.5305 13.6852C10.3671 13.6852 10.2346 13.5527 10.2346 13.3893C10.2346 13.2258 10.3671 13.0933 10.5305 13.0933C10.694 13.0933 10.8265 13.2258 10.8265 13.3893ZM11.7141 13.0932C11.8775 13.0932 12.01 12.9608 12.01 12.7973C12.01 12.6339 11.8775 12.5014 11.7141 12.5014C11.5506 12.5014 11.4181 12.6339 11.4181 12.7973C11.4181 12.9608 11.5506 13.0932 11.7141 13.0932ZM14.0816 15.4603C14.245 15.4603 14.3775 15.3278 14.3775 15.1644C14.3775 15.0009 14.245 14.8684 14.0816 14.8684C13.9182 14.8684 13.7857 15.0009 13.7857 15.1644C13.7857 15.3278 13.9182 15.4603 14.0816 15.4603ZM16.449 13.0932C16.6124 13.0932 16.7449 12.9608 16.7449 12.7973C16.7449 12.6339 16.6124 12.5014 16.449 12.5014C16.2856 12.5014 16.1531 12.6339 16.1531 12.7973C16.1531 12.9608 16.2856 13.0932 16.449 13.0932ZM16.7449 13.981C16.7449 14.1444 16.6124 14.2769 16.449 14.2769C16.2856 14.2769 16.1531 14.1444 16.1531 13.981C16.1531 13.8175 16.2856 13.685 16.449 13.685C16.6124 13.685 16.7449 13.8175 16.7449 13.981ZM15.2654 14.8686C15.4288 14.8686 15.5613 14.7361 15.5613 14.5727C15.5613 14.4092 15.4288 14.2767 15.2654 14.2767C15.1019 14.2767 14.9694 14.4092 14.9694 14.5727C14.9694 14.7361 15.1019 14.8686 15.2654 14.8686ZM16.7449 15.1644C16.7449 15.3278 16.6124 15.4603 16.449 15.4603C16.2856 15.4603 16.1531 15.3278 16.1531 15.1644C16.1531 15.0009 16.2856 14.8684 16.449 14.8684C16.6124 14.8684 16.7449 15.0009 16.7449 15.1644ZM17.9286 13.3893C17.9286 13.5527 17.7961 13.6852 17.6326 13.6852C17.4692 13.6852 17.3367 13.5527 17.3367 13.3893C17.3367 13.2258 17.4692 13.0933 17.6326 13.0933C17.7961 13.0933 17.9286 13.2258 17.9286 13.3893ZM18.8164 14.2769C18.9798 14.2769 19.1123 14.1444 19.1123 13.981C19.1123 13.8175 18.9798 13.685 18.8164 13.685C18.653 13.685 18.5205 13.8175 18.5205 13.981C18.5205 14.1444 18.653 14.2769 18.8164 14.2769ZM17.9286 14.5727C17.9286 14.7361 17.7961 14.8686 17.6326 14.8686C17.4692 14.8686 17.3367 14.7361 17.3367 14.5727C17.3367 14.4092 17.4692 14.2767 17.6326 14.2767C17.7961 14.2767 17.9286 14.4092 17.9286 14.5727ZM18.8164 15.4603C18.9798 15.4603 19.1123 15.3278 19.1123 15.1644C19.1123 15.0009 18.9798 14.8684 18.8164 14.8684C18.653 14.8684 18.5205 15.0009 18.5205 15.1644C18.5205 15.3278 18.653 15.4603 18.8164 15.4603ZM21.4797 8.06251C21.4797 8.22594 21.3473 8.35843 21.1838 8.35843C21.0204 8.35843 20.8879 8.22594 20.8879 8.06251C20.8879 7.89907 21.0204 7.76658 21.1838 7.76658C21.3473 7.76658 21.4797 7.89907 21.4797 8.06251ZM20.296 14.5727C20.296 14.7361 20.1635 14.8686 20.0001 14.8686C19.8366 14.8686 19.7041 14.7361 19.7041 14.5727C19.7041 14.4092 19.8366 14.2767 20.0001 14.2767C20.1635 14.2767 20.296 14.4092 20.296 14.5727ZM21.1838 15.4603C21.3473 15.4603 21.4797 15.3278 21.4797 15.1644C21.4797 15.0009 21.3473 14.8684 21.1838 14.8684C21.0204 14.8684 20.8879 15.0009 20.8879 15.1644C20.8879 15.3278 21.0204 15.4603 21.1838 15.4603ZM22.6634 6.28668C22.6634 6.45011 22.5309 6.5826 22.3675 6.5826C22.204 6.5826 22.0715 6.45011 22.0715 6.28668C22.0715 6.12324 22.204 5.99075 22.3675 5.99075C22.5309 5.99075 22.6634 6.12324 22.6634 6.28668ZM23.847 6.87862C23.847 7.04205 23.7145 7.17454 23.5511 7.17454C23.3877 7.17454 23.2552 7.04205 23.2552 6.87862C23.2552 6.71519 23.3877 6.5827 23.5511 6.5827C23.7145 6.5827 23.847 6.71519 23.847 6.87862ZM22.3675 7.76673C22.5309 7.76673 22.6634 7.63424 22.6634 7.4708C22.6634 7.30737 22.5309 7.17488 22.3675 7.17488C22.204 7.17488 22.0715 7.30737 22.0715 7.4708C22.0715 7.63424 22.204 7.76673 22.3675 7.76673ZM23.847 8.06251C23.847 8.22594 23.7145 8.35843 23.5511 8.35843C23.3877 8.35843 23.2552 8.22594 23.2552 8.06251C23.2552 7.89907 23.3877 7.76658 23.5511 7.76658C23.7145 7.76658 23.847 7.89907 23.847 8.06251ZM22.3675 8.95013C22.5309 8.95013 22.6634 8.81764 22.6634 8.65421C22.6634 8.49077 22.5309 8.35828 22.3675 8.35828C22.204 8.35828 22.0715 8.49077 22.0715 8.65421C22.0715 8.81764 22.204 8.95013 22.3675 8.95013ZM23.5511 9.54183C23.7145 9.54183 23.847 9.40934 23.847 9.24591C23.847 9.08247 23.7145 8.94998 23.5511 8.94998C23.3877 8.94998 23.2552 9.08247 23.2552 9.24591C23.2552 9.40934 23.3877 9.54183 23.5511 9.54183ZM25.0308 7.4708C25.0308 7.63424 24.8983 7.76673 24.7349 7.76673C24.5714 7.76673 24.4389 7.63424 24.4389 7.4708C24.4389 7.30737 24.5714 7.17488 24.7349 7.17488C24.8983 7.17488 25.0308 7.30737 25.0308 7.4708ZM25.9186 8.35843C26.0821 8.35843 26.2146 8.22594 26.2146 8.06251C26.2146 7.89907 26.0821 7.76658 25.9186 7.76658C25.7552 7.76658 25.6227 7.89907 25.6227 8.06251C25.6227 8.22594 25.7552 8.35843 25.9186 8.35843ZM25.0308 8.65421C25.0308 8.81764 24.8983 8.95013 24.7349 8.95013C24.5714 8.95013 24.4389 8.81764 24.4389 8.65421C24.4389 8.49077 24.5714 8.35828 24.7349 8.35828C24.8983 8.35828 25.0308 8.49077 25.0308 8.65421ZM2.54047 17.5319C2.54047 17.6953 2.40798 17.8278 2.24454 17.8278C2.08111 17.8278 1.94862 17.6953 1.94862 17.5319C1.94862 17.3685 2.08111 17.236 2.24454 17.236C2.40798 17.236 2.54047 17.3685 2.54047 17.5319ZM2.24454 19.0115C2.40798 19.0115 2.54047 18.879 2.54047 18.7155C2.54047 18.5521 2.40798 18.4196 2.24454 18.4196C2.08111 18.4196 1.94862 18.5521 1.94862 18.7155C1.94862 18.879 2.08111 19.0115 2.24454 19.0115ZM4.90788 17.5319C4.90788 17.6953 4.77539 17.8278 4.61195 17.8278C4.44852 17.8278 4.31603 17.6953 4.31603 17.5319C4.31603 17.3685 4.44852 17.236 4.61195 17.236C4.77539 17.236 4.90788 17.3685 4.90788 17.5319ZM3.42831 18.4195C3.59174 18.4195 3.72423 18.287 3.72423 18.1236C3.72423 17.9602 3.59174 17.8277 3.42831 17.8277C3.26487 17.8277 3.13238 17.9602 3.13238 18.1236C3.13238 18.287 3.26487 18.4195 3.42831 18.4195ZM3.72423 19.3077C3.72423 19.4712 3.59174 19.6037 3.42831 19.6037C3.26487 19.6037 3.13238 19.4712 3.13238 19.3077C3.13238 19.1443 3.26487 19.0118 3.42831 19.0118C3.59174 19.0118 3.72423 19.1443 3.72423 19.3077ZM4.61195 19.0115C4.77539 19.0115 4.90788 18.879 4.90788 18.7155C4.90788 18.5521 4.77539 18.4196 4.61195 18.4196C4.44852 18.4196 4.31603 18.5521 4.31603 18.7155C4.31603 18.879 4.44852 19.0115 4.61195 19.0115ZM4.90788 19.8994C4.90788 20.0629 4.77539 20.1954 4.61195 20.1954C4.44852 20.1954 4.31603 20.0629 4.31603 19.8994C4.31603 19.736 4.44852 19.6035 4.61195 19.6035C4.77539 19.6035 4.90788 19.736 4.90788 19.8994ZM6.97936 17.8278C7.1428 17.8278 7.27529 17.6953 7.27529 17.5319C7.27529 17.3685 7.1428 17.236 6.97936 17.236C6.81593 17.236 6.68344 17.3685 6.68344 17.5319C6.68344 17.6953 6.81593 17.8278 6.97936 17.8278ZM6.09152 18.1236C6.09152 18.287 5.95903 18.4195 5.7956 18.4195C5.63216 18.4195 5.49967 18.287 5.49967 18.1236C5.49967 17.9602 5.63216 17.8277 5.7956 17.8277C5.95903 17.8277 6.09152 17.9602 6.09152 18.1236ZM5.7956 19.6037C5.95903 19.6037 6.09152 19.4712 6.09152 19.3077C6.09152 19.1443 5.95903 19.0118 5.7956 19.0118C5.63216 19.0118 5.49967 19.1443 5.49967 19.3077C5.49967 19.4712 5.63216 19.6037 5.7956 19.6037ZM7.27529 18.7155C7.27529 18.879 7.1428 19.0115 6.97936 19.0115C6.81593 19.0115 6.68344 18.879 6.68344 18.7155C6.68344 18.5521 6.81593 18.4196 6.97936 18.4196C7.1428 18.4196 7.27529 18.5521 7.27529 18.7155ZM6.97936 20.1954C7.1428 20.1954 7.27529 20.0629 7.27529 19.8994C7.27529 19.736 7.1428 19.6035 6.97936 19.6035C6.81593 19.6035 6.68344 19.736 6.68344 19.8994C6.68344 20.0629 6.81593 20.1954 6.97936 20.1954ZM8.16313 16.0522C8.32656 16.0522 8.45905 15.9198 8.45905 15.7563C8.45905 15.5929 8.32656 15.4604 8.16313 15.4604C7.99969 15.4604 7.8672 15.5929 7.8672 15.7563C7.8672 15.9198 7.99969 16.0522 8.16313 16.0522ZM9.64282 17.5319C9.64282 17.6953 9.51033 17.8278 9.34689 17.8278C9.18346 17.8278 9.05097 17.6953 9.05097 17.5319C9.05097 17.3685 9.18346 17.236 9.34689 17.236C9.51033 17.236 9.64282 17.3685 9.64282 17.5319ZM8.16313 18.4195C8.32656 18.4195 8.45905 18.287 8.45905 18.1236C8.45905 17.9602 8.32656 17.8277 8.16313 17.8277C7.99969 17.8277 7.8672 17.9602 7.8672 18.1236C7.8672 18.287 7.99969 18.4195 8.16313 18.4195ZM8.45905 19.3077C8.45905 19.4712 8.32656 19.6037 8.16313 19.6037C7.99969 19.6037 7.8672 19.4712 7.8672 19.3077C7.8672 19.1443 7.99969 19.0118 8.16313 19.0118C8.32656 19.0118 8.45905 19.1443 8.45905 19.3077ZM9.34689 19.0115C9.51033 19.0115 9.64282 18.879 9.64282 18.7155C9.64282 18.5521 9.51033 18.4196 9.34689 18.4196C9.18346 18.4196 9.05097 18.5521 9.05097 18.7155C9.05097 18.879 9.18346 19.0115 9.34689 19.0115ZM9.64282 19.8994C9.64282 20.0629 9.51033 20.1954 9.34689 20.1954C9.18346 20.1954 9.05097 20.0629 9.05097 19.8994C9.05097 19.736 9.18346 19.6035 9.34689 19.6035C9.51033 19.6035 9.64282 19.736 9.64282 19.8994ZM10.8265 18.1236C10.8265 18.287 10.694 18.4195 10.5305 18.4195C10.3671 18.4195 10.2346 18.287 10.2346 18.1236C10.2346 17.9602 10.3671 17.8277 10.5305 17.8277C10.694 17.8277 10.8265 17.9602 10.8265 18.1236ZM10.5305 19.6037C10.694 19.6037 10.8265 19.4712 10.8265 19.3077C10.8265 19.1443 10.694 19.0118 10.5305 19.0118C10.3671 19.0118 10.2346 19.1443 10.2346 19.3077C10.2346 19.4712 10.3671 19.6037 10.5305 19.6037ZM12.01 18.7155C12.01 18.879 11.8775 19.0115 11.7141 19.0115C11.5506 19.0115 11.4181 18.879 11.4181 18.7155C11.4181 18.5521 11.5506 18.4196 11.7141 18.4196C11.8775 18.4196 12.01 18.5521 12.01 18.7155ZM12.8979 16.0522C13.0614 16.0522 13.1939 15.9198 13.1939 15.7563C13.1939 15.5929 13.0614 15.4604 12.8979 15.4604C12.7345 15.4604 12.602 15.5929 12.602 15.7563C12.602 15.9198 12.7345 16.0522 12.8979 16.0522ZM12.8979 18.4195C13.0614 18.4195 13.1939 18.287 13.1939 18.1236C13.1939 17.9602 13.0614 17.8277 12.8979 17.8277C12.7345 17.8277 12.602 17.9602 12.602 18.1236C12.602 18.287 12.7345 18.4195 12.8979 18.4195ZM15.5613 15.7563C15.5613 15.9198 15.4288 16.0522 15.2654 16.0522C15.1019 16.0522 14.9694 15.9198 14.9694 15.7563C14.9694 15.5929 15.1019 15.4604 15.2654 15.4604C15.4288 15.4604 15.5613 15.5929 15.5613 15.7563ZM16.449 16.6444C16.6124 16.6444 16.7449 16.5119 16.7449 16.3485C16.7449 16.1851 16.6124 16.0526 16.449 16.0526C16.2856 16.0526 16.1531 16.1851 16.1531 16.3485C16.1531 16.5119 16.2856 16.6444 16.449 16.6444ZM15.5613 18.1236C15.5613 18.287 15.4288 18.4195 15.2654 18.4195C15.1019 18.4195 14.9694 18.287 14.9694 18.1236C14.9694 17.9602 15.1019 17.8277 15.2654 17.8277C15.4288 17.8277 15.5613 17.9602 15.5613 18.1236ZM17.6326 16.0522C17.7961 16.0522 17.9286 15.9198 17.9286 15.7563C17.9286 15.5929 17.7961 15.4604 17.6326 15.4604C17.4692 15.4604 17.3367 15.5929 17.3367 15.7563C17.3367 15.9198 17.4692 16.0522 17.6326 16.0522ZM19.1123 16.3485C19.1123 16.5119 18.9798 16.6444 18.8164 16.6444C18.653 16.6444 18.5205 16.5119 18.5205 16.3485C18.5205 16.1851 18.653 16.0526 18.8164 16.0526C18.9798 16.0526 19.1123 16.1851 19.1123 16.3485ZM20.296 15.7563C20.296 15.9198 20.1635 16.0522 20.0001 16.0522C19.8366 16.0522 19.7041 15.9198 19.7041 15.7563C19.7041 15.5929 19.8366 15.4604 20.0001 15.4604C20.1635 15.4604 20.296 15.5929 20.296 15.7563ZM21.1838 16.6444C21.3473 16.6444 21.4797 16.5119 21.4797 16.3485C21.4797 16.1851 21.3473 16.0526 21.1838 16.0526C21.0204 16.0526 20.8879 16.1851 20.8879 16.3485C20.8879 16.5119 21.0204 16.6444 21.1838 16.6444ZM21.4797 18.7155C21.4797 18.879 21.3473 19.0115 21.1838 19.0115C21.0204 19.0115 20.8879 18.879 20.8879 18.7155C20.8879 18.5521 21.0204 18.4196 21.1838 18.4196C21.3473 18.4196 21.4797 18.5521 21.4797 18.7155ZM22.6634 15.7563C22.6634 15.9198 22.5309 16.0522 22.3675 16.0522C22.204 16.0522 22.0715 15.9198 22.0715 15.7563C22.0715 15.5929 22.204 15.4604 22.3675 15.4604C22.5309 15.4604 22.6634 15.5929 22.6634 15.7563ZM23.5511 16.6444C23.7145 16.6444 23.847 16.5119 23.847 16.3485C23.847 16.1851 23.7145 16.0526 23.5511 16.0526C23.3877 16.0526 23.2552 16.1851 23.2552 16.3485C23.2552 16.5119 23.3877 16.6444 23.5511 16.6444ZM22.6634 16.9402C22.6634 17.1036 22.5309 17.2361 22.3675 17.2361C22.204 17.2361 22.0715 17.1036 22.0715 16.9402C22.0715 16.7768 22.204 16.6443 22.3675 16.6443C22.5309 16.6443 22.6634 16.7768 22.6634 16.9402ZM23.847 18.7155C23.847 18.879 23.7145 19.0115 23.5511 19.0115C23.3877 19.0115 23.2552 18.879 23.2552 18.7155C23.2552 18.5521 23.3877 18.4196 23.5511 18.4196C23.7145 18.4196 23.847 18.5521 23.847 18.7155ZM25.0308 16.9402C25.0308 17.1036 24.8983 17.2361 24.7349 17.2361C24.5714 17.2361 24.4389 17.1036 24.4389 16.9402C24.4389 16.7768 24.5714 16.6443 24.7349 16.6443C24.8983 16.6443 25.0308 16.7768 25.0308 16.9402ZM24.7349 19.6037C24.8983 19.6037 25.0308 19.4712 25.0308 19.3077C25.0308 19.1443 24.8983 19.0118 24.7349 19.0118C24.5714 19.0118 24.4389 19.1443 24.4389 19.3077C24.4389 19.4712 24.5714 19.6037 24.7349 19.6037ZM27.1023 19.6037C27.2657 19.6037 27.3982 19.4712 27.3982 19.3077C27.3982 19.1443 27.2657 19.0118 27.1023 19.0118C26.9388 19.0118 26.8064 19.1443 26.8064 19.3077C26.8064 19.4712 26.9388 19.6037 27.1023 19.6037ZM29.4697 19.6037C29.6331 19.6037 29.7656 19.4712 29.7656 19.3077C29.7656 19.1443 29.6331 19.0118 29.4697 19.0118C29.3063 19.0118 29.1738 19.1443 29.1738 19.3077C29.1738 19.4712 29.3063 19.6037 29.4697 19.6037ZM31.8369 19.6037C32.0003 19.6037 32.1328 19.4712 32.1328 19.3077C32.1328 19.1443 32.0003 19.0118 31.8369 19.0118C31.6734 19.0118 31.5409 19.1443 31.5409 19.3077C31.5409 19.4712 31.6734 19.6037 31.8369 19.6037ZM34.2043 19.6037C34.3677 19.6037 34.5002 19.4712 34.5002 19.3077C34.5002 19.1443 34.3677 19.0118 34.2043 19.0118C34.0408 19.0118 33.9083 19.1443 33.9083 19.3077C33.9083 19.4712 34.0408 19.6037 34.2043 19.6037ZM35.684 18.7155C35.684 18.879 35.5515 19.0115 35.388 19.0115C35.2246 19.0115 35.0921 18.879 35.0921 18.7155C35.0921 18.5521 35.2246 18.4196 35.388 18.4196C35.5515 18.4196 35.684 18.5521 35.684 18.7155Z"
        fill="#B89B64" fill-rule="evenodd" />
</svg>
