<svg fill="none" height="27" viewBox="0 0 33 27" width="33" xmlns="http://www.w3.org/2000/svg">
    <path clip-rule="evenodd"
        d="M15.307 1.5293C15.105 1.5293 14.9385 1.69482 14.9385 1.89984C14.9385 2.10266 15.1032 2.29053 15.303 2.29053C15.5689 2.27557 15.8366 2.26752 16.106 2.26636H16.1395H16.148H16.1673H16.194H16.2047H16.2381C16.5044 2.2677 16.769 2.27576 17.0318 2.29053C17.2316 2.29053 17.3963 2.10266 17.3963 1.89984C17.3963 1.69482 17.2298 1.5293 17.0278 1.5293H15.307ZM13.9385 1.89984C13.9385 2.0816 13.9741 2.25531 14.0387 2.41425C6.65421 3.4494 0.971793 9.79205 0.971793 17.4619V20.8666L0.346793 23.7833C-0.0352874 25.5663 1.57189 27.167 3.3631 26.6447C4.50974 26.3104 5.61249 25.9598 6.67652 25.6217L6.68101 25.6202L6.85287 25.5656C7.97358 25.2094 9.05041 24.869 10.103 24.5729C12.2089 23.9803 14.1923 23.5731 16.1684 23.5769C18.1827 23.573 20.2055 24.1127 22.3862 24.8058C22.6407 24.8868 22.8974 24.9698 23.1565 25.0542C23.3647 25.122 23.5744 25.1907 23.7857 25.2599C25.5437 25.8361 27.4074 26.4469 29.3957 26.8671C30.1885 27.0347 30.9846 26.7673 31.539 26.2807C32.0963 25.7914 32.4572 25.0336 32.2788 24.2012L32.2759 24.1874L32.2722 24.174L32.2093 23.9443C32.2044 23.8981 32.197 23.8514 32.1871 23.8044L32.1835 23.7874L32.1787 23.7705L31.739 22.2261L31.3629 20.852V17.4619C31.3629 9.79205 25.6805 3.44946 18.2961 2.41425C18.3607 2.25531 18.3963 2.0816 18.3963 1.89984C18.3963 1.14557 17.7851 0.529297 17.0278 0.529297H15.307C14.5497 0.529297 13.9385 1.14557 13.9385 1.89984ZM16.1721 3.2674C16.0663 3.27405 15.9717 3.31323 15.9011 3.37488C14.8721 4.27386 14.0509 5.33752 13.477 7.29059C13.2182 8.17145 13.0096 9.23401 12.8577 10.5443C12.8755 10.5826 12.8854 10.6253 12.8854 10.6703C12.8854 10.7391 12.8623 10.8024 12.8234 10.853C12.7972 11.1002 12.7729 11.3558 12.7506 11.6204C12.8318 11.6741 12.8854 11.7662 12.8854 11.8708C12.8854 11.9921 12.8134 12.0966 12.7098 12.1439C12.695 12.3514 12.6812 12.5641 12.6686 12.7822C12.7938 12.8183 12.8854 12.9337 12.8854 13.0705C12.8854 13.2182 12.7787 13.3409 12.6382 13.3658C12.629 13.5637 12.6207 13.7657 12.6132 13.972C12.7658 13.986 12.8854 14.1144 12.8854 14.2707C12.8854 14.4334 12.7559 14.5658 12.5944 14.5706C12.5891 14.7669 12.5846 14.9669 12.5808 15.1707L12.5854 15.1707C12.7511 15.1707 12.8854 15.305 12.8854 15.4706C12.8854 15.6364 12.7511 15.7706 12.5854 15.7706C12.5809 15.7706 12.5764 15.7705 12.572 15.7703C12.5708 15.878 12.5699 15.9866 12.5691 16.0963C12.8769 16.0575 13.1856 16.0239 13.495 15.9955C13.5283 15.8661 13.6458 15.7705 13.7856 15.7705C13.9083 15.7705 14.0138 15.8442 14.0603 15.9498C14.6892 15.9053 15.3206 15.8825 15.9528 15.8813C16.0078 15.8137 16.0916 15.7705 16.1856 15.7705C16.281 15.7705 16.366 15.8151 16.421 15.8845C17.0477 15.8939 17.6748 15.9245 18.3006 15.9764C18.3401 15.8568 18.4527 15.7705 18.5855 15.7705C18.7378 15.7705 18.8635 15.8839 18.8829 16.0308C19.1809 16.0618 19.4784 16.0977 19.7754 16.1384C19.7746 16.0144 19.7735 15.8917 19.7722 15.7703C19.6127 15.7633 19.4856 15.6318 19.4856 15.4706C19.4856 15.3124 19.6081 15.1828 19.7634 15.1714C19.7596 14.9667 19.7551 14.7658 19.7497 14.5685C19.601 14.5508 19.4856 14.4243 19.4856 14.2707C19.4856 14.1237 19.5914 14.0013 19.7311 13.9756C19.6218 10.9474 19.3219 8.83856 18.8671 7.29059C18.2933 5.33752 17.4721 4.27386 16.443 3.37488C16.3725 3.31323 16.2779 3.27405 16.1721 3.2674ZM20.753 14.6812C20.6667 11.2142 20.3512 8.79425 19.8266 7.00873C19.4178 5.61743 18.8827 4.61377 18.24 3.80298C20.4972 4.80194 22.2748 6.00854 23.5285 8.00537C24.7634 9.97229 25.5257 12.7629 25.6549 17.0004C25.5547 17.049 25.4856 17.1516 25.4856 17.2704C25.4856 17.3944 25.5607 17.5007 25.6679 17.5464C25.6684 17.5738 25.6688 17.6012 25.6693 17.6287C24.6299 17.2358 23.5654 16.9091 22.4849 16.6486C22.4737 16.4931 22.344 16.3704 22.1856 16.3704C22.0747 16.3704 21.9778 16.4306 21.9259 16.5201C21.6487 16.4595 21.3706 16.4031 21.0918 16.3511C21.205 16.3082 21.2856 16.1988 21.2856 16.0705C21.2856 15.9048 21.1512 15.7705 20.9856 15.7705C20.9026 15.7705 20.8275 15.8042 20.7732 15.8586C20.7705 15.5902 20.7667 15.3276 20.7617 15.0705C20.8166 15.132 20.8966 15.1708 20.9856 15.1708C21.1512 15.1708 21.2856 15.0365 21.2856 14.8708C21.2856 14.7051 21.1512 14.5708 20.9856 14.5708C20.8918 14.5708 20.8081 14.6138 20.753 14.6812ZM20.7762 16.2854C20.7762 16.2883 20.7763 16.2913 20.7763 16.2942C20.7802 16.2949 20.7841 16.2955 20.788 16.2962C20.784 16.2927 20.78 16.2891 20.7762 16.2854ZM8.87762 8.00525C10.1047 6.00494 11.8554 4.79803 14.1077 3.79846C13.4634 4.61005 12.9271 5.61487 12.5176 7.00873C12.1125 8.38751 11.8321 10.1446 11.6856 12.47C11.6852 12.3047 11.551 12.1707 11.3856 12.1707C11.2199 12.1707 11.0856 12.305 11.0856 12.4706C11.0856 12.6364 11.2199 12.7706 11.3856 12.7706C11.5382 12.7706 11.6642 12.6567 11.6831 12.5092C11.6633 12.828 11.646 13.1575 11.6312 13.498C11.5769 13.4208 11.4871 13.3704 11.3856 13.3704C11.2199 13.3704 11.0856 13.5047 11.0856 13.6703C11.0856 13.8361 11.2199 13.9703 11.3856 13.9703C11.4785 13.9703 11.5615 13.9282 11.6165 13.8619C11.6069 14.1193 11.5987 14.3829 11.5918 14.653C11.5381 14.6021 11.4655 14.5708 11.3856 14.5708C11.2199 14.5708 11.0856 14.7051 11.0856 14.8708C11.0856 15.0365 11.2199 15.1708 11.3856 15.1708C11.4607 15.1708 11.5293 15.1432 11.582 15.0976C11.5773 15.3384 11.5738 15.5841 11.5712 15.8348C11.5202 15.7946 11.4557 15.7705 11.3856 15.7705C11.2199 15.7705 11.0856 15.9048 11.0856 16.0705C11.0856 16.1656 11.1298 16.2504 11.1988 16.3053C10.9317 16.3531 10.6656 16.4051 10.4005 16.4611C10.346 16.4052 10.2699 16.3704 10.1856 16.3704C10.0546 16.3704 9.94329 16.4543 9.90237 16.5713C8.84594 16.816 7.80865 17.1258 6.79949 17.5007C6.79961 17.4939 6.79973 17.4871 6.79986 17.4802C6.85279 17.4261 6.88541 17.3521 6.88541 17.2704C6.88541 17.1937 6.8566 17.1237 6.80923 17.0707C6.81719 16.7828 6.82795 16.5016 6.84148 16.2269C6.86935 16.1813 6.88541 16.1278 6.88541 16.0705C6.88541 16.0245 6.87508 15.9811 6.85662 15.9421C6.9705 13.9489 7.23351 12.3027 7.62836 10.926C7.67406 10.9541 7.72787 10.9703 7.78548 10.9703C7.95116 10.9703 8.08549 10.8361 8.08549 10.6703C8.08549 10.5094 7.95867 10.378 7.79949 10.3707C8.09847 9.46619 8.45977 8.68634 8.87762 8.00525ZM1.97793 17.0403C2.04366 17.0954 2.08549 17.178 2.08549 17.2704C2.08549 17.3657 2.04105 17.4507 1.97179 17.5056V18.2355C2.04105 18.2905 2.08549 18.3754 2.08549 18.4706C2.08549 18.5659 2.04105 18.6509 1.97179 18.7058V19.4352C2.04105 19.4902 2.08549 19.5751 2.08549 19.6703C2.08549 19.7656 2.04105 19.8506 1.97179 19.9055V19.9574C2.28011 19.7509 2.59366 19.5522 2.91205 19.3615C2.78184 19.3287 2.68543 19.2109 2.68543 19.0705C2.68543 18.9048 2.81974 18.7705 2.98543 18.7705C3.15111 18.7705 3.28544 18.9048 3.28544 19.0705C3.28544 19.0975 3.28188 19.1236 3.27521 19.1484C3.52599 19.0045 3.77962 18.8652 4.03594 18.7308C3.94602 18.679 3.8855 18.5819 3.8855 18.4706C3.8855 18.305 4.01981 18.1707 4.18551 18.1707C4.35119 18.1707 4.48551 18.305 4.48551 18.4706C4.48551 18.4812 4.48496 18.4916 4.48389 18.502C4.73676 18.3762 4.99207 18.2551 5.24967 18.1384C5.15221 18.0888 5.08546 17.9876 5.08546 17.8708C5.08546 17.7051 5.21976 17.5708 5.38546 17.5708C5.55114 17.5708 5.68546 17.7051 5.68546 17.8708C5.68546 17.8985 5.68169 17.9254 5.67466 17.9509C5.71444 17.9338 5.75428 17.9168 5.79417 17.8999C5.81608 15.3787 6.03382 13.2869 6.43935 11.5325C6.34751 11.4813 6.28541 11.3831 6.28541 11.2704C6.28541 11.1071 6.41611 10.9741 6.57873 10.9705C6.63897 10.7435 6.70261 10.5225 6.76964 10.3073C6.7188 10.3469 6.65485 10.3705 6.58541 10.3705C6.41971 10.3705 6.28541 10.2362 6.28541 10.0705C6.28541 9.90485 6.41971 9.77051 6.58541 9.77051C6.7219 9.77051 6.8371 9.86169 6.87347 9.98645C7.0638 9.42017 7.27877 8.89502 7.51798 8.40643C7.4972 8.3656 7.48548 8.3194 7.48548 8.27045C7.48548 8.11981 7.59656 7.99506 7.74132 7.97369C7.83283 7.80536 7.92747 7.64166 8.02523 7.4823C8.93116 6.00562 10.0889 4.93042 11.4475 4.06989C9.15987 4.8761 7.14088 6.25189 5.56075 8.02698C5.63628 8.08148 5.68546 8.17023 5.68546 8.27045C5.68546 8.43616 5.55114 8.57043 5.38546 8.57043C5.30224 8.57043 5.22695 8.53656 5.1726 8.48187C4.83562 8.89392 4.52137 9.32532 4.23173 9.77405C4.37546 9.79626 4.48551 9.92059 4.48551 10.0705C4.48551 10.2362 4.35119 10.3705 4.18551 10.3705C4.08462 10.3705 3.99537 10.3207 3.94099 10.2444C3.66999 10.7025 3.42402 11.1771 3.20492 11.6663C3.25487 11.7199 3.28544 11.7917 3.28544 11.8708C3.28544 12.0347 3.15395 12.1679 2.9907 12.1707C2.51479 13.3547 2.19387 14.6177 2.053 15.9346C2.07378 15.9754 2.08549 16.0216 2.08549 16.0705C2.08549 16.1399 2.06196 16.2037 2.02242 16.2545C2.00052 16.5145 1.98562 16.7766 1.97793 17.0403ZM30.3629 19.9823C29.1896 19.2285 27.9538 18.5786 26.6737 18.0325C26.6433 13.1171 25.8489 9.8205 24.3754 7.47363C23.4563 6.00983 22.2891 4.94116 20.93 4.08502C26.4274 6.04242 30.3629 11.2925 30.3629 17.4619V19.9823ZM30.7759 22.4951L31.2157 24.1021C31.2046 24.3187 30.9954 24.4989 30.7528 24.4438C28.701 23.9784 26.8064 23.3576 24.9767 22.7581C24.3907 22.566 23.8109 22.376 23.2352 22.1942C20.8809 21.4506 18.595 20.8438 16.2764 20.8482C15.5344 20.8468 14.7956 20.9016 14.0563 21.0002C14.0751 20.961 14.0856 20.9171 14.0856 20.8708C14.0856 20.7051 13.9513 20.5708 13.7856 20.5708C13.6199 20.5708 13.4856 20.7051 13.4856 20.8708C13.4856 20.9484 13.5151 21.0191 13.5634 21.0723C13.2915 21.1155 13.0194 21.1642 12.747 21.2178C12.7004 21.188 12.6449 21.1707 12.5854 21.1707C12.4822 21.1707 12.3912 21.2228 12.3372 21.3021C11.3679 21.5097 10.393 21.7756 9.40418 22.0721C9.36385 22.0842 9.32352 22.0963 9.28318 22.1085C9.28475 22.0961 9.28556 22.0834 9.28556 22.0705C9.28556 21.9048 9.15124 21.7705 8.98556 21.7705C8.81986 21.7705 8.68555 21.9048 8.68555 22.0705C8.68555 22.1464 8.71374 22.2157 8.76021 22.2686C8.51768 22.3437 8.27466 22.4202 8.03084 22.4977C7.97654 22.4207 7.88689 22.3704 7.78548 22.3704C7.61979 22.3704 7.48548 22.5047 7.48548 22.6703L7.4855 22.6722C7.2045 22.7626 6.92216 22.8541 6.63798 22.9461L6.63468 22.9472C6.60961 22.9553 6.58454 22.9634 6.55944 22.9716C6.51281 22.9755 6.46924 22.9902 6.43116 23.0131C5.40409 23.3456 4.35184 23.6843 3.25228 24.0078C3.27347 23.9666 3.28544 23.92 3.28544 23.8705C3.28544 23.7049 3.15111 23.5706 2.98543 23.5706C2.81974 23.5706 2.68543 23.7049 2.68543 23.8705C2.68543 23.9809 2.745 24.0773 2.83375 24.1295C2.57815 24.2028 2.31991 24.2752 2.05875 24.3464C2.01157 24.2426 1.90696 24.1704 1.78548 24.1704C1.6897 24.1704 1.60441 24.2153 1.54948 24.2852C1.41706 24.1793 1.34006 24.0026 1.3807 23.8054L1.4863 23.2929C1.49778 23.4481 1.62734 23.5704 1.78548 23.5704C1.95116 23.5704 2.08549 23.4362 2.08549 23.2704C2.08549 23.1048 1.95116 22.9705 1.78548 22.9705C1.66997 22.9705 1.56972 23.0358 1.51958 23.1314L1.68027 22.3515C1.713 22.3638 1.74847 22.3705 1.78548 22.3705C1.95116 22.3705 2.08549 22.2362 2.08549 22.0705C2.08549 21.91 1.95933 21.7788 1.80073 21.7709L1.92071 21.2111C2.23633 20.9829 2.55839 20.7638 2.88639 20.5537C2.9174 20.5646 2.95072 20.5704 2.98543 20.5704C3.13924 20.5704 3.26603 20.4547 3.28341 20.3055C3.51504 20.1643 3.74946 20.0273 3.9865 19.8948C4.03945 19.9418 4.10915 19.9703 4.18551 19.9703C4.35119 19.9703 4.48551 19.8361 4.48551 19.6703C4.48551 19.6553 4.4844 19.6405 4.48226 19.626C4.7094 19.5067 4.93877 19.3911 5.17025 19.2795C5.22477 19.3356 5.30103 19.3705 5.38546 19.3705C5.55114 19.3705 5.68546 19.2362 5.68546 19.0705C5.68546 19.0601 5.68493 19.0499 5.68391 19.0397C5.92773 18.9296 6.1737 18.8237 6.4217 18.722C6.46877 18.7527 6.525 18.7706 6.58541 18.7706C6.72689 18.7706 6.8455 18.6727 6.87713 18.541C14.3834 15.6464 23.6138 16.536 30.4288 21.227L30.7302 22.3281L30.7285 22.3286L30.7759 22.4951ZM1.89013 25.3891C2.00019 25.3848 2.11275 25.3679 2.22652 25.3371C2.89353 25.1565 3.54851 24.9656 4.19114 24.7703C4.24904 24.7693 4.30289 24.7518 4.34833 24.7224C5.25461 24.4451 6.13604 24.1599 6.99157 23.8831L7.00228 23.8796C7.92969 23.5795 8.82653 23.2892 9.6914 23.03C11.997 22.3387 14.139 21.844 16.2754 21.8482C18.4294 21.8439 20.592 22.408 22.934 23.1478C23.4898 23.3233 24.0563 23.509 24.6345 23.6985L24.6358 23.6989C26.4741 24.3013 28.4301 24.9423 30.5315 25.4191C30.6787 25.4525 30.8243 25.4611 30.9645 25.4484C30.9375 25.4761 30.909 25.5031 30.8792 25.5292C30.5318 25.8342 30.0497 25.9832 29.6024 25.8887C27.6727 25.4809 25.8759 24.8922 24.1243 24.3184L24.1163 24.3158C23.6378 24.159 23.1627 24.0033 22.6891 23.8528C20.4994 23.1569 18.3489 22.5728 16.1674 22.5769C14.0568 22.5729 11.973 23.0079 9.83211 23.6102C8.7611 23.9116 7.66897 24.257 6.54999 24.6125L6.38091 24.6663L6.37853 24.6671C5.31161 25.0062 4.21865 25.3536 3.08318 25.6847C2.72439 25.7893 2.3726 25.746 2.07694 25.599C2.05327 25.502 1.98244 25.4235 1.89013 25.3891ZM6.58541 7.97034C6.75109 7.97034 6.88541 7.83606 6.88541 7.67035C6.88541 7.5047 6.75109 7.37036 6.58541 7.37036C6.41971 7.37036 6.28541 7.5047 6.28541 7.67035C6.28541 7.83606 6.41971 7.97034 6.58541 7.97034ZM3.28544 13.0705C3.28544 13.2362 3.15111 13.3705 2.98543 13.3705C2.81974 13.3705 2.68543 13.2362 2.68543 13.0705C2.68543 12.9048 2.81974 12.7705 2.98543 12.7705C3.15111 12.7705 3.28544 12.9048 3.28544 13.0705ZM2.98543 14.5707C3.15111 14.5707 3.28544 14.4364 3.28544 14.2707C3.28544 14.105 3.15111 13.9707 2.98543 13.9707C2.81974 13.9707 2.68543 14.105 2.68543 14.2707C2.68543 14.4364 2.81974 14.5707 2.98543 14.5707ZM3.28544 15.4706C3.28544 15.6364 3.15111 15.7706 2.98543 15.7706C2.81974 15.7706 2.68543 15.6364 2.68543 15.4706C2.68543 15.305 2.81974 15.1707 2.98543 15.1707C3.15111 15.1707 3.28544 15.305 3.28544 15.4706ZM3.28544 16.6703C3.28544 16.8361 3.15111 16.9703 2.98543 16.9703C2.81974 16.9703 2.68543 16.8361 2.68543 16.6703C2.68543 16.5047 2.81974 16.3704 2.98543 16.3704C3.15111 16.3704 3.28544 16.5047 3.28544 16.6703ZM5.68546 9.47064C5.68546 9.63635 5.55114 9.77063 5.38546 9.77063C5.21976 9.77063 5.08546 9.63635 5.08546 9.47064C5.08546 9.30499 5.21976 9.17065 5.38546 9.17065C5.55114 9.17065 5.68546 9.30499 5.68546 9.47064ZM4.48551 11.2704C4.48551 11.4362 4.35119 11.5704 4.18551 11.5704C4.01981 11.5704 3.8855 11.4362 3.8855 11.2704C3.8855 11.1048 4.01981 10.9705 4.18551 10.9705C4.35119 10.9705 4.48551 11.1048 4.48551 11.2704ZM5.38546 10.9703C5.55114 10.9703 5.68546 10.8361 5.68546 10.6703C5.68546 10.5047 5.55114 10.3704 5.38546 10.3704C5.21976 10.3704 5.08546 10.5047 5.08546 10.6703C5.08546 10.8361 5.21976 10.9703 5.38546 10.9703ZM5.68546 11.8708C5.68546 12.0365 5.55114 12.1708 5.38546 12.1708C5.21976 12.1708 5.08546 12.0365 5.08546 11.8708C5.08546 11.7051 5.21976 11.5708 5.38546 11.5708C5.55114 11.5708 5.68546 11.7051 5.68546 11.8708ZM4.18551 12.7706C4.35119 12.7706 4.48551 12.6364 4.48551 12.4706C4.48551 12.305 4.35119 12.1707 4.18551 12.1707C4.01981 12.1707 3.8855 12.305 3.8855 12.4706C3.8855 12.6364 4.01981 12.7706 4.18551 12.7706ZM5.68546 13.0705C5.68546 13.2362 5.55114 13.3705 5.38546 13.3705C5.21976 13.3705 5.08546 13.2362 5.08546 13.0705C5.08546 12.9048 5.21976 12.7705 5.38546 12.7705C5.55114 12.7705 5.68546 12.9048 5.68546 13.0705ZM4.18551 13.9703C4.35119 13.9703 4.48551 13.8361 4.48551 13.6703C4.48551 13.5047 4.35119 13.3704 4.18551 13.3704C4.01981 13.3704 3.8855 13.5047 3.8855 13.6703C3.8855 13.8361 4.01981 13.9703 4.18551 13.9703ZM4.48551 14.8708C4.48551 15.0365 4.35119 15.1708 4.18551 15.1708C4.01981 15.1708 3.8855 15.0365 3.8855 14.8708C3.8855 14.7051 4.01981 14.5708 4.18551 14.5708C4.35119 14.5708 4.48551 14.7051 4.48551 14.8708ZM5.38546 14.5707C5.55114 14.5707 5.68546 14.4364 5.68546 14.2707C5.68546 14.105 5.55114 13.9707 5.38546 13.9707C5.21976 13.9707 5.08546 14.105 5.08546 14.2707C5.08546 14.4364 5.21976 14.5707 5.38546 14.5707ZM5.68546 15.4706C5.68546 15.6364 5.55114 15.7706 5.38546 15.7706C5.21976 15.7706 5.08546 15.6364 5.08546 15.4706C5.08546 15.305 5.21976 15.1707 5.38546 15.1707C5.55114 15.1707 5.68546 15.305 5.68546 15.4706ZM4.18551 16.3705C4.35119 16.3705 4.48551 16.2362 4.48551 16.0705C4.48551 15.9048 4.35119 15.7705 4.18551 15.7705C4.01981 15.7705 3.8855 15.9048 3.8855 16.0705C3.8855 16.2362 4.01981 16.3705 4.18551 16.3705ZM5.68546 16.6703C5.68546 16.8361 5.55114 16.9703 5.38546 16.9703C5.21976 16.9703 5.08546 16.8361 5.08546 16.6703C5.08546 16.5047 5.21976 16.3704 5.38546 16.3704C5.55114 16.3704 5.68546 16.5047 5.68546 16.6703ZM6.58541 9.17078C6.75109 9.17078 6.88541 9.0365 6.88541 8.87079C6.88541 8.70514 6.75109 8.5708 6.58541 8.5708C6.41971 8.5708 6.28541 8.70514 6.28541 8.87079C6.28541 9.0365 6.41971 9.17078 6.58541 9.17078ZM8.08549 11.8708C8.08549 12.0365 7.95116 12.1708 7.78548 12.1708C7.61979 12.1708 7.48548 12.0365 7.48548 11.8708C7.48548 11.7051 7.61979 11.5708 7.78548 11.5708C7.95116 11.5708 8.08549 11.7051 8.08549 11.8708ZM8.08549 13.0705C8.08549 13.2362 7.95116 13.3705 7.78548 13.3705C7.61979 13.3705 7.48548 13.2362 7.48548 13.0705C7.48548 12.9048 7.61979 12.7705 7.78548 12.7705C7.95116 12.7705 8.08549 12.9048 8.08549 13.0705ZM7.78548 14.5707C7.95116 14.5707 8.08549 14.4364 8.08549 14.2707C8.08549 14.105 7.95116 13.9707 7.78548 13.9707C7.61979 13.9707 7.48548 14.105 7.48548 14.2707C7.48548 14.4364 7.61979 14.5707 7.78548 14.5707ZM8.08549 15.4706C8.08549 15.6364 7.95116 15.7706 7.78548 15.7706C7.61979 15.7706 7.48548 15.6364 7.48548 15.4706C7.48548 15.305 7.61979 15.1707 7.78548 15.1707C7.95116 15.1707 8.08549 15.305 8.08549 15.4706ZM8.08549 16.6703C8.08549 16.8361 7.95116 16.9703 7.78548 16.9703C7.61979 16.9703 7.48548 16.8361 7.48548 16.6703C7.48548 16.5047 7.61979 16.3704 7.78548 16.3704C7.95116 16.3704 8.08549 16.5047 8.08549 16.6703ZM8.98556 9.17078C9.15124 9.17078 9.28556 9.0365 9.28556 8.87079C9.28556 8.70514 9.15124 8.5708 8.98556 8.5708C8.81986 8.5708 8.68555 8.70514 8.68555 8.87079C8.68555 9.0365 8.81986 9.17078 8.98556 9.17078ZM10.4856 9.47064C10.4856 9.63635 10.3513 9.77063 10.1856 9.77063C10.0199 9.77063 9.88563 9.63635 9.88563 9.47064C9.88563 9.30499 10.0199 9.17065 10.1856 9.17065C10.3513 9.17065 10.4856 9.30499 10.4856 9.47064ZM8.98556 10.3705C9.15124 10.3705 9.28556 10.2362 9.28556 10.0705C9.28556 9.90485 9.15124 9.77051 8.98556 9.77051C8.81986 9.77051 8.68555 9.90485 8.68555 10.0705C8.68555 10.2362 8.81986 10.3705 8.98556 10.3705ZM9.28556 11.2704C9.28556 11.4362 9.15124 11.5704 8.98556 11.5704C8.81986 11.5704 8.68555 11.4362 8.68555 11.2704C8.68555 11.1048 8.81986 10.9705 8.98556 10.9705C9.15124 10.9705 9.28556 11.1048 9.28556 11.2704ZM10.1856 10.9703C10.3513 10.9703 10.4856 10.8361 10.4856 10.6703C10.4856 10.5047 10.3513 10.3704 10.1856 10.3704C10.0199 10.3704 9.88563 10.5047 9.88563 10.6703C9.88563 10.8361 10.0199 10.9703 10.1856 10.9703ZM10.4856 11.8708C10.4856 12.0365 10.3513 12.1708 10.1856 12.1708C10.0199 12.1708 9.88563 12.0365 9.88563 11.8708C9.88563 11.7051 10.0199 11.5708 10.1856 11.5708C10.3513 11.5708 10.4856 11.7051 10.4856 11.8708ZM8.98556 12.7706C9.15124 12.7706 9.28556 12.6364 9.28556 12.4706C9.28556 12.305 9.15124 12.1707 8.98556 12.1707C8.81986 12.1707 8.68555 12.305 8.68555 12.4706C8.68555 12.6364 8.81986 12.7706 8.98556 12.7706ZM10.4856 13.0705C10.4856 13.2362 10.3513 13.3705 10.1856 13.3705C10.0199 13.3705 9.88563 13.2362 9.88563 13.0705C9.88563 12.9048 10.0199 12.7705 10.1856 12.7705C10.3513 12.7705 10.4856 12.9048 10.4856 13.0705ZM8.98556 13.9703C9.15124 13.9703 9.28556 13.8361 9.28556 13.6703C9.28556 13.5047 9.15124 13.3704 8.98556 13.3704C8.81986 13.3704 8.68555 13.5047 8.68555 13.6703C8.68555 13.8361 8.81986 13.9703 8.98556 13.9703ZM9.28556 14.8708C9.28556 15.0365 9.15124 15.1708 8.98556 15.1708C8.81986 15.1708 8.68555 15.0365 8.68555 14.8708C8.68555 14.7051 8.81986 14.5708 8.98556 14.5708C9.15124 14.5708 9.28556 14.7051 9.28556 14.8708ZM10.1856 14.5707C10.3513 14.5707 10.4856 14.4364 10.4856 14.2707C10.4856 14.105 10.3513 13.9707 10.1856 13.9707C10.0199 13.9707 9.88563 14.105 9.88563 14.2707C9.88563 14.4364 10.0199 14.5707 10.1856 14.5707ZM10.4856 15.4706C10.4856 15.6364 10.3513 15.7706 10.1856 15.7706C10.0199 15.7706 9.88563 15.6364 9.88563 15.4706C9.88563 15.305 10.0199 15.1707 10.1856 15.1707C10.3513 15.1707 10.4856 15.305 10.4856 15.4706ZM8.98556 16.3705C9.15124 16.3705 9.28556 16.2362 9.28556 16.0705C9.28556 15.9048 9.15124 15.7705 8.98556 15.7705C8.81986 15.7705 8.68555 15.9048 8.68555 16.0705C8.68555 16.2362 8.81986 16.3705 8.98556 16.3705ZM11.3856 10.3705C11.5513 10.3705 11.6856 10.2362 11.6856 10.0705C11.6856 9.90485 11.5513 9.77051 11.3856 9.77051C11.2199 9.77051 11.0856 9.90485 11.0856 10.0705C11.0856 10.2362 11.2199 10.3705 11.3856 10.3705ZM11.6856 11.2704C11.6856 11.4362 11.5513 11.5704 11.3856 11.5704C11.2199 11.5704 11.0856 11.4362 11.0856 11.2704C11.0856 11.1048 11.2199 10.9705 11.3856 10.9705C11.5513 10.9705 11.6856 11.1048 11.6856 11.2704ZM14.0856 11.2704C14.0856 11.4362 13.9513 11.5704 13.7856 11.5704C13.6199 11.5704 13.4856 11.4362 13.4856 11.2704C13.4856 11.1048 13.6199 10.9705 13.7856 10.9705C13.9513 10.9705 14.0856 11.1048 14.0856 11.2704ZM14.9856 12.1708C15.1512 12.1708 15.2856 12.0365 15.2856 11.8708C15.2856 11.7051 15.1512 11.5708 14.9856 11.5708C14.8199 11.5708 14.6856 11.7051 14.6856 11.8708C14.6856 12.0365 14.8199 12.1708 14.9856 12.1708ZM14.0856 12.4706C14.0856 12.6364 13.9513 12.7706 13.7856 12.7706C13.6199 12.7706 13.4856 12.6364 13.4856 12.4706C13.4856 12.305 13.6199 12.1707 13.7856 12.1707C13.9513 12.1707 14.0856 12.305 14.0856 12.4706ZM14.9856 13.3705C15.1512 13.3705 15.2856 13.2362 15.2856 13.0705C15.2856 12.9048 15.1512 12.7705 14.9856 12.7705C14.8199 12.7705 14.6856 12.9048 14.6856 13.0705C14.6856 13.2362 14.8199 13.3705 14.9856 13.3705ZM14.0856 13.6703C14.0856 13.8361 13.9513 13.9703 13.7856 13.9703C13.6199 13.9703 13.4856 13.8361 13.4856 13.6703C13.4856 13.5047 13.6199 13.3704 13.7856 13.3704C13.9513 13.3704 14.0856 13.5047 14.0856 13.6703ZM13.7856 15.1708C13.9513 15.1708 14.0856 15.0365 14.0856 14.8708C14.0856 14.7051 13.9513 14.5708 13.7856 14.5708C13.6199 14.5708 13.4856 14.7051 13.4856 14.8708C13.4856 15.0365 13.6199 15.1708 13.7856 15.1708ZM15.2856 14.2707C15.2856 14.4364 15.1512 14.5707 14.9856 14.5707C14.8199 14.5707 14.6856 14.4364 14.6856 14.2707C14.6856 14.105 14.8199 13.9707 14.9856 13.9707C15.1512 13.9707 15.2856 14.105 15.2856 14.2707ZM14.9856 15.7706C15.1512 15.7706 15.2856 15.6364 15.2856 15.4706C15.2856 15.305 15.1512 15.1707 14.9856 15.1707C14.8199 15.1707 14.6856 15.305 14.6856 15.4706C14.6856 15.6364 14.8199 15.7706 14.9856 15.7706ZM16.1856 12.7706C16.3513 12.7706 16.4856 12.6364 16.4856 12.4706C16.4856 12.305 16.3513 12.1707 16.1856 12.1707C16.0199 12.1707 15.8856 12.305 15.8856 12.4706C15.8856 12.6364 16.0199 12.7706 16.1856 12.7706ZM17.6856 13.0705C17.6856 13.2362 17.5513 13.3705 17.3856 13.3705C17.2199 13.3705 17.0856 13.2362 17.0856 13.0705C17.0856 12.9048 17.2199 12.7705 17.3856 12.7705C17.5513 12.7705 17.6856 12.9048 17.6856 13.0705ZM16.1856 13.9703C16.3513 13.9703 16.4856 13.8361 16.4856 13.6703C16.4856 13.5047 16.3513 13.3704 16.1856 13.3704C16.0199 13.3704 15.8856 13.5047 15.8856 13.6703C15.8856 13.8361 16.0199 13.9703 16.1856 13.9703ZM16.4856 14.8708C16.4856 15.0365 16.3513 15.1708 16.1856 15.1708C16.0199 15.1708 15.8856 15.0365 15.8856 14.8708C15.8856 14.7051 16.0199 14.5708 16.1856 14.5708C16.3513 14.5708 16.4856 14.7051 16.4856 14.8708ZM17.3856 14.5707C17.5513 14.5707 17.6856 14.4364 17.6856 14.2707C17.6856 14.105 17.5513 13.9707 17.3856 13.9707C17.2199 13.9707 17.0856 14.105 17.0856 14.2707C17.0856 14.4364 17.2199 14.5707 17.3856 14.5707ZM17.6856 15.4706C17.6856 15.6364 17.5513 15.7706 17.3856 15.7706C17.2199 15.7706 17.0856 15.6364 17.0856 15.4706C17.0856 15.305 17.2199 15.1707 17.3856 15.1707C17.5513 15.1707 17.6856 15.305 17.6856 15.4706ZM18.5855 13.9703C18.7512 13.9703 18.8855 13.8361 18.8855 13.6703C18.8855 13.5047 18.7512 13.3704 18.5855 13.3704C18.4198 13.3704 18.2855 13.5047 18.2855 13.6703C18.2855 13.8361 18.4198 13.9703 18.5855 13.9703ZM18.8855 14.8708C18.8855 15.0365 18.7512 15.1708 18.5855 15.1708C18.4198 15.1708 18.2855 15.0365 18.2855 14.8708C18.2855 14.7051 18.4198 14.5708 18.5855 14.5708C18.7512 14.5708 18.8855 14.7051 18.8855 14.8708ZM22.1856 15.7706C22.3513 15.7706 22.4856 15.6364 22.4856 15.4706C22.4856 15.305 22.3513 15.1707 22.1856 15.1707C22.0199 15.1707 21.8856 15.305 21.8856 15.4706C21.8856 15.6364 22.0199 15.7706 22.1856 15.7706ZM23.6856 16.0705C23.6856 16.2362 23.5513 16.3705 23.3856 16.3705C23.2199 16.3705 23.0856 16.2362 23.0856 16.0705C23.0856 15.9048 23.2199 15.7705 23.3856 15.7705C23.5513 15.7705 23.6856 15.9048 23.6856 16.0705ZM24.5855 16.9703C24.7512 16.9703 24.8855 16.8361 24.8855 16.6703C24.8855 16.5047 24.7512 16.3704 24.5855 16.3704C24.4198 16.3704 24.2855 16.5047 24.2855 16.6703C24.2855 16.8361 24.4198 16.9703 24.5855 16.9703ZM2.98543 18.1708C3.15111 18.1708 3.28544 18.0365 3.28544 17.8708C3.28544 17.7051 3.15111 17.5708 2.98543 17.5708C2.81974 17.5708 2.68543 17.7051 2.68543 17.8708C2.68543 18.0365 2.81974 18.1708 2.98543 18.1708ZM2.98543 21.7706C3.15111 21.7706 3.28544 21.6364 3.28544 21.4706C3.28544 21.305 3.15111 21.1707 2.98543 21.1707C2.81974 21.1707 2.68543 21.305 2.68543 21.4706C2.68543 21.6364 2.81974 21.7706 2.98543 21.7706ZM2.98543 22.9703C3.15111 22.9703 3.28544 22.8361 3.28544 22.6703C3.28544 22.5047 3.15111 22.3704 2.98543 22.3704C2.81974 22.3704 2.68543 22.5047 2.68543 22.6703C2.68543 22.8361 2.81974 22.9703 2.98543 22.9703ZM4.48551 17.2704C4.48551 17.4362 4.35119 17.5704 4.18551 17.5704C4.01981 17.5704 3.8855 17.4362 3.8855 17.2704C3.8855 17.1048 4.01981 16.9705 4.18551 16.9705C4.35119 16.9705 4.48551 17.1048 4.48551 17.2704ZM4.18551 21.1708C4.35119 21.1708 4.48551 21.0365 4.48551 20.8708C4.48551 20.7051 4.35119 20.5708 4.18551 20.5708C4.01981 20.5708 3.8855 20.7051 3.8855 20.8708C3.8855 21.0365 4.01981 21.1708 4.18551 21.1708ZM5.68546 20.2704C5.68546 20.4362 5.55114 20.5704 5.38546 20.5704C5.21976 20.5704 5.08546 20.4362 5.08546 20.2704C5.08546 20.1048 5.21976 19.9705 5.38546 19.9705C5.55114 19.9705 5.68546 20.1048 5.68546 20.2704ZM5.38546 21.7706C5.55114 21.7706 5.68546 21.6364 5.68546 21.4706C5.68546 21.305 5.55114 21.1707 5.38546 21.1707C5.21976 21.1707 5.08546 21.305 5.08546 21.4706C5.08546 21.6364 5.21976 21.7706 5.38546 21.7706ZM4.48551 22.0705C4.48551 22.2362 4.35119 22.3705 4.18551 22.3705C4.01981 22.3705 3.8855 22.2362 3.8855 22.0705C3.8855 21.9048 4.01981 21.7705 4.18551 21.7705C4.35119 21.7705 4.48551 21.9048 4.48551 22.0705ZM5.38546 22.9703C5.55114 22.9703 5.68546 22.8361 5.68546 22.6703C5.68546 22.5047 5.55114 22.3704 5.38546 22.3704C5.21976 22.3704 5.08546 22.5047 5.08546 22.6703C5.08546 22.8361 5.21976 22.9703 5.38546 22.9703ZM7.78548 19.3705C7.95116 19.3705 8.08549 19.2362 8.08549 19.0705C8.08549 18.9048 7.95116 18.7705 7.78548 18.7705C7.61979 18.7705 7.48548 18.9048 7.48548 19.0705C7.48548 19.2362 7.61979 19.3705 7.78548 19.3705ZM6.88541 19.6703C6.88541 19.8361 6.75109 19.9703 6.58541 19.9703C6.41971 19.9703 6.28541 19.8361 6.28541 19.6703C6.28541 19.5047 6.41971 19.3704 6.58541 19.3704C6.75109 19.3704 6.88541 19.5047 6.88541 19.6703ZM6.58541 21.1708C6.75109 21.1708 6.88541 21.0365 6.88541 20.8708C6.88541 20.7051 6.75109 20.5708 6.58541 20.5708C6.41971 20.5708 6.28541 20.7051 6.28541 20.8708C6.28541 21.0365 6.41971 21.1708 6.58541 21.1708ZM8.08549 20.2704C8.08549 20.4362 7.95116 20.5704 7.78548 20.5704C7.61979 20.5704 7.48548 20.4362 7.48548 20.2704C7.48548 20.1048 7.61979 19.9705 7.78548 19.9705C7.95116 19.9705 8.08549 20.1048 8.08549 20.2704ZM7.78548 21.7706C7.95116 21.7706 8.08549 21.6364 8.08549 21.4706C8.08549 21.305 7.95116 21.1707 7.78548 21.1707C7.61979 21.1707 7.48548 21.305 7.48548 21.4706C7.48548 21.6364 7.61979 21.7706 7.78548 21.7706ZM6.88541 22.0705C6.88541 22.2362 6.75109 22.3705 6.58541 22.3705C6.41971 22.3705 6.28541 22.2362 6.28541 22.0705C6.28541 21.9048 6.41971 21.7705 6.58541 21.7705C6.75109 21.7705 6.88541 21.9048 6.88541 22.0705ZM8.98556 18.7706C9.15124 18.7706 9.28556 18.6364 9.28556 18.4706C9.28556 18.305 9.15124 18.1707 8.98556 18.1707C8.81986 18.1707 8.68555 18.305 8.68555 18.4706C8.68555 18.6364 8.81986 18.7706 8.98556 18.7706ZM10.4856 19.0705C10.4856 19.2362 10.3513 19.3705 10.1856 19.3705C10.0199 19.3705 9.88563 19.2362 9.88563 19.0705C9.88563 18.9048 10.0199 18.7705 10.1856 18.7705C10.3513 18.7705 10.4856 18.9048 10.4856 19.0705ZM8.98556 19.9703C9.15124 19.9703 9.28556 19.8361 9.28556 19.6703C9.28556 19.5047 9.15124 19.3704 8.98556 19.3704C8.81986 19.3704 8.68555 19.5047 8.68555 19.6703C8.68555 19.8361 8.81986 19.9703 8.98556 19.9703ZM9.28556 20.8708C9.28556 21.0365 9.15124 21.1708 8.98556 21.1708C8.81986 21.1708 8.68555 21.0365 8.68555 20.8708C8.68555 20.7051 8.81986 20.5708 8.98556 20.5708C9.15124 20.5708 9.28556 20.7051 9.28556 20.8708ZM10.1856 20.5704C10.3513 20.5704 10.4856 20.4362 10.4856 20.2704C10.4856 20.1048 10.3513 19.9705 10.1856 19.9705C10.0199 19.9705 9.88563 20.1048 9.88563 20.2704C9.88563 20.4362 10.0199 20.5704 10.1856 20.5704ZM10.4856 21.4706C10.4856 21.6364 10.3513 21.7706 10.1856 21.7706C10.0199 21.7706 9.88563 21.6364 9.88563 21.4706C9.88563 21.305 10.0199 21.1707 10.1856 21.1707C10.3513 21.1707 10.4856 21.305 10.4856 21.4706ZM11.6856 19.6703C11.6856 19.8361 11.5513 19.9703 11.3856 19.9703C11.2199 19.9703 11.0856 19.8361 11.0856 19.6703C11.0856 19.5047 11.2199 19.3704 11.3856 19.3704C11.5513 19.3704 11.6856 19.5047 11.6856 19.6703ZM11.3856 21.1708C11.5513 21.1708 11.6856 21.0365 11.6856 20.8708C11.6856 20.7051 11.5513 20.5708 11.3856 20.5708C11.2199 20.5708 11.0856 20.7051 11.0856 20.8708C11.0856 21.0365 11.2199 21.1708 11.3856 21.1708ZM12.8854 20.2704C12.8854 20.4362 12.7511 20.5704 12.5854 20.5704C12.4197 20.5704 12.2854 20.4362 12.2854 20.2704C12.2854 20.1048 12.4197 19.9705 12.5854 19.9705C12.7511 19.9705 12.8854 20.1048 12.8854 20.2704ZM4.48551 23.2704C4.48551 23.4362 4.35119 23.5704 4.18551 23.5704C4.01981 23.5704 3.8855 23.4362 3.8855 23.2704C3.8855 23.1048 4.01981 22.9705 4.18551 22.9705C4.35119 22.9705 4.48551 23.1048 4.48551 23.2704Z"
        fill="#B89B64" fill-rule="evenodd" />
</svg>
