<svg fill="none" height="38" viewBox="0 0 30 38" width="30" xmlns="http://www.w3.org/2000/svg">
    <path clip-rule="evenodd"
        d="M9.98219 2.07862C9.82173 1.27638 9.04797 0.750682 8.24299 0.896983L5.01406 1.48408C4.30082 1.61378 3.78239 2.23494 3.78239 2.95991V9.93916C3.19897 11.0913 2.87024 12.3942 2.87024 13.774V17.5881H2.63379C1.25307 17.5881 0.133789 18.7074 0.133789 20.0881V32.0507C0.133789 33.4313 1.25307 34.5507 2.63379 34.5507H2.9538C3.30225 36.1164 4.69954 37.287 6.37023 37.287H23.63C25.3007 37.287 26.698 36.1164 27.0464 34.5507H27.3664C28.7472 34.5507 29.8664 33.4313 29.8664 32.0507V20.0881C29.8664 18.7074 28.7472 17.5881 27.3664 17.5881H27.13V13.774C27.13 12.3943 26.8013 11.0913 26.2178 9.93922V2.95991C26.2178 2.23494 25.6994 1.61378 24.9862 1.48408L21.7572 0.896983C20.9523 0.750682 20.1785 1.27638 20.018 2.07862L19.6202 4.06806C19.4857 4.74055 18.9139 5.23225 18.2365 5.27137V5.03767C18.2365 3.65693 17.1173 2.53767 15.7365 2.53767H14.2637C12.883 2.53767 11.7637 3.65693 11.7637 5.03767V5.27137C11.0863 5.23225 10.5146 4.74049 10.3801 4.06806L9.98219 2.07862ZM25.2178 2.95991V8.40235C23.9439 6.84187 22.1266 5.74244 20.0545 5.39283C20.3226 5.07759 20.515 4.69294 20.6007 4.26417L20.9986 2.27473C21.0521 2.00734 21.31 1.8321 21.5784 1.88087L24.8073 2.46797C25.045 2.51118 25.2178 2.71827 25.2178 2.95991ZM9.94576 5.39283C9.67765 5.07759 9.48524 4.69294 9.3995 4.26417L9.00161 2.27473C8.94812 2.00734 8.6902 1.8321 8.42188 1.88087L5.19295 2.46797C4.9552 2.51118 4.78239 2.71827 4.78239 2.95991V8.40235C6.05631 6.84187 7.87367 5.74244 9.94576 5.39283ZM14.2637 3.53767C13.4352 3.53767 12.7637 4.20924 12.7637 5.03767V5.274H17.2365V5.03767C17.2365 4.20924 16.565 3.53767 15.7365 3.53767H14.2637ZM27.3664 33.5507H27.13V18.5881H27.3664C28.1949 18.5881 28.8664 19.2597 28.8664 20.0881V32.0507C28.8664 32.8791 28.1949 33.5507 27.3664 33.5507ZM2.80399 18.5881C2.82394 18.6054 2.8462 18.62 2.87024 18.6315V19.2907C2.76956 19.3391 2.70007 19.4421 2.70007 19.5612C2.70007 19.6804 2.76956 19.7833 2.87024 19.8317V20.4909C2.76956 20.5393 2.70007 20.6423 2.70007 20.7614C2.70007 20.8806 2.76956 20.9835 2.87024 21.0319V21.6906C2.76956 21.739 2.70007 21.842 2.70007 21.9611C2.70007 22.0803 2.76956 22.1832 2.87024 22.2316V22.8906C2.76956 22.939 2.70007 23.0419 2.70007 23.1611C2.70007 23.2803 2.76956 23.3832 2.87024 23.4316V24.0905C2.76956 24.1389 2.70007 24.2419 2.70007 24.361C2.70007 24.4802 2.76956 24.5831 2.87024 24.6315V25.2907C2.76956 25.3391 2.70007 25.4421 2.70007 25.5612C2.70007 25.6804 2.76956 25.7833 2.87024 25.8317V26.4907C2.76956 26.5391 2.70007 26.642 2.70007 26.7612C2.70007 26.8804 2.76956 26.9833 2.87024 27.0317V27.6906C2.76956 27.739 2.70007 27.842 2.70007 27.9611C2.70007 28.0803 2.76956 28.1832 2.87024 28.2316V28.8906C2.76956 28.939 2.70007 29.0419 2.70007 29.1611C2.70007 29.2803 2.76956 29.3832 2.87024 29.4316V30.0905C2.76956 30.1389 2.70007 30.2419 2.70007 30.361C2.70007 30.4802 2.76956 30.5831 2.87024 30.6315V31.2907C2.76956 31.3391 2.70007 31.4421 2.70007 31.5612C2.70007 31.6804 2.76956 31.7833 2.87024 31.8317V32.4907C2.76956 32.5391 2.70007 32.642 2.70007 32.7612C2.70007 32.8804 2.76956 32.9833 2.87024 33.0317V33.5507H2.63379C2.44093 33.5507 2.25658 33.5142 2.08721 33.4479C2.09553 33.4204 2.10001 33.3912 2.10001 33.361C2.10001 33.1954 1.96569 33.061 1.8 33.061C1.72314 33.061 1.65304 33.09 1.59995 33.1375C1.31279 32.8643 1.13379 32.4783 1.13379 32.0507V20.0881C1.13379 19.6995 1.28158 19.3454 1.52401 19.0789C1.56979 19.186 1.67612 19.2611 1.8 19.2611C1.96569 19.2611 2.10001 19.1268 2.10001 18.9611C2.10001 18.869 2.05842 18.7865 1.99299 18.7315C2.1873 18.6395 2.40454 18.5881 2.63379 18.5881H2.80399ZM4.23296 11.4632C5.20723 8.45179 8.0344 6.274 11.3702 6.274H18.63C22.7721 6.274 26.13 9.63185 26.13 13.774V33.787C26.13 34.9014 25.4008 35.8455 24.3935 36.1682V15.5273C24.3935 14.1466 23.2743 13.0273 21.8935 13.0273H8.10669C6.72598 13.0273 5.60669 14.1466 5.60669 15.5273V15.7436C5.55289 15.6925 5.48016 15.6611 5.4001 15.6611C5.23441 15.6611 5.1001 15.7955 5.1001 15.9611C5.1001 16.1268 5.23441 16.2611 5.4001 16.2611C5.48016 16.2611 5.55289 16.2297 5.60669 16.1787V16.9438C5.55289 16.8927 5.48016 16.8613 5.4001 16.8613C5.23441 16.8613 5.1001 16.9957 5.1001 17.1613C5.1001 17.327 5.23441 17.4613 5.4001 17.4613C5.48016 17.4613 5.55289 17.4299 5.60669 17.3789V18.1435C5.55289 18.0924 5.48016 18.061 5.4001 18.061C5.23441 18.061 5.1001 18.1954 5.1001 18.361C5.1001 18.5267 5.23441 18.661 5.4001 18.661C5.48016 18.661 5.55289 18.6297 5.60669 18.5786V19.3437C5.55289 19.2926 5.48016 19.2612 5.4001 19.2612C5.23441 19.2612 5.1001 19.3956 5.1001 19.5612C5.1001 19.7269 5.23441 19.8612 5.4001 19.8612C5.48016 19.8612 5.55289 19.8298 5.60669 19.7788V20.5439C5.55289 20.4928 5.48016 20.4614 5.4001 20.4614C5.23441 20.4614 5.1001 20.5958 5.1001 20.7614C5.1001 20.9271 5.23441 21.0614 5.4001 21.0614C5.48016 21.0614 5.55289 21.03 5.60669 20.979V21.7436C5.55289 21.6925 5.48016 21.6611 5.4001 21.6611C5.23441 21.6611 5.1001 21.7955 5.1001 21.9611C5.1001 22.1268 5.23441 22.2611 5.4001 22.2611C5.48016 22.2611 5.55289 22.2297 5.60669 22.1787V22.9436C5.55289 22.8925 5.48016 22.8611 5.4001 22.8611C5.23441 22.8611 5.1001 22.9954 5.1001 23.1611C5.1001 23.3268 5.23441 23.4611 5.4001 23.4611C5.48016 23.4611 5.55289 23.4297 5.60669 23.3786V24.1435C5.55289 24.0924 5.48016 24.061 5.4001 24.061C5.23441 24.061 5.1001 24.1954 5.1001 24.361C5.1001 24.5267 5.23441 24.661 5.4001 24.661C5.48016 24.661 5.55289 24.6297 5.60669 24.5786V25.3437C5.55289 25.2926 5.48016 25.2612 5.4001 25.2612C5.23441 25.2612 5.1001 25.3956 5.1001 25.5612C5.1001 25.7269 5.23441 25.8612 5.4001 25.8612C5.48016 25.8612 5.55289 25.8298 5.60669 25.7788V26.5437C5.55289 26.4926 5.48016 26.4612 5.4001 26.4612C5.23441 26.4612 5.1001 26.5955 5.1001 26.7612C5.1001 26.9269 5.23441 27.0612 5.4001 27.0612C5.48016 27.0612 5.55289 27.0298 5.60669 26.9787V27.7436C5.55289 27.6925 5.48016 27.6611 5.4001 27.6611C5.23441 27.6611 5.1001 27.7955 5.1001 27.9611C5.1001 28.1268 5.23441 28.2611 5.4001 28.2611C5.48016 28.2611 5.55289 28.2297 5.60669 28.1787V28.9436C5.55289 28.8925 5.48016 28.8611 5.4001 28.8611C5.23441 28.8611 5.1001 28.9954 5.1001 29.1611C5.1001 29.3268 5.23441 29.4611 5.4001 29.4611C5.48016 29.4611 5.55289 29.4297 5.60669 29.3786V30.1435C5.55289 30.0924 5.48016 30.061 5.4001 30.061C5.23441 30.061 5.1001 30.1954 5.1001 30.361C5.1001 30.5267 5.23441 30.661 5.4001 30.661C5.48016 30.661 5.55289 30.6297 5.60669 30.5786V31.3437C5.55289 31.2926 5.48016 31.2612 5.4001 31.2612C5.23441 31.2612 5.1001 31.3956 5.1001 31.5612C5.1001 31.7269 5.23441 31.8612 5.4001 31.8612C5.48016 31.8612 5.55289 31.8298 5.60669 31.7788V32.5437C5.55289 32.4926 5.48016 32.4612 5.4001 32.4612C5.23441 32.4612 5.1001 32.5955 5.1001 32.7612C5.1001 32.9269 5.23441 33.0612 5.4001 33.0612C5.48016 33.0612 5.55289 33.0298 5.60669 32.9787V33.7436C5.55289 33.6925 5.48016 33.6611 5.4001 33.6611C5.23441 33.6611 5.1001 33.7955 5.1001 33.9611C5.1001 34.1268 5.23441 34.2611 5.4001 34.2611C5.48016 34.2611 5.55289 34.2297 5.60669 34.1787V34.9438C5.55289 34.8927 5.48016 34.8613 5.4001 34.8613C5.23441 34.8613 5.1001 34.9957 5.1001 35.1613C5.1001 35.327 5.23441 35.4613 5.4001 35.4613C5.48016 35.4613 5.55289 35.4299 5.60669 35.3789V36.1435C5.55289 36.0924 5.48016 36.061 5.4001 36.061C5.38036 36.061 5.36108 36.0629 5.34241 36.0666C4.79833 35.8209 4.35796 35.3861 4.10502 34.8461C4.13487 34.856 4.16682 34.8615 4.20003 34.8615C4.36572 34.8615 4.50003 34.7272 4.50003 34.5615C4.50003 34.3958 4.36572 34.2615 4.20003 34.2615C4.09322 34.2615 3.99945 34.3173 3.94629 34.4014C3.89662 34.2048 3.87024 33.999 3.87024 33.787V13.774C3.87024 13.5216 3.88271 13.272 3.90707 13.026C3.93673 13.1605 4.05663 13.2611 4.20003 13.2611C4.36572 13.2611 4.50003 13.1268 4.50003 12.9611C4.50003 12.7955 4.36572 12.6611 4.20003 12.6611C4.08019 12.6611 3.97677 12.7315 3.9287 12.833C3.96266 12.5617 4.01112 12.2949 4.07326 12.0334C4.11176 12.0514 4.15472 12.0614 4.20003 12.0614C4.36572 12.0614 4.50003 11.9271 4.50003 11.7614C4.50003 11.6069 4.38316 11.4796 4.23296 11.4632ZM22.4909 36.287H23.3935V36.0611C23.2309 36.0576 23.1002 35.9246 23.1002 35.7612C23.1002 35.5978 23.2309 35.4648 23.3935 35.4613V34.8614C23.2309 34.8579 23.1002 34.7249 23.1002 34.5615C23.1002 34.3981 23.2309 34.2651 23.3935 34.2615V33.661C23.2309 33.6574 23.1002 33.5245 23.1002 33.361C23.1002 33.1976 23.2309 33.0646 23.3935 33.0611V32.4613C23.2309 32.4577 23.1002 32.3248 23.1002 32.1613C23.1002 31.9979 23.2309 31.8649 23.3935 31.8614V15.5273C23.3935 14.6989 22.722 14.0273 21.8935 14.0273H8.10669C7.27826 14.0273 6.60669 14.6989 6.60669 15.5273V23.4613C6.76931 23.4648 6.90005 23.5977 6.90005 23.7612C6.90005 23.9247 6.76931 24.0576 6.60669 24.0611V24.6612C6.76931 24.6647 6.90005 24.7977 6.90005 24.9611C6.90005 25.1246 6.76931 25.2575 6.60669 25.2611V25.8612C6.76931 25.8647 6.90005 25.9976 6.90005 26.1611C6.90005 26.3246 6.76931 26.4575 6.60669 26.461V27.0611C6.76931 27.0646 6.90005 27.1976 6.90005 27.361C6.90005 27.5245 6.76931 27.6574 6.60669 27.661V28.2613C6.76931 28.2648 6.90005 28.3978 6.90005 28.5612C6.90005 28.7247 6.76931 28.8576 6.60669 28.8612V29.4613C6.76931 29.4648 6.90005 29.5977 6.90005 29.7612C6.90005 29.9247 6.76931 30.0576 6.60669 30.0611V30.6612C6.76931 30.6647 6.90005 30.7977 6.90005 30.9611C6.90005 31.1246 6.76931 31.2575 6.60669 31.2611V31.8614C6.76931 31.8649 6.90005 31.9979 6.90005 32.1613C6.90005 32.3248 6.76931 32.4577 6.60669 32.4613V33.0611C6.76931 33.0646 6.90005 33.1976 6.90005 33.361C6.90005 33.5245 6.76931 33.6574 6.60669 33.661V34.2615C6.76931 34.2651 6.90005 34.398 6.90005 34.5615C6.90005 34.725 6.76931 34.8579 6.60669 34.8614V35.4613C6.76931 35.4648 6.90005 35.5977 6.90005 35.7612C6.90005 35.9247 6.76931 36.0576 6.60669 36.0611V36.287H7.50921C7.54218 36.1571 7.65987 36.061 7.8 36.061C7.94013 36.061 8.05782 36.1571 8.0908 36.287H9.90936C9.94233 36.1571 10.06 36.061 10.2001 36.061C10.3403 36.061 10.458 36.1571 10.4909 36.287H12.3094C12.3424 36.1571 12.46 36.061 12.6002 36.061C12.7403 36.061 12.858 36.1571 12.891 36.287H14.7094C14.7424 36.1571 14.8601 36.061 15.0002 36.061C15.1403 36.061 15.258 36.1571 15.291 36.287H17.1094C17.1424 36.1571 17.2601 36.061 17.4002 36.061C17.5404 36.061 17.658 36.1571 17.691 36.287H19.5093C19.5423 36.1571 19.66 36.061 19.8001 36.061C19.9403 36.061 20.0579 36.1571 20.0909 36.287H21.9094C21.9423 36.1571 22.06 36.061 22.2001 36.061C22.3403 36.061 22.458 36.1571 22.4909 36.287ZM7.93098 17.2197H21.6132V16.2197H7.93098V17.2197ZM11.9917 9.51045C11.9917 8.68202 12.6633 8.01045 13.4917 8.01045H16.0525C16.8809 8.01045 17.5525 8.68202 17.5525 9.51045V9.79084C17.5525 10.6193 16.8809 11.2908 16.0525 11.2908H13.4917C12.6633 11.2908 11.9917 10.6193 11.9917 9.79084V9.51045ZM13.4917 9.01045C13.2156 9.01045 12.9917 9.23432 12.9917 9.51045V9.79084C12.9917 10.067 13.2156 10.2908 13.4917 10.2908H16.0525C16.3286 10.2908 16.5525 10.067 16.5525 9.79084V9.51045C16.5525 9.23432 16.3286 9.01045 16.0525 9.01045H13.4917ZM5.7001 9.96113C5.7001 10.1268 5.56579 10.2611 5.4001 10.2611C5.23441 10.2611 5.1001 10.1268 5.1001 9.96113C5.1001 9.79548 5.23441 9.66114 5.4001 9.66114C5.56579 9.66114 5.7001 9.79548 5.7001 9.96113ZM1.8 22.8612C1.96569 22.8612 2.10001 22.7269 2.10001 22.5612C2.10001 22.3956 1.96569 22.2612 1.8 22.2612C1.63432 22.2612 1.5 22.3956 1.5 22.5612C1.5 22.7269 1.63432 22.8612 1.8 22.8612ZM2.10001 23.7612C2.10001 23.9269 1.96569 24.0612 1.8 24.0612C1.63432 24.0612 1.5 23.9269 1.5 23.7612C1.5 23.5955 1.63432 23.4612 1.8 23.4612C1.96569 23.4612 2.10001 23.5955 2.10001 23.7612ZM1.8 25.2611C1.96569 25.2611 2.10001 25.1268 2.10001 24.9611C2.10001 24.7955 1.96569 24.6611 1.8 24.6611C1.63432 24.6611 1.5 24.7955 1.5 24.9611C1.5 25.1268 1.63432 25.2611 1.8 25.2611ZM1.8 26.4611C1.96569 26.4611 2.10001 26.3268 2.10001 26.1611C2.10001 25.9954 1.96569 25.8611 1.8 25.8611C1.63432 25.8611 1.5 25.9954 1.5 26.1611C1.5 26.3268 1.63432 26.4611 1.8 26.4611ZM2.10001 27.361C2.10001 27.5267 1.96569 27.661 1.8 27.661C1.63432 27.661 1.5 27.5267 1.5 27.361C1.5 27.1954 1.63432 27.061 1.8 27.061C1.96569 27.061 2.10001 27.1954 2.10001 27.361ZM1.8 28.8612C1.96569 28.8612 2.10001 28.7269 2.10001 28.5612C2.10001 28.3956 1.96569 28.2612 1.8 28.2612C1.63432 28.2612 1.5 28.3956 1.5 28.5612C1.5 28.7269 1.63432 28.8612 1.8 28.8612ZM1.8 30.0612C1.96569 30.0612 2.10001 29.9269 2.10001 29.7612C2.10001 29.5955 1.96569 29.4612 1.8 29.4612C1.63432 29.4612 1.5 29.5955 1.5 29.7612C1.5 29.9269 1.63432 30.0612 1.8 30.0612ZM2.10001 30.9611C2.10001 31.1268 1.96569 31.2611 1.8 31.2611C1.63432 31.2611 1.5 31.1268 1.5 30.9611C1.5 30.7955 1.63432 30.6611 1.8 30.6611C1.96569 30.6611 2.10001 30.7955 2.10001 30.9611ZM1.8 32.4613C1.96569 32.4613 2.10001 32.327 2.10001 32.1613C2.10001 31.9957 1.96569 31.8613 1.8 31.8613C1.63432 31.8613 1.5 31.9957 1.5 32.1613C1.5 32.327 1.63432 32.4613 1.8 32.4613ZM4.20003 22.8612C4.36572 22.8612 4.50003 22.7269 4.50003 22.5612C4.50003 22.3956 4.36572 22.2612 4.20003 22.2612C4.03434 22.2612 3.90002 22.3956 3.90002 22.5612C3.90002 22.7269 4.03434 22.8612 4.20003 22.8612ZM4.50003 23.7612C4.50003 23.9269 4.36572 24.0612 4.20003 24.0612C4.03434 24.0612 3.90002 23.9269 3.90002 23.7612C3.90002 23.5955 4.03434 23.4612 4.20003 23.4612C4.36572 23.4612 4.50003 23.5955 4.50003 23.7612ZM4.20003 25.2611C4.36572 25.2611 4.50003 25.1268 4.50003 24.9611C4.50003 24.7955 4.36572 24.6611 4.20003 24.6611C4.03434 24.6611 3.90002 24.7955 3.90002 24.9611C3.90002 25.1268 4.03434 25.2611 4.20003 25.2611ZM4.20003 26.4611C4.36572 26.4611 4.50003 26.3268 4.50003 26.1611C4.50003 25.9954 4.36572 25.8611 4.20003 25.8611C4.03434 25.8611 3.90002 25.9954 3.90002 26.1611C3.90002 26.3268 4.03434 26.4611 4.20003 26.4611ZM4.50003 27.361C4.50003 27.5267 4.36572 27.661 4.20003 27.661C4.03434 27.661 3.90002 27.5267 3.90002 27.361C3.90002 27.1954 4.03434 27.061 4.20003 27.061C4.36572 27.061 4.50003 27.1954 4.50003 27.361ZM4.20003 28.8612C4.36572 28.8612 4.50003 28.7269 4.50003 28.5612C4.50003 28.3956 4.36572 28.2612 4.20003 28.2612C4.03434 28.2612 3.90002 28.3956 3.90002 28.5612C3.90002 28.7269 4.03434 28.8612 4.20003 28.8612ZM4.20003 30.0612C4.36572 30.0612 4.50003 29.9269 4.50003 29.7612C4.50003 29.5955 4.36572 29.4612 4.20003 29.4612C4.03434 29.4612 3.90002 29.5955 3.90002 29.7612C3.90002 29.9269 4.03434 30.0612 4.20003 30.0612ZM4.50003 30.9611C4.50003 31.1268 4.36572 31.2611 4.20003 31.2611C4.03434 31.2611 3.90002 31.1268 3.90002 30.9611C3.90002 30.7955 4.03434 30.6611 4.20003 30.6611C4.36572 30.6611 4.50003 30.7955 4.50003 30.9611ZM4.20003 32.4613C4.36572 32.4613 4.50003 32.327 4.50003 32.1613C4.50003 31.9957 4.36572 31.8613 4.20003 31.8613C4.03434 31.8613 3.90002 31.9957 3.90002 32.1613C3.90002 32.327 4.03434 32.4613 4.20003 32.4613ZM4.20003 33.661C4.36572 33.661 4.50003 33.5267 4.50003 33.361C4.50003 33.1954 4.36572 33.061 4.20003 33.061C4.03434 33.061 3.90002 33.1954 3.90002 33.361C3.90002 33.5267 4.03434 33.661 4.20003 33.661ZM7.8 24.661C7.96569 24.661 8.10001 24.5267 8.10001 24.361C8.10001 24.1954 7.96569 24.061 7.8 24.061C7.63432 24.061 7.5 24.1954 7.5 24.361C7.5 24.5267 7.63432 24.661 7.8 24.661ZM9.30008 24.9611C9.30008 25.1268 9.16576 25.2611 9.00008 25.2611C8.83439 25.2611 8.70007 25.1268 8.70007 24.9611C8.70007 24.7955 8.83439 24.6611 9.00008 24.6611C9.16576 24.6611 9.30008 24.7955 9.30008 24.9611ZM7.8 25.8612C7.96569 25.8612 8.10001 25.7269 8.10001 25.5612C8.10001 25.3956 7.96569 25.2612 7.8 25.2612C7.63432 25.2612 7.5 25.3956 7.5 25.5612C7.5 25.7269 7.63432 25.8612 7.8 25.8612ZM9.30008 26.1611C9.30008 26.3268 9.16576 26.4611 9.00008 26.4611C8.83439 26.4611 8.70007 26.3268 8.70007 26.1611C8.70007 25.9954 8.83439 25.8611 9.00008 25.8611C9.16576 25.8611 9.30008 25.9954 9.30008 26.1611ZM7.8 27.0612C7.96569 27.0612 8.10001 26.9269 8.10001 26.7612C8.10001 26.5955 7.96569 26.4612 7.8 26.4612C7.63432 26.4612 7.5 26.5955 7.5 26.7612C7.5 26.9269 7.63432 27.0612 7.8 27.0612ZM8.10001 27.9611C8.10001 28.1268 7.96569 28.2611 7.8 28.2611C7.63432 28.2611 7.5 28.1268 7.5 27.9611C7.5 27.7955 7.63432 27.6611 7.8 27.6611C7.96569 27.6611 8.10001 27.7955 8.10001 27.9611ZM9.00008 27.661C9.16576 27.661 9.30008 27.5267 9.30008 27.361C9.30008 27.1954 9.16576 27.061 9.00008 27.061C8.83439 27.061 8.70007 27.1954 8.70007 27.361C8.70007 27.5267 8.83439 27.661 9.00008 27.661ZM9.30008 28.5612C9.30008 28.7269 9.16576 28.8612 9.00008 28.8612C8.83439 28.8612 8.70007 28.7269 8.70007 28.5612C8.70007 28.3956 8.83439 28.2612 9.00008 28.2612C9.16576 28.2612 9.30008 28.3956 9.30008 28.5612ZM7.8 29.4611C7.96569 29.4611 8.10001 29.3268 8.10001 29.1611C8.10001 28.9954 7.96569 28.8611 7.8 28.8611C7.63432 28.8611 7.5 28.9954 7.5 29.1611C7.5 29.3268 7.63432 29.4611 7.8 29.4611ZM9.30008 29.7612C9.30008 29.9269 9.16576 30.0612 9.00008 30.0612C8.83439 30.0612 8.70007 29.9269 8.70007 29.7612C8.70007 29.5955 8.83439 29.4612 9.00008 29.4612C9.16576 29.4612 9.30008 29.5955 9.30008 29.7612ZM7.8 30.661C7.96569 30.661 8.10001 30.5267 8.10001 30.361C8.10001 30.1954 7.96569 30.061 7.8 30.061C7.63432 30.061 7.5 30.1954 7.5 30.361C7.5 30.5267 7.63432 30.661 7.8 30.661ZM8.10001 31.5612C8.10001 31.7269 7.96569 31.8612 7.8 31.8612C7.63432 31.8612 7.5 31.7269 7.5 31.5612C7.5 31.3956 7.63432 31.2612 7.8 31.2612C7.96569 31.2612 8.10001 31.3956 8.10001 31.5612ZM9.00008 31.2611C9.16576 31.2611 9.30008 31.1268 9.30008 30.9611C9.30008 30.7955 9.16576 30.6611 9.00008 30.6611C8.83439 30.6611 8.70007 30.7955 8.70007 30.9611C8.70007 31.1268 8.83439 31.2611 9.00008 31.2611ZM9.30008 32.1613C9.30008 32.327 9.16576 32.4613 9.00008 32.4613C8.83439 32.4613 8.70007 32.327 8.70007 32.1613C8.70007 31.9957 8.83439 31.8613 9.00008 31.8613C9.16576 31.8613 9.30008 31.9957 9.30008 32.1613ZM7.8 33.0612C7.96569 33.0612 8.10001 32.9269 8.10001 32.7612C8.10001 32.5955 7.96569 32.4612 7.8 32.4612C7.63432 32.4612 7.5 32.5955 7.5 32.7612C7.5 32.9269 7.63432 33.0612 7.8 33.0612ZM9.30008 33.361C9.30008 33.5267 9.16576 33.661 9.00008 33.661C8.83439 33.661 8.70007 33.5267 8.70007 33.361C8.70007 33.1954 8.83439 33.061 9.00008 33.061C9.16576 33.061 9.30008 33.1954 9.30008 33.361ZM10.2001 25.8612C10.3658 25.8612 10.5002 25.7269 10.5002 25.5612C10.5002 25.3956 10.3658 25.2612 10.2001 25.2612C10.0345 25.2612 9.90015 25.3956 9.90015 25.5612C9.90015 25.7269 10.0345 25.8612 10.2001 25.8612ZM11.7002 26.1611C11.7002 26.3268 11.5659 26.4611 11.4002 26.4611C11.2345 26.4611 11.1002 26.3268 11.1002 26.1611C11.1002 25.9954 11.2345 25.8611 11.4002 25.8611C11.5659 25.8611 11.7002 25.9954 11.7002 26.1611ZM10.2001 27.0612C10.3658 27.0612 10.5002 26.9269 10.5002 26.7612C10.5002 26.5955 10.3658 26.4612 10.2001 26.4612C10.0345 26.4612 9.90015 26.5955 9.90015 26.7612C9.90015 26.9269 10.0345 27.0612 10.2001 27.0612ZM10.5002 27.9611C10.5002 28.1268 10.3658 28.2611 10.2001 28.2611C10.0345 28.2611 9.90015 28.1268 9.90015 27.9611C9.90015 27.7955 10.0345 27.6611 10.2001 27.6611C10.3658 27.6611 10.5002 27.7955 10.5002 27.9611ZM11.4002 27.661C11.5659 27.661 11.7002 27.5267 11.7002 27.361C11.7002 27.1954 11.5659 27.061 11.4002 27.061C11.2345 27.061 11.1002 27.1954 11.1002 27.361C11.1002 27.5267 11.2345 27.661 11.4002 27.661ZM11.7002 28.5612C11.7002 28.7269 11.5659 28.8612 11.4002 28.8612C11.2345 28.8612 11.1002 28.7269 11.1002 28.5612C11.1002 28.3956 11.2345 28.2612 11.4002 28.2612C11.5659 28.2612 11.7002 28.3956 11.7002 28.5612ZM10.2001 29.4611C10.3658 29.4611 10.5002 29.3268 10.5002 29.1611C10.5002 28.9954 10.3658 28.8611 10.2001 28.8611C10.0345 28.8611 9.90015 28.9954 9.90015 29.1611C9.90015 29.3268 10.0345 29.4611 10.2001 29.4611ZM11.7002 29.7612C11.7002 29.9269 11.5659 30.0612 11.4002 30.0612C11.2345 30.0612 11.1002 29.9269 11.1002 29.7612C11.1002 29.5955 11.2345 29.4612 11.4002 29.4612C11.5659 29.4612 11.7002 29.5955 11.7002 29.7612ZM10.2001 30.661C10.3658 30.661 10.5002 30.5267 10.5002 30.361C10.5002 30.1954 10.3658 30.061 10.2001 30.061C10.0345 30.061 9.90015 30.1954 9.90015 30.361C9.90015 30.5267 10.0345 30.661 10.2001 30.661ZM10.5002 31.5612C10.5002 31.7269 10.3658 31.8612 10.2001 31.8612C10.0345 31.8612 9.90015 31.7269 9.90015 31.5612C9.90015 31.3956 10.0345 31.2612 10.2001 31.2612C10.3658 31.2612 10.5002 31.3956 10.5002 31.5612ZM11.4002 31.2611C11.5659 31.2611 11.7002 31.1268 11.7002 30.9611C11.7002 30.7955 11.5659 30.6611 11.4002 30.6611C11.2345 30.6611 11.1002 30.7955 11.1002 30.9611C11.1002 31.1268 11.2345 31.2611 11.4002 31.2611ZM11.7002 32.1613C11.7002 32.327 11.5659 32.4613 11.4002 32.4613C11.2345 32.4613 11.1002 32.327 11.1002 32.1613C11.1002 31.9957 11.2345 31.8613 11.4002 31.8613C11.5659 31.8613 11.7002 31.9957 11.7002 32.1613ZM10.2001 33.0612C10.3658 33.0612 10.5002 32.9269 10.5002 32.7612C10.5002 32.5955 10.3658 32.4612 10.2001 32.4612C10.0345 32.4612 9.90015 32.5955 9.90015 32.7612C9.90015 32.9269 10.0345 33.0612 10.2001 33.0612ZM11.7002 33.361C11.7002 33.5267 11.5659 33.661 11.4002 33.661C11.2345 33.661 11.1002 33.5267 11.1002 33.361C11.1002 33.1954 11.2345 33.061 11.4002 33.061C11.5659 33.061 11.7002 33.1954 11.7002 33.361ZM12.6002 27.0612C12.7659 27.0612 12.9002 26.9269 12.9002 26.7612C12.9002 26.5955 12.7659 26.4612 12.6002 26.4612C12.4345 26.4612 12.3002 26.5955 12.3002 26.7612C12.3002 26.9269 12.4345 27.0612 12.6002 27.0612ZM12.9002 27.9611C12.9002 28.1268 12.7659 28.2611 12.6002 28.2611C12.4345 28.2611 12.3002 28.1268 12.3002 27.9611C12.3002 27.7955 12.4345 27.6611 12.6002 27.6611C12.7659 27.6611 12.9002 27.7955 12.9002 27.9611ZM13.8 27.661C13.9657 27.661 14.1 27.5267 14.1 27.361C14.1 27.1954 13.9657 27.061 13.8 27.061C13.6343 27.061 13.5 27.1954 13.5 27.361C13.5 27.5267 13.6343 27.661 13.8 27.661ZM14.1 28.5612C14.1 28.7269 13.9657 28.8612 13.8 28.8612C13.6343 28.8612 13.5 28.7269 13.5 28.5612C13.5 28.3956 13.6343 28.2612 13.8 28.2612C13.9657 28.2612 14.1 28.3956 14.1 28.5612ZM12.6002 29.4611C12.7659 29.4611 12.9002 29.3268 12.9002 29.1611C12.9002 28.9954 12.7659 28.8611 12.6002 28.8611C12.4345 28.8611 12.3002 28.9954 12.3002 29.1611C12.3002 29.3268 12.4345 29.4611 12.6002 29.4611ZM14.1 29.7612C14.1 29.9269 13.9657 30.0612 13.8 30.0612C13.6343 30.0612 13.5 29.9269 13.5 29.7612C13.5 29.5955 13.6343 29.4612 13.8 29.4612C13.9657 29.4612 14.1 29.5955 14.1 29.7612ZM12.6002 30.661C12.7659 30.661 12.9002 30.5267 12.9002 30.361C12.9002 30.1954 12.7659 30.061 12.6002 30.061C12.4345 30.061 12.3002 30.1954 12.3002 30.361C12.3002 30.5267 12.4345 30.661 12.6002 30.661ZM12.9002 31.5612C12.9002 31.7269 12.7659 31.8612 12.6002 31.8612C12.4345 31.8612 12.3002 31.7269 12.3002 31.5612C12.3002 31.3956 12.4345 31.2612 12.6002 31.2612C12.7659 31.2612 12.9002 31.3956 12.9002 31.5612ZM13.8 31.2611C13.9657 31.2611 14.1 31.1268 14.1 30.9611C14.1 30.7955 13.9657 30.6611 13.8 30.6611C13.6343 30.6611 13.5 30.7955 13.5 30.9611C13.5 31.1268 13.6343 31.2611 13.8 31.2611ZM14.1 32.1613C14.1 32.327 13.9657 32.4613 13.8 32.4613C13.6343 32.4613 13.5 32.327 13.5 32.1613C13.5 31.9957 13.6343 31.8613 13.8 31.8613C13.9657 31.8613 14.1 31.9957 14.1 32.1613ZM12.6002 33.0612C12.7659 33.0612 12.9002 32.9269 12.9002 32.7612C12.9002 32.5955 12.7659 32.4612 12.6002 32.4612C12.4345 32.4612 12.3002 32.5955 12.3002 32.7612C12.3002 32.9269 12.4345 33.0612 12.6002 33.0612ZM14.1 33.361C14.1 33.5267 13.9657 33.661 13.8 33.661C13.6343 33.661 13.5 33.5267 13.5 33.361C13.5 33.1954 13.6343 33.061 13.8 33.061C13.9657 33.061 14.1 33.1954 14.1 33.361ZM15.0002 28.2611C15.1659 28.2611 15.3002 28.1268 15.3002 27.9611C15.3002 27.7955 15.1659 27.6611 15.0002 27.6611C14.8345 27.6611 14.7002 27.7955 14.7002 27.9611C14.7002 28.1268 14.8345 28.2611 15.0002 28.2611ZM16.5002 28.5612C16.5002 28.7269 16.3658 28.8612 16.2001 28.8612C16.0345 28.8612 15.9001 28.7269 15.9001 28.5612C15.9001 28.3956 16.0345 28.2612 16.2001 28.2612C16.3658 28.2612 16.5002 28.3956 16.5002 28.5612ZM15.0002 29.4611C15.1659 29.4611 15.3002 29.3268 15.3002 29.1611C15.3002 28.9954 15.1659 28.8611 15.0002 28.8611C14.8345 28.8611 14.7002 28.9954 14.7002 29.1611C14.7002 29.3268 14.8345 29.4611 15.0002 29.4611ZM16.5002 29.7612C16.5002 29.9269 16.3658 30.0612 16.2001 30.0612C16.0345 30.0612 15.9001 29.9269 15.9001 29.7612C15.9001 29.5955 16.0345 29.4612 16.2001 29.4612C16.3658 29.4612 16.5002 29.5955 16.5002 29.7612ZM15.0002 30.661C15.1659 30.661 15.3002 30.5267 15.3002 30.361C15.3002 30.1954 15.1659 30.061 15.0002 30.061C14.8345 30.061 14.7002 30.1954 14.7002 30.361C14.7002 30.5267 14.8345 30.661 15.0002 30.661ZM15.3002 31.5612C15.3002 31.7269 15.1659 31.8612 15.0002 31.8612C14.8345 31.8612 14.7002 31.7269 14.7002 31.5612C14.7002 31.3956 14.8345 31.2612 15.0002 31.2612C15.1659 31.2612 15.3002 31.3956 15.3002 31.5612ZM16.2001 31.2611C16.3658 31.2611 16.5002 31.1268 16.5002 30.9611C16.5002 30.7955 16.3658 30.6611 16.2001 30.6611C16.0345 30.6611 15.9001 30.7955 15.9001 30.9611C15.9001 31.1268 16.0345 31.2611 16.2001 31.2611ZM16.5002 32.1613C16.5002 32.327 16.3658 32.4613 16.2001 32.4613C16.0345 32.4613 15.9001 32.327 15.9001 32.1613C15.9001 31.9957 16.0345 31.8613 16.2001 31.8613C16.3658 31.8613 16.5002 31.9957 16.5002 32.1613ZM15.0002 33.0612C15.1659 33.0612 15.3002 32.9269 15.3002 32.7612C15.3002 32.5955 15.1659 32.4612 15.0002 32.4612C14.8345 32.4612 14.7002 32.5955 14.7002 32.7612C14.7002 32.9269 14.8345 33.0612 15.0002 33.0612ZM16.5002 33.361C16.5002 33.5267 16.3658 33.661 16.2001 33.661C16.0345 33.661 15.9001 33.5267 15.9001 33.361C15.9001 33.1954 16.0345 33.061 16.2001 33.061C16.3658 33.061 16.5002 33.1954 16.5002 33.361ZM17.4002 29.4611C17.5659 29.4611 17.7002 29.3268 17.7002 29.1611C17.7002 28.9954 17.5659 28.8611 17.4002 28.8611C17.2345 28.8611 17.1002 28.9954 17.1002 29.1611C17.1002 29.3268 17.2345 29.4611 17.4002 29.4611ZM18.9002 29.7612C18.9002 29.9269 18.7659 30.0612 18.6002 30.0612C18.4345 30.0612 18.3002 29.9269 18.3002 29.7612C18.3002 29.5955 18.4345 29.4612 18.6002 29.4612C18.7659 29.4612 18.9002 29.5955 18.9002 29.7612ZM17.4002 30.661C17.5659 30.661 17.7002 30.5267 17.7002 30.361C17.7002 30.1954 17.5659 30.061 17.4002 30.061C17.2345 30.061 17.1002 30.1954 17.1002 30.361C17.1002 30.5267 17.2345 30.661 17.4002 30.661ZM17.7002 31.5612C17.7002 31.7269 17.5659 31.8612 17.4002 31.8612C17.2345 31.8612 17.1002 31.7269 17.1002 31.5612C17.1002 31.3956 17.2345 31.2612 17.4002 31.2612C17.5659 31.2612 17.7002 31.3956 17.7002 31.5612ZM18.6002 31.2611C18.7659 31.2611 18.9002 31.1268 18.9002 30.9611C18.9002 30.7955 18.7659 30.6611 18.6002 30.6611C18.4345 30.6611 18.3002 30.7955 18.3002 30.9611C18.3002 31.1268 18.4345 31.2611 18.6002 31.2611ZM18.9002 32.1613C18.9002 32.327 18.7659 32.4613 18.6002 32.4613C18.4345 32.4613 18.3002 32.327 18.3002 32.1613C18.3002 31.9957 18.4345 31.8613 18.6002 31.8613C18.7659 31.8613 18.9002 31.9957 18.9002 32.1613ZM17.4002 33.0612C17.5659 33.0612 17.7002 32.9269 17.7002 32.7612C17.7002 32.5955 17.5659 32.4612 17.4002 32.4612C17.2345 32.4612 17.1002 32.5955 17.1002 32.7612C17.1002 32.9269 17.2345 33.0612 17.4002 33.0612ZM18.9002 33.361C18.9002 33.5267 18.7659 33.661 18.6002 33.661C18.4345 33.661 18.3002 33.5267 18.3002 33.361C18.3002 33.1954 18.4345 33.061 18.6002 33.061C18.7659 33.061 18.9002 33.1954 18.9002 33.361ZM19.8001 30.661C19.9658 30.661 20.1001 30.5267 20.1001 30.361C20.1001 30.1954 19.9658 30.061 19.8001 30.061C19.6344 30.061 19.5001 30.1954 19.5001 30.361C19.5001 30.5267 19.6344 30.661 19.8001 30.661ZM20.1001 31.5612C20.1001 31.7269 19.9658 31.8612 19.8001 31.8612C19.6344 31.8612 19.5001 31.7269 19.5001 31.5612C19.5001 31.3956 19.6344 31.2612 19.8001 31.2612C19.9658 31.2612 20.1001 31.3956 20.1001 31.5612ZM21.0002 31.2611C21.1659 31.2611 21.3002 31.1268 21.3002 30.9611C21.3002 30.7955 21.1659 30.6611 21.0002 30.6611C20.8345 30.6611 20.7002 30.7955 20.7002 30.9611C20.7002 31.1268 20.8345 31.2611 21.0002 31.2611ZM21.3002 32.1613C21.3002 32.327 21.1659 32.4613 21.0002 32.4613C20.8345 32.4613 20.7002 32.327 20.7002 32.1613C20.7002 31.9957 20.8345 31.8613 21.0002 31.8613C21.1659 31.8613 21.3002 31.9957 21.3002 32.1613ZM19.8001 33.0612C19.9658 33.0612 20.1001 32.9269 20.1001 32.7612C20.1001 32.5955 19.9658 32.4612 19.8001 32.4612C19.6344 32.4612 19.5001 32.5955 19.5001 32.7612C19.5001 32.9269 19.6344 33.0612 19.8001 33.0612ZM21.3002 33.361C21.3002 33.5267 21.1659 33.661 21.0002 33.661C20.8345 33.661 20.7002 33.5267 20.7002 33.361C20.7002 33.1954 20.8345 33.061 21.0002 33.061C21.1659 33.061 21.3002 33.1954 21.3002 33.361ZM22.2001 31.8612C22.3658 31.8612 22.5002 31.7269 22.5002 31.5612C22.5002 31.3956 22.3658 31.2612 22.2001 31.2612C22.0345 31.2612 21.9001 31.3956 21.9001 31.5612C21.9001 31.7269 22.0345 31.8612 22.2001 31.8612ZM22.2001 33.0612C22.3658 33.0612 22.5002 32.9269 22.5002 32.7612C22.5002 32.5955 22.3658 32.4612 22.2001 32.4612C22.0345 32.4612 21.9001 32.5955 21.9001 32.7612C21.9001 32.9269 22.0345 33.0612 22.2001 33.0612ZM2.10001 20.1613C2.10001 20.327 1.96569 20.4613 1.8 20.4613C1.63432 20.4613 1.5 20.327 1.5 20.1613C1.5 19.9957 1.63432 19.8613 1.8 19.8613C1.96569 19.8613 2.10001 19.9957 2.10001 20.1613ZM2.10001 21.361C2.10001 21.5267 1.96569 21.661 1.8 21.661C1.63432 21.661 1.5 21.5267 1.5 21.361C1.5 21.1954 1.63432 21.061 1.8 21.061C1.96569 21.061 2.10001 21.1954 2.10001 21.361ZM4.50003 14.1613C4.50003 14.327 4.36572 14.4613 4.20003 14.4613C4.03434 14.4613 3.90002 14.327 3.90002 14.1613C3.90002 13.9957 4.03434 13.8613 4.20003 13.8613C4.36572 13.8613 4.50003 13.9957 4.50003 14.1613ZM4.20003 15.661C4.36572 15.661 4.50003 15.5267 4.50003 15.361C4.50003 15.1954 4.36572 15.061 4.20003 15.061C4.03434 15.061 3.90002 15.1954 3.90002 15.361C3.90002 15.5267 4.03434 15.661 4.20003 15.661ZM4.50003 16.5612C4.50003 16.7269 4.36572 16.8612 4.20003 16.8612C4.03434 16.8612 3.90002 16.7269 3.90002 16.5612C3.90002 16.3956 4.03434 16.2612 4.20003 16.2612C4.36572 16.2612 4.50003 16.3956 4.50003 16.5612ZM4.20003 18.0614C4.36572 18.0614 4.50003 17.9271 4.50003 17.7614C4.50003 17.5958 4.36572 17.4614 4.20003 17.4614C4.03434 17.4614 3.90002 17.5958 3.90002 17.7614C3.90002 17.9271 4.03434 18.0614 4.20003 18.0614ZM4.50003 18.9611C4.50003 19.1268 4.36572 19.2611 4.20003 19.2611C4.03434 19.2611 3.90002 19.1268 3.90002 18.9611C3.90002 18.7955 4.03434 18.6611 4.20003 18.6611C4.36572 18.6611 4.50003 18.7955 4.50003 18.9611ZM4.20003 20.4613C4.36572 20.4613 4.50003 20.327 4.50003 20.1613C4.50003 19.9957 4.36572 19.8613 4.20003 19.8613C4.03434 19.8613 3.90002 19.9957 3.90002 20.1613C3.90002 20.327 4.03434 20.4613 4.20003 20.4613ZM4.20003 21.661C4.36572 21.661 4.50003 21.5267 4.50003 21.361C4.50003 21.1954 4.36572 21.061 4.20003 21.061C4.03434 21.061 3.90002 21.1954 3.90002 21.361C3.90002 21.5267 4.03434 21.661 4.20003 21.661ZM5.4001 11.4613C5.56579 11.4613 5.7001 11.327 5.7001 11.1613C5.7001 10.9957 5.56579 10.8613 5.4001 10.8613C5.23441 10.8613 5.1001 10.9957 5.1001 11.1613C5.1001 11.327 5.23441 11.4613 5.4001 11.4613ZM5.7001 12.361C5.7001 12.5267 5.56579 12.661 5.4001 12.661C5.23441 12.661 5.1001 12.5267 5.1001 12.361C5.1001 12.1954 5.23441 12.061 5.4001 12.061C5.56579 12.061 5.7001 12.1954 5.7001 12.361ZM5.4001 13.8612C5.56579 13.8612 5.7001 13.7269 5.7001 13.5612C5.7001 13.3956 5.56579 13.2612 5.4001 13.2612C5.23441 13.2612 5.1001 13.3956 5.1001 13.5612C5.1001 13.7269 5.23441 13.8612 5.4001 13.8612ZM5.7001 14.7614C5.7001 14.9271 5.56579 15.0614 5.4001 15.0614C5.23441 15.0614 5.1001 14.9271 5.1001 14.7614C5.1001 14.5958 5.23441 14.4614 5.4001 14.4614C5.56579 14.4614 5.7001 14.5958 5.7001 14.7614ZM8.10001 33.9611C8.10001 34.1268 7.96569 34.2611 7.8 34.2611C7.63432 34.2611 7.5 34.1268 7.5 33.9611C7.5 33.7955 7.63432 33.6611 7.8 33.6611C7.96569 33.6611 8.10001 33.7955 8.10001 33.9611ZM9.00008 34.8615C9.16576 34.8615 9.30008 34.7272 9.30008 34.5615C9.30008 34.3958 9.16576 34.2615 9.00008 34.2615C8.83439 34.2615 8.70007 34.3958 8.70007 34.5615C8.70007 34.7272 8.83439 34.8615 9.00008 34.8615ZM8.10001 35.1613C8.10001 35.327 7.96569 35.4613 7.8 35.4613C7.63432 35.4613 7.5 35.327 7.5 35.1613C7.5 34.9957 7.63432 34.8613 7.8 34.8613C7.96569 34.8613 8.10001 34.9957 8.10001 35.1613ZM9.00008 36.0612C9.16576 36.0612 9.30008 35.9269 9.30008 35.7612C9.30008 35.5955 9.16576 35.4612 9.00008 35.4612C8.83439 35.4612 8.70007 35.5955 8.70007 35.7612C8.70007 35.9269 8.83439 36.0612 9.00008 36.0612ZM10.2001 34.2611C10.3658 34.2611 10.5002 34.1268 10.5002 33.9611C10.5002 33.7955 10.3658 33.6611 10.2001 33.6611C10.0345 33.6611 9.90015 33.7955 9.90015 33.9611C9.90015 34.1268 10.0345 34.2611 10.2001 34.2611ZM11.7002 34.5615C11.7002 34.7272 11.5659 34.8615 11.4002 34.8615C11.2345 34.8615 11.1002 34.7272 11.1002 34.5615C11.1002 34.3958 11.2345 34.2615 11.4002 34.2615C11.5659 34.2615 11.7002 34.3958 11.7002 34.5615ZM10.2001 35.4613C10.3658 35.4613 10.5002 35.327 10.5002 35.1613C10.5002 34.9957 10.3658 34.8613 10.2001 34.8613C10.0345 34.8613 9.90015 34.9957 9.90015 35.1613C9.90015 35.327 10.0345 35.4613 10.2001 35.4613ZM11.7002 35.7612C11.7002 35.9269 11.5659 36.0612 11.4002 36.0612C11.2345 36.0612 11.1002 35.9269 11.1002 35.7612C11.1002 35.5955 11.2345 35.4612 11.4002 35.4612C11.5659 35.4612 11.7002 35.5955 11.7002 35.7612ZM12.9002 33.9611C12.9002 34.1268 12.7659 34.2611 12.6002 34.2611C12.4345 34.2611 12.3002 34.1268 12.3002 33.9611C12.3002 33.7955 12.4345 33.6611 12.6002 33.6611C12.7659 33.6611 12.9002 33.7955 12.9002 33.9611ZM13.8 34.8615C13.9657 34.8615 14.1 34.7272 14.1 34.5615C14.1 34.3958 13.9657 34.2615 13.8 34.2615C13.6343 34.2615 13.5 34.3958 13.5 34.5615C13.5 34.7272 13.6343 34.8615 13.8 34.8615ZM12.9002 35.1613C12.9002 35.327 12.7659 35.4613 12.6002 35.4613C12.4345 35.4613 12.3002 35.327 12.3002 35.1613C12.3002 34.9957 12.4345 34.8613 12.6002 34.8613C12.7659 34.8613 12.9002 34.9957 12.9002 35.1613ZM13.8 36.0612C13.9657 36.0612 14.1 35.9269 14.1 35.7612C14.1 35.5955 13.9657 35.4612 13.8 35.4612C13.6343 35.4612 13.5 35.5955 13.5 35.7612C13.5 35.9269 13.6343 36.0612 13.8 36.0612ZM15.0002 34.2611C15.1659 34.2611 15.3002 34.1268 15.3002 33.9611C15.3002 33.7955 15.1659 33.6611 15.0002 33.6611C14.8345 33.6611 14.7002 33.7955 14.7002 33.9611C14.7002 34.1268 14.8345 34.2611 15.0002 34.2611ZM16.5002 34.5615C16.5002 34.7272 16.3658 34.8615 16.2001 34.8615C16.0345 34.8615 15.9001 34.7272 15.9001 34.5615C15.9001 34.3958 16.0345 34.2615 16.2001 34.2615C16.3658 34.2615 16.5002 34.3958 16.5002 34.5615ZM15.0002 35.4613C15.1659 35.4613 15.3002 35.327 15.3002 35.1613C15.3002 34.9957 15.1659 34.8613 15.0002 34.8613C14.8345 34.8613 14.7002 34.9957 14.7002 35.1613C14.7002 35.327 14.8345 35.4613 15.0002 35.4613ZM16.5002 35.7612C16.5002 35.9269 16.3658 36.0612 16.2001 36.0612C16.0345 36.0612 15.9001 35.9269 15.9001 35.7612C15.9001 35.5955 16.0345 35.4612 16.2001 35.4612C16.3658 35.4612 16.5002 35.5955 16.5002 35.7612ZM17.7002 33.9611C17.7002 34.1268 17.5659 34.2611 17.4002 34.2611C17.2345 34.2611 17.1002 34.1268 17.1002 33.9611C17.1002 33.7955 17.2345 33.6611 17.4002 33.6611C17.5659 33.6611 17.7002 33.7955 17.7002 33.9611ZM18.6002 34.8615C18.7659 34.8615 18.9002 34.7272 18.9002 34.5615C18.9002 34.3958 18.7659 34.2615 18.6002 34.2615C18.4345 34.2615 18.3002 34.3958 18.3002 34.5615C18.3002 34.7272 18.4345 34.8615 18.6002 34.8615ZM17.7002 35.1613C17.7002 35.327 17.5659 35.4613 17.4002 35.4613C17.2345 35.4613 17.1002 35.327 17.1002 35.1613C17.1002 34.9957 17.2345 34.8613 17.4002 34.8613C17.5659 34.8613 17.7002 34.9957 17.7002 35.1613ZM18.6002 36.0612C18.7659 36.0612 18.9002 35.9269 18.9002 35.7612C18.9002 35.5955 18.7659 35.4612 18.6002 35.4612C18.4345 35.4612 18.3002 35.5955 18.3002 35.7612C18.3002 35.9269 18.4345 36.0612 18.6002 36.0612ZM19.8001 34.2611C19.9658 34.2611 20.1001 34.1268 20.1001 33.9611C20.1001 33.7955 19.9658 33.6611 19.8001 33.6611C19.6344 33.6611 19.5001 33.7955 19.5001 33.9611C19.5001 34.1268 19.6344 34.2611 19.8001 34.2611ZM21.3002 34.5615C21.3002 34.7272 21.1659 34.8615 21.0002 34.8615C20.8345 34.8615 20.7002 34.7272 20.7002 34.5615C20.7002 34.3958 20.8345 34.2615 21.0002 34.2615C21.1659 34.2615 21.3002 34.3958 21.3002 34.5615ZM19.8001 35.4613C19.9658 35.4613 20.1001 35.327 20.1001 35.1613C20.1001 34.9957 19.9658 34.8613 19.8001 34.8613C19.6344 34.8613 19.5001 34.9957 19.5001 35.1613C19.5001 35.327 19.6344 35.4613 19.8001 35.4613ZM21.3002 35.7612C21.3002 35.9269 21.1659 36.0612 21.0002 36.0612C20.8345 36.0612 20.7002 35.9269 20.7002 35.7612C20.7002 35.5955 20.8345 35.4612 21.0002 35.4612C21.1659 35.4612 21.3002 35.5955 21.3002 35.7612ZM22.5002 33.9611C22.5002 34.1268 22.3658 34.2611 22.2001 34.2611C22.0345 34.2611 21.9001 34.1268 21.9001 33.9611C21.9001 33.7955 22.0345 33.6611 22.2001 33.6611C22.3658 33.6611 22.5002 33.7955 22.5002 33.9611ZM22.5002 35.1613C22.5002 35.327 22.3658 35.4613 22.2001 35.4613C22.0345 35.4613 21.9001 35.327 21.9001 35.1613C21.9001 34.9957 22.0345 34.8613 22.2001 34.8613C22.3658 34.8613 22.5002 34.9957 22.5002 35.1613Z"
        fill="#B89B64" fill-rule="evenodd" />
</svg>
