<svg fill="none" height="34" viewBox="0 0 38 34" width="38" xmlns="http://www.w3.org/2000/svg">
    <path clip-rule="evenodd"
        d="M9.52705 21.9704C9.51232 20.6682 9.49791 19.3948 9.48825 18.1465H28.5058L28.5016 18.6647C28.4922 19.7448 28.4798 20.8445 28.4672 21.9646V21.9647C28.4493 23.5472 28.431 25.1715 28.42 26.843C28.384 26.8276 28.3443 26.8191 28.3026 26.8191C28.1369 26.8191 28.0026 26.9534 28.0026 27.1191C28.0026 27.2848 28.1369 27.4191 28.3026 27.4191C28.343 27.4191 28.3815 27.4111 28.4167 27.3966C28.4156 27.6104 28.4145 27.825 28.4136 28.0404C28.3792 28.0266 28.3417 28.019 28.3023 28.019C28.1366 28.019 28.0023 28.1534 28.0023 28.319C28.0023 28.4847 28.1366 28.619 28.3023 28.619C28.3409 28.619 28.3778 28.6118 28.4117 28.5985C28.4116 28.6367 28.4115 28.6749 28.4114 28.7131C28.4107 28.9906 28.1858 29.2145 27.9101 29.2145H27.1552C27.2958 29.1896 27.4025 29.0668 27.4025 28.9191C27.4025 28.7535 27.2682 28.6191 27.1025 28.6191C26.9368 28.6191 26.8025 28.7535 26.8025 28.9191C26.8025 29.0668 26.9092 29.1896 27.0498 29.2145H24.7552C24.8957 29.1896 25.0025 29.0668 25.0025 28.9191C25.0025 28.7535 24.8682 28.6191 24.7025 28.6191C24.5368 28.6191 24.4025 28.7535 24.4025 28.9191C24.4025 29.0668 24.5092 29.1896 24.6497 29.2145H22.3552C22.4957 29.1896 22.6024 29.0668 22.6024 28.9191C22.6024 28.7535 22.4681 28.6191 22.3024 28.6191C22.1368 28.6191 22.0024 28.7535 22.0024 28.9191C22.0024 29.0668 22.1092 29.1896 22.2497 29.2145H19.9552C20.0957 29.1896 20.2024 29.0668 20.2024 28.9191C20.2024 28.7535 20.0681 28.6191 19.9024 28.6191C19.7367 28.6191 19.6024 28.7535 19.6024 28.9191C19.6024 29.0668 19.7091 29.1896 19.8497 29.2145H17.5553C17.6958 29.1896 17.8025 29.0668 17.8025 28.9191C17.8025 28.7535 17.6682 28.6191 17.5025 28.6191C17.3368 28.6191 17.2025 28.7535 17.2025 28.9191C17.2025 29.0668 17.3092 29.1896 17.4498 29.2145H15.1552C15.2958 29.1896 15.4025 29.0668 15.4025 28.9191C15.4025 28.7535 15.2682 28.6191 15.1025 28.6191C14.9368 28.6191 14.8025 28.7535 14.8025 28.9191C14.8025 29.0668 14.9092 29.1896 15.0498 29.2145H12.7552C12.8957 29.1896 13.0025 29.0668 13.0025 28.9191C13.0025 28.7535 12.8682 28.6191 12.7025 28.6191C12.5368 28.6191 12.4025 28.7535 12.4025 28.9191C12.4025 29.0668 12.5092 29.1896 12.6497 29.2145H10.3552C10.4957 29.1896 10.6024 29.0668 10.6024 28.9191C10.6024 28.7535 10.4681 28.6191 10.3024 28.6191C10.1368 28.6191 10.0024 28.7535 10.0024 28.9191C10.0024 29.0668 10.1092 29.1896 10.2497 29.2145H10.0842C9.80846 29.2145 9.58358 28.9906 9.58287 28.7131C9.5769 26.3757 9.55153 24.1334 9.52705 21.9704ZM28.5125 17.1465H9.48159C9.46878 14.8153 9.47714 12.5704 9.53646 10.3885H28.4585C28.5173 12.567 28.5254 14.813 28.5125 17.1465ZM28.4277 9.38854H9.56747C9.64153 7.27076 9.76882 5.20986 9.97728 3.18377C11.082 2.86488 12.1419 2.59988 13.172 2.38877C13.2503 3.84457 13.9897 4.95275 15.0445 5.69171C16.1458 6.46328 17.5852 6.83276 18.997 6.83276C20.4089 6.83276 21.8482 6.46328 22.9496 5.6917C24.0044 4.95275 24.7438 3.84456 24.822 2.38875C25.8523 2.59988 26.9123 2.86492 28.0172 3.18385C28.2264 5.20238 28.3538 7.26424 28.4277 9.38854ZM15.6183 4.87269C14.7521 4.26587 14.1872 3.38314 14.1658 2.20032C14.31 2.17523 14.4538 2.15123 14.5971 2.12832C14.6994 3.16616 15.2509 3.96281 16.0171 4.49957C16.8532 5.08531 17.9389 5.36187 18.997 5.36187C20.0552 5.36187 21.1408 5.08531 21.9769 4.49957C22.7431 3.9628 23.2946 3.16615 23.397 2.1283C23.5403 2.15121 23.684 2.17521 23.8283 2.20031C23.8069 3.38313 23.242 4.26587 22.3758 4.87269C21.4777 5.50186 20.2511 5.83276 18.997 5.83276C17.743 5.83276 16.5164 5.50186 15.6183 4.87269ZM16.5024 1.88601C16.1991 1.91435 15.8946 1.94783 15.5884 1.98644C15.6006 2.13621 15.6257 2.27853 15.6628 2.41356C15.7615 2.46267 15.8294 2.56458 15.8294 2.68233C15.8294 2.72207 15.8216 2.76 15.8076 2.79471C15.9836 3.15049 16.2538 3.44438 16.5909 3.68055C17.1905 4.10061 18.0056 4.3363 18.8554 4.3599C18.9022 4.25514 19.0073 4.18213 19.1295 4.18213C19.2462 4.18213 19.3474 4.24879 19.3969 4.34613C19.715 4.32097 20.0255 4.26587 20.3186 4.18233C20.1579 4.17662 20.0294 4.04458 20.0294 3.88252C20.0294 3.71684 20.1637 3.58252 20.3294 3.58252C20.4951 3.58252 20.6294 3.71684 20.6294 3.88252C20.6294 3.98124 20.5817 4.06883 20.5081 4.1235C20.8376 4.01264 21.141 3.86422 21.4032 3.68056C21.4484 3.64887 21.4924 3.61614 21.5352 3.58237C21.5332 3.58241 21.5313 3.58243 21.5294 3.58243C21.3637 3.58243 21.2294 3.44811 21.2294 3.28242C21.2294 3.11674 21.3637 2.98242 21.5294 2.98242C21.6951 2.98242 21.8294 3.11674 21.8294 3.28242C21.8294 3.29261 21.8289 3.30268 21.8279 3.3126C22.1534 2.96046 22.3622 2.52086 22.4057 1.98642C22.1957 1.95995 21.9865 1.93589 21.778 1.91424C21.8104 1.96217 21.8294 2.01999 21.8294 2.08223C21.8294 2.24791 21.6951 2.38223 21.5294 2.38223C21.3637 2.38223 21.2294 2.24791 21.2294 2.08223C21.2294 1.99946 21.2629 1.92452 21.3171 1.87024C19.8412 1.74171 18.3925 1.73503 16.9195 1.8502C16.9865 1.90522 17.0293 1.98873 17.0293 2.08223C17.0293 2.24791 16.895 2.38223 16.7293 2.38223C16.5636 2.38223 16.4293 2.24791 16.4293 2.08223C16.4293 2.0072 16.4569 1.93861 16.5024 1.88601ZM29.4669 22.0187L29.4714 21.6197L32.0168 29.3753C32.1472 29.7725 32.4281 30.0791 32.7761 30.2516L32.74 30.2601L32.8858 30.8796C33.0832 31.7187 33.9457 32.2191 34.7722 31.9742L36.5246 31.4548C37.2801 31.2308 37.7336 30.4603 37.5625 29.691L37.3581 28.7716C37.476 28.5171 37.5236 28.2278 37.482 27.9328C36.2979 19.5528 35.2175 14.2764 32.9269 6.57028C32.3461 4.61648 30.8487 3.08433 28.9413 2.4218L28.9403 2.41289L28.6209 2.31844C21.6323 0.251941 16.3619 0.251914 9.37333 2.31844L9.05362 2.41298L9.0524 2.42436C7.14842 3.08827 5.65416 4.61899 5.07414 6.57028C2.78348 14.2764 1.70307 19.5528 0.519031 27.9328C0.477365 28.2277 0.52494 28.517 0.642821 28.7714L0.438355 29.691C0.267312 30.4603 0.72075 31.2308 1.47634 31.4548L3.22873 31.9742C4.05524 32.2191 4.91767 31.7187 5.11511 30.8796L5.26087 30.2601L5.22307 30.2512C5.57193 30.0784 5.85333 29.7707 5.98332 29.3723L8.52237 21.5892L8.52729 22.0247C8.55172 24.1785 8.57697 26.4044 8.58287 28.7156C8.58394 29.1334 8.75552 29.5116 9.03191 29.7835L9.02017 29.7852L9.32851 31.9436C9.43408 32.6826 10.067 33.2315 10.8134 33.2315H27.1808C27.9273 33.2315 28.5602 32.6826 28.6657 31.9436L28.9741 29.7852L28.9624 29.7835C29.2387 29.5116 29.4103 29.1334 29.4114 28.7156C29.4173 26.4048 29.4425 24.1761 29.4669 22.0187ZM36.5071 29.5517C36.4813 29.561 36.4551 29.5697 36.4285 29.5777L33.8731 30.3443C33.8462 30.3524 33.8192 30.3597 33.7923 30.3661L33.8592 30.6505C33.925 30.9302 34.2125 31.097 34.488 31.0154L36.2404 30.496C36.4922 30.4213 36.6434 30.1645 36.5864 29.9081L36.5071 29.5517ZM31.9683 6.85521C31.5272 5.37125 30.4535 4.17196 29.0583 3.54359C29.5139 8.22724 29.548 13.1532 29.5032 18.5098L32.967 29.0635C33.0515 29.3211 33.326 29.4644 33.5857 29.3865L36.1412 28.6198C36.3772 28.549 36.5262 28.3162 36.4918 28.0727C35.3135 19.7332 34.2426 14.5063 31.9683 6.85521ZM4.20863 30.366C4.18114 30.3594 4.15367 30.352 4.12626 30.3438L3.40228 30.1266C3.39829 30.2888 3.26554 30.4191 3.10237 30.4191C2.93668 30.4191 2.80237 30.2848 2.80237 30.1191C2.80237 30.0608 2.81901 30.0063 2.84781 29.9603L2.10722 29.7381C2.05359 29.7883 1.98153 29.819 1.9023 29.819C1.76075 29.819 1.6421 29.721 1.61053 29.5891L1.57245 29.5777C1.54584 29.5697 1.51961 29.561 1.49376 29.5517L1.41452 29.9081C1.36073 30.15 1.49222 30.3923 1.71878 30.4816C1.76951 30.4423 1.83317 30.4189 1.9023 30.4189C2.03414 30.4189 2.14611 30.504 2.18636 30.6222L3.5129 31.0154C3.70993 31.0738 3.91309 31.0051 4.03691 30.8589C4.01483 30.8171 4.00232 30.7695 4.00232 30.7189C4.00232 30.5925 4.08052 30.4844 4.19118 30.4402L4.20863 30.366ZM8.49049 18.4626C8.44654 13.1421 8.48219 8.24491 8.93616 3.54652C7.5442 4.17568 6.47311 5.37355 6.03269 6.85521C5.30361 9.30795 4.69819 11.5116 4.17327 13.6485C4.21236 13.6298 4.25612 13.6194 4.30232 13.6194C4.46801 13.6194 4.60232 13.7537 4.60232 13.9194C4.60232 14.0851 4.46801 14.2194 4.30232 14.2194C4.2047 14.2194 4.11797 14.1728 4.06318 14.1006C3.76032 15.3552 3.48436 16.5912 3.22647 17.8459C3.33023 17.8931 3.40237 17.9977 3.40237 18.1191C3.40237 18.2822 3.27225 18.4149 3.11018 18.419C3.06873 18.6259 3.02772 18.8336 2.98713 19.042C3.02261 19.0272 3.06154 19.019 3.10237 19.019C3.26806 19.019 3.40237 19.1534 3.40237 19.319C3.40237 19.4847 3.26806 19.619 3.10237 19.619C3.02066 19.619 2.94658 19.5864 2.89248 19.5334C2.65064 20.8029 2.42273 22.1071 2.20009 23.4827C2.20155 23.4947 2.2023 23.5069 2.2023 23.5192C2.2023 23.5652 2.19195 23.6088 2.17345 23.6478C2.1306 23.9141 2.08793 24.1832 2.04538 24.4552C2.13885 24.506 2.2023 24.6051 2.2023 24.7189C2.2023 24.8653 2.0975 24.9872 1.95885 25.0136C1.928 25.2145 1.8972 25.417 1.86642 25.6213C1.87818 25.6199 1.89016 25.6191 1.9023 25.6191C2.06798 25.6191 2.2023 25.7535 2.2023 25.9191C2.2023 26.0848 2.06798 26.2191 1.9023 26.2191C1.85909 26.2191 1.81801 26.21 1.7809 26.1936C1.74515 26.4348 1.70939 26.6785 1.67359 26.9249C1.72862 26.8602 1.81066 26.8191 1.9023 26.8191C2.06798 26.8191 2.2023 26.9534 2.2023 27.1191C2.2023 27.2848 2.06798 27.4191 1.9023 27.4191C1.77986 27.4191 1.67455 27.3457 1.62792 27.2406C1.58843 27.5146 1.54888 27.7919 1.5092 28.0727C1.48425 28.2493 1.55574 28.4202 1.6869 28.5279C1.63453 28.4739 1.60229 28.4002 1.60229 28.319C1.60229 28.1534 1.73661 28.019 1.9023 28.019C2.06798 28.019 2.2023 28.1534 2.2023 28.319C2.2023 28.4847 2.06798 28.619 1.9023 28.619C1.87852 28.619 1.85538 28.6163 1.8332 28.6111C1.84194 28.6142 1.8508 28.6171 1.8598 28.6198L2.80281 28.9027C2.81132 28.7447 2.94218 28.6191 3.10237 28.6191C3.26806 28.6191 3.40237 28.7535 3.40237 28.9191C3.40237 28.9743 3.38749 29.026 3.36153 29.0704L4.10467 29.2933C4.15745 29.247 4.22661 29.219 4.30232 29.219C4.42828 29.219 4.53611 29.2966 4.58058 29.4067C4.78253 29.3972 4.96644 29.265 5.03263 29.0621L5.38125 27.9935C5.27591 27.9469 5.20239 27.8415 5.20239 27.7189C5.20239 27.5533 5.33671 27.4189 5.50239 27.4189C5.52438 27.4189 5.54581 27.4213 5.56645 27.4258L6.41811 24.8152C6.40789 24.785 6.40234 24.7526 6.40234 24.7189C6.40234 24.6176 6.45258 24.528 6.5295 24.4737L6.74394 23.8164C6.73034 23.8183 6.71646 23.8192 6.70235 23.8192C6.53666 23.8192 6.40234 23.6849 6.40234 23.5192C6.40234 23.3536 6.53666 23.2192 6.70235 23.2192C6.78351 23.2192 6.85714 23.2515 6.91115 23.3038L7.73772 20.7701C7.65615 20.7165 7.60229 20.6242 7.60229 20.5192C7.60229 20.3536 7.73661 20.2192 7.9023 20.2192C7.90733 20.2192 7.91233 20.2194 7.91731 20.2196L8.16215 19.4691C8.11028 19.5587 8.01333 19.619 7.9023 19.619C7.73661 19.619 7.60229 19.4847 7.60229 19.319C7.60229 19.1534 7.73661 19.019 7.9023 19.019C8.06798 19.019 8.2023 19.1534 8.2023 19.319C8.2023 19.3299 8.20172 19.3407 8.20059 19.3512L8.49049 18.4626ZM10.5869 30.2145C10.5471 30.3334 10.4348 30.4191 10.3024 30.4191C10.2297 30.4191 10.163 30.3932 10.111 30.3501L10.2087 31.034C10.2382 31.0243 10.2697 31.019 10.3024 31.019C10.4681 31.019 10.6024 31.1534 10.6024 31.319C10.6024 31.4847 10.4681 31.619 10.3024 31.619C10.299 31.619 10.2956 31.619 10.2923 31.6189L10.3185 31.8022C10.3537 32.0485 10.5646 32.2315 10.8134 32.2315H12.6164C12.6437 32.2234 12.6726 32.219 12.7025 32.219C12.7324 32.219 12.7612 32.2234 12.7885 32.2315H15.0165C15.0437 32.2234 15.0726 32.219 15.1025 32.219C15.1324 32.219 15.1613 32.2234 15.1885 32.2315H17.4165C17.4437 32.2234 17.4726 32.219 17.5025 32.219C17.5324 32.219 17.5613 32.2234 17.5885 32.2315H19.8164C19.8436 32.2234 19.8725 32.219 19.9024 32.219C19.9323 32.219 19.9612 32.2234 19.9884 32.2315H22.2164C22.2437 32.2234 22.2725 32.219 22.3024 32.219C22.3323 32.219 22.3612 32.2234 22.3885 32.2315H24.6164C24.6437 32.2234 24.6726 32.219 24.7025 32.219C24.7324 32.219 24.7612 32.2234 24.7885 32.2315H27.0165C27.0437 32.2234 27.0726 32.219 27.1025 32.219C27.1323 32.219 27.1611 32.2233 27.1883 32.2315C27.4339 32.2278 27.641 32.0461 27.6758 31.8022L27.9026 30.2145H27.387C27.3471 30.3334 27.2348 30.4191 27.1025 30.4191C26.9702 30.4191 26.8579 30.3334 26.818 30.2145H24.987C24.9471 30.3334 24.8348 30.4191 24.7025 30.4191C24.5701 30.4191 24.4578 30.3334 24.418 30.2145H22.5869C22.5471 30.3334 22.4348 30.4191 22.3024 30.4191C22.1701 30.4191 22.0578 30.3334 22.0179 30.2145H20.1869C20.1471 30.3334 20.0347 30.4191 19.9024 30.4191C19.7701 30.4191 19.6578 30.3334 19.6179 30.2145H17.787C17.7472 30.3334 17.6348 30.4191 17.5025 30.4191C17.3702 30.4191 17.2579 30.3334 17.218 30.2145H15.387C15.3471 30.3334 15.2348 30.4191 15.1025 30.4191C14.9702 30.4191 14.8579 30.3334 14.818 30.2145H12.987C12.9471 30.3334 12.8348 30.4191 12.7025 30.4191C12.5701 30.4191 12.4578 30.3334 12.418 30.2145H10.5869ZM4.60232 15.1191C4.60232 15.2848 4.46801 15.4191 4.30232 15.4191C4.13663 15.4191 4.00232 15.2848 4.00232 15.1191C4.00232 14.9534 4.13663 14.8191 4.30232 14.8191C4.46801 14.8191 4.60232 14.9534 4.60232 15.1191ZM4.60232 16.3193C4.60232 16.485 4.46801 16.6193 4.30232 16.6193C4.13663 16.6193 4.00232 16.485 4.00232 16.3193C4.00232 16.1536 4.13663 16.0193 4.30232 16.0193C4.46801 16.0193 4.60232 16.1536 4.60232 16.3193ZM4.30232 17.8192C4.46801 17.8192 4.60232 17.6849 4.60232 17.5192C4.60232 17.3536 4.46801 17.2192 4.30232 17.2192C4.13663 17.2192 4.00232 17.3536 4.00232 17.5192C4.00232 17.6849 4.13663 17.8192 4.30232 17.8192ZM4.30232 19.0189C4.46801 19.0189 4.60232 18.8846 4.60232 18.7189C4.60232 18.5533 4.46801 18.4189 4.30232 18.4189C4.13663 18.4189 4.00232 18.5533 4.00232 18.7189C4.00232 18.8846 4.13663 19.0189 4.30232 19.0189ZM5.8024 15.7189C5.8024 15.8846 5.66808 16.0189 5.50239 16.0189C5.33671 16.0189 5.20239 15.8846 5.20239 15.7189C5.20239 15.5533 5.33671 15.4189 5.50239 15.4189C5.66808 15.4189 5.8024 15.5533 5.8024 15.7189ZM5.50239 17.2194C5.66808 17.2194 5.8024 17.0851 5.8024 16.9194C5.8024 16.7537 5.66808 16.6194 5.50239 16.6194C5.33671 16.6194 5.20239 16.7537 5.20239 16.9194C5.20239 17.0851 5.33671 17.2194 5.50239 17.2194ZM7.00235 17.5192C7.00235 17.6849 6.86803 17.8192 6.70235 17.8192C6.53666 17.8192 6.40234 17.6849 6.40234 17.5192C6.40234 17.3536 6.53666 17.2192 6.70235 17.2192C6.86803 17.2192 7.00235 17.3536 7.00235 17.5192ZM5.50239 18.4191C5.66808 18.4191 5.8024 18.2848 5.8024 18.1191C5.8024 17.9534 5.66808 17.8191 5.50239 17.8191C5.33671 17.8191 5.20239 17.9534 5.20239 18.1191C5.20239 18.2848 5.33671 18.4191 5.50239 18.4191ZM7.00235 18.7189C7.00235 18.8846 6.86803 19.0189 6.70235 19.0189C6.53666 19.0189 6.40234 18.8846 6.40234 18.7189C6.40234 18.5533 6.53666 18.4189 6.70235 18.4189C6.86803 18.4189 7.00235 18.5533 7.00235 18.7189ZM4.60232 19.9194C4.60232 20.0851 4.46801 20.2194 4.30232 20.2194C4.13663 20.2194 4.00232 20.0851 4.00232 19.9194C4.00232 19.7537 4.13663 19.6194 4.30232 19.6194C4.46801 19.6194 4.60232 19.7537 4.60232 19.9194ZM3.10237 20.8192C3.26806 20.8192 3.40237 20.6849 3.40237 20.5192C3.40237 20.3536 3.26806 20.2192 3.10237 20.2192C2.93668 20.2192 2.80237 20.3536 2.80237 20.5192C2.80237 20.6849 2.93668 20.8192 3.10237 20.8192ZM4.60232 21.1191C4.60232 21.2848 4.46801 21.4191 4.30232 21.4191C4.13663 21.4191 4.00232 21.2848 4.00232 21.1191C4.00232 20.9534 4.13663 20.8191 4.30232 20.8191C4.46801 20.8191 4.60232 20.9534 4.60232 21.1191ZM3.10237 22.0189C3.26806 22.0189 3.40237 21.8846 3.40237 21.7189C3.40237 21.5533 3.26806 21.4189 3.10237 21.4189C2.93668 21.4189 2.80237 21.5533 2.80237 21.7189C2.80237 21.8846 2.93668 22.0189 3.10237 22.0189ZM3.40237 22.9194C3.40237 23.0851 3.26806 23.2194 3.10237 23.2194C2.93668 23.2194 2.80237 23.0851 2.80237 22.9194C2.80237 22.7537 2.93668 22.6194 3.10237 22.6194C3.26806 22.6194 3.40237 22.7537 3.40237 22.9194ZM4.30232 22.619C4.46801 22.619 4.60232 22.4847 4.60232 22.319C4.60232 22.1534 4.46801 22.019 4.30232 22.019C4.13663 22.019 4.00232 22.1534 4.00232 22.319C4.00232 22.4847 4.13663 22.619 4.30232 22.619ZM4.60232 23.5192C4.60232 23.6849 4.46801 23.8192 4.30232 23.8192C4.13663 23.8192 4.00232 23.6849 4.00232 23.5192C4.00232 23.3536 4.13663 23.2192 4.30232 23.2192C4.46801 23.2192 4.60232 23.3536 4.60232 23.5192ZM3.10237 24.4191C3.26806 24.4191 3.40237 24.2848 3.40237 24.1191C3.40237 23.9534 3.26806 23.8191 3.10237 23.8191C2.93668 23.8191 2.80237 23.9534 2.80237 24.1191C2.80237 24.2848 2.93668 24.4191 3.10237 24.4191ZM4.60232 24.7189C4.60232 24.8846 4.46801 25.0189 4.30232 25.0189C4.13663 25.0189 4.00232 24.8846 4.00232 24.7189C4.00232 24.5533 4.13663 24.4189 4.30232 24.4189C4.46801 24.4189 4.60232 24.5533 4.60232 24.7189ZM5.50239 19.619C5.66808 19.619 5.8024 19.4847 5.8024 19.319C5.8024 19.1534 5.66808 19.019 5.50239 19.019C5.33671 19.019 5.20239 19.1534 5.20239 19.319C5.20239 19.4847 5.33671 19.619 5.50239 19.619ZM7.00235 19.9194C7.00235 20.0851 6.86803 20.2194 6.70235 20.2194C6.53666 20.2194 6.40234 20.0851 6.40234 19.9194C6.40234 19.7537 6.53666 19.6194 6.70235 19.6194C6.86803 19.6194 7.00235 19.7537 7.00235 19.9194ZM5.50239 20.8192C5.66808 20.8192 5.8024 20.6849 5.8024 20.5192C5.8024 20.3536 5.66808 20.2192 5.50239 20.2192C5.33671 20.2192 5.20239 20.3536 5.20239 20.5192C5.20239 20.6849 5.33671 20.8192 5.50239 20.8192ZM7.00235 21.1191C7.00235 21.2848 6.86803 21.4191 6.70235 21.4191C6.53666 21.4191 6.40234 21.2848 6.40234 21.1191C6.40234 20.9534 6.53666 20.8191 6.70235 20.8191C6.86803 20.8191 7.00235 20.9534 7.00235 21.1191ZM5.50239 22.0189C5.66808 22.0189 5.8024 21.8846 5.8024 21.7189C5.8024 21.5533 5.66808 21.4189 5.50239 21.4189C5.33671 21.4189 5.20239 21.5533 5.20239 21.7189C5.20239 21.8846 5.33671 22.0189 5.50239 22.0189ZM5.8024 22.9194C5.8024 23.0851 5.66808 23.2194 5.50239 23.2194C5.33671 23.2194 5.20239 23.0851 5.20239 22.9194C5.20239 22.7537 5.33671 22.6194 5.50239 22.6194C5.66808 22.6194 5.8024 22.7537 5.8024 22.9194ZM6.70235 22.619C6.86803 22.619 7.00235 22.4847 7.00235 22.319C7.00235 22.1534 6.86803 22.019 6.70235 22.019C6.53666 22.019 6.40234 22.1534 6.40234 22.319C6.40234 22.4847 6.53666 22.619 6.70235 22.619ZM5.50239 24.4191C5.66808 24.4191 5.8024 24.2848 5.8024 24.1191C5.8024 23.9534 5.66808 23.8191 5.50239 23.8191C5.33671 23.8191 5.20239 23.9534 5.20239 24.1191C5.20239 24.2848 5.33671 24.4191 5.50239 24.4191ZM3.40237 25.319C3.40237 25.4847 3.26806 25.619 3.10237 25.619C2.93668 25.619 2.80237 25.4847 2.80237 25.319C2.80237 25.1534 2.93668 25.019 3.10237 25.019C3.26806 25.019 3.40237 25.1534 3.40237 25.319ZM3.10237 26.819C3.26806 26.819 3.40237 26.6847 3.40237 26.519C3.40237 26.3533 3.26806 26.219 3.10237 26.219C2.93668 26.219 2.80237 26.3533 2.80237 26.519C2.80237 26.6847 2.93668 26.819 3.10237 26.819ZM4.60232 25.9191C4.60232 26.0848 4.46801 26.2191 4.30232 26.2191C4.13663 26.2191 4.00232 26.0848 4.00232 25.9191C4.00232 25.7535 4.13663 25.6191 4.30232 25.6191C4.46801 25.6191 4.60232 25.7535 4.60232 25.9191ZM4.30232 27.4191C4.46801 27.4191 4.60232 27.2848 4.60232 27.1191C4.60232 26.9534 4.46801 26.8191 4.30232 26.8191C4.13663 26.8191 4.00232 26.9534 4.00232 27.1191C4.00232 27.2848 4.13663 27.4191 4.30232 27.4191ZM3.40237 27.7189C3.40237 27.8846 3.26806 28.0189 3.10237 28.0189C2.93668 28.0189 2.80237 27.8846 2.80237 27.7189C2.80237 27.5533 2.93668 27.4189 3.10237 27.4189C3.26806 27.4189 3.40237 27.5533 3.40237 27.7189ZM4.30232 28.619C4.46801 28.619 4.60232 28.4847 4.60232 28.319C4.60232 28.1534 4.46801 28.019 4.30232 28.019C4.13663 28.019 4.00232 28.1534 4.00232 28.319C4.00232 28.4847 4.13663 28.619 4.30232 28.619ZM5.50239 25.619C5.66808 25.619 5.8024 25.4847 5.8024 25.319C5.8024 25.1534 5.66808 25.019 5.50239 25.019C5.33671 25.019 5.20239 25.1534 5.20239 25.319C5.20239 25.4847 5.33671 25.619 5.50239 25.619ZM5.8024 26.519C5.8024 26.6847 5.66808 26.819 5.50239 26.819C5.33671 26.819 5.20239 26.6847 5.20239 26.519C5.20239 26.3533 5.33671 26.219 5.50239 26.219C5.66808 26.219 5.8024 26.3533 5.8024 26.519ZM10.3024 26.819C10.4681 26.819 10.6024 26.6847 10.6024 26.519C10.6024 26.3533 10.4681 26.219 10.3024 26.219C10.1368 26.219 10.0024 26.3533 10.0024 26.519C10.0024 26.6847 10.1368 26.819 10.3024 26.819ZM11.8025 27.1191C11.8025 27.2848 11.6682 27.4191 11.5025 27.4191C11.3368 27.4191 11.2025 27.2848 11.2025 27.1191C11.2025 26.9534 11.3368 26.8191 11.5025 26.8191C11.6682 26.8191 11.8025 26.9534 11.8025 27.1191ZM10.3024 28.0189C10.4681 28.0189 10.6024 27.8846 10.6024 27.7189C10.6024 27.5533 10.4681 27.4189 10.3024 27.4189C10.1368 27.4189 10.0024 27.5533 10.0024 27.7189C10.0024 27.8846 10.1368 28.0189 10.3024 28.0189ZM11.8025 28.319C11.8025 28.4847 11.6682 28.619 11.5025 28.619C11.3368 28.619 11.2025 28.4847 11.2025 28.319C11.2025 28.1534 11.3368 28.019 11.5025 28.019C11.6682 28.019 11.8025 28.1534 11.8025 28.319ZM11.8025 30.7189C11.8025 30.8846 11.6682 31.0189 11.5025 31.0189C11.3368 31.0189 11.2025 30.8846 11.2025 30.7189C11.2025 30.5533 11.3368 30.4189 11.5025 30.4189C11.6682 30.4189 11.8025 30.5533 11.8025 30.7189ZM11.8025 31.9191C11.8025 32.0848 11.6682 32.2191 11.5025 32.2191C11.3368 32.2191 11.2025 32.0848 11.2025 31.9191C11.2025 31.7535 11.3368 31.6191 11.5025 31.6191C11.6682 31.6191 11.8025 31.7535 11.8025 31.9191ZM13.0025 26.519C13.0025 26.6847 12.8682 26.819 12.7025 26.819C12.5368 26.819 12.4025 26.6847 12.4025 26.519C12.4025 26.3533 12.5368 26.219 12.7025 26.219C12.8682 26.219 13.0025 26.3533 13.0025 26.519ZM13.9023 27.4191C14.068 27.4191 14.2023 27.2848 14.2023 27.1191C14.2023 26.9534 14.068 26.8191 13.9023 26.8191C13.7366 26.8191 13.6023 26.9534 13.6023 27.1191C13.6023 27.2848 13.7366 27.4191 13.9023 27.4191ZM13.0025 27.7189C13.0025 27.8846 12.8682 28.0189 12.7025 28.0189C12.5368 28.0189 12.4025 27.8846 12.4025 27.7189C12.4025 27.5533 12.5368 27.4189 12.7025 27.4189C12.8682 27.4189 13.0025 27.5533 13.0025 27.7189ZM13.9023 28.619C14.068 28.619 14.2023 28.4847 14.2023 28.319C14.2023 28.1534 14.068 28.019 13.9023 28.019C13.7366 28.019 13.6023 28.1534 13.6023 28.319C13.6023 28.4847 13.7366 28.619 13.9023 28.619ZM13.9023 31.0189C14.068 31.0189 14.2023 30.8846 14.2023 30.7189C14.2023 30.5533 14.068 30.4189 13.9023 30.4189C13.7366 30.4189 13.6023 30.5533 13.6023 30.7189C13.6023 30.8846 13.7366 31.0189 13.9023 31.0189ZM13.0025 31.319C13.0025 31.4847 12.8682 31.619 12.7025 31.619C12.5368 31.619 12.4025 31.4847 12.4025 31.319C12.4025 31.1534 12.5368 31.019 12.7025 31.019C12.8682 31.019 13.0025 31.1534 13.0025 31.319ZM13.9023 32.2191C14.068 32.2191 14.2023 32.0848 14.2023 31.9191C14.2023 31.7535 14.068 31.6191 13.9023 31.6191C13.7366 31.6191 13.6023 31.7535 13.6023 31.9191C13.6023 32.0848 13.7366 32.2191 13.9023 32.2191ZM15.1025 26.819C15.2682 26.819 15.4025 26.6847 15.4025 26.519C15.4025 26.3533 15.2682 26.219 15.1025 26.219C14.9368 26.219 14.8025 26.3533 14.8025 26.519C14.8025 26.6847 14.9368 26.819 15.1025 26.819ZM16.6024 27.1191C16.6024 27.2848 16.4681 27.4191 16.3024 27.4191C16.1368 27.4191 16.0024 27.2848 16.0024 27.1191C16.0024 26.9534 16.1368 26.8191 16.3024 26.8191C16.4681 26.8191 16.6024 26.9534 16.6024 27.1191ZM15.1025 28.0189C15.2682 28.0189 15.4025 27.8846 15.4025 27.7189C15.4025 27.5533 15.2682 27.4189 15.1025 27.4189C14.9368 27.4189 14.8025 27.5533 14.8025 27.7189C14.8025 27.8846 14.9368 28.0189 15.1025 28.0189ZM16.6024 28.319C16.6024 28.4847 16.4681 28.619 16.3024 28.619C16.1368 28.619 16.0024 28.4847 16.0024 28.319C16.0024 28.1534 16.1368 28.019 16.3024 28.019C16.4681 28.019 16.6024 28.1534 16.6024 28.319ZM16.6024 30.7189C16.6024 30.8846 16.4681 31.0189 16.3024 31.0189C16.1368 31.0189 16.0024 30.8846 16.0024 30.7189C16.0024 30.5533 16.1368 30.4189 16.3024 30.4189C16.4681 30.4189 16.6024 30.5533 16.6024 30.7189ZM15.1025 31.619C15.2682 31.619 15.4025 31.4847 15.4025 31.319C15.4025 31.1534 15.2682 31.019 15.1025 31.019C14.9368 31.019 14.8025 31.1534 14.8025 31.319C14.8025 31.4847 14.9368 31.619 15.1025 31.619ZM16.6024 31.9191C16.6024 32.0848 16.4681 32.2191 16.3024 32.2191C16.1368 32.2191 16.0024 32.0848 16.0024 31.9191C16.0024 31.7535 16.1368 31.6191 16.3024 31.6191C16.4681 31.6191 16.6024 31.7535 16.6024 31.9191ZM17.8025 26.519C17.8025 26.6847 17.6682 26.819 17.5025 26.819C17.3368 26.819 17.2025 26.6847 17.2025 26.519C17.2025 26.3533 17.3368 26.219 17.5025 26.219C17.6682 26.219 17.8025 26.3533 17.8025 26.519ZM18.7025 27.4191C18.8682 27.4191 19.0025 27.2848 19.0025 27.1191C19.0025 26.9534 18.8682 26.8191 18.7025 26.8191C18.5368 26.8191 18.4025 26.9534 18.4025 27.1191C18.4025 27.2848 18.5368 27.4191 18.7025 27.4191ZM17.8025 27.7189C17.8025 27.8846 17.6682 28.0189 17.5025 28.0189C17.3368 28.0189 17.2025 27.8846 17.2025 27.7189C17.2025 27.5533 17.3368 27.4189 17.5025 27.4189C17.6682 27.4189 17.8025 27.5533 17.8025 27.7189ZM18.7025 28.619C18.8682 28.619 19.0025 28.4847 19.0025 28.319C19.0025 28.1534 18.8682 28.019 18.7025 28.019C18.5368 28.019 18.4025 28.1534 18.4025 28.319C18.4025 28.4847 18.5368 28.619 18.7025 28.619ZM18.7025 31.0189C18.8682 31.0189 19.0025 30.8846 19.0025 30.7189C19.0025 30.5533 18.8682 30.4189 18.7025 30.4189C18.5368 30.4189 18.4025 30.5533 18.4025 30.7189C18.4025 30.8846 18.5368 31.0189 18.7025 31.0189ZM17.8025 31.319C17.8025 31.4847 17.6682 31.619 17.5025 31.619C17.3368 31.619 17.2025 31.4847 17.2025 31.319C17.2025 31.1534 17.3368 31.019 17.5025 31.019C17.6682 31.019 17.8025 31.1534 17.8025 31.319ZM18.7025 32.2191C18.8682 32.2191 19.0025 32.0848 19.0025 31.9191C19.0025 31.7535 18.8682 31.6191 18.7025 31.6191C18.5368 31.6191 18.4025 31.7535 18.4025 31.9191C18.4025 32.0848 18.5368 32.2191 18.7025 32.2191ZM19.9024 26.819C20.0681 26.819 20.2024 26.6847 20.2024 26.519C20.2024 26.3533 20.0681 26.219 19.9024 26.219C19.7367 26.219 19.6024 26.3533 19.6024 26.519C19.6024 26.6847 19.7367 26.819 19.9024 26.819ZM21.4025 27.1191C21.4025 27.2848 21.2682 27.4191 21.1025 27.4191C20.9368 27.4191 20.8025 27.2848 20.8025 27.1191C20.8025 26.9534 20.9368 26.8191 21.1025 26.8191C21.2682 26.8191 21.4025 26.9534 21.4025 27.1191ZM19.9024 28.0189C20.0681 28.0189 20.2024 27.8846 20.2024 27.7189C20.2024 27.5533 20.0681 27.4189 19.9024 27.4189C19.7367 27.4189 19.6024 27.5533 19.6024 27.7189C19.6024 27.8846 19.7367 28.0189 19.9024 28.0189ZM21.4025 28.319C21.4025 28.4847 21.2682 28.619 21.1025 28.619C20.9368 28.619 20.8025 28.4847 20.8025 28.319C20.8025 28.1534 20.9368 28.019 21.1025 28.019C21.2682 28.019 21.4025 28.1534 21.4025 28.319ZM21.4025 30.7189C21.4025 30.8846 21.2682 31.0189 21.1025 31.0189C20.9368 31.0189 20.8025 30.8846 20.8025 30.7189C20.8025 30.5533 20.9368 30.4189 21.1025 30.4189C21.2682 30.4189 21.4025 30.5533 21.4025 30.7189ZM19.9024 31.619C20.0681 31.619 20.2024 31.4847 20.2024 31.319C20.2024 31.1534 20.0681 31.019 19.9024 31.019C19.7367 31.019 19.6024 31.1534 19.6024 31.319C19.6024 31.4847 19.7367 31.619 19.9024 31.619ZM21.4025 31.9191C21.4025 32.0848 21.2682 32.2191 21.1025 32.2191C20.9368 32.2191 20.8025 32.0848 20.8025 31.9191C20.8025 31.7535 20.9368 31.6191 21.1025 31.6191C21.2682 31.6191 21.4025 31.7535 21.4025 31.9191ZM22.6024 26.519C22.6024 26.6847 22.4681 26.819 22.3024 26.819C22.1368 26.819 22.0024 26.6847 22.0024 26.519C22.0024 26.3533 22.1368 26.219 22.3024 26.219C22.4681 26.219 22.6024 26.3533 22.6024 26.519ZM23.5025 27.4191C23.6682 27.4191 23.8025 27.2848 23.8025 27.1191C23.8025 26.9534 23.6682 26.8191 23.5025 26.8191C23.3368 26.8191 23.2025 26.9534 23.2025 27.1191C23.2025 27.2848 23.3368 27.4191 23.5025 27.4191ZM22.6024 27.7189C22.6024 27.8846 22.4681 28.0189 22.3024 28.0189C22.1368 28.0189 22.0024 27.8846 22.0024 27.7189C22.0024 27.5533 22.1368 27.4189 22.3024 27.4189C22.4681 27.4189 22.6024 27.5533 22.6024 27.7189ZM23.5025 28.619C23.6682 28.619 23.8025 28.4847 23.8025 28.319C23.8025 28.1534 23.6682 28.019 23.5025 28.019C23.3368 28.019 23.2025 28.1534 23.2025 28.319C23.2025 28.4847 23.3368 28.619 23.5025 28.619ZM23.5025 31.0189C23.6682 31.0189 23.8025 30.8846 23.8025 30.7189C23.8025 30.5533 23.6682 30.4189 23.5025 30.4189C23.3368 30.4189 23.2025 30.5533 23.2025 30.7189C23.2025 30.8846 23.3368 31.0189 23.5025 31.0189ZM22.6024 31.319C22.6024 31.4847 22.4681 31.619 22.3024 31.619C22.1368 31.619 22.0024 31.4847 22.0024 31.319C22.0024 31.1534 22.1368 31.019 22.3024 31.019C22.4681 31.019 22.6024 31.1534 22.6024 31.319ZM23.5025 32.2191C23.6682 32.2191 23.8025 32.0848 23.8025 31.9191C23.8025 31.7535 23.6682 31.6191 23.5025 31.6191C23.3368 31.6191 23.2025 31.7535 23.2025 31.9191C23.2025 32.0848 23.3368 32.2191 23.5025 32.2191ZM24.7025 28.0189C24.8682 28.0189 25.0025 27.8846 25.0025 27.7189C25.0025 27.5533 24.8682 27.4189 24.7025 27.4189C24.5368 27.4189 24.4025 27.5533 24.4025 27.7189C24.4025 27.8846 24.5368 28.0189 24.7025 28.0189ZM26.2024 28.319C26.2024 28.4847 26.0681 28.619 25.9024 28.619C25.7367 28.619 25.6024 28.4847 25.6024 28.319C25.6024 28.1534 25.7367 28.019 25.9024 28.019C26.0681 28.019 26.2024 28.1534 26.2024 28.319ZM26.2024 30.7189C26.2024 30.8846 26.0681 31.0189 25.9024 31.0189C25.7367 31.0189 25.6024 30.8846 25.6024 30.7189C25.6024 30.5533 25.7367 30.4189 25.9024 30.4189C26.0681 30.4189 26.2024 30.5533 26.2024 30.7189ZM24.7025 31.619C24.8682 31.619 25.0025 31.4847 25.0025 31.319C25.0025 31.1534 24.8682 31.019 24.7025 31.019C24.5368 31.019 24.4025 31.1534 24.4025 31.319C24.4025 31.4847 24.5368 31.619 24.7025 31.619ZM26.2024 31.9191C26.2024 32.0848 26.0681 32.2191 25.9024 32.2191C25.7367 32.2191 25.6024 32.0848 25.6024 31.9191C25.6024 31.7535 25.7367 31.6191 25.9024 31.6191C26.0681 31.6191 26.2024 31.7535 26.2024 31.9191ZM24.7025 26.819C24.8682 26.819 25.0025 26.6847 25.0025 26.519C25.0025 26.3533 24.8682 26.219 24.7025 26.219C24.5368 26.219 24.4025 26.3533 24.4025 26.519C24.4025 26.6847 24.5368 26.819 24.7025 26.819ZM26.2024 27.1191C26.2024 27.2848 26.0681 27.4191 25.9024 27.4191C25.7367 27.4191 25.6024 27.2848 25.6024 27.1191C25.6024 26.9534 25.7367 26.8191 25.9024 26.8191C26.0681 26.8191 26.2024 26.9534 26.2024 27.1191ZM27.1024 28.0189C27.2681 28.0189 27.4024 27.8846 27.4024 27.7189C27.4024 27.5533 27.2681 27.4189 27.1024 27.4189C26.9367 27.4189 26.8024 27.5533 26.8024 27.7189C26.8024 27.8846 26.9367 28.0189 27.1024 28.0189ZM27.4026 26.519C27.4026 26.6847 27.2683 26.819 27.1026 26.819C26.9369 26.819 26.8026 26.6847 26.8026 26.519C26.8026 26.3533 26.9369 26.219 27.1026 26.219C27.2683 26.219 27.4026 26.3533 27.4026 26.519ZM27.4025 31.319C27.4025 31.4847 27.2682 31.619 27.1025 31.619C26.9368 31.619 26.8025 31.4847 26.8025 31.319C26.8025 31.1534 26.9368 31.019 27.1025 31.019C27.2682 31.019 27.4025 31.1534 27.4025 31.319ZM17.0293 3.28242C17.0293 3.44811 16.895 3.58243 16.7293 3.58243C16.5636 3.58243 16.4293 3.44811 16.4293 3.28242C16.4293 3.11674 16.5636 2.98242 16.7293 2.98242C16.895 2.98242 17.0293 3.11674 17.0293 3.28242ZM17.9294 2.98233C18.0951 2.98233 18.2294 2.84801 18.2294 2.68233C18.2294 2.51664 18.0951 2.38232 17.9294 2.38232C17.7637 2.38232 17.6294 2.51664 17.6294 2.68233C17.6294 2.84801 17.7637 2.98233 17.9294 2.98233ZM19.4295 2.08223C19.4295 2.24791 19.2952 2.38223 19.1295 2.38223C18.9638 2.38223 18.8295 2.24791 18.8295 2.08223C18.8295 1.91654 18.9638 1.78223 19.1295 1.78223C19.2952 1.78223 19.4295 1.91654 19.4295 2.08223ZM19.1295 3.58243C19.2952 3.58243 19.4295 3.44811 19.4295 3.28242C19.4295 3.11674 19.2952 2.98242 19.1295 2.98242C18.9638 2.98242 18.8295 3.11674 18.8295 3.28242C18.8295 3.44811 18.9638 3.58243 19.1295 3.58243ZM18.2294 3.88252C18.2294 4.04821 18.0951 4.18252 17.9294 4.18252C17.7637 4.18252 17.6294 4.04821 17.6294 3.88252C17.6294 3.71684 17.7637 3.58252 17.9294 3.58252C18.0951 3.58252 18.2294 3.71684 18.2294 3.88252ZM20.3294 2.98233C20.4951 2.98233 20.6294 2.84801 20.6294 2.68233C20.6294 2.51664 20.4951 2.38232 20.3294 2.38232C20.1637 2.38232 20.0294 2.51664 20.0294 2.68233C20.0294 2.84801 20.1637 2.98233 20.3294 2.98233Z"
        fill="#B89B64" fill-rule="evenodd" />
</svg>
