<svg fill="none" height="24" viewBox="0 0 40 24" width="40" xmlns="http://www.w3.org/2000/svg">
    <path clip-rule="evenodd"
        d="M16.8768 0.978644C17.6084 0.888251 18.3744 1.11323 19.0795 1.74482C24.4367 6.54352 28.532 8.61298 31.6463 9.9773C32.1154 10.1828 32.5684 10.3747 33.0034 10.5591C34.0014 10.9819 34.9053 11.3649 35.6951 11.7809C36.8499 12.3892 37.8192 13.095 38.5973 14.1675C39.5773 15.5184 39.8803 17.0115 39.9567 18.5162C40.0853 21.0476 37.8721 23.0406 35.4178 23.0406L32.0142 23.0405H13.9966H3.12226C1.74155 23.0405 0.622259 21.9212 0.622259 20.5405V16.8051V16.7824L0.624327 16.7597L1.40903 8.15467C1.45009 7.70435 1.60889 7.29096 1.85336 6.94373L0.648634 4.2331C0.182204 3.1836 0.831976 1.97626 1.9648 1.78742C2.92807 1.6269 3.83731 2.28297 3.98858 3.24775L4.40159 5.88172H12.2577C12.8255 5.88172 13.3753 6.07496 13.8175 6.42805L14.7456 5.47803L14.5795 5.33564L14.5729 5.32996L14.5665 5.3241C14.0614 4.85981 13.9979 4.18342 14.1287 3.5954C14.261 3.00086 14.6053 2.39789 15.0715 1.92329C15.5385 1.44788 16.1627 1.06684 16.8768 0.978644ZM3.39729 5.93214C3.12276 5.9881 2.86398 6.08918 2.62942 6.22761L1.56245 3.82697C1.36159 3.37507 1.64139 2.85511 2.12919 2.77381C2.54399 2.70472 2.93551 2.98719 3.00065 3.40266L3.39729 5.93214ZM14.8068 6.84638L14.576 7.08265L15.8537 8.19001C15.9079 8.11207 15.998 8.06104 16.1002 8.06104C16.2659 8.06104 16.4002 8.19538 16.4002 8.36103C16.4002 8.44782 16.3633 8.52595 16.3045 8.58069L18.4754 10.4622C18.4835 10.4615 18.4918 10.4612 18.5001 10.4612C18.6597 10.4612 18.7902 10.5859 18.7995 10.7431L19.4128 11.2746C19.4499 11.1511 19.5645 11.061 19.7001 11.061C19.8658 11.061 20.0002 11.1954 20.0002 11.361C20.0002 11.4816 19.9291 11.5855 19.8265 11.6332C20.0098 11.792 20.2805 11.7964 20.4689 11.6437L20.7234 11.4373C20.8427 11.3406 20.905 11.2016 20.9084 11.061C20.9056 11.061 20.9029 11.0612 20.9001 11.0612C20.7344 11.0612 20.6001 10.9269 20.6001 10.7612C20.6001 10.6978 20.6197 10.639 20.6533 10.5906L20.2533 10.2061L20.2571 10.2021L18.4552 8.65772C18.3408 8.64057 18.2475 8.55872 18.2137 8.45063L17.5677 7.89698C17.5182 7.99445 17.4169 8.06116 17.3001 8.06116C17.1344 8.06116 17.0001 7.92689 17.0001 7.76118C17.0001 7.66083 17.0494 7.57197 17.1251 7.51752L15.5065 6.13019L15.183 6.46125C15.1941 6.4925 15.2001 6.52619 15.2001 6.56122C15.2001 6.72693 15.0658 6.86121 14.9001 6.86121C14.8675 6.86121 14.8361 6.85596 14.8068 6.84638ZM33.8253 22.0406C33.8718 21.9351 33.9772 21.8613 34.0999 21.8613C34.2227 21.8613 34.3282 21.9351 34.3746 22.0406H35.4178C35.7242 22.0406 36.0234 22.0018 36.3099 21.9293C36.3616 21.8868 36.4279 21.8613 36.5001 21.8613C36.5129 21.8613 36.5255 21.8622 36.5378 21.8637C36.8553 21.7611 37.1544 21.6164 37.427 21.4371C37.4702 21.3422 37.5614 21.2737 37.6696 21.2628C38.1105 20.9179 38.4647 20.4763 38.69 19.9753C38.6345 19.9209 38.6001 19.8451 38.6001 19.7612C38.6001 19.606 38.718 19.4783 38.8691 19.4628C38.919 19.2661 38.9496 19.063 38.9589 18.8555C38.9399 18.8593 38.9202 18.8612 38.9001 18.8612C38.7344 18.8612 38.6001 18.7269 38.6001 18.5612C38.6001 18.3956 38.7344 18.2612 38.9001 18.2612C38.9133 18.2612 38.9264 18.2621 38.9391 18.2637C38.924 18.0596 38.9038 17.8585 38.8776 17.6602C38.8274 17.6564 38.7807 17.6404 38.7404 17.615C38.5324 18.1019 38.2454 18.5485 37.8668 18.9116C37.9472 18.9655 38.0002 19.0571 38.0002 19.1611C38.0002 19.3268 37.8658 19.4611 37.7001 19.4611C37.5729 19.4611 37.4642 19.3818 37.4205 19.27C37.2195 19.4039 36.9989 19.5176 36.7577 19.6074C36.7846 19.6523 36.8001 19.705 36.8001 19.7612C36.8001 19.9269 36.6658 20.0612 36.5001 20.0612C36.3389 20.0612 36.2074 19.9341 36.2004 19.7747C35.3669 19.9893 34.3764 20.1219 33.154 20.2013C33.1831 20.2476 33.2 20.3023 33.2 20.361C33.2 20.5267 33.0657 20.661 32.9 20.661C32.7343 20.661 32.6 20.5267 32.6 20.361C32.6 20.3146 32.6105 20.2708 32.6293 20.2315C32.0654 20.26 31.4551 20.2791 30.792 20.2911C30.7973 20.3135 30.8002 20.3369 30.8002 20.361C30.8002 20.5267 30.6659 20.661 30.5002 20.661C30.3345 20.661 30.2002 20.5267 30.2002 20.361C30.2002 20.34 30.2024 20.3195 30.2065 20.2997C29.8835 20.3035 29.5488 20.306 29.2016 20.3073C28.9408 20.3083 28.6722 20.3086 28.3956 20.3084C28.3986 20.3254 28.4002 20.3431 28.4002 20.361C28.4002 20.5267 28.2659 20.661 28.1002 20.661C27.9345 20.661 27.8002 20.5267 27.8002 20.361C27.8002 20.3426 27.8018 20.3246 27.805 20.3071C27.2339 20.3051 26.6306 20.3012 25.9931 20.296C25.9977 20.3169 26.0002 20.3387 26.0002 20.361C26.0002 20.5267 25.8658 20.661 25.7001 20.661C25.5345 20.661 25.4001 20.5267 25.4001 20.361C25.4001 20.3369 25.403 20.3134 25.4084 20.291C24.8287 20.2858 24.2221 20.2797 23.5871 20.2734C23.5956 20.3011 23.6001 20.3305 23.6001 20.361C23.6001 20.5267 23.4658 20.661 23.3001 20.661C23.1344 20.661 23.0001 20.5267 23.0001 20.361C23.0001 20.3284 23.0053 20.297 23.015 20.2676C22.4266 20.2617 21.8149 20.2556 21.1788 20.2498C21.1925 20.2842 21.2001 20.3217 21.2001 20.361C21.2001 20.5267 21.0658 20.661 20.9001 20.661C20.7344 20.661 20.6001 20.5267 20.6001 20.361C20.6001 20.3198 20.6084 20.2805 20.6235 20.2448C20.0267 20.2395 19.4091 20.2346 18.77 20.23C18.7893 20.2697 18.8001 20.314 18.8001 20.361C18.8001 20.5267 18.6658 20.661 18.5001 20.661C18.3344 20.661 18.2001 20.5267 18.2001 20.361C18.2001 20.3126 18.2115 20.2669 18.2319 20.2264C17.6279 20.2225 17.0052 20.2191 16.3631 20.2165C16.3867 20.2593 16.4002 20.3087 16.4002 20.361C16.4002 20.5267 16.2659 20.661 16.1002 20.661C15.9345 20.661 15.8002 20.5267 15.8002 20.361C15.8002 20.3078 15.814 20.2579 15.8383 20.2145C15.2292 20.2125 14.6032 20.2111 13.9597 20.2105C13.9854 20.2548 14.0002 20.3062 14.0002 20.361C14.0002 20.5267 13.8658 20.661 13.7001 20.661C13.5345 20.661 13.4001 20.5267 13.4001 20.361C13.4001 20.2805 13.4319 20.2074 13.4835 20.1535C13.2254 20.0808 12.9874 19.9406 12.7995 19.7438C12.7998 19.7496 12.8 19.7554 12.8 19.7612C12.8 19.9269 12.6656 20.0612 12.5 20.0612C12.3343 20.0612 12.1999 19.9269 12.1999 19.7612C12.1999 19.5955 12.3343 19.4612 12.5 19.4612C12.5306 19.4612 12.5602 19.4658 12.5881 19.4744C12.2376 18.9996 11.8175 18.5906 11.3473 18.2575C11.3319 18.2599 11.3162 18.2611 11.3001 18.2611C11.1604 18.2611 11.043 18.1657 11.0096 18.0364C10.755 17.8828 10.4882 17.75 10.2119 17.6395C10.1773 17.6534 10.1396 17.661 10.1002 17.661C9.98675 17.661 9.88804 17.5981 9.83705 17.5053C9.30662 17.3367 8.74731 17.2479 8.17657 17.2479H7.97795C7.99219 17.2828 8.00003 17.321 8.00003 17.361C8.00003 17.5267 7.86571 17.661 7.70003 17.661C7.53433 17.661 7.40002 17.5267 7.40002 17.361C7.40002 17.321 7.40787 17.2828 7.4221 17.2479H5.57793C5.59216 17.2828 5.6 17.321 5.6 17.361C5.6 17.5267 5.46568 17.661 5.3 17.661C5.13431 17.661 5 17.5267 5 17.361C5 17.321 5.00784 17.2828 5.02206 17.2479L3.17792 17.2479C3.19214 17.2828 3.19998 17.321 3.19998 17.361C3.19998 17.5267 3.06566 17.661 2.89998 17.661C2.73429 17.661 2.59997 17.5267 2.59997 17.361C2.59997 17.321 2.60782 17.2828 2.62204 17.2479H1.62226V17.6713C1.64706 17.6647 1.67313 17.6611 1.70003 17.6611C1.86571 17.6611 2.00003 17.7955 2.00003 17.9611C2.00003 18.1268 1.86571 18.2611 1.70003 18.2611C1.67313 18.2611 1.64706 18.2576 1.62226 18.2509V18.8713C1.64706 18.8646 1.67313 18.8611 1.70003 18.8611C1.86571 18.8611 2.00003 18.9954 2.00003 19.1611C2.00003 19.3268 1.86571 19.4611 1.70003 19.4611C1.67313 19.4611 1.64706 19.4575 1.62226 19.4509V20.0712C1.64706 20.0646 1.67313 20.061 1.70003 20.061C1.86571 20.061 2.00003 20.1954 2.00003 20.361C2.00003 20.5267 1.86571 20.661 1.70003 20.661C1.6746 20.661 1.64991 20.6579 1.62633 20.6519C1.6432 20.8817 1.71184 21.0971 1.82062 21.2864C1.91849 21.3295 1.98901 21.4232 1.99885 21.5344C2.17644 21.735 2.4069 21.8877 2.66842 21.9706C2.72344 21.9039 2.80675 21.8613 2.89998 21.8613C3.02267 21.8613 3.12814 21.935 3.17464 22.0405H5.02534C5.07184 21.935 5.17731 21.8613 5.3 21.8613C5.42268 21.8613 5.52817 21.935 5.57466 22.0405H7.42537C7.47186 21.935 7.57733 21.8613 7.70003 21.8613C7.82271 21.8613 7.92819 21.935 7.97468 22.0405H9.82551C9.87201 21.935 9.97748 21.8613 10.1002 21.8613C10.2229 21.8613 10.3283 21.935 10.3748 22.0405H12.2253C12.2718 21.935 12.3773 21.8613 12.5 21.8613C12.6226 21.8613 12.7281 21.935 12.7746 22.0405H13.9966H14.6254C14.6719 21.935 14.7774 21.8613 14.9001 21.8613C15.0228 21.8613 15.1283 21.935 15.1748 22.0405H17.0255C17.072 21.935 17.1774 21.8613 17.3001 21.8613C17.4228 21.8613 17.5283 21.935 17.5748 22.0405L19.4255 22.0405C19.472 21.9351 19.5775 21.8613 19.7001 21.8613C19.8228 21.8613 19.9283 21.9351 19.9748 22.0405H21.8255C21.872 21.9351 21.9775 21.8613 22.1002 21.8613C22.2229 21.8613 22.3283 21.9351 22.3748 22.0405H24.2254C24.2719 21.9351 24.3774 21.8613 24.5001 21.8613C24.6228 21.8613 24.7282 21.9351 24.7747 22.0405H26.6256C26.6721 21.9351 26.7775 21.8613 26.9002 21.8613C27.0229 21.8613 27.1284 21.9351 27.1749 22.0405L29.0255 22.0406C29.072 21.9351 29.1774 21.8613 29.3001 21.8613C29.4228 21.8613 29.5283 21.9351 29.5748 22.0406H31.4255C31.472 21.9351 31.5775 21.8613 31.7001 21.8613C31.8228 21.8613 31.9283 21.9351 31.9748 22.0406H33.8253ZM37.7879 14.7548C37.9378 14.9615 38.0696 15.1729 38.1854 15.389C38.1629 16.949 37.5255 18.3359 36.2696 18.7172C36.0234 18.7919 35.7591 18.8579 35.4729 18.9159C35.4241 18.8814 35.3644 18.8611 35.3 18.8611C35.1965 18.8611 35.1053 18.9135 35.0514 18.9932C34.5129 19.082 33.902 19.1481 33.198 19.1961C33.1993 19.1846 33.2 19.1729 33.2 19.1611C33.2 18.9954 33.0657 18.8611 32.9 18.8611C32.7343 18.8611 32.6 18.9954 32.6 19.1611C32.6 19.1852 32.6028 19.2086 32.6082 19.2311C32.0518 19.2595 31.4421 19.2789 30.7706 19.2911C30.7896 19.2518 30.8002 19.2077 30.8002 19.1611C30.8002 18.9954 30.6659 18.8611 30.5002 18.8611C30.3345 18.8611 30.2002 18.9954 30.2002 19.1611C30.2002 19.2109 30.2124 19.2579 30.2339 19.2993C29.9029 19.3034 29.5579 19.306 29.1978 19.3074C28.9269 19.3084 28.6482 19.3087 28.3616 19.3084C28.3861 19.2649 28.4002 19.2146 28.4002 19.1611C28.4002 18.9954 28.2659 18.8611 28.1002 18.8611C27.9345 18.8611 27.8002 18.9954 27.8002 19.1611C27.8002 19.2142 27.8139 19.264 27.8381 19.3073C27.2486 19.3054 26.6263 19.3013 25.9682 19.2959C25.9886 19.2554 26.0002 19.2095 26.0002 19.1611C26.0002 18.9954 25.8658 18.8611 25.7001 18.8611C25.5345 18.8611 25.4001 18.9954 25.4001 19.1611C25.4001 19.2077 25.4108 19.2518 25.4298 19.2912C25.2624 19.2897 25.0929 19.2882 24.9211 19.2865L24.9222 19.2274C24.9455 18.0034 24.9722 16.6034 24.6984 15.1862C24.7608 15.1312 24.8001 15.0508 24.8001 14.9611C24.8001 14.8253 24.7097 14.7105 24.5858 14.6736C24.5342 14.4644 24.4752 14.2553 24.4079 14.0467C24.4369 14.0561 24.4679 14.0612 24.5001 14.0612C24.6658 14.0612 24.8001 13.9269 24.8001 13.7612C24.8001 13.5955 24.6658 13.4612 24.5001 13.4612C24.3951 13.4612 24.3027 13.5151 24.2491 13.5968C23.8014 12.4322 23.0704 11.2965 21.8839 10.2795L15.2381 4.58308C15.0988 4.45087 15.0178 4.2038 15.1049 3.81257C15.1916 3.42304 15.4327 2.98255 15.7848 2.62409C16.1361 2.26649 16.5631 2.02497 16.9994 1.97108C17.4183 1.91938 17.902 2.03266 18.4123 2.48969C23.8655 7.3744 28.057 9.49665 31.245 10.8933C31.7465 11.1129 32.2168 11.3121 32.6597 11.4998C33.6351 11.913 34.4778 12.27 35.2291 12.6657C36.3007 13.2301 37.1293 13.847 37.7879 14.7548ZM23.9204 19.1924L23.9191 19.2767L23.3712 19.2712C22.6775 19.2642 21.9502 19.2568 21.1868 19.2498C21.1954 19.2217 21.2001 19.192 21.2001 19.1611C21.2001 18.9954 21.0658 18.8611 20.9001 18.8611C20.7344 18.8611 20.6001 18.9954 20.6001 19.1611C20.6001 19.1901 20.6042 19.2181 20.6119 19.2446C20.0262 19.2394 19.42 19.2344 18.7921 19.23C18.7973 19.2079 18.8001 19.1848 18.8001 19.1611C18.8001 18.9954 18.6658 18.8611 18.5001 18.8611C18.3344 18.8611 18.2001 18.9954 18.2001 19.1611C18.2001 19.1834 18.2025 19.2052 18.2072 19.2261C17.6216 19.2224 17.0179 19.2191 16.395 19.2166C16.3984 19.1986 16.4002 19.1801 16.4002 19.1611C16.4002 18.9954 16.2659 18.8611 16.1002 18.8611C15.9345 18.8611 15.8002 18.9954 15.8002 19.1611C15.8002 19.1793 15.8018 19.1971 15.8049 19.2144C15.2186 19.2124 14.6159 19.2111 13.9961 19.2105C13.9988 19.1944 14.0002 19.1779 14.0002 19.1611C14.0002 18.9954 13.8658 18.8611 13.7001 18.8611C13.6036 18.8611 13.5177 18.9067 13.4629 18.9775C12.8928 18.1747 12.1569 17.5247 11.3195 17.0606C11.4761 17.0505 11.6001 16.9204 11.6001 16.7612C11.6001 16.5955 11.4658 16.4612 11.3001 16.4612C11.1344 16.4612 11.0001 16.5955 11.0001 16.7612C11.0001 16.8178 11.0158 16.8707 11.0431 16.9159C10.1637 16.4825 9.18522 16.2479 8.17657 16.2479H7.98729C7.99557 16.2204 8.00003 16.1912 8.00003 16.1611C8.00003 15.9954 7.86571 15.8611 7.70003 15.8611C7.53433 15.8611 7.40002 15.9954 7.40002 16.1611C7.40002 16.1913 7.40448 16.2204 7.41276 16.2479H5.58725C5.59555 16.2204 5.6 16.1913 5.6 16.1611C5.6 15.9954 5.46568 15.8611 5.3 15.8611C5.13431 15.8611 5 15.9954 5 16.1611C5 16.1913 5.00445 16.2204 5.01275 16.2479L3.18722 16.2479C3.19552 16.2205 3.19998 16.1913 3.19998 16.1611C3.19998 15.9954 3.06566 15.8611 2.89998 15.8611C2.73429 15.8611 2.59997 15.9954 2.59997 16.1611C2.59997 16.1913 2.60443 16.2205 2.61273 16.2479H1.67515L1.71042 15.861C1.8713 15.8555 2.00003 15.7235 2.00003 15.5612C2.00003 15.4177 1.89919 15.2977 1.76449 15.2682L1.82222 14.6351C1.927 14.5883 2.00003 14.4832 2.00003 14.361C2.00003 14.2584 1.94845 14.1677 1.86977 14.1137L1.94025 13.3408C1.97779 13.2907 2.00003 13.2285 2.00003 13.1611C2.00003 13.1132 1.98879 13.0678 1.9688 13.0277L2.40489 8.24549C2.47533 7.47303 3.12305 6.88172 3.8987 6.88172H12.2577C12.6185 6.88172 12.9673 7.01185 13.24 7.24818L19.1716 12.3889C19.7213 12.8653 20.5336 12.8786 21.0987 12.4205L21.3532 12.2141C21.5671 12.0407 21.7199 11.822 21.8104 11.584C24.0041 13.8749 23.96 16.6765 23.9204 19.1924ZM3.19998 12.5612C3.19998 12.7269 3.06566 12.8612 2.89998 12.8612C2.73429 12.8612 2.59997 12.7269 2.59997 12.5612C2.59997 12.3956 2.73429 12.2612 2.89998 12.2612C3.06566 12.2612 3.19998 12.3956 3.19998 12.5612ZM3.19998 13.7612C3.19998 13.9269 3.06566 14.0612 2.89998 14.0612C2.73429 14.0612 2.59997 13.9269 2.59997 13.7612C2.59997 13.5955 2.73429 13.4612 2.89998 13.4612C3.06566 13.4612 3.19998 13.5955 3.19998 13.7612ZM2.89998 15.2611C3.06566 15.2611 3.19998 15.1268 3.19998 14.9611C3.19998 14.7955 3.06566 14.6611 2.89998 14.6611C2.73429 14.6611 2.59997 14.7955 2.59997 14.9611C2.59997 15.1268 2.73429 15.2611 2.89998 15.2611ZM2.89998 18.8612C3.06566 18.8612 3.19998 18.7269 3.19998 18.5612C3.19998 18.3956 3.06566 18.2612 2.89998 18.2612C2.73429 18.2612 2.59997 18.3956 2.59997 18.5612C2.59997 18.7269 2.73429 18.8612 2.89998 18.8612ZM2.89998 20.0612C3.06566 20.0612 3.19998 19.9269 3.19998 19.7612C3.19998 19.5955 3.06566 19.4612 2.89998 19.4612C2.73429 19.4612 2.59997 19.5955 2.59997 19.7612C2.59997 19.9269 2.73429 20.0612 2.89998 20.0612ZM3.19998 20.9611C3.19998 21.1268 3.06566 21.2611 2.89998 21.2611C2.73429 21.2611 2.59997 21.1268 2.59997 20.9611C2.59997 20.7955 2.73429 20.6611 2.89998 20.6611C3.06566 20.6611 3.19998 20.7955 3.19998 20.9611ZM5.6 12.5612C5.6 12.7269 5.46568 12.8612 5.3 12.8612C5.13431 12.8612 5 12.7269 5 12.5612C5 12.3956 5.13431 12.2612 5.3 12.2612C5.46568 12.2612 5.6 12.3956 5.6 12.5612ZM4.10005 13.4611C4.26573 13.4611 4.40005 13.3268 4.40005 13.1611C4.40005 12.9954 4.26573 12.8611 4.10005 12.8611C3.93436 12.8611 3.80005 12.9954 3.80005 13.1611C3.80005 13.3268 3.93436 13.4611 4.10005 13.4611ZM4.40005 14.361C4.40005 14.5267 4.26573 14.661 4.10005 14.661C3.93436 14.661 3.80005 14.5267 3.80005 14.361C3.80005 14.1954 3.93436 14.061 4.10005 14.061C4.26573 14.061 4.40005 14.1954 4.40005 14.361ZM5.3 14.0612C5.46568 14.0612 5.6 13.9269 5.6 13.7612C5.6 13.5955 5.46568 13.4612 5.3 13.4612C5.13431 13.4612 5 13.5955 5 13.7612C5 13.9269 5.13431 14.0612 5.3 14.0612ZM5.6 14.9611C5.6 15.1268 5.46568 15.2611 5.3 15.2611C5.13431 15.2611 5 15.1268 5 14.9611C5 14.7955 5.13431 14.6611 5.3 14.6611C5.46568 14.6611 5.6 14.7955 5.6 14.9611ZM4.10005 15.8612C4.26573 15.8612 4.40005 15.7269 4.40005 15.5612C4.40005 15.3956 4.26573 15.2612 4.10005 15.2612C3.93436 15.2612 3.80005 15.3956 3.80005 15.5612C3.80005 15.7269 3.93436 15.8612 4.10005 15.8612ZM4.40005 17.9611C4.40005 18.1268 4.26573 18.2611 4.10005 18.2611C3.93436 18.2611 3.80005 18.1268 3.80005 17.9611C3.80005 17.7955 3.93436 17.6611 4.10005 17.6611C4.26573 17.6611 4.40005 17.7955 4.40005 17.9611ZM5.6 18.5612C5.6 18.7269 5.46568 18.8612 5.3 18.8612C5.13431 18.8612 5 18.7269 5 18.5612C5 18.3956 5.13431 18.2612 5.3 18.2612C5.46568 18.2612 5.6 18.3956 5.6 18.5612ZM4.10005 19.4611C4.26573 19.4611 4.40005 19.3268 4.40005 19.1611C4.40005 18.9954 4.26573 18.8611 4.10005 18.8611C3.93436 18.8611 3.80005 18.9954 3.80005 19.1611C3.80005 19.3268 3.93436 19.4611 4.10005 19.4611ZM5.6 19.7612C5.6 19.9269 5.46568 20.0612 5.3 20.0612C5.13431 20.0612 5 19.9269 5 19.7612C5 19.5955 5.13431 19.4612 5.3 19.4612C5.46568 19.4612 5.6 19.5955 5.6 19.7612ZM4.10005 20.661C4.26573 20.661 4.40005 20.5267 4.40005 20.361C4.40005 20.1954 4.26573 20.061 4.10005 20.061C3.93436 20.061 3.80005 20.1954 3.80005 20.361C3.80005 20.5267 3.93436 20.661 4.10005 20.661ZM4.40005 21.5612C4.40005 21.7269 4.26573 21.8612 4.10005 21.8612C3.93436 21.8612 3.80005 21.7269 3.80005 21.5612C3.80005 21.3956 3.93436 21.2612 4.10005 21.2612C4.26573 21.2612 4.40005 21.3956 4.40005 21.5612ZM5.3 21.2611C5.46568 21.2611 5.6 21.1268 5.6 20.9611C5.6 20.7955 5.46568 20.6611 5.3 20.6611C5.13431 20.6611 5 20.7955 5 20.9611C5 21.1268 5.13431 21.2611 5.3 21.2611ZM7.70003 12.8612C7.86571 12.8612 8.00003 12.7269 8.00003 12.5612C8.00003 12.3956 7.86571 12.2612 7.70003 12.2612C7.53433 12.2612 7.40002 12.3956 7.40002 12.5612C7.40002 12.7269 7.53433 12.8612 7.70003 12.8612ZM6.79996 13.1611C6.79996 13.3268 6.66563 13.4611 6.49995 13.4611C6.33426 13.4611 6.19995 13.3268 6.19995 13.1611C6.19995 12.9954 6.33426 12.8611 6.49995 12.8611C6.66563 12.8611 6.79996 12.9954 6.79996 13.1611ZM6.49995 14.661C6.66563 14.661 6.79996 14.5267 6.79996 14.361C6.79996 14.1954 6.66563 14.061 6.49995 14.061C6.33426 14.061 6.19995 14.1954 6.19995 14.361C6.19995 14.5267 6.33426 14.661 6.49995 14.661ZM8.00003 13.7612C8.00003 13.9269 7.86571 14.0612 7.70003 14.0612C7.53433 14.0612 7.40002 13.9269 7.40002 13.7612C7.40002 13.5955 7.53433 13.4612 7.70003 13.4612C7.86571 13.4612 8.00003 13.5955 8.00003 13.7612ZM7.70003 15.2611C7.86571 15.2611 8.00003 15.1268 8.00003 14.9611C8.00003 14.7955 7.86571 14.6611 7.70003 14.6611C7.53433 14.6611 7.40002 14.7955 7.40002 14.9611C7.40002 15.1268 7.53433 15.2611 7.70003 15.2611ZM6.79996 15.5612C6.79996 15.7269 6.66563 15.8612 6.49995 15.8612C6.33426 15.8612 6.19995 15.7269 6.19995 15.5612C6.19995 15.3956 6.33426 15.2612 6.49995 15.2612C6.66563 15.2612 6.79996 15.3956 6.79996 15.5612ZM6.49995 18.2611C6.66563 18.2611 6.79996 18.1268 6.79996 17.9611C6.79996 17.7955 6.66563 17.6611 6.49995 17.6611C6.33426 17.6611 6.19995 17.7955 6.19995 17.9611C6.19995 18.1268 6.33426 18.2611 6.49995 18.2611ZM7.70003 18.8612C7.86571 18.8612 8.00003 18.7269 8.00003 18.5612C8.00003 18.3956 7.86571 18.2612 7.70003 18.2612C7.53433 18.2612 7.40002 18.3956 7.40002 18.5612C7.40002 18.7269 7.53433 18.8612 7.70003 18.8612ZM6.79996 19.1611C6.79996 19.3268 6.66563 19.4611 6.49995 19.4611C6.33426 19.4611 6.19995 19.3268 6.19995 19.1611C6.19995 18.9954 6.33426 18.8611 6.49995 18.8611C6.66563 18.8611 6.79996 18.9954 6.79996 19.1611ZM7.70003 20.0612C7.86571 20.0612 8.00003 19.9269 8.00003 19.7612C8.00003 19.5955 7.86571 19.4612 7.70003 19.4612C7.53433 19.4612 7.40002 19.5955 7.40002 19.7612C7.40002 19.9269 7.53433 20.0612 7.70003 20.0612ZM6.79996 20.361C6.79996 20.5267 6.66563 20.661 6.49995 20.661C6.33426 20.661 6.19995 20.5267 6.19995 20.361C6.19995 20.1954 6.33426 20.061 6.49995 20.061C6.66563 20.061 6.79996 20.1954 6.79996 20.361ZM6.49995 21.8612C6.66563 21.8612 6.79996 21.7269 6.79996 21.5612C6.79996 21.3956 6.66563 21.2612 6.49995 21.2612C6.33426 21.2612 6.19995 21.3956 6.19995 21.5612C6.19995 21.7269 6.33426 21.8612 6.49995 21.8612ZM8.00003 20.9611C8.00003 21.1268 7.86571 21.2611 7.70003 21.2611C7.53433 21.2611 7.40002 21.1268 7.40002 20.9611C7.40002 20.7955 7.53433 20.6611 7.70003 20.6611C7.86571 20.6611 8.00003 20.7955 8.00003 20.9611ZM9.2001 13.1611C9.2001 13.3268 9.06578 13.4611 8.9001 13.4611C8.7344 13.4611 8.6001 13.3268 8.6001 13.1611C8.6001 12.9954 8.7344 12.8611 8.9001 12.8611C9.06578 12.8611 9.2001 12.9954 9.2001 13.1611ZM8.9001 14.661C9.06578 14.661 9.2001 14.5267 9.2001 14.361C9.2001 14.1954 9.06578 14.061 8.9001 14.061C8.7344 14.061 8.6001 14.1954 8.6001 14.361C8.6001 14.5267 8.7344 14.661 8.9001 14.661ZM10.4002 13.7612C10.4002 13.9269 10.2659 14.0612 10.1002 14.0612C9.93448 14.0612 9.80017 13.9269 9.80017 13.7612C9.80017 13.5955 9.93448 13.4612 10.1002 13.4612C10.2659 13.4612 10.4002 13.5955 10.4002 13.7612ZM10.1002 15.2611C10.2659 15.2611 10.4002 15.1268 10.4002 14.9611C10.4002 14.7955 10.2659 14.6611 10.1002 14.6611C9.93448 14.6611 9.80017 14.7955 9.80017 14.9611C9.80017 15.1268 9.93448 15.2611 10.1002 15.2611ZM9.2001 15.5612C9.2001 15.7269 9.06578 15.8612 8.9001 15.8612C8.7344 15.8612 8.6001 15.7269 8.6001 15.5612C8.6001 15.3956 8.7344 15.2612 8.9001 15.2612C9.06578 15.2612 9.2001 15.3956 9.2001 15.5612ZM10.1002 16.4611C10.2659 16.4611 10.4002 16.3268 10.4002 16.1611C10.4002 15.9954 10.2659 15.8611 10.1002 15.8611C9.93448 15.8611 9.80017 15.9954 9.80017 16.1611C9.80017 16.3268 9.93448 16.4611 10.1002 16.4611ZM8.9001 18.2611C9.06578 18.2611 9.2001 18.1268 9.2001 17.9611C9.2001 17.7955 9.06578 17.6611 8.9001 17.6611C8.7344 17.6611 8.6001 17.7955 8.6001 17.9611C8.6001 18.1268 8.7344 18.2611 8.9001 18.2611ZM10.1002 18.8612C10.2659 18.8612 10.4002 18.7269 10.4002 18.5612C10.4002 18.3956 10.2659 18.2612 10.1002 18.2612C9.93448 18.2612 9.80017 18.3956 9.80017 18.5612C9.80017 18.7269 9.93448 18.8612 10.1002 18.8612ZM9.2001 19.1611C9.2001 19.3268 9.06578 19.4611 8.9001 19.4611C8.7344 19.4611 8.6001 19.3268 8.6001 19.1611C8.6001 18.9954 8.7344 18.8611 8.9001 18.8611C9.06578 18.8611 9.2001 18.9954 9.2001 19.1611ZM10.1002 20.0612C10.2659 20.0612 10.4002 19.9269 10.4002 19.7612C10.4002 19.5955 10.2659 19.4612 10.1002 19.4612C9.93448 19.4612 9.80017 19.5955 9.80017 19.7612C9.80017 19.9269 9.93448 20.0612 10.1002 20.0612ZM9.2001 20.361C9.2001 20.5267 9.06578 20.661 8.9001 20.661C8.7344 20.661 8.6001 20.5267 8.6001 20.361C8.6001 20.1954 8.7344 20.061 8.9001 20.061C9.06578 20.061 9.2001 20.1954 9.2001 20.361ZM8.9001 21.8612C9.06578 21.8612 9.2001 21.7269 9.2001 21.5612C9.2001 21.3956 9.06578 21.2612 8.9001 21.2612C8.7344 21.2612 8.6001 21.3956 8.6001 21.5612C8.6001 21.7269 8.7344 21.8612 8.9001 21.8612ZM10.4002 20.9611C10.4002 21.1268 10.2659 21.2611 10.1002 21.2611C9.93448 21.2611 9.80017 21.1268 9.80017 20.9611C9.80017 20.7955 9.93448 20.6611 10.1002 20.6611C10.2659 20.6611 10.4002 20.7955 10.4002 20.9611ZM11.6001 14.361C11.6001 14.5267 11.4658 14.661 11.3001 14.661C11.1344 14.661 11.0001 14.5267 11.0001 14.361C11.0001 14.1954 11.1344 14.061 11.3001 14.061C11.4658 14.061 11.6001 14.1954 11.6001 14.361ZM12.5 15.2611C12.6656 15.2611 12.8 15.1268 12.8 14.9611C12.8 14.7955 12.6656 14.6611 12.5 14.6611C12.3343 14.6611 12.1999 14.7955 12.1999 14.9611C12.1999 15.1268 12.3343 15.2611 12.5 15.2611ZM11.6001 15.5612C11.6001 15.7269 11.4658 15.8612 11.3001 15.8612C11.1344 15.8612 11.0001 15.7269 11.0001 15.5612C11.0001 15.3956 11.1344 15.2612 11.3001 15.2612C11.4658 15.2612 11.6001 15.3956 11.6001 15.5612ZM12.5 16.4611C12.6656 16.4611 12.8 16.3268 12.8 16.1611C12.8 15.9954 12.6656 15.8611 12.5 15.8611C12.3343 15.8611 12.1999 15.9954 12.1999 16.1611C12.1999 16.3268 12.3343 16.4611 12.5 16.4611ZM12.8 17.361C12.8 17.5267 12.6656 17.661 12.5 17.661C12.3343 17.661 12.1999 17.5267 12.1999 17.361C12.1999 17.1954 12.3343 17.061 12.5 17.061C12.6656 17.061 12.8 17.1954 12.8 17.361ZM11.6001 19.1611C11.6001 19.3268 11.4658 19.4611 11.3001 19.4611C11.1344 19.4611 11.0001 19.3268 11.0001 19.1611C11.0001 18.9954 11.1344 18.8611 11.3001 18.8611C11.4658 18.8611 11.6001 18.9954 11.6001 19.1611ZM11.6001 20.361C11.6001 20.5267 11.4658 20.661 11.3001 20.661C11.1344 20.661 11.0001 20.5267 11.0001 20.361C11.0001 20.1954 11.1344 20.061 11.3001 20.061C11.4658 20.061 11.6001 20.1954 11.6001 20.361ZM11.3001 21.8612C11.4658 21.8612 11.6001 21.7269 11.6001 21.5612C11.6001 21.3956 11.4658 21.2612 11.3001 21.2612C11.1344 21.2612 11.0001 21.3956 11.0001 21.5612C11.0001 21.7269 11.1344 21.8612 11.3001 21.8612ZM12.8 20.9611C12.8 21.1268 12.6656 21.2611 12.5 21.2611C12.3343 21.2611 12.1999 21.1268 12.1999 20.9611C12.1999 20.7955 12.3343 20.6611 12.5 20.6611C12.6656 20.6611 12.8 20.7955 12.8 20.9611ZM14.0002 15.5612C14.0002 15.7269 13.8658 15.8612 13.7001 15.8612C13.5345 15.8612 13.4001 15.7269 13.4001 15.5612C13.4001 15.3956 13.5345 15.2612 13.7001 15.2612C13.8658 15.2612 14.0002 15.3956 14.0002 15.5612ZM14.9001 16.4611C15.0658 16.4611 15.2001 16.3268 15.2001 16.1611C15.2001 15.9954 15.0658 15.8611 14.9001 15.8611C14.7344 15.8611 14.6001 15.9954 14.6001 16.1611C14.6001 16.3268 14.7344 16.4611 14.9001 16.4611ZM14.0002 16.7612C14.0002 16.9269 13.8658 17.0612 13.7001 17.0612C13.5345 17.0612 13.4001 16.9269 13.4001 16.7612C13.4001 16.5955 13.5345 16.4612 13.7001 16.4612C13.8658 16.4612 14.0002 16.5955 14.0002 16.7612ZM13.7001 18.2611C13.8658 18.2611 14.0002 18.1268 14.0002 17.9611C14.0002 17.7955 13.8658 17.6611 13.7001 17.6611C13.5345 17.6611 13.4001 17.7955 13.4001 17.9611C13.4001 18.1268 13.5345 18.2611 13.7001 18.2611ZM15.2001 17.361C15.2001 17.5267 15.0658 17.661 14.9001 17.661C14.7344 17.661 14.6001 17.5267 14.6001 17.361C14.6001 17.1954 14.7344 17.061 14.9001 17.061C15.0658 17.061 15.2001 17.1954 15.2001 17.361ZM14.9001 18.8612C15.0658 18.8612 15.2001 18.7269 15.2001 18.5612C15.2001 18.3956 15.0658 18.2612 14.9001 18.2612C14.7344 18.2612 14.6001 18.3956 14.6001 18.5612C14.6001 18.7269 14.7344 18.8612 14.9001 18.8612ZM13.7001 21.8612C13.8658 21.8612 14.0002 21.7269 14.0002 21.5612C14.0002 21.3956 13.8658 21.2612 13.7001 21.2612C13.5345 21.2612 13.4001 21.3956 13.4001 21.5612C13.4001 21.7269 13.5345 21.8612 13.7001 21.8612ZM15.2001 20.9611C15.2001 21.1268 15.0658 21.2611 14.9001 21.2611C14.7344 21.2611 14.6001 21.1268 14.6001 20.9611C14.6001 20.7955 14.7344 20.6611 14.9001 20.6611C15.0658 20.6611 15.2001 20.7955 15.2001 20.9611ZM16.1002 7.46107C16.2659 7.46107 16.4002 7.32679 16.4002 7.16108C16.4002 6.99543 16.2659 6.86109 16.1002 6.86109C15.9345 6.86109 15.8002 6.99543 15.8002 7.16108C15.8002 7.32679 15.9345 7.46107 16.1002 7.46107ZM17.6001 8.96113C17.6001 9.12684 17.4658 9.26111 17.3001 9.26111C17.1344 9.26111 17.0001 9.12684 17.0001 8.96113C17.0001 8.79548 17.1344 8.66114 17.3001 8.66114C17.4658 8.66114 17.6001 8.79548 17.6001 8.96113ZM16.4002 16.7612C16.4002 16.9269 16.2659 17.0612 16.1002 17.0612C15.9345 17.0612 15.8002 16.9269 15.8002 16.7612C15.8002 16.5955 15.9345 16.4612 16.1002 16.4612C16.2659 16.4612 16.4002 16.5955 16.4002 16.7612ZM16.1002 18.2611C16.2659 18.2611 16.4002 18.1268 16.4002 17.9611C16.4002 17.7955 16.2659 17.6611 16.1002 17.6611C15.9345 17.6611 15.8002 17.7955 15.8002 17.9611C15.8002 18.1268 15.9345 18.2611 16.1002 18.2611ZM17.6001 17.361C17.6001 17.5267 17.4658 17.661 17.3001 17.661C17.1344 17.661 17.0001 17.5267 17.0001 17.361C17.0001 17.1954 17.1344 17.061 17.3001 17.061C17.4658 17.061 17.6001 17.1954 17.6001 17.361ZM17.3001 18.8612C17.4658 18.8612 17.6001 18.7269 17.6001 18.5612C17.6001 18.3956 17.4658 18.2612 17.3001 18.2612C17.1344 18.2612 17.0001 18.3956 17.0001 18.5612C17.0001 18.7269 17.1344 18.8612 17.3001 18.8612ZM16.1002 21.8612C16.2659 21.8612 16.4002 21.7269 16.4002 21.5612C16.4002 21.3956 16.2659 21.2612 16.1002 21.2612C15.9345 21.2612 15.8002 21.3956 15.8002 21.5612C15.8002 21.7269 15.9345 21.8612 16.1002 21.8612ZM17.6001 20.9611C17.6001 21.1268 17.4658 21.2611 17.3001 21.2611C17.1344 21.2611 17.0001 21.1268 17.0001 20.9611C17.0001 20.7955 17.1344 20.6611 17.3001 20.6611C17.4658 20.6611 17.6001 20.7955 17.6001 20.9611ZM18.8001 9.56122C18.8001 9.72693 18.6658 9.86121 18.5001 9.86121C18.3344 9.86121 18.2001 9.72693 18.2001 9.56122C18.2001 9.39557 18.3344 9.26124 18.5001 9.26124C18.6658 9.26124 18.8001 9.39557 18.8001 9.56122ZM20.0002 10.1611C20.0002 10.3268 19.8658 10.4611 19.7001 10.4611C19.5345 10.4611 19.4001 10.3268 19.4001 10.1611C19.4001 9.99543 19.5345 9.86109 19.7001 9.86109C19.8658 9.86109 20.0002 9.99543 20.0002 10.1611ZM18.8001 17.9611C18.8001 18.1268 18.6658 18.2611 18.5001 18.2611C18.3344 18.2611 18.2001 18.1268 18.2001 17.9611C18.2001 17.7955 18.3344 17.6611 18.5001 17.6611C18.6658 17.6611 18.8001 17.7955 18.8001 17.9611ZM19.7001 18.8612C19.8658 18.8612 20.0002 18.7269 20.0002 18.5612C20.0002 18.3956 19.8658 18.2612 19.7001 18.2612C19.5345 18.2612 19.4001 18.3956 19.4001 18.5612C19.4001 18.7269 19.5345 18.8612 19.7001 18.8612ZM18.5001 21.8612C18.6658 21.8612 18.8001 21.7269 18.8001 21.5612C18.8001 21.3956 18.6658 21.2612 18.5001 21.2612C18.3344 21.2612 18.2001 21.3956 18.2001 21.5612C18.2001 21.7269 18.3344 21.8612 18.5001 21.8612ZM20.0002 20.9611C20.0002 21.1268 19.8658 21.2611 19.7001 21.2611C19.5345 21.2611 19.4001 21.1268 19.4001 20.9611C19.4001 20.7955 19.5345 20.6611 19.7001 20.6611C19.8658 20.6611 20.0002 20.7955 20.0002 20.9611ZM21.2001 21.5612C21.2001 21.7269 21.0658 21.8612 20.9001 21.8612C20.7344 21.8612 20.6001 21.7269 20.6001 21.5612C20.6001 21.3956 20.7344 21.2612 20.9001 21.2612C21.0658 21.2612 21.2001 21.3956 21.2001 21.5612ZM22.1002 21.2611C22.2659 21.2611 22.4002 21.1268 22.4002 20.9611C22.4002 20.7955 22.2659 20.6611 22.1002 20.6611C21.9345 20.6611 21.8002 20.7955 21.8002 20.9611C21.8002 21.1268 21.9345 21.2611 22.1002 21.2611ZM23.3001 21.8612C23.4658 21.8612 23.6001 21.7269 23.6001 21.5612C23.6001 21.3956 23.4658 21.2612 23.3001 21.2612C23.1344 21.2612 23.0001 21.3956 23.0001 21.5612C23.0001 21.7269 23.1344 21.8612 23.3001 21.8612ZM24.8001 20.9611C24.8001 21.1268 24.6658 21.2611 24.5001 21.2611C24.3344 21.2611 24.2001 21.1268 24.2001 20.9611C24.2001 20.7955 24.3344 20.6611 24.5001 20.6611C24.6658 20.6611 24.8001 20.7955 24.8001 20.9611ZM26.0002 14.361C26.0002 14.5267 25.8658 14.661 25.7001 14.661C25.5345 14.661 25.4001 14.5267 25.4001 14.361C25.4001 14.1954 25.5345 14.061 25.7001 14.061C25.8658 14.061 26.0002 14.1954 26.0002 14.361ZM26.9002 15.2611C27.0659 15.2611 27.2002 15.1268 27.2002 14.9611C27.2002 14.7955 27.0659 14.6611 26.9002 14.6611C26.7345 14.6611 26.6002 14.7955 26.6002 14.9611C26.6002 15.1268 26.7345 15.2611 26.9002 15.2611ZM26.0002 15.5612C26.0002 15.7269 25.8658 15.8612 25.7001 15.8612C25.5345 15.8612 25.4001 15.7269 25.4001 15.5612C25.4001 15.3956 25.5345 15.2612 25.7001 15.2612C25.8658 15.2612 26.0002 15.3956 26.0002 15.5612ZM26.9002 16.4611C27.0659 16.4611 27.2002 16.3268 27.2002 16.1611C27.2002 15.9954 27.0659 15.8611 26.9002 15.8611C26.7345 15.8611 26.6002 15.9954 26.6002 16.1611C26.6002 16.3268 26.7345 16.4611 26.9002 16.4611ZM26.0002 16.7612C26.0002 16.9269 25.8658 17.0612 25.7001 17.0612C25.5345 17.0612 25.4001 16.9269 25.4001 16.7612C25.4001 16.5955 25.5345 16.4612 25.7001 16.4612C25.8658 16.4612 26.0002 16.5955 26.0002 16.7612ZM25.7001 18.2611C25.8658 18.2611 26.0002 18.1268 26.0002 17.9611C26.0002 17.7955 25.8658 17.6611 25.7001 17.6611C25.5345 17.6611 25.4001 17.7955 25.4001 17.9611C25.4001 18.1268 25.5345 18.2611 25.7001 18.2611ZM27.2002 17.361C27.2002 17.5267 27.0659 17.661 26.9002 17.661C26.7345 17.661 26.6002 17.5267 26.6002 17.361C26.6002 17.1954 26.7345 17.061 26.9002 17.061C27.0659 17.061 27.2002 17.1954 27.2002 17.361ZM26.9002 18.8612C27.0659 18.8612 27.2002 18.7269 27.2002 18.5612C27.2002 18.3956 27.0659 18.2612 26.9002 18.2612C26.7345 18.2612 26.6002 18.3956 26.6002 18.5612C26.6002 18.7269 26.7345 18.8612 26.9002 18.8612ZM25.7001 21.8612C25.8658 21.8612 26.0002 21.7269 26.0002 21.5612C26.0002 21.3956 25.8658 21.2612 25.7001 21.2612C25.5345 21.2612 25.4001 21.3956 25.4001 21.5612C25.4001 21.7269 25.5345 21.8612 25.7001 21.8612ZM27.2002 20.9611C27.2002 21.1268 27.0659 21.2611 26.9002 21.2611C26.7345 21.2611 26.6002 21.1268 26.6002 20.9611C26.6002 20.7955 26.7345 20.6611 26.9002 20.6611C27.0659 20.6611 27.2002 20.7955 27.2002 20.9611ZM28.4002 15.5612C28.4002 15.7269 28.2659 15.8612 28.1002 15.8612C27.9345 15.8612 27.8002 15.7269 27.8002 15.5612C27.8002 15.3956 27.9345 15.2612 28.1002 15.2612C28.2659 15.2612 28.4002 15.3956 28.4002 15.5612ZM29.3001 16.4611C29.4658 16.4611 29.6001 16.3268 29.6001 16.1611C29.6001 15.9954 29.4658 15.8611 29.3001 15.8611C29.1344 15.8611 29.0001 15.9954 29.0001 16.1611C29.0001 16.3268 29.1344 16.4611 29.3001 16.4611ZM28.4002 16.7612C28.4002 16.9269 28.2659 17.0612 28.1002 17.0612C27.9345 17.0612 27.8002 16.9269 27.8002 16.7612C27.8002 16.5955 27.9345 16.4612 28.1002 16.4612C28.2659 16.4612 28.4002 16.5955 28.4002 16.7612ZM28.1002 18.2611C28.2659 18.2611 28.4002 18.1268 28.4002 17.9611C28.4002 17.7955 28.2659 17.6611 28.1002 17.6611C27.9345 17.6611 27.8002 17.7955 27.8002 17.9611C27.8002 18.1268 27.9345 18.2611 28.1002 18.2611ZM29.6001 17.361C29.6001 17.5267 29.4658 17.661 29.3001 17.661C29.1344 17.661 29.0001 17.5267 29.0001 17.361C29.0001 17.1954 29.1344 17.061 29.3001 17.061C29.4658 17.061 29.6001 17.1954 29.6001 17.361ZM29.3001 18.8612C29.4658 18.8612 29.6001 18.7269 29.6001 18.5612C29.6001 18.3956 29.4658 18.2612 29.3001 18.2612C29.1344 18.2612 29.0001 18.3956 29.0001 18.5612C29.0001 18.7269 29.1344 18.8612 29.3001 18.8612ZM28.1002 21.8612C28.2659 21.8612 28.4002 21.7269 28.4002 21.5612C28.4002 21.3956 28.2659 21.2612 28.1002 21.2612C27.9345 21.2612 27.8002 21.3956 27.8002 21.5612C27.8002 21.7269 27.9345 21.8612 28.1002 21.8612ZM29.6001 20.9611C29.6001 21.1268 29.4658 21.2611 29.3001 21.2611C29.1344 21.2611 29.0001 21.1268 29.0001 20.9611C29.0001 20.7955 29.1344 20.6611 29.3001 20.6611C29.4658 20.6611 29.6001 20.7955 29.6001 20.9611ZM30.8002 16.7612C30.8002 16.9269 30.6659 17.0612 30.5002 17.0612C30.3345 17.0612 30.2002 16.9269 30.2002 16.7612C30.2002 16.5955 30.3345 16.4612 30.5002 16.4612C30.6659 16.4612 30.8002 16.5955 30.8002 16.7612ZM30.5002 18.2611C30.6659 18.2611 30.8002 18.1268 30.8002 17.9611C30.8002 17.7955 30.6659 17.6611 30.5002 17.6611C30.3345 17.6611 30.2002 17.7955 30.2002 17.9611C30.2002 18.1268 30.3345 18.2611 30.5002 18.2611ZM32.0002 17.361C32.0002 17.5267 31.8658 17.661 31.7001 17.661C31.5345 17.661 31.4001 17.5267 31.4001 17.361C31.4001 17.1954 31.5345 17.061 31.7001 17.061C31.8658 17.061 32.0002 17.1954 32.0002 17.361ZM31.7001 18.8612C31.8658 18.8612 32.0002 18.7269 32.0002 18.5612C32.0002 18.3956 31.8658 18.2612 31.7001 18.2612C31.5345 18.2612 31.4001 18.3956 31.4001 18.5612C31.4001 18.7269 31.5345 18.8612 31.7001 18.8612ZM30.5002 21.8612C30.6659 21.8612 30.8002 21.7269 30.8002 21.5612C30.8002 21.3956 30.6659 21.2612 30.5002 21.2612C30.3345 21.2612 30.2002 21.3956 30.2002 21.5612C30.2002 21.7269 30.3345 21.8612 30.5002 21.8612ZM32.0002 20.9611C32.0002 21.1268 31.8658 21.2611 31.7001 21.2611C31.5345 21.2611 31.4001 21.1268 31.4001 20.9611C31.4001 20.7955 31.5345 20.6611 31.7001 20.6611C31.8658 20.6611 32.0002 20.7955 32.0002 20.9611ZM33.2 17.9611C33.2 18.1268 33.0657 18.2611 32.9 18.2611C32.7343 18.2611 32.6 18.1268 32.6 17.9611C32.6 17.7955 32.7343 17.6611 32.9 17.6611C33.0657 17.6611 33.2 17.7955 33.2 17.9611ZM34.0999 18.8612C34.2656 18.8612 34.3999 18.7269 34.3999 18.5612C34.3999 18.3956 34.2656 18.2612 34.0999 18.2612C33.9342 18.2612 33.7999 18.3956 33.7999 18.5612C33.7999 18.7269 33.9342 18.8612 34.0999 18.8612ZM32.9 21.8612C33.0657 21.8612 33.2 21.7269 33.2 21.5612C33.2 21.3956 33.0657 21.2612 32.9 21.2612C32.7343 21.2612 32.6 21.3956 32.6 21.5612C32.6 21.7269 32.7343 21.8612 32.9 21.8612ZM34.3999 20.9611C34.3999 21.1268 34.2656 21.2611 34.0999 21.2611C33.9342 21.2611 33.7999 21.1268 33.7999 20.9611C33.7999 20.7955 33.9342 20.6611 34.0999 20.6611C34.2656 20.6611 34.3999 20.7955 34.3999 20.9611ZM35.6 20.361C35.6 20.5267 35.4657 20.661 35.3 20.661C35.1343 20.661 35 20.5267 35 20.361C35 20.1954 35.1343 20.061 35.3 20.061C35.4657 20.061 35.6 20.1954 35.6 20.361ZM35.3 21.8612C35.4657 21.8612 35.6 21.7269 35.6 21.5612C35.6 21.3956 35.4657 21.2612 35.3 21.2612C35.1343 21.2612 35 21.3956 35 21.5612C35 21.7269 35.1343 21.8612 35.3 21.8612ZM36.8001 20.9611C36.8001 21.1268 36.6658 21.2611 36.5001 21.2611C36.3344 21.2611 36.2001 21.1268 36.2001 20.9611C36.2001 20.7955 36.3344 20.6611 36.5001 20.6611C36.6658 20.6611 36.8001 20.7955 36.8001 20.9611ZM38.0002 20.361C38.0002 20.5267 37.8658 20.661 37.7001 20.661C37.5345 20.661 37.4001 20.5267 37.4001 20.361C37.4001 20.1954 37.5345 20.061 37.7001 20.061C37.8658 20.061 38.0002 20.1954 38.0002 20.361Z"
        fill="#B89B64" fill-rule="evenodd" />
</svg>
