<svg fill="none" height="16" viewBox="0 0 16 16" width="16" xmlns="http://www.w3.org/2000/svg">
    <path
        d="M3.33366 4H15.3337V12H3.33366V4ZM9.33366 6C9.86409 6 10.3728 6.21071 10.7479 6.58579C11.1229 6.96086 11.3337 7.46957 11.3337 8C11.3337 8.53043 11.1229 9.03914 10.7479 9.41421C10.3728 9.78929 9.86409 10 9.33366 10C8.80323 10 8.29452 9.78929 7.91944 9.41421C7.54437 9.03914 7.33366 8.53043 7.33366 8C7.33366 7.46957 7.54437 6.96086 7.91944 6.58579C8.29452 6.21071 8.80323 6 9.33366 6ZM6.00033 5.33333C6.00033 5.68696 5.85985 6.02609 5.6098 6.27614C5.35975 6.52619 5.02061 6.66667 4.66699 6.66667V9.33333C5.02061 9.33333 5.35975 9.47381 5.6098 9.72386C5.85985 9.97391 6.00033 10.313 6.00033 10.6667H12.667C12.667 10.313 12.8075 9.97391 13.0575 9.72386C13.3076 9.47381 13.6467 9.33333 14.0003 9.33333V6.66667C13.6467 6.66667 13.3076 6.52619 13.0575 6.27614C12.8075 6.02609 12.667 5.68696 12.667 5.33333H6.00033ZM0.666992 6.66667H2.00033V13.3333H12.667V14.6667H0.666992V6.66667Z"
        fill="#4A4A4A" />
</svg>
