<svg fill="none" height="16" viewBox="0 0 17 16" width="17" xmlns="http://www.w3.org/2000/svg">
    <path
        d="M13.6052 2C14.1575 2 14.6052 2.44772 14.6052 3L14.6052 13C14.6052 13.5523 14.1575 14 13.6052 14L3.60523 14C3.05294 14 2.60523 13.5523 2.60523 13L2.60523 3C2.60523 2.44771 3.05294 2 3.60523 2L13.6052 2Z"
        fill="url(#paint0_linear)" />
    <path clip-rule="evenodd"
        d="M8.60509 4.00854C7.79441 4.00854 7.12229 4.54759 6.99917 4.96217C6.81681 5.01157 6.63618 5.06953 6.45786 5.13607C6.40326 5.15644 6.36707 5.20858 6.36707 5.26686V10.8814C6.36707 11.154 6.58811 11.3751 6.86078 11.3751H10.3494C10.622 11.3751 10.8431 11.154 10.8431 10.8814V5.26686C10.8431 5.20858 10.8069 5.15644 10.7523 5.13607C10.574 5.06954 10.3934 5.01158 10.211 4.96218C10.0879 4.5476 9.41579 4.00854 8.60509 4.00854ZM4.21929 7.97625L5.82734 5.47485V10.9257H5.35292C5.13956 10.9257 4.95034 10.7886 4.88381 10.5859L4.16549 8.39719C4.11913 8.25593 4.13889 8.1013 4.21929 7.97625ZM11.3832 5.47485L12.9912 7.97625C13.0716 8.1013 13.0914 8.25593 13.045 8.39719L12.3267 10.5859C12.2602 10.7886 12.0709 10.9257 11.8576 10.9257H11.3832V5.47485ZM9.73173 5.09087C9.73173 5.33117 9.22731 5.52597 8.60508 5.52597C7.98285 5.52597 7.47844 5.33117 7.47844 5.09087C7.47844 4.85056 7.98285 4.65576 8.60508 4.65576C9.22731 4.65576 9.73173 4.85056 9.73173 5.09087ZM10.1522 9.46976C10.1522 9.6061 10.0417 9.71662 9.90534 9.71662H7.30466C7.16832 9.71662 7.0578 9.6061 7.0578 9.46976C7.0578 9.33342 7.16832 9.2229 7.30466 9.2229H9.90534C10.0417 9.2229 10.1522 9.33342 10.1522 9.46976Z"
        fill="white" fill-rule="evenodd" />
    <defs>
        <linearGradient gradientUnits="userSpaceOnUse" id="paint0_linear" x1="15.9862" x2="3.00954"
            y1="0.0476629" y2="14">
            <stop stop-color="#5BC9D0" />
            <stop offset="1" stop-color="#307C9C" />
        </linearGradient>
    </defs>
</svg>
