<svg fill="none" height="16" viewBox="0 0 17 16" width="17" xmlns="http://www.w3.org/2000/svg">
    <path
        d="M13.8274 3.91393C13.5865 3.55124 13.18 3.33325 12.7446 3.33325H2.26313C1.71084 3.33325 1.26312 3.78097 1.26312 4.33325V12.3333C1.26312 12.8855 1.71084 13.3333 2.26312 13.3333H12.7446C13.18 13.3333 13.5865 13.1153 13.8274 12.7526L16.028 9.43991C16.4734 8.76937 16.4734 7.89714 16.028 7.2266L13.8274 3.91393Z"
        fill="url(#paint0_linear)" />
    <path
        d="M7.87178 9.72003C7.87178 9.49306 7.9133 9.27994 7.99634 9.08065C8.08491 8.88136 8.20116 8.70699 8.34509 8.55752C8.49455 8.40806 8.66893 8.2918 8.86822 8.20877C9.0675 8.1202 9.28063 8.07591 9.5076 8.07591C9.73456 8.07591 9.94769 8.1202 10.147 8.20877C10.3463 8.2918 10.5179 8.40806 10.6618 8.55752C10.8113 8.70699 10.9275 8.88136 11.0105 9.08065C11.0991 9.27994 11.1434 9.49306 11.1434 9.72003C11.1434 9.94699 11.0991 10.1629 11.0105 10.3677C10.9275 10.567 10.8113 10.7414 10.6618 10.8908C10.5179 11.0403 10.3463 11.1593 10.147 11.2479C9.94769 11.3309 9.73456 11.3724 9.5076 11.3724C9.28063 11.3724 9.0675 11.3309 8.86822 11.2479C8.66893 11.1593 8.49455 11.0403 8.34509 10.8908C8.20116 10.7414 8.08491 10.567 7.99634 10.3677C7.9133 10.1629 7.87178 9.94699 7.87178 9.72003ZM10.2964 9.72003C10.2964 9.4986 10.2189 9.31038 10.0639 9.15538C9.91447 9.00038 9.72903 8.92288 9.5076 8.92288C9.28617 8.92288 9.09795 9.00038 8.94295 9.15538C8.79348 9.31038 8.71875 9.4986 8.71875 9.72003C8.71875 9.94699 8.79348 10.138 8.94295 10.293C9.09795 10.448 9.28617 10.5255 9.5076 10.5255C9.72903 10.5255 9.91447 10.448 10.0639 10.293C10.2189 10.138 10.2964 9.94699 10.2964 9.72003ZM4.16113 6.9134C4.16113 6.68644 4.20265 6.47331 4.28569 6.27402C4.37426 6.07474 4.49051 5.90036 4.63444 5.7509C4.7839 5.60143 4.95828 5.48518 5.15757 5.40214C5.35685 5.31357 5.56998 5.26929 5.79695 5.26929C6.02391 5.26929 6.23704 5.31357 6.43632 5.40214C6.63561 5.48518 6.80722 5.60143 6.95115 5.7509C7.10061 5.90036 7.21686 6.07474 7.2999 6.27402C7.38847 6.47331 7.43276 6.68644 7.43276 6.9134C7.43276 7.14037 7.38847 7.3535 7.2999 7.55278C7.21686 7.75207 7.10061 7.92645 6.95115 8.07591C6.80722 8.22538 6.63561 8.34439 6.43632 8.43297C6.23704 8.516 6.02391 8.55752 5.79695 8.55752C5.56998 8.55752 5.35685 8.516 5.15757 8.43297C4.95828 8.34439 4.7839 8.22538 4.63444 8.07591C4.49051 7.92645 4.37426 7.75207 4.28569 7.55278C4.20265 7.3535 4.16113 7.14037 4.16113 6.9134ZM6.58579 6.9134C6.58579 6.69197 6.50829 6.50376 6.35329 6.34876C6.20382 6.19376 6.01838 6.11626 5.79695 6.11626C5.57552 6.11626 5.3873 6.19376 5.2323 6.34876C5.08283 6.50376 5.0081 6.69197 5.0081 6.9134C5.0081 7.13483 5.08283 7.32305 5.2323 7.47805C5.3873 7.63305 5.57552 7.71055 5.79695 7.71055C6.01838 7.71055 6.20382 7.63305 6.35329 7.47805C6.50829 7.32305 6.58579 7.13483 6.58579 6.9134ZM8.86822 5.5184L9.67531 5.5184L6.43632 11.1815L5.61484 11.1815L8.86822 5.5184Z"
        fill="white" />
    <defs>
        <linearGradient gradientUnits="userSpaceOnUse" id="paint0_linear" x1="12.558" x2="-5.0256"
            y1="3.33325" y2="23.537">
            <stop stop-color="#EE414C" />
            <stop offset="1" stop-color="#771732" />
        </linearGradient>
    </defs>
</svg>
