<svg fill="none" height="16" viewBox="0 0 17 16" width="17" xmlns="http://www.w3.org/2000/svg">
    <path
        d="M14.75 7.90862C14.75 9.38347 14.75 11.8708 14.75 13.2512C14.75 13.8035 14.3023 14.25 13.75 14.25H3.25C2.69772 14.25 2.25 13.8036 2.25 13.2514C2.25 12.1068 2.25 10.1038 2.25 7.90862C2.25 4.50731 5.04823 1.75 8.50001 1.75C11.9518 1.75 14.75 4.50731 14.75 7.90862Z"
        fill="url(#paint0_linear)" />
    <path clip-rule="evenodd"
        d="M10.6741 11.5605C10.8161 11.3488 10.9431 11.1096 11.0525 10.8444C11.3535 10.1148 11.551 9.55621 11.551 8.5955V8.1349L11.1036 8.2445C10.5674 8.37588 9.95799 8.12308 9.24632 7.70179C9.07455 7.60011 8.90351 7.49302 8.73032 7.38457L8.72908 7.3838C8.55774 7.27651 8.38384 7.16762 8.21243 7.06653C7.87321 6.86646 7.51666 6.68016 7.16519 6.58744L6.8232 6.49722L6.72565 6.83719L6.48655 7.6704C6.45775 7.77078 6.40592 7.86306 6.33518 7.93989L5.88774 8.42584L5.78275 8.53986L5.793 8.69452C5.87195 9.8859 6.00133 10.4813 6.41873 11.1761C6.50131 11.3135 6.58925 11.443 6.6819 11.5639C4.16488 11.5498 4.76829 8.16489 5.94506 6.47288C6.03853 5.42962 7.12132 4.80957 8.69689 4.80957C10.1974 4.80957 10.969 5.65032 11.393 6.47288C12.114 7.87171 13.525 10.6283 10.6741 11.5605ZM7.18128 7.86975L7.3139 7.40758C7.47747 7.48077 7.65406 7.57631 7.84526 7.68908C8.00737 7.78469 8.17343 7.88863 8.34675 7.99716L8.34951 7.99889C8.52053 8.10597 8.69828 8.21727 8.87814 8.32374C9.45016 8.66236 10.1216 9.00373 10.8135 9.00197C10.7681 9.58978 10.6189 10.0005 10.3844 10.5688C9.97465 11.5618 9.35501 11.9651 8.79085 11.9896C8.21611 12.0146 7.54934 11.6545 7.03828 10.8038C6.72323 10.2795 6.60149 9.83638 6.52496 8.80081L6.86688 8.42945C7.0138 8.26989 7.12145 8.07824 7.18128 7.86975Z"
        fill="#FBFBFB" fill-rule="evenodd" />
    <defs>
        <linearGradient gradientUnits="userSpaceOnUse" id="paint0_linear" x1="8.50006" x2="8.50006"
            y1="1.75" y2="14.0672">
            <stop stop-color="#FB5C95" />
            <stop offset="1" stop-color="#9F4887" />
        </linearGradient>
    </defs>
</svg>
