<svg fill="none" height="16" viewBox="0 0 17 16" width="17" xmlns="http://www.w3.org/2000/svg">
    <path
        d="M1.37549 4.35267C1.37549 4.10294 1.55976 3.8915 1.80715 3.85737L14.3194 2.13112C14.6199 2.08967 14.8877 2.32312 14.8877 2.62643V11.6996C14.8877 11.9494 14.7035 12.1608 14.4561 12.1949L1.94382 13.9212C1.64336 13.9626 1.37549 13.7292 1.37549 13.4259V4.35267Z"
        fill="url(#paint0_linear)" />
    <path
        d="M3.20742 6.83471L4.24784 6.678L5.72534 9.09757L5.73515 9.09609L5.73486 6.45402L6.50045 6.3387L6.50231 10.1405L5.50115 10.2913L3.98103 7.8137L3.97122 7.81518L3.97487 10.5212L3.20928 10.6365L3.20742 6.83471Z"
        fill="url(#paint1_linear)" />
    <path
        d="M9.07706 9.30157C8.96077 9.48377 8.81185 9.6333 8.63029 9.75015C8.45201 9.8665 8.26635 9.93922 8.07332 9.9683C7.8901 9.99589 7.71747 9.98968 7.55543 9.94964C7.39339 9.90961 7.25245 9.83954 7.13259 9.73945C7.01556 9.63536 6.9217 9.5045 6.85104 9.34688C6.78365 9.18876 6.74973 9.00592 6.74927 8.79834C6.7488 8.59077 6.78195 8.39782 6.8487 8.2195C6.91873 8.04068 7.01323 7.88325 7.13222 7.74718C7.25075 7.6076 7.39095 7.4934 7.55281 7.40458C7.71468 7.31576 7.88722 7.25755 8.07044 7.22995C8.24057 7.20432 8.39521 7.21325 8.53434 7.25673C8.67348 7.30022 8.79175 7.37549 8.88916 7.48254C8.98611 7.58608 9.0601 7.71814 9.11113 7.87872C9.16543 8.0388 9.19282 8.22263 9.19328 8.43021L9.1913 8.68291L7.48344 8.94015C7.513 9.08965 7.57629 9.20363 7.67329 9.2821C7.77311 9.35657 7.895 9.38296 8.03896 9.36127C8.16001 9.34304 8.26103 9.29918 8.34202 9.2297C8.42583 9.15622 8.49938 9.06816 8.56269 8.96555L9.07706 9.30157ZM8.4536 8.24627C8.45578 8.10989 8.41468 7.99973 8.3303 7.91578C8.24592 7.83182 8.13666 7.79995 8.00252 7.82016C7.92072 7.83248 7.84894 7.85761 7.78718 7.89555C7.72542 7.9335 7.67299 7.97899 7.62988 8.03202C7.58631 8.08154 7.55208 8.13861 7.52717 8.20323C7.5018 8.26433 7.4867 8.32746 7.48188 8.39263L8.4536 8.24627Z"
        fill="url(#paint2_linear)" />
    <path
        d="M9.06131 7.14514L9.84653 7.02686L10.3315 8.59172L10.3413 8.59024L10.7495 6.89085L11.5544 6.76961L11.9952 8.34112L12.005 8.33964L12.4525 6.63434L13.1985 6.52197L12.3505 9.2596L11.6242 9.369L11.1268 7.70935L11.117 7.71083L10.677 9.51167L9.93594 9.62329L9.06131 7.14514Z"
        fill="url(#paint3_linear)" />
    <defs>
        <linearGradient gradientUnits="userSpaceOnUse" id="paint0_linear" x1="15.8397" x2="-3.26702"
            y1="0.704876" y2="17.3238">
            <stop stop-color="#5CCC9D" />
            <stop offset="1" stop-color="#346975" />
        </linearGradient>
        <linearGradient gradientUnits="userSpaceOnUse" id="paint1_linear" x1="13.5415" x2="3.51966"
            y1="6.62322" y2="10.2245">
            <stop stop-color="white" />
            <stop offset="1" stop-color="white" />
        </linearGradient>
        <linearGradient gradientUnits="userSpaceOnUse" id="paint2_linear" x1="13.5415" x2="3.51966"
            y1="6.62322" y2="10.2245">
            <stop stop-color="white" />
            <stop offset="1" stop-color="white" />
        </linearGradient>
        <linearGradient gradientUnits="userSpaceOnUse" id="paint3_linear" x1="13.5415" x2="3.51966"
            y1="6.62322" y2="10.2245">
            <stop stop-color="white" />
            <stop offset="1" stop-color="white" />
        </linearGradient>
    </defs>
</svg>
