<svg fill="none" height="16" viewBox="0 0 17 16" width="17" xmlns="http://www.w3.org/2000/svg">
    <path
        d="M7.68767 1.33601C8.07819 0.945488 8.71136 0.945489 9.10188 1.33601L15.0588 7.29289C15.4493 7.68342 15.4493 8.31658 15.0588 8.70711L9.10188 14.664C8.71136 15.0545 8.07819 15.0545 7.68767 14.664L1.73079 8.70711C1.34026 8.31658 1.34026 7.68342 1.73079 7.29289L7.68767 1.33601Z"
        fill="url(#paint0_radial)" />
    <path
        d="M8.19872 4.9398C8.26043 4.74988 8.52912 4.74988 8.59082 4.9398L9.24194 6.94373C9.26954 7.02867 9.34869 7.08617 9.43799 7.08617H11.545C11.7447 7.08617 11.8278 7.34171 11.6662 7.45908L9.96157 8.69758C9.88932 8.75007 9.85909 8.84312 9.88668 8.92805L10.5378 10.932C10.5995 11.1219 10.3821 11.2798 10.2206 11.1625L8.51594 9.92395C8.44369 9.87146 8.34586 9.87146 8.27361 9.92395L6.56896 11.1625C6.40741 11.2798 6.19004 11.1219 6.25175 10.932L6.90286 8.92805C6.93046 8.84312 6.90023 8.75007 6.82798 8.69758L5.12333 7.45908C4.96178 7.34171 5.04481 7.08617 5.2445 7.08617H7.35155C7.44086 7.08617 7.52001 7.02867 7.54761 6.94373L8.19872 4.9398Z"
        fill="white" />
    <defs>
        <radialGradient cx="0" cy="0"
            gradientTransform="translate(12.7946 3.84157) rotate(135.868) scale(11.265 16.3285)"
            gradientUnits="userSpaceOnUse" id="paint0_radial" r="1">
            <stop stop-color="#9A63BC" />
            <stop offset="1" stop-color="#60487D" />
        </radialGradient>
    </defs>
</svg>
