<svg fill="none" height="16" viewBox="0 0 17 16" width="17" xmlns="http://www.w3.org/2000/svg">
    <path
        d="M14.5868 7.9999C14.5868 11.5069 11.7438 14.3499 8.23684 14.3499C4.72983 14.3499 1.88684 11.5069 1.88684 7.9999C1.88684 4.49289 4.72983 1.6499 8.23684 1.6499C11.7438 1.6499 14.5868 4.49289 14.5868 7.9999Z"
        fill="url(#paint0_linear)" />
    <path clip-rule="evenodd"
        d="M8.71899 4.04161L8.71967 4.03273C8.72023 4.02402 8.72052 4.01523 8.72052 4.00638C8.72052 3.78604 8.5419 3.60742 8.32156 3.60742C8.10122 3.60742 7.9226 3.78604 7.9226 4.00638C7.9226 4.01493 7.92287 4.02341 7.9234 4.03183C6.65195 4.20972 5.67346 5.14747 5.67346 6.46794V6.62274C5.67346 6.63175 5.67394 6.64064 5.67486 6.6494C5.67124 6.68793 5.67651 6.72787 5.69192 6.76626C5.74362 6.89497 5.88986 6.9574 6.01857 6.90571C7.85153 6.16956 9.43575 6.06269 11.3443 6.82786C11.473 6.87947 11.6193 6.81695 11.6709 6.6882C11.7225 6.55946 11.66 6.41326 11.5312 6.36164C11.3117 6.27362 11.0959 6.19644 10.8832 6.12975C10.7355 4.98634 9.8496 4.22853 8.71899 4.04161ZM10.747 7.36073C8.95513 6.70668 7.40308 6.92802 5.90813 7.70664C6.03152 9.8644 7.065 11.0172 8.32167 11.0172C9.64389 11.0172 10.7191 9.74097 10.747 7.36073ZM7.46694 11.2604C7.26734 11.1691 7.04029 11.315 7.04029 11.5345V12.0904C7.04029 12.3053 7.25871 12.4511 7.45716 12.3688L8.26785 12.0324C8.28759 12.0242 8.30568 12.0133 8.32176 12.0003C8.33785 12.0133 8.35593 12.0242 8.37568 12.0324L9.18636 12.3688C9.38482 12.4511 9.60324 12.3053 9.60324 12.0904V11.5345C9.60324 11.315 9.37618 11.1691 9.17658 11.2604L8.36855 11.6297C8.35155 11.6375 8.33588 11.6472 8.32176 11.6586C8.30764 11.6472 8.29197 11.6375 8.27497 11.6297L7.46694 11.2604Z"
        fill="#FBFBFB" fill-rule="evenodd" />
    <defs>
        <linearGradient gradientUnits="userSpaceOnUse" id="paint0_linear" x1="8.23684" x2="8.23684"
            y1="1.6499" y2="14.3499">
            <stop stop-color="#6DE64E" />
            <stop offset="1" stop-color="#329955" />
        </linearGradient>
    </defs>
</svg>
