<svg fill="none" height="16" viewBox="0 0 17 16" width="17" xmlns="http://www.w3.org/2000/svg">
    <path
        d="M15.1184 7.99987C15.1184 11.4516 12.3202 14.2499 8.86841 14.2499C5.41663 14.2499 2.61841 11.4516 2.61841 7.99987C2.61841 5.79776 2.61841 3.8616 2.61841 2.74832C2.61841 2.19603 3.06612 1.74976 3.61841 1.74976H14.1184C14.6707 1.74976 15.1184 2.19618 15.1184 2.74847C15.1184 4.03509 15.1184 6.30715 15.1184 7.99987Z"
        fill="url(#paint0_linear)" />
    <path clip-rule="evenodd"
        d="M6.1952 7.54094L6.28661 7.44266C6.48415 7.23027 6.62914 6.97451 6.70994 6.69593C6.84169 6.2414 7.30485 5.99178 7.74662 6.08719C7.87213 6.11429 7.99306 6.13752 8.11123 6.15676C8.68348 6.23253 9.16144 6.11525 9.50215 5.92021C9.91267 5.68521 10.0836 5.36906 10.0836 5.15383C10.5787 5.12411 10.658 5.79728 10.433 6.06389C10.7864 6.09357 11.1059 6.33265 11.2071 6.70038L11.3128 7.08401C11.3447 7.19996 11.4077 7.305 11.4948 7.38783L11.6007 7.48839C12.6394 4.16279 7.8995 2.66329 6.83148 5.20043C5.85569 5.66317 5.9662 6.53248 6.1952 7.54094ZM10.8123 10.3785C11.0922 9.70059 11.3167 9.01693 11.3422 8.22511L11.0044 7.90408C10.8233 7.73204 10.6925 7.51388 10.6262 7.27307L10.5206 6.88944C10.4998 6.81388 10.4173 6.75714 10.3227 6.7765C9.42543 6.95999 8.76201 6.98268 8.00842 6.86143C7.89645 6.8463 7.78246 6.82541 7.66673 6.79834C7.64866 6.79459 7.63054 6.79066 7.61233 6.78671L7.5963 6.78324C7.49922 6.76228 7.4156 6.81925 7.39388 6.89419L7.27106 7.31789C7.21126 7.52419 7.10391 7.71358 6.95763 7.87086L6.57157 8.28592C6.65369 9.40858 6.76735 9.95912 7.1059 10.5169C7.56707 11.1894 8.20698 11.5375 8.91431 11.5375C9.66866 11.5375 10.553 11.0068 10.8123 10.3785Z"
        fill="#FBFBFB" fill-rule="evenodd" />
    <defs>
        <linearGradient gradientUnits="userSpaceOnUse" id="paint0_linear" x1="8.86841" x2="8.86841"
            y1="1.74976" y2="14.2498">
            <stop stop-color="#48A2D5" />
            <stop offset="1" stop-color="#3158A5" />
        </linearGradient>
    </defs>
</svg>
