<svg fill="none" height="14" viewBox="0 0 15 14" width="15" xmlns="http://www.w3.org/2000/svg">
    <path
        d="M11.7889 6.95275C13.4672 6.95275 14.8277 6.17983 14.8277 5.22638C14.8277 4.27292 13.4672 3.5 11.7889 3.5C10.1106 3.5 8.75 4.27292 8.75 5.22638C8.75 6.17983 10.1106 6.95275 11.7889 6.95275Z"
        fill="#4A4A4A" />
    <path clip-rule="evenodd"
        d="M11.8348 7.94582C9.66127 7.94582 8.7959 7.03495 8.7959 6.50732V8.76745C8.7959 9.7212 10.1565 10.4929 11.8348 10.4929C13.5148 10.4929 14.8754 9.7212 14.8754 8.76745V6.56157C14.8754 7.09007 14.0091 7.94582 11.8348 7.94582Z"
        fill="#4A4A4A" fill-rule="evenodd" />
    <path clip-rule="evenodd"
        d="M11.8348 11.4379C9.89052 11.4379 8.7959 10.5621 8.7959 10.0344V12.2736C8.7959 13.2273 10.1565 13.9999 11.8348 13.9999C13.5148 13.9999 14.8754 13.2273 14.8754 12.2736V10.0073C14.8754 10.5349 13.7799 11.4379 11.8348 11.4379Z"
        fill="#4A4A4A" fill-rule="evenodd" />
    <path
        d="M4.31987 3.45275C6.22243 3.45275 7.76475 2.67983 7.76475 1.72638C7.76475 0.772925 6.22243 0 4.31987 0C2.41732 0 0.875 0.772925 0.875 1.72638C0.875 2.67983 2.41732 3.45275 4.31987 3.45275Z"
        fill="#4A4A4A" />
    <path clip-rule="evenodd"
        d="M4.42925 4.44582C1.96612 4.44582 0.984375 3.53495 0.984375 3.00732V5.26745C0.984375 6.2212 2.527 6.99295 4.42925 6.99295C6.33325 6.99295 7.875 6.2212 7.875 5.26745V3.06157C7.875 3.59007 6.89238 4.44582 4.42925 4.44582Z"
        fill="#4A4A4A" fill-rule="evenodd" />
    <path clip-rule="evenodd"
        d="M4.42925 7.93795C2.22512 7.93795 0.984375 7.06207 0.984375 6.53445V8.77357C0.984375 9.72732 2.527 10.4999 4.42925 10.4999C6.33325 10.4999 7.875 9.72732 7.875 8.77357V6.50732C7.875 7.03495 6.6325 7.93795 4.42925 7.93795Z"
        fill="#4A4A4A" fill-rule="evenodd" />
    <path clip-rule="evenodd"
        d="M4.42925 11.4379C2.22512 11.4379 0.984375 10.5621 0.984375 10.0344V12.2736C0.984375 13.2273 2.527 13.9999 4.42925 13.9999C6.33325 13.9999 7.875 13.2273 7.875 12.2736V10.0073C7.875 10.5349 6.6325 11.4379 4.42925 11.4379Z"
        fill="#4A4A4A" fill-rule="evenodd" />
</svg>
