<svg fill="none" height="18" viewBox="0 0 77 18" width="77" xmlns="http://www.w3.org/2000/svg">
    <path d="M0 0H66.6281L76.7072 17.5665H0V0Z" fill="#479988" />
    <path
        d="M21.632 6.336H22.968L25.712 10.544H25.728V6.336H26.736V12H25.456L22.656 7.656H22.64V12H21.632V6.336ZM28.5192 10.416C28.5512 10.704 28.6632 10.928 28.8552 11.088C29.0472 11.248 29.2792 11.328 29.5512 11.328C29.7912 11.328 29.9912 11.28 30.1512 11.184C30.3165 11.0827 30.4605 10.9573 30.5832 10.808L31.2712 11.328C31.0472 11.6053 30.7965 11.8027 30.5192 11.92C30.2419 12.0373 29.9512 12.096 29.6472 12.096C29.3592 12.096 29.0872 12.048 28.8312 11.952C28.5752 11.856 28.3539 11.72 28.1672 11.544C27.9805 11.368 27.8312 11.1573 27.7192 10.912C27.6125 10.6613 27.5592 10.384 27.5592 10.08C27.5592 9.776 27.6125 9.50133 27.7192 9.256C27.8312 9.00533 27.9805 8.792 28.1672 8.616C28.3539 8.44 28.5752 8.304 28.8312 8.208C29.0872 8.112 29.3592 8.064 29.6472 8.064C29.9139 8.064 30.1565 8.112 30.3752 8.208C30.5992 8.29867 30.7885 8.432 30.9432 8.608C31.1032 8.784 31.2259 9.00267 31.3112 9.264C31.4019 9.52 31.4472 9.816 31.4472 10.152V10.416H28.5192ZM30.4872 9.696C30.4819 9.41333 30.3939 9.192 30.2232 9.032C30.0525 8.86667 29.8152 8.784 29.5112 8.784C29.2232 8.784 28.9939 8.86667 28.8232 9.032C28.6579 9.19733 28.5565 9.41867 28.5192 9.696H30.4872ZM31.6649 8.16H32.7049L33.5369 10.848H33.5529L34.3289 8.16H35.3689L36.2009 10.848H36.2169L37.0169 8.16H37.9849L36.6809 12H35.7289L34.8169 9.376H34.8009L33.9929 12H33.0009L31.6649 8.16ZM42.5193 6.336H43.3913L45.8313 12H44.6793L44.1513 10.704H41.6953L41.1833 12H40.0553L42.5193 6.336ZM43.7993 9.84L42.9273 7.536L42.0393 9.84H43.7993ZM46.2128 8.16H47.1728V8.768H47.1888C47.2954 8.544 47.4474 8.37067 47.6448 8.248C47.8421 8.12533 48.0688 8.064 48.3248 8.064C48.3834 8.064 48.4394 8.06933 48.4928 8.08C48.5514 8.09067 48.6101 8.104 48.6688 8.12V9.048C48.5888 9.02667 48.5088 9.01067 48.4288 9C48.3541 8.984 48.2794 8.976 48.2048 8.976C47.9808 8.976 47.7994 9.01867 47.6608 9.104C47.5274 9.184 47.4234 9.27733 47.3488 9.384C47.2794 9.49067 47.2314 9.59733 47.2048 9.704C47.1834 9.81067 47.1728 9.89067 47.1728 9.944V12H46.2128V8.16ZM49.1621 8.16H50.1221V8.768H50.1381C50.2448 8.544 50.3968 8.37067 50.5941 8.248C50.7915 8.12533 51.0181 8.064 51.2741 8.064C51.3328 8.064 51.3888 8.06933 51.4421 8.08C51.5008 8.09067 51.5595 8.104 51.6181 8.12V9.048C51.5381 9.02667 51.4581 9.01067 51.3781 9C51.3035 8.984 51.2288 8.976 51.1541 8.976C50.9301 8.976 50.7488 9.01867 50.6101 9.104C50.4768 9.184 50.3728 9.27733 50.2981 9.384C50.2288 9.49067 50.1808 9.59733 50.1541 9.704C50.1328 9.81067 50.1221 9.89067 50.1221 9.944V12H49.1621V8.16ZM52.1275 8.16H53.0875V12H52.1275V8.16ZM51.9915 6.856C51.9915 6.70133 52.0475 6.568 52.1595 6.456C52.2768 6.33867 52.4235 6.28 52.5995 6.28C52.7755 6.28 52.9222 6.336 53.0395 6.448C53.1622 6.55467 53.2235 6.69067 53.2235 6.856C53.2235 7.02133 53.1622 7.16 53.0395 7.272C52.9222 7.37867 52.7755 7.432 52.5995 7.432C52.4235 7.432 52.2768 7.376 52.1595 7.264C52.0475 7.14667 51.9915 7.01067 51.9915 6.856ZM53.5096 8.16H54.5576L55.5816 10.848H55.5976L56.6296 8.16H57.6136L56.1016 12H55.0776L53.5096 8.16ZM60.4181 11.472H60.3941C60.2554 11.6907 60.0794 11.8507 59.8661 11.952C59.6527 12.048 59.4181 12.096 59.1621 12.096C58.9861 12.096 58.8127 12.072 58.6421 12.024C58.4767 11.976 58.3274 11.904 58.1941 11.808C58.0661 11.712 57.9621 11.592 57.8821 11.448C57.8021 11.304 57.7621 11.136 57.7621 10.944C57.7621 10.736 57.7994 10.56 57.8741 10.416C57.9487 10.2667 58.0474 10.144 58.1701 10.048C58.2981 9.94667 58.4447 9.86667 58.6101 9.808C58.7754 9.74933 58.9461 9.70667 59.1221 9.68C59.3034 9.648 59.4847 9.62933 59.6661 9.624C59.8474 9.61333 60.0181 9.608 60.1781 9.608H60.4181V9.504C60.4181 9.264 60.3354 9.08533 60.1701 8.968C60.0047 8.84533 59.7941 8.784 59.5381 8.784C59.3354 8.784 59.1461 8.82133 58.9701 8.896C58.7941 8.96533 58.6421 9.06133 58.5141 9.184L58.0101 8.68C58.2234 8.46133 58.4714 8.304 58.7541 8.208C59.0421 8.112 59.3381 8.064 59.6421 8.064C59.9141 8.064 60.1434 8.096 60.3301 8.16C60.5167 8.21867 60.6714 8.296 60.7941 8.392C60.9167 8.488 61.0101 8.6 61.0741 8.728C61.1434 8.85067 61.1914 8.976 61.2181 9.104C61.2501 9.232 61.2687 9.35733 61.2741 9.48C61.2794 9.59733 61.2821 9.70133 61.2821 9.792V12H60.4181V11.472ZM60.3621 10.28H60.1621C60.0287 10.28 59.8794 10.2853 59.7141 10.296C59.5487 10.3067 59.3914 10.3333 59.2421 10.376C59.0981 10.4133 58.9754 10.472 58.8741 10.552C58.7727 10.6267 58.7221 10.7333 58.7221 10.872C58.7221 10.9627 58.7407 11.04 58.7781 11.104C58.8207 11.1627 58.8741 11.2133 58.9381 11.256C59.0021 11.2987 59.0741 11.3307 59.1541 11.352C59.2341 11.368 59.3141 11.376 59.3941 11.376C59.7247 11.376 59.9674 11.2987 60.1221 11.144C60.2821 10.984 60.3621 10.768 60.3621 10.496V10.28ZM62.1709 5.952H63.1309V12H62.1709V5.952Z"
        fill="white" />
    <path clip-rule="evenodd"
        d="M10.8481 5C9.96771 5 9.23779 5.58539 9.10408 6.03563C8.90605 6.08927 8.70988 6.15222 8.51623 6.22448C8.45694 6.2466 8.41763 6.30323 8.41763 6.36651V12.4638C8.41763 12.7599 8.65768 13 8.9538 13H12.7424C13.0385 13 13.2785 12.7599 13.2785 12.4638V6.36651C13.2785 6.30323 13.2392 6.2466 13.1799 6.22448C12.9863 6.15223 12.7901 6.08928 12.5921 6.03564C12.4584 5.58541 11.7285 5 10.8481 5ZM6.08516 9.30888L7.83149 6.5924V12.5119H7.31627C7.08457 12.5119 6.87908 12.3631 6.80683 12.1429L6.02674 9.76602C5.97639 9.61262 5.99785 9.4447 6.08516 9.30888ZM13.8651 6.5924L15.6114 9.30888C15.6987 9.4447 15.7202 9.61262 15.6698 9.76602L14.8897 12.1429C14.8175 12.3631 14.612 12.5119 14.3803 12.5119H13.8651V6.5924ZM12.0716 6.17539C12.0716 6.43635 11.5238 6.64791 10.8481 6.64791C10.1724 6.64791 9.62456 6.43635 9.62456 6.17539C9.62456 5.91442 10.1724 5.70287 10.8481 5.70287C11.5238 5.70287 12.0716 5.91442 12.0716 6.17539ZM12.5283 10.9308C12.5283 11.0789 12.4082 11.1989 12.2602 11.1989H9.43585C9.28779 11.1989 9.16776 11.0789 9.16776 10.9308C9.16776 10.7828 9.28779 10.6627 9.43585 10.6627H12.2602C12.4082 10.6627 12.5283 10.7828 12.5283 10.9308Z"
        fill="#FBFBFB" fill-rule="evenodd" />
</svg>
