<svg fill="none" height="18" viewBox="0 0 77 18" width="77" xmlns="http://www.w3.org/2000/svg">
    <path d="M0 0H66.6281L76.7072 17.5665H0V0Z" fill="#654A83" />
    <path
        d="M11.4697 4.00201C11.7626 3.70912 12.2374 3.70912 12.5303 4.00201L16.998 8.46967C17.2909 8.76256 17.2909 9.23744 16.998 9.53033L12.5303 13.998C12.2374 14.2909 11.7626 14.2909 11.4697 13.998L7.00201 9.53033C6.70912 9.23744 6.70912 8.76256 7.00201 8.46967L11.4697 4.00201Z"
        fill="#C19039" />
    <path
        d="M11.853 6.70485C11.8993 6.56241 12.1008 6.56241 12.1471 6.70485L12.6354 8.2078C12.6561 8.2715 12.7155 8.31463 12.7824 8.31463H14.3627C14.5125 8.31463 14.5748 8.50628 14.4536 8.59431L13.1751 9.52318C13.1209 9.56255 13.0983 9.63234 13.119 9.69604L13.6073 11.199C13.6536 11.3414 13.4906 11.4599 13.3694 11.3718L12.0909 10.443C12.0367 10.4036 11.9633 10.4036 11.9092 10.443L10.6307 11.3718C10.5095 11.4599 10.3465 11.3414 10.3928 11.199L10.8811 9.69604C10.9018 9.63234 10.8791 9.56255 10.8249 9.52318L9.54645 8.59431C9.42528 8.50628 9.48755 8.31463 9.63732 8.31463H11.2176C11.2846 8.31463 11.344 8.2715 11.3647 8.2078L11.853 6.70485Z"
        fill="white" />
    <path
        d="M20.632 6.336H24.384V7.248H21.64V8.64H24.24V9.552H21.64V11.088H24.528V12H20.632V6.336ZM28.3146 11.424H28.2986C28.16 11.6587 27.9733 11.8293 27.7386 11.936C27.504 12.0427 27.2506 12.096 26.9786 12.096C26.68 12.096 26.4133 12.0453 26.1786 11.944C25.9493 11.8373 25.752 11.6933 25.5866 11.512C25.4213 11.3307 25.296 11.1173 25.2106 10.872C25.1253 10.6267 25.0826 10.3627 25.0826 10.08C25.0826 9.79733 25.128 9.53333 25.2186 9.288C25.3093 9.04267 25.4346 8.82933 25.5946 8.648C25.76 8.46667 25.9573 8.32533 26.1866 8.224C26.416 8.11733 26.6666 8.064 26.9386 8.064C27.12 8.064 27.28 8.08267 27.4186 8.12C27.5573 8.15733 27.68 8.20533 27.7866 8.264C27.8933 8.32267 27.984 8.38667 28.0586 8.456C28.1333 8.52 28.1946 8.584 28.2426 8.648H28.2666V5.952H29.2266V12H28.3146V11.424ZM26.0426 10.08C26.0426 10.2293 26.0666 10.3733 26.1146 10.512C26.168 10.6507 26.2426 10.7733 26.3386 10.88C26.44 10.9867 26.56 11.072 26.6986 11.136C26.8373 11.2 26.9946 11.232 27.1706 11.232C27.3466 11.232 27.504 11.2 27.6426 11.136C27.7813 11.072 27.8986 10.9867 27.9946 10.88C28.096 10.7733 28.1706 10.6507 28.2186 10.512C28.272 10.3733 28.2986 10.2293 28.2986 10.08C28.2986 9.93067 28.272 9.78667 28.2186 9.648C28.1706 9.50933 28.096 9.38667 27.9946 9.28C27.8986 9.17333 27.7813 9.088 27.6426 9.024C27.504 8.96 27.3466 8.928 27.1706 8.928C26.9946 8.928 26.8373 8.96 26.6986 9.024C26.56 9.088 26.44 9.17333 26.3386 9.28C26.2426 9.38667 26.168 9.50933 26.1146 9.648C26.0666 9.78667 26.0426 9.93067 26.0426 10.08ZM30.1775 8.16H31.1375V12H30.1775V8.16ZM30.0415 6.856C30.0415 6.70133 30.0975 6.568 30.2095 6.456C30.3268 6.33867 30.4735 6.28 30.6495 6.28C30.8255 6.28 30.9722 6.336 31.0895 6.448C31.2122 6.55467 31.2735 6.69067 31.2735 6.856C31.2735 7.02133 31.2122 7.16 31.0895 7.272C30.9722 7.37867 30.8255 7.432 30.6495 7.432C30.4735 7.432 30.3268 7.376 30.2095 7.264C30.0975 7.14667 30.0415 7.01067 30.0415 6.856ZM31.6316 8.976V8.16H32.4236V7.048H33.3836V8.16H34.4396V8.976H33.3836V10.656C33.3836 10.848 33.4183 11 33.4876 11.112C33.5623 11.224 33.7063 11.28 33.9196 11.28C34.005 11.28 34.0983 11.272 34.1996 11.256C34.301 11.2347 34.381 11.2027 34.4396 11.16V11.968C34.3383 12.016 34.213 12.048 34.0636 12.064C33.9196 12.0853 33.7916 12.096 33.6796 12.096C33.4236 12.096 33.213 12.0667 33.0476 12.008C32.8876 11.9547 32.7596 11.872 32.6636 11.76C32.573 11.6427 32.509 11.4987 32.4716 11.328C32.4396 11.1573 32.4236 10.96 32.4236 10.736V8.976H31.6316ZM34.837 10.08C34.837 9.776 34.8903 9.50133 34.997 9.256C35.109 9.00533 35.2583 8.792 35.445 8.616C35.6317 8.44 35.853 8.304 36.109 8.208C36.365 8.112 36.637 8.064 36.925 8.064C37.213 8.064 37.485 8.112 37.741 8.208C37.997 8.304 38.2183 8.44 38.405 8.616C38.5917 8.792 38.7383 9.00533 38.845 9.256C38.957 9.50133 39.013 9.776 39.013 10.08C39.013 10.384 38.957 10.6613 38.845 10.912C38.7383 11.1573 38.5917 11.368 38.405 11.544C38.2183 11.72 37.997 11.856 37.741 11.952C37.485 12.048 37.213 12.096 36.925 12.096C36.637 12.096 36.365 12.048 36.109 11.952C35.853 11.856 35.6317 11.72 35.445 11.544C35.2583 11.368 35.109 11.1573 34.997 10.912C34.8903 10.6613 34.837 10.384 34.837 10.08ZM35.797 10.08C35.797 10.2293 35.821 10.3733 35.869 10.512C35.9223 10.6507 35.997 10.7733 36.093 10.88C36.1943 10.9867 36.3143 11.072 36.453 11.136C36.5917 11.2 36.749 11.232 36.925 11.232C37.101 11.232 37.2583 11.2 37.397 11.136C37.5357 11.072 37.653 10.9867 37.749 10.88C37.8503 10.7733 37.925 10.6507 37.973 10.512C38.0263 10.3733 38.053 10.2293 38.053 10.08C38.053 9.93067 38.0263 9.78667 37.973 9.648C37.925 9.50933 37.8503 9.38667 37.749 9.28C37.653 9.17333 37.5357 9.088 37.397 9.024C37.2583 8.96 37.101 8.928 36.925 8.928C36.749 8.928 36.5917 8.96 36.453 9.024C36.3143 9.088 36.1943 9.17333 36.093 9.28C35.997 9.38667 35.9223 9.50933 35.869 9.648C35.821 9.78667 35.797 9.93067 35.797 10.08ZM39.7518 8.16H40.7118V8.768H40.7278C40.8345 8.544 40.9865 8.37067 41.1838 8.248C41.3811 8.12533 41.6078 8.064 41.8638 8.064C41.9225 8.064 41.9785 8.06933 42.0318 8.08C42.0905 8.09067 42.1491 8.104 42.2078 8.12V9.048C42.1278 9.02667 42.0478 9.01067 41.9678 9C41.8931 8.984 41.8185 8.976 41.7438 8.976C41.5198 8.976 41.3385 9.01867 41.1998 9.104C41.0665 9.184 40.9625 9.27733 40.8878 9.384C40.8185 9.49067 40.7705 9.59733 40.7438 9.704C40.7225 9.81067 40.7118 9.89067 40.7118 9.944V12H39.7518V8.16ZM44.9964 6.336H46.9004C47.1724 6.336 47.4337 6.36267 47.6844 6.416C47.9404 6.46933 48.1644 6.56 48.3564 6.688C48.5484 6.81067 48.7004 6.97867 48.8124 7.192C48.9297 7.4 48.9884 7.66133 48.9884 7.976C48.9884 8.33333 48.927 8.62133 48.8044 8.84C48.6817 9.05867 48.5164 9.22933 48.3084 9.352C48.1004 9.46933 47.8577 9.54933 47.5804 9.592C47.3084 9.63467 47.023 9.656 46.7244 9.656H46.0044V12H44.9964V6.336ZM46.6124 8.792C46.7564 8.792 46.9057 8.78667 47.0604 8.776C47.215 8.76533 47.3564 8.73333 47.4844 8.68C47.6177 8.62667 47.7244 8.54667 47.8044 8.44C47.8897 8.33333 47.9324 8.184 47.9324 7.992C47.9324 7.816 47.895 7.67733 47.8204 7.576C47.7457 7.46933 47.6497 7.38933 47.5324 7.336C47.415 7.27733 47.2844 7.24 47.1404 7.224C46.9964 7.208 46.8577 7.2 46.7244 7.2H46.0044V8.792H46.6124ZM49.655 8.16H50.615V12H49.655V8.16ZM49.519 6.856C49.519 6.70133 49.575 6.568 49.687 6.456C49.8043 6.33867 49.951 6.28 50.127 6.28C50.303 6.28 50.4497 6.336 50.567 6.448C50.6897 6.55467 50.751 6.69067 50.751 6.856C50.751 7.02133 50.6897 7.16 50.567 7.272C50.4497 7.37867 50.303 7.432 50.127 7.432C49.951 7.432 49.8043 7.376 49.687 7.264C49.575 7.14667 49.519 7.01067 49.519 6.856ZM54.1811 9.312C54.0691 9.19467 53.9518 9.10133 53.8291 9.032C53.7065 8.96267 53.5811 8.928 53.4531 8.928C53.2771 8.928 53.1198 8.96 52.9811 9.024C52.8425 9.088 52.7225 9.17333 52.6211 9.28C52.5251 9.38667 52.4505 9.50933 52.3971 9.648C52.3491 9.78667 52.3251 9.93067 52.3251 10.08C52.3251 10.2293 52.3491 10.3733 52.3971 10.512C52.4505 10.6507 52.5251 10.7733 52.6211 10.88C52.7225 10.9867 52.8425 11.072 52.9811 11.136C53.1198 11.2 53.2771 11.232 53.4531 11.232C53.6025 11.232 53.7411 11.2027 53.8691 11.144C53.9971 11.08 54.1065 10.9893 54.1971 10.872L54.8371 11.56C54.7411 11.656 54.6291 11.7387 54.5011 11.808C54.3785 11.8773 54.2531 11.9333 54.1251 11.976C53.9971 12.0187 53.8745 12.048 53.7571 12.064C53.6398 12.0853 53.5385 12.096 53.4531 12.096C53.1651 12.096 52.8931 12.048 52.6371 11.952C52.3811 11.856 52.1598 11.72 51.9731 11.544C51.7865 11.368 51.6371 11.1573 51.5251 10.912C51.4185 10.6613 51.3651 10.384 51.3651 10.08C51.3651 9.776 51.4185 9.50133 51.5251 9.256C51.6371 9.00533 51.7865 8.792 51.9731 8.616C52.1598 8.44 52.3811 8.304 52.6371 8.208C52.8931 8.112 53.1651 8.064 53.4531 8.064C53.6985 8.064 53.9438 8.112 54.1891 8.208C54.4398 8.29867 54.6585 8.44533 54.8451 8.648L54.1811 9.312ZM55.2565 5.952H56.2165V9.752L57.6965 8.16H58.9285L57.2805 9.904L59.0325 12H57.7605L56.2325 10.04H56.2165V12H55.2565V5.952Z"
        fill="white" />
</svg>
