<svg fill="none" height="18" viewBox="0 0 77 18" width="77" xmlns="http://www.w3.org/2000/svg">
    <path d="M0 0H66.6281L76.7072 17.5665H0V0Z" fill="#C19039" />
    <path
        d="M23.408 7.552C23.3013 7.39733 23.1573 7.28533 22.976 7.216C22.8 7.14133 22.6133 7.104 22.416 7.104C22.2987 7.104 22.184 7.11733 22.072 7.144C21.9653 7.17067 21.8667 7.21333 21.776 7.272C21.6907 7.33067 21.6213 7.408 21.568 7.504C21.5147 7.59467 21.488 7.704 21.488 7.832C21.488 8.024 21.5547 8.17067 21.688 8.272C21.8213 8.37333 21.9867 8.46133 22.184 8.536C22.3813 8.61067 22.5973 8.68267 22.832 8.752C23.0667 8.82133 23.2827 8.91733 23.48 9.04C23.6773 9.16267 23.8427 9.32533 23.976 9.528C24.1093 9.73067 24.176 10 24.176 10.336C24.176 10.64 24.12 10.9067 24.008 11.136C23.896 11.36 23.744 11.5467 23.552 11.696C23.3653 11.8453 23.1467 11.9573 22.896 12.032C22.6453 12.1067 22.3813 12.144 22.104 12.144C21.752 12.144 21.4133 12.0853 21.088 11.968C20.7627 11.8507 20.4827 11.6533 20.248 11.376L21.008 10.64C21.1307 10.8267 21.2907 10.9733 21.488 11.08C21.6907 11.1813 21.904 11.232 22.128 11.232C22.2453 11.232 22.3627 11.216 22.48 11.184C22.5973 11.152 22.704 11.104 22.8 11.04C22.896 10.976 22.9733 10.896 23.032 10.8C23.0907 10.6987 23.12 10.584 23.12 10.456C23.12 10.248 23.0533 10.088 22.92 9.976C22.7867 9.864 22.6213 9.77067 22.424 9.696C22.2267 9.616 22.0107 9.54133 21.776 9.472C21.5413 9.40267 21.3253 9.30933 21.128 9.192C20.9307 9.06933 20.7653 8.90933 20.632 8.712C20.4987 8.50933 20.432 8.24 20.432 7.904C20.432 7.61067 20.4907 7.35733 20.608 7.144C20.7307 6.93067 20.888 6.75467 21.08 6.616C21.2773 6.472 21.5013 6.36533 21.752 6.296C22.0027 6.22667 22.2587 6.192 22.52 6.192C22.8187 6.192 23.1067 6.23733 23.384 6.328C23.6667 6.41867 23.92 6.568 24.144 6.776L23.408 7.552ZM27.3778 11.472H27.3538C27.2151 11.6907 27.0391 11.8507 26.8258 11.952C26.6124 12.048 26.3778 12.096 26.1218 12.096C25.9458 12.096 25.7724 12.072 25.6018 12.024C25.4364 11.976 25.2871 11.904 25.1538 11.808C25.0258 11.712 24.9218 11.592 24.8418 11.448C24.7618 11.304 24.7218 11.136 24.7218 10.944C24.7218 10.736 24.7591 10.56 24.8338 10.416C24.9084 10.2667 25.0071 10.144 25.1298 10.048C25.2578 9.94667 25.4044 9.86667 25.5698 9.808C25.7351 9.74933 25.9058 9.70667 26.0818 9.68C26.2631 9.648 26.4444 9.62933 26.6258 9.624C26.8071 9.61333 26.9778 9.608 27.1378 9.608H27.3778V9.504C27.3778 9.264 27.2951 9.08533 27.1298 8.968C26.9644 8.84533 26.7538 8.784 26.4978 8.784C26.2951 8.784 26.1058 8.82133 25.9298 8.896C25.7538 8.96533 25.6018 9.06133 25.4738 9.184L24.9698 8.68C25.1831 8.46133 25.4311 8.304 25.7138 8.208C26.0018 8.112 26.2978 8.064 26.6018 8.064C26.8738 8.064 27.1031 8.096 27.2898 8.16C27.4764 8.21867 27.6311 8.296 27.7538 8.392C27.8764 8.488 27.9698 8.6 28.0338 8.728C28.1031 8.85067 28.1511 8.976 28.1778 9.104C28.2098 9.232 28.2284 9.35733 28.2338 9.48C28.2391 9.59733 28.2418 9.70133 28.2418 9.792V12H27.3778V11.472ZM27.3218 10.28H27.1218C26.9884 10.28 26.8391 10.2853 26.6738 10.296C26.5084 10.3067 26.3511 10.3333 26.2018 10.376C26.0578 10.4133 25.9351 10.472 25.8338 10.552C25.7324 10.6267 25.6818 10.7333 25.6818 10.872C25.6818 10.9627 25.7004 11.04 25.7378 11.104C25.7804 11.1627 25.8338 11.2133 25.8978 11.256C25.9618 11.2987 26.0338 11.3307 26.1138 11.352C26.1938 11.368 26.2738 11.376 26.3538 11.376C26.6844 11.376 26.9271 11.2987 27.0818 11.144C27.2418 10.984 27.3218 10.768 27.3218 10.496V10.28ZM29.1306 5.952H30.0906V12H29.1306V5.952ZM31.8008 10.416C31.8328 10.704 31.9448 10.928 32.1368 11.088C32.3288 11.248 32.5608 11.328 32.8328 11.328C33.0728 11.328 33.2728 11.28 33.4328 11.184C33.5981 11.0827 33.7421 10.9573 33.8648 10.808L34.5528 11.328C34.3288 11.6053 34.0781 11.8027 33.8008 11.92C33.5234 12.0373 33.2328 12.096 32.9288 12.096C32.6408 12.096 32.3688 12.048 32.1128 11.952C31.8568 11.856 31.6354 11.72 31.4488 11.544C31.2621 11.368 31.1128 11.1573 31.0008 10.912C30.8941 10.6613 30.8408 10.384 30.8408 10.08C30.8408 9.776 30.8941 9.50133 31.0008 9.256C31.1128 9.00533 31.2621 8.792 31.4488 8.616C31.6354 8.44 31.8568 8.304 32.1128 8.208C32.3688 8.112 32.6408 8.064 32.9288 8.064C33.1954 8.064 33.4381 8.112 33.6568 8.208C33.8808 8.29867 34.0701 8.432 34.2248 8.608C34.3848 8.784 34.5074 9.00267 34.5928 9.264C34.6834 9.52 34.7288 9.816 34.7288 10.152V10.416H31.8008ZM33.7688 9.696C33.7634 9.41333 33.6754 9.192 33.5048 9.032C33.3341 8.86667 33.0968 8.784 32.7928 8.784C32.5048 8.784 32.2754 8.86667 32.1048 9.032C31.9394 9.19733 31.8381 9.41867 31.8008 9.696H33.7688Z"
        fill="white" />
    <path
        d="M10.7106 10.4507C10.7106 10.2238 10.7522 10.0106 10.8352 9.81136C10.9238 9.61207 11.04 9.4377 11.184 9.28823C11.3334 9.13877 11.5078 9.02252 11.7071 8.93948C11.9064 8.85091 12.1195 8.80662 12.3465 8.80662C12.5734 8.80662 12.7866 8.85091 12.9858 8.93948C13.1851 9.02252 13.3567 9.13877 13.5007 9.28823C13.6501 9.4377 13.7664 9.61207 13.8494 9.81136C13.938 10.0106 13.9823 10.2238 13.9823 10.4507C13.9823 10.6777 13.938 10.8936 13.8494 11.0984C13.7664 11.2977 13.6501 11.4721 13.5007 11.6215C13.3567 11.771 13.1851 11.89 12.9858 11.9786C12.7866 12.0616 12.5734 12.1032 12.3465 12.1032C12.1195 12.1032 11.9064 12.0616 11.7071 11.9786C11.5078 11.89 11.3334 11.771 11.184 11.6215C11.04 11.4721 10.9238 11.2977 10.8352 11.0984C10.7522 10.8936 10.7106 10.6777 10.7106 10.4507ZM13.1353 10.4507C13.1353 10.2293 13.0578 10.0411 12.9028 9.88609C12.7533 9.73109 12.5679 9.65359 12.3465 9.65359C12.125 9.65359 11.9368 9.73109 11.7818 9.88609C11.6324 10.0411 11.5576 10.2293 11.5576 10.4507C11.5576 10.6777 11.6324 10.8687 11.7818 11.0237C11.9368 11.1787 12.125 11.2562 12.3465 11.2562C12.5679 11.2562 12.7533 11.1787 12.9028 11.0237C13.0578 10.8687 13.1353 10.6777 13.1353 10.4507ZM7 7.64412C7 7.41715 7.04152 7.20402 7.12455 7.00474C7.21313 6.80545 7.32938 6.63107 7.47331 6.48161C7.62277 6.33214 7.79715 6.21589 7.99643 6.13286C8.19572 6.04429 8.40885 6 8.63581 6C8.86278 6 9.0759 6.04429 9.27519 6.13286C9.47448 6.21589 9.64609 6.33214 9.79002 6.48161C9.93948 6.63107 10.0557 6.80545 10.1388 7.00474C10.2273 7.20402 10.2716 7.41715 10.2716 7.64412C10.2716 7.87108 10.2273 8.08421 10.1388 8.2835C10.0557 8.48278 9.93948 8.65716 9.79002 8.80662C9.64609 8.95609 9.47448 9.07511 9.27519 9.16368C9.0759 9.24672 8.86278 9.28823 8.63581 9.28823C8.40885 9.28823 8.19572 9.24672 7.99643 9.16368C7.79715 9.07511 7.62277 8.95609 7.47331 8.80662C7.32938 8.65716 7.21313 8.48278 7.12455 8.2835C7.04152 8.08421 7 7.87108 7 7.64412ZM9.42466 7.64412C9.42466 7.42269 9.34716 7.23447 9.19216 7.07947C9.04269 6.92447 8.85724 6.84697 8.63581 6.84697C8.41438 6.84697 8.22617 6.92447 8.07117 7.07947C7.9217 7.23447 7.84697 7.42269 7.84697 7.64412C7.84697 7.86555 7.9217 8.05376 8.07117 8.20876C8.22617 8.36376 8.41438 8.44126 8.63581 8.44126C8.85724 8.44126 9.04269 8.36376 9.19216 8.20876C9.34716 8.05376 9.42466 7.86555 9.42466 7.64412ZM11.7071 6.24911L12.5142 6.24911L9.27519 11.9122L8.45371 11.9122L11.7071 6.24911Z"
        fill="white" />
</svg>
