<svg fill="none" height="18" viewBox="0 0 77 18" width="77" xmlns="http://www.w3.org/2000/svg">
    <path d="M0 0H66.6281L76.7072 17.5665H0V0Z" fill="#38A055" />
    <path
        d="M18.632 6.336H19.64V8.736H19.688L22.032 6.336H23.392L20.744 8.952L23.568 12H22.152L19.696 9.216H19.64V12H18.632V6.336ZM23.8766 8.16H24.8366V12H23.8766V8.16ZM23.7406 6.856C23.7406 6.70133 23.7966 6.568 23.9086 6.456C24.0259 6.33867 24.1726 6.28 24.3486 6.28C24.5246 6.28 24.6712 6.336 24.7886 6.448C24.9112 6.55467 24.9726 6.69067 24.9726 6.856C24.9726 7.02133 24.9112 7.16 24.7886 7.272C24.6712 7.37867 24.5246 7.432 24.3486 7.432C24.1726 7.432 24.0259 7.376 23.9086 7.264C23.7966 7.14667 23.7406 7.01067 23.7406 6.856ZM28.8187 11.424H28.8027C28.664 11.6587 28.4774 11.8293 28.2427 11.936C28.008 12.0427 27.7547 12.096 27.4827 12.096C27.184 12.096 26.9174 12.0453 26.6827 11.944C26.4534 11.8373 26.256 11.6933 26.0907 11.512C25.9254 11.3307 25.8 11.1173 25.7147 10.872C25.6294 10.6267 25.5867 10.3627 25.5867 10.08C25.5867 9.79733 25.632 9.53333 25.7227 9.288C25.8134 9.04267 25.9387 8.82933 26.0987 8.648C26.264 8.46667 26.4614 8.32533 26.6907 8.224C26.92 8.11733 27.1707 8.064 27.4427 8.064C27.624 8.064 27.784 8.08267 27.9227 8.12C28.0614 8.15733 28.184 8.20533 28.2907 8.264C28.3974 8.32267 28.488 8.38667 28.5627 8.456C28.6374 8.52 28.6987 8.584 28.7467 8.648H28.7707V5.952H29.7307V12H28.8187V11.424ZM26.5467 10.08C26.5467 10.2293 26.5707 10.3733 26.6187 10.512C26.672 10.6507 26.7467 10.7733 26.8427 10.88C26.944 10.9867 27.064 11.072 27.2027 11.136C27.3414 11.2 27.4987 11.232 27.6747 11.232C27.8507 11.232 28.008 11.2 28.1467 11.136C28.2854 11.072 28.4027 10.9867 28.4987 10.88C28.6 10.7733 28.6747 10.6507 28.7227 10.512C28.776 10.3733 28.8027 10.2293 28.8027 10.08C28.8027 9.93067 28.776 9.78667 28.7227 9.648C28.6747 9.50933 28.6 9.38667 28.4987 9.28C28.4027 9.17333 28.2854 9.088 28.1467 9.024C28.008 8.96 27.8507 8.928 27.6747 8.928C27.4987 8.928 27.3414 8.96 27.2027 9.024C27.064 9.088 26.944 9.17333 26.8427 9.28C26.7467 9.38667 26.672 9.50933 26.6187 9.648C26.5707 9.78667 26.5467 9.93067 26.5467 10.08ZM32.7058 9.224C32.5191 8.96267 32.2684 8.832 31.9538 8.832C31.8258 8.832 31.7004 8.864 31.5778 8.928C31.4551 8.992 31.3938 9.096 31.3938 9.24C31.3938 9.35733 31.4444 9.44267 31.5458 9.496C31.6471 9.54933 31.7751 9.59467 31.9298 9.632C32.0844 9.66933 32.2498 9.70933 32.4258 9.752C32.6071 9.78933 32.7751 9.85067 32.9298 9.936C33.0844 10.016 33.2124 10.128 33.3138 10.272C33.4151 10.416 33.4658 10.6133 33.4658 10.864C33.4658 11.0933 33.4151 11.288 33.3138 11.448C33.2178 11.6027 33.0898 11.728 32.9298 11.824C32.7751 11.92 32.5991 11.9893 32.4018 12.032C32.2044 12.0747 32.0071 12.096 31.8098 12.096C31.5111 12.096 31.2364 12.0533 30.9858 11.968C30.7351 11.8827 30.5111 11.728 30.3138 11.504L30.9538 10.904C31.0764 11.0427 31.2071 11.1573 31.3458 11.248C31.4898 11.3333 31.6631 11.376 31.8658 11.376C31.9351 11.376 32.0071 11.368 32.0818 11.352C32.1564 11.336 32.2258 11.3093 32.2898 11.272C32.3538 11.2347 32.4044 11.1893 32.4418 11.136C32.4844 11.0773 32.5058 11.0107 32.5058 10.936C32.5058 10.8027 32.4551 10.704 32.3538 10.64C32.2524 10.576 32.1244 10.5253 31.9698 10.488C31.8151 10.4453 31.6471 10.408 31.4658 10.376C31.2898 10.3387 31.1244 10.2827 30.9698 10.208C30.8151 10.128 30.6871 10.0187 30.5858 9.88C30.4844 9.74133 30.4338 9.54933 30.4338 9.304C30.4338 9.09067 30.4764 8.90667 30.5618 8.752C30.6524 8.592 30.7698 8.46133 30.9138 8.36C31.0578 8.25867 31.2231 8.184 31.4098 8.136C31.5964 8.088 31.7858 8.064 31.9778 8.064C32.2338 8.064 32.4871 8.10933 32.7378 8.2C32.9884 8.28533 33.1911 8.43467 33.3458 8.648L32.7058 9.224Z"
        fill="white" />
    <path clip-rule="evenodd"
        d="M9.04553 4.43418L9.04621 4.4253C9.04677 4.4166 9.04706 4.40781 9.04706 4.39896C9.04706 4.17862 8.86844 4 8.6481 4C8.42776 4 8.24914 4.17862 8.24914 4.39896C8.24914 4.40751 8.24941 4.41599 8.24994 4.4244C6.97849 4.60229 6 5.54005 6 6.86052V7.01532C6 7.02433 6.00047 7.03322 6.00139 7.04198C5.99778 7.08051 6.00304 7.12045 6.01846 7.15883C6.07016 7.28755 6.2164 7.34998 6.34511 7.29829C8.17807 6.56214 9.76229 6.45527 11.6708 7.22043C11.7996 7.27205 11.9458 7.20952 11.9974 7.08078C12.049 6.95204 11.9865 6.80583 11.8578 6.75422C11.6382 6.66619 11.4224 6.58902 11.2097 6.52232C11.0621 5.37892 10.1761 4.62111 9.04553 4.43418ZM11.0735 7.75331C9.28167 7.09926 7.72962 7.32059 6.23466 8.09922C6.35806 10.257 7.39154 11.4098 8.6482 11.4098C9.97043 11.4098 11.0456 10.1336 11.0735 7.75331ZM7.79348 11.653C7.59388 11.5617 7.36683 11.7076 7.36683 11.9271V12.483C7.36683 12.6978 7.58525 12.8437 7.7837 12.7613L8.59439 12.425C8.61413 12.4168 8.63222 12.4059 8.6483 12.3929C8.66439 12.4059 8.68247 12.4168 8.70222 12.425L9.51289 12.7613C9.71136 12.8437 9.92978 12.6978 9.92978 12.483V11.9271C9.92978 11.7076 9.70272 11.5617 9.50312 11.653L8.69509 12.0223C8.67809 12.03 8.66242 12.0398 8.6483 12.0512C8.63418 12.0398 8.61851 12.03 8.60151 12.0223L7.79348 11.653Z"
        fill="#FBFBFB" fill-rule="evenodd" />
</svg>
