<svg fill="none" height="18" viewBox="0 0 77 18" width="77" xmlns="http://www.w3.org/2000/svg">
    <path d="M0 0H66.6281L76.7072 17.5665H0V0Z" fill="#3586A3" />
    <path
        d="M25.408 7.552C25.3013 7.39733 25.1573 7.28533 24.976 7.216C24.8 7.14133 24.6133 7.104 24.416 7.104C24.2987 7.104 24.184 7.11733 24.072 7.144C23.9653 7.17067 23.8667 7.21333 23.776 7.272C23.6907 7.33067 23.6213 7.408 23.568 7.504C23.5147 7.59467 23.488 7.704 23.488 7.832C23.488 8.024 23.5547 8.17067 23.688 8.272C23.8213 8.37333 23.9867 8.46133 24.184 8.536C24.3813 8.61067 24.5973 8.68267 24.832 8.752C25.0667 8.82133 25.2827 8.91733 25.48 9.04C25.6773 9.16267 25.8427 9.32533 25.976 9.528C26.1093 9.73067 26.176 10 26.176 10.336C26.176 10.64 26.12 10.9067 26.008 11.136C25.896 11.36 25.744 11.5467 25.552 11.696C25.3653 11.8453 25.1467 11.9573 24.896 12.032C24.6453 12.1067 24.3813 12.144 24.104 12.144C23.752 12.144 23.4133 12.0853 23.088 11.968C22.7627 11.8507 22.4827 11.6533 22.248 11.376L23.008 10.64C23.1307 10.8267 23.2907 10.9733 23.488 11.08C23.6907 11.1813 23.904 11.232 24.128 11.232C24.2453 11.232 24.3627 11.216 24.48 11.184C24.5973 11.152 24.704 11.104 24.8 11.04C24.896 10.976 24.9733 10.896 25.032 10.8C25.0907 10.6987 25.12 10.584 25.12 10.456C25.12 10.248 25.0533 10.088 24.92 9.976C24.7867 9.864 24.6213 9.77067 24.424 9.696C24.2267 9.616 24.0107 9.54133 23.776 9.472C23.5413 9.40267 23.3253 9.30933 23.128 9.192C22.9307 9.06933 22.7653 8.90933 22.632 8.712C22.4987 8.50933 22.432 8.24 22.432 7.904C22.432 7.61067 22.4907 7.35733 22.608 7.144C22.7307 6.93067 22.888 6.75467 23.08 6.616C23.2773 6.472 23.5013 6.36533 23.752 6.296C24.0027 6.22667 24.2587 6.192 24.52 6.192C24.8187 6.192 25.1067 6.23733 25.384 6.328C25.6667 6.41867 25.92 6.568 26.144 6.776L25.408 7.552ZM26.5298 8.976V8.16H27.3218V7.048H28.2818V8.16H29.3378V8.976H28.2818V10.656C28.2818 10.848 28.3164 11 28.3858 11.112C28.4604 11.224 28.6044 11.28 28.8178 11.28C28.9031 11.28 28.9964 11.272 29.0978 11.256C29.1991 11.2347 29.2791 11.2027 29.3378 11.16V11.968C29.2364 12.016 29.1111 12.048 28.9618 12.064C28.8178 12.0853 28.6898 12.096 28.5778 12.096C28.3218 12.096 28.1111 12.0667 27.9458 12.008C27.7858 11.9547 27.6578 11.872 27.5618 11.76C27.4711 11.6427 27.4071 11.4987 27.3698 11.328C27.3378 11.1573 27.3218 10.96 27.3218 10.736V8.976H26.5298ZM29.9271 8.16H30.8871V8.768H30.9031C31.0098 8.544 31.1618 8.37067 31.3591 8.248C31.5565 8.12533 31.7831 8.064 32.0391 8.064C32.0978 8.064 32.1538 8.06933 32.2071 8.08C32.2658 8.09067 32.3245 8.104 32.3831 8.12V9.048C32.3031 9.02667 32.2231 9.01067 32.1431 9C32.0685 8.984 31.9938 8.976 31.9191 8.976C31.6951 8.976 31.5138 9.01867 31.3751 9.104C31.2418 9.184 31.1378 9.27733 31.0631 9.384C30.9938 9.49067 30.9458 9.59733 30.9191 9.704C30.8978 9.81067 30.8871 9.89067 30.8871 9.944V12H29.9271V8.16ZM33.5039 10.416C33.5359 10.704 33.6479 10.928 33.8399 11.088C34.0319 11.248 34.2639 11.328 34.5359 11.328C34.7759 11.328 34.9759 11.28 35.1359 11.184C35.3012 11.0827 35.4452 10.9573 35.5679 10.808L36.2559 11.328C36.0319 11.6053 35.7812 11.8027 35.5039 11.92C35.2265 12.0373 34.9359 12.096 34.6319 12.096C34.3439 12.096 34.0719 12.048 33.8159 11.952C33.5599 11.856 33.3385 11.72 33.1519 11.544C32.9652 11.368 32.8159 11.1573 32.7039 10.912C32.5972 10.6613 32.5439 10.384 32.5439 10.08C32.5439 9.776 32.5972 9.50133 32.7039 9.256C32.8159 9.00533 32.9652 8.792 33.1519 8.616C33.3385 8.44 33.5599 8.304 33.8159 8.208C34.0719 8.112 34.3439 8.064 34.6319 8.064C34.8985 8.064 35.1412 8.112 35.3599 8.208C35.5839 8.29867 35.7732 8.432 35.9279 8.608C36.0879 8.784 36.2105 9.00267 36.2959 9.264C36.3865 9.52 36.4319 9.816 36.4319 10.152V10.416H33.5039ZM35.4719 9.696C35.4665 9.41333 35.3785 9.192 35.2079 9.032C35.0372 8.86667 34.7999 8.784 34.4959 8.784C34.2079 8.784 33.9785 8.86667 33.8079 9.032C33.6425 9.19733 33.5412 9.41867 33.5039 9.696H35.4719ZM37.9376 10.416C37.9696 10.704 38.0816 10.928 38.2736 11.088C38.4656 11.248 38.6976 11.328 38.9696 11.328C39.2096 11.328 39.4096 11.28 39.5696 11.184C39.735 11.0827 39.879 10.9573 40.0016 10.808L40.6896 11.328C40.4656 11.6053 40.215 11.8027 39.9376 11.92C39.6603 12.0373 39.3696 12.096 39.0656 12.096C38.7776 12.096 38.5056 12.048 38.2496 11.952C37.9936 11.856 37.7723 11.72 37.5856 11.544C37.399 11.368 37.2496 11.1573 37.1376 10.912C37.031 10.6613 36.9776 10.384 36.9776 10.08C36.9776 9.776 37.031 9.50133 37.1376 9.256C37.2496 9.00533 37.399 8.792 37.5856 8.616C37.7723 8.44 37.9936 8.304 38.2496 8.208C38.5056 8.112 38.7776 8.064 39.0656 8.064C39.3323 8.064 39.575 8.112 39.7936 8.208C40.0176 8.29867 40.207 8.432 40.3616 8.608C40.5216 8.784 40.6443 9.00267 40.7296 9.264C40.8203 9.52 40.8656 9.816 40.8656 10.152V10.416H37.9376ZM39.9056 9.696C39.9003 9.41333 39.8123 9.192 39.6416 9.032C39.471 8.86667 39.2336 8.784 38.9296 8.784C38.6416 8.784 38.4123 8.86667 38.2416 9.032C38.0763 9.19733 37.975 9.41867 37.9376 9.696H39.9056ZM41.1554 8.976V8.16H41.9474V7.048H42.9074V8.16H43.9634V8.976H42.9074V10.656C42.9074 10.848 42.942 11 43.0114 11.112C43.086 11.224 43.23 11.28 43.4434 11.28C43.5287 11.28 43.622 11.272 43.7234 11.256C43.8247 11.2347 43.9047 11.2027 43.9634 11.16V11.968C43.862 12.016 43.7367 12.048 43.5874 12.064C43.4434 12.0853 43.3154 12.096 43.2034 12.096C42.9474 12.096 42.7367 12.0667 42.5714 12.008C42.4114 11.9547 42.2834 11.872 42.1874 11.76C42.0967 11.6427 42.0327 11.4987 41.9954 11.328C41.9634 11.1573 41.9474 10.96 41.9474 10.736V8.976H41.1554ZM44.0328 8.16H45.0728L45.9048 10.848H45.9208L46.6968 8.16H47.7368L48.5688 10.848H48.5848L49.3848 8.16H50.3528L49.0488 12H48.0968L47.1848 9.376H47.1688L46.3608 12H45.3688L44.0328 8.16ZM51.5279 10.416C51.5599 10.704 51.6719 10.928 51.8639 11.088C52.0559 11.248 52.2879 11.328 52.5599 11.328C52.7999 11.328 52.9999 11.28 53.1599 11.184C53.3253 11.0827 53.4693 10.9573 53.5919 10.808L54.2799 11.328C54.0559 11.6053 53.8053 11.8027 53.5279 11.92C53.2506 12.0373 52.9599 12.096 52.6559 12.096C52.3679 12.096 52.0959 12.048 51.8399 11.952C51.5839 11.856 51.3626 11.72 51.1759 11.544C50.9893 11.368 50.8399 11.1573 50.7279 10.912C50.6213 10.6613 50.5679 10.384 50.5679 10.08C50.5679 9.776 50.6213 9.50133 50.7279 9.256C50.8399 9.00533 50.9893 8.792 51.1759 8.616C51.3626 8.44 51.5839 8.304 51.8399 8.208C52.0959 8.112 52.3679 8.064 52.6559 8.064C52.9226 8.064 53.1653 8.112 53.3839 8.208C53.6079 8.29867 53.7973 8.432 53.9519 8.608C54.1119 8.784 54.2346 9.00267 54.3199 9.264C54.4106 9.52 54.4559 9.816 54.4559 10.152V10.416H51.5279ZM53.4959 9.696C53.4906 9.41333 53.4026 9.192 53.2319 9.032C53.0613 8.86667 52.8239 8.784 52.5199 8.784C52.2319 8.784 52.0026 8.86667 51.8319 9.032C51.6666 9.19733 51.5653 9.41867 51.5279 9.696H53.4959ZM57.5937 11.472H57.5697C57.431 11.6907 57.255 11.8507 57.0417 11.952C56.8284 12.048 56.5937 12.096 56.3377 12.096C56.1617 12.096 55.9884 12.072 55.8177 12.024C55.6524 11.976 55.503 11.904 55.3697 11.808C55.2417 11.712 55.1377 11.592 55.0577 11.448C54.9777 11.304 54.9377 11.136 54.9377 10.944C54.9377 10.736 54.975 10.56 55.0497 10.416C55.1244 10.2667 55.223 10.144 55.3457 10.048C55.4737 9.94667 55.6204 9.86667 55.7857 9.808C55.951 9.74933 56.1217 9.70667 56.2977 9.68C56.479 9.648 56.6604 9.62933 56.8417 9.624C57.023 9.61333 57.1937 9.608 57.3537 9.608H57.5937V9.504C57.5937 9.264 57.511 9.08533 57.3457 8.968C57.1804 8.84533 56.9697 8.784 56.7137 8.784C56.511 8.784 56.3217 8.82133 56.1457 8.896C55.9697 8.96533 55.8177 9.06133 55.6897 9.184L55.1857 8.68C55.399 8.46133 55.647 8.304 55.9297 8.208C56.2177 8.112 56.5137 8.064 56.8177 8.064C57.0897 8.064 57.319 8.096 57.5057 8.16C57.6924 8.21867 57.847 8.296 57.9697 8.392C58.0924 8.488 58.1857 8.6 58.2497 8.728C58.319 8.85067 58.367 8.976 58.3937 9.104C58.4257 9.232 58.4444 9.35733 58.4497 9.48C58.455 9.59733 58.4577 9.70133 58.4577 9.792V12H57.5937V11.472ZM57.5377 10.28H57.3377C57.2044 10.28 57.055 10.2853 56.8897 10.296C56.7244 10.3067 56.567 10.3333 56.4177 10.376C56.2737 10.4133 56.151 10.472 56.0497 10.552C55.9484 10.6267 55.8977 10.7333 55.8977 10.872C55.8977 10.9627 55.9164 11.04 55.9537 11.104C55.9964 11.1627 56.0497 11.2133 56.1137 11.256C56.1777 11.2987 56.2497 11.3307 56.3297 11.352C56.4097 11.368 56.4897 11.376 56.5697 11.376C56.9004 11.376 57.143 11.2987 57.2977 11.144C57.4577 10.984 57.5377 10.768 57.5377 10.496V10.28ZM59.3306 8.16H60.2906V8.768H60.3066C60.4132 8.544 60.5652 8.37067 60.7626 8.248C60.9599 8.12533 61.1866 8.064 61.4426 8.064C61.5012 8.064 61.5572 8.06933 61.6106 8.08C61.6692 8.09067 61.7279 8.104 61.7866 8.12V9.048C61.7066 9.02667 61.6266 9.01067 61.5466 9C61.4719 8.984 61.3972 8.976 61.3226 8.976C61.0986 8.976 60.9172 9.01867 60.7786 9.104C60.6452 9.184 60.5412 9.27733 60.4666 9.384C60.3972 9.49067 60.3492 9.59733 60.3226 9.704C60.3012 9.81067 60.2906 9.89067 60.2906 9.944V12H59.3306V8.16Z"
        fill="white" />
    <path clip-rule="evenodd"
        d="M10.8481 5C9.96771 5 9.23779 5.58539 9.10408 6.03563C8.90605 6.08927 8.70988 6.15222 8.51623 6.22448C8.45694 6.2466 8.41763 6.30323 8.41763 6.36651V12.4638C8.41763 12.7599 8.65768 13 8.9538 13H12.7424C13.0385 13 13.2785 12.7599 13.2785 12.4638V6.36651C13.2785 6.30323 13.2392 6.2466 13.1799 6.22448C12.9863 6.15223 12.7901 6.08928 12.5921 6.03564C12.4584 5.58541 11.7285 5 10.8481 5ZM6.08516 9.30888L7.83149 6.5924V12.5119H7.31627C7.08457 12.5119 6.87908 12.3631 6.80683 12.1429L6.02674 9.76602C5.97639 9.61262 5.99785 9.4447 6.08516 9.30888ZM13.8651 6.5924L15.6114 9.30888C15.6987 9.4447 15.7202 9.61262 15.6698 9.76602L14.8897 12.1429C14.8175 12.3631 14.612 12.5119 14.3803 12.5119H13.8651V6.5924ZM12.0716 6.17539C12.0716 6.43635 11.5238 6.64791 10.8481 6.64791C10.1724 6.64791 9.62456 6.43635 9.62456 6.17539C9.62456 5.91442 10.1724 5.70287 10.8481 5.70287C11.5238 5.70287 12.0716 5.91442 12.0716 6.17539ZM12.5283 10.9308C12.5283 11.0789 12.4082 11.1989 12.2602 11.1989H9.43585C9.28779 11.1989 9.16776 11.0789 9.16776 10.9308C9.16776 10.7828 9.28779 10.6627 9.43585 10.6627H12.2602C12.4082 10.6627 12.5283 10.7828 12.5283 10.9308Z"
        fill="#FBFBFB" fill-rule="evenodd" />
</svg>
