<svg fill="none" height="18" viewBox="0 0 77 18" width="77" xmlns="http://www.w3.org/2000/svg">
    <path
        d="M0 1C0 0.447716 0.447715 0 1 0H66.049C66.4072 0 66.738 0.191617 66.9163 0.502332L75.8479 16.0689C76.2304 16.7355 75.7491 17.5665 74.9805 17.5665H0.999997C0.447713 17.5665 0 17.1188 0 16.5665V1Z"
        fill="#3564AC" />
    <path
        d="M21.1133 6.31641L22.293 9.24219C22.4727 9.6849 22.6107 10.1094 22.707 10.5156C22.7617 10.2891 22.8125 10.1068 22.8594 9.96875C22.9062 9.82812 23.0013 9.57943 23.1445 9.22266L24.3125 6.31641H25.7656V12H24.7852V8.60156C24.7852 8.19792 24.8047 7.73307 24.8438 7.20703H24.8047C24.6953 7.66276 24.5508 8.125 24.3711 8.59375L23.0469 12H22.3281L20.9688 8.51562C20.8177 8.13021 20.6927 7.69531 20.5938 7.21094H20.5586C20.5951 7.64062 20.6133 8.12109 20.6133 8.65234V12H19.6484V6.31641H21.1133ZM29.133 9.57812C29.1278 9.29427 29.0574 9.08724 28.922 8.95703C28.7892 8.82422 28.5861 8.75781 28.3127 8.75781C28.1252 8.75781 27.9507 8.79167 27.7892 8.85938C27.6278 8.92708 27.4637 9.03646 27.297 9.1875L26.7619 8.62891C27.1942 8.22786 27.7423 8.02734 28.4064 8.02734C28.7319 8.02734 29.0015 8.07552 29.215 8.17188C29.4311 8.26823 29.6056 8.40625 29.7384 8.58594C29.8739 8.76302 29.9611 8.95573 30.0002 9.16406C30.0314 9.3151 30.0457 9.56771 30.0431 9.92188V10.8086C30.0431 11.3424 30.0509 11.7396 30.0666 12H29.1955C29.1877 11.8307 29.1824 11.6523 29.1798 11.4648C28.896 11.8893 28.4728 12.1016 27.9103 12.1016C27.4936 12.1016 27.1642 11.9883 26.922 11.7617C26.6824 11.5352 26.5627 11.2487 26.5627 10.9023C26.5627 10.5872 26.6655 10.3229 26.8713 10.1094C27.0796 9.89323 27.3934 9.74479 27.8127 9.66406C28.1095 9.60677 28.5496 9.57812 29.133 9.57812ZM29.1408 10.2305C28.7658 10.2383 28.5353 10.2448 28.4494 10.25C28.202 10.2708 28.0106 10.3125 27.8752 10.375C27.7397 10.4349 27.6434 10.5078 27.5861 10.5938C27.5288 10.6797 27.5002 10.7708 27.5002 10.8672C27.5002 11.0104 27.5601 11.1341 27.6798 11.2383C27.7996 11.3398 27.9689 11.3906 28.1877 11.3906C28.3908 11.3906 28.5679 11.3477 28.7189 11.2617C28.8699 11.1732 28.978 11.0521 29.0431 10.8984C29.1082 10.7422 29.1408 10.5195 29.1408 10.2305ZM31.9027 12H30.9417V9.61328C30.9417 9.02995 30.9378 8.54297 30.93 8.15234H31.8441V8.77734C31.9717 8.5612 32.1331 8.39062 32.3284 8.26562C32.5238 8.13802 32.7751 8.07422 33.0823 8.07422C33.3506 8.07422 33.5784 8.125 33.7659 8.22656C33.956 8.32812 34.1032 8.45182 34.2073 8.59766C34.3115 8.74349 34.3818 8.90104 34.4183 9.07031C34.4573 9.23958 34.4769 9.52344 34.4769 9.92188V12H33.5159V9.92969C33.5159 9.67188 33.4912 9.47917 33.4417 9.35156C33.3948 9.22396 33.3128 9.1224 33.1956 9.04688C33.081 8.96875 32.9469 8.92969 32.7933 8.92969C32.6006 8.92969 32.43 8.98047 32.2816 9.08203C32.1331 9.18359 32.029 9.32552 31.9691 9.50781C31.9248 9.64323 31.9027 9.88672 31.9027 10.2383V12Z"
        fill="white" />
    <path clip-rule="evenodd"
        d="M6.1646 8.79995L6.26066 8.69667C6.46826 8.47347 6.62063 8.20469 6.70554 7.91193C6.844 7.43426 7.33074 7.17194 7.79499 7.2722C7.92689 7.30068 8.05398 7.32509 8.17816 7.34531C8.77954 7.42494 9.28183 7.30169 9.63988 7.09672C10.0713 6.84976 10.2509 6.51751 10.2509 6.29133C10.7712 6.2601 10.8546 6.96753 10.6181 7.24772C10.9895 7.27891 11.3252 7.53016 11.4317 7.91661L11.5427 8.31976C11.5762 8.44161 11.6424 8.552 11.734 8.63905L11.8452 8.74473C12.9368 5.24984 7.95565 3.67401 6.83327 6.3403C5.80781 6.8266 5.92394 7.74016 6.1646 8.79995ZM11.0167 11.782C11.3108 11.0695 11.5468 10.3511 11.5736 9.51895L11.2186 9.18158C11.0283 9.00078 10.8909 8.77151 10.8212 8.51844L10.7102 8.11529C10.6883 8.03589 10.6016 7.97625 10.5022 7.9966C9.55926 8.18943 8.86207 8.21327 8.07012 8.08585C7.95244 8.06996 7.83266 8.048 7.71104 8.01955C7.69204 8.01561 7.673 8.01148 7.65387 8.00733L7.63702 8.00369C7.535 7.98165 7.44712 8.04153 7.4243 8.12028L7.29523 8.56554C7.23238 8.78235 7.11957 8.98138 6.96583 9.14667L6.56013 9.58285C6.64643 10.7627 6.76587 11.3412 7.12165 11.9274C7.6063 12.6341 8.27879 13 9.02212 13C9.81487 13 10.7442 12.4423 11.0167 11.782Z"
        fill="#FBFBFB" fill-rule="evenodd" />
</svg>
