<svg fill="none" height="18" viewBox="0 0 77 18" width="77" xmlns="http://www.w3.org/2000/svg">
    <path d="M0 0H66.6281L76.7072 17.5665H0V0Z" fill="#AD4B89" />
    <path
        d="M20 6.336H21.104L22.168 10.416H22.184L23.456 6.336H24.448L25.696 10.416H25.712L26.824 6.336H27.848L26.2 12H25.24L23.928 7.688H23.912L22.6 12H21.672L20 6.336ZM27.9029 10.08C27.9029 9.776 27.9563 9.50133 28.0629 9.256C28.1749 9.00533 28.3243 8.792 28.5109 8.616C28.6976 8.44 28.9189 8.304 29.1749 8.208C29.4309 8.112 29.7029 8.064 29.9909 8.064C30.2789 8.064 30.5509 8.112 30.8069 8.208C31.0629 8.304 31.2843 8.44 31.4709 8.616C31.6576 8.792 31.8043 9.00533 31.9109 9.256C32.0229 9.50133 32.0789 9.776 32.0789 10.08C32.0789 10.384 32.0229 10.6613 31.9109 10.912C31.8043 11.1573 31.6576 11.368 31.4709 11.544C31.2843 11.72 31.0629 11.856 30.8069 11.952C30.5509 12.048 30.2789 12.096 29.9909 12.096C29.7029 12.096 29.4309 12.048 29.1749 11.952C28.9189 11.856 28.6976 11.72 28.5109 11.544C28.3243 11.368 28.1749 11.1573 28.0629 10.912C27.9563 10.6613 27.9029 10.384 27.9029 10.08ZM28.8629 10.08C28.8629 10.2293 28.8869 10.3733 28.9349 10.512C28.9883 10.6507 29.0629 10.7733 29.1589 10.88C29.2603 10.9867 29.3803 11.072 29.5189 11.136C29.6576 11.2 29.8149 11.232 29.9909 11.232C30.1669 11.232 30.3243 11.2 30.4629 11.136C30.6016 11.072 30.7189 10.9867 30.8149 10.88C30.9163 10.7733 30.9909 10.6507 31.0389 10.512C31.0923 10.3733 31.1189 10.2293 31.1189 10.08C31.1189 9.93067 31.0923 9.78667 31.0389 9.648C30.9909 9.50933 30.9163 9.38667 30.8149 9.28C30.7189 9.17333 30.6016 9.088 30.4629 9.024C30.3243 8.96 30.1669 8.928 29.9909 8.928C29.8149 8.928 29.6576 8.96 29.5189 9.024C29.3803 9.088 29.2603 9.17333 29.1589 9.28C29.0629 9.38667 28.9883 9.50933 28.9349 9.648C28.8869 9.78667 28.8629 9.93067 28.8629 10.08ZM32.7778 8.16H33.6898V8.76H33.7058C33.7911 8.57867 33.9271 8.41867 34.1138 8.28C34.3058 8.136 34.5618 8.064 34.8818 8.064C35.4844 8.064 35.8844 8.30133 36.0818 8.776C36.2204 8.53067 36.3938 8.352 36.6018 8.24C36.8098 8.12267 37.0578 8.064 37.3458 8.064C37.6018 8.064 37.8178 8.10667 37.9938 8.192C38.1698 8.27733 38.3111 8.39467 38.4178 8.544C38.5298 8.69333 38.6098 8.86933 38.6578 9.072C38.7058 9.26933 38.7298 9.48267 38.7298 9.712V12H37.7698V9.824C37.7698 9.70667 37.7591 9.59467 37.7378 9.488C37.7164 9.376 37.6791 9.28 37.6258 9.2C37.5724 9.11467 37.5004 9.048 37.4098 9C37.3191 8.952 37.2018 8.928 37.0578 8.928C36.9084 8.928 36.7804 8.95733 36.6738 9.016C36.5724 9.06933 36.4871 9.144 36.4178 9.24C36.3538 9.33067 36.3058 9.43733 36.2738 9.56C36.2471 9.67733 36.2338 9.79733 36.2338 9.92V12H35.2738V9.712C35.2738 9.472 35.2231 9.28267 35.1218 9.144C35.0204 9 34.8524 8.928 34.6178 8.928C34.4578 8.928 34.3218 8.95467 34.2098 9.008C34.1031 9.06133 34.0124 9.13333 33.9378 9.224C33.8684 9.31467 33.8178 9.41867 33.7858 9.536C33.7538 9.65333 33.7378 9.776 33.7378 9.904V12H32.7778V8.16ZM42.0187 11.472H41.9947C41.856 11.6907 41.68 11.8507 41.4667 11.952C41.2534 12.048 41.0187 12.096 40.7627 12.096C40.5867 12.096 40.4134 12.072 40.2427 12.024C40.0774 11.976 39.928 11.904 39.7947 11.808C39.6667 11.712 39.5627 11.592 39.4827 11.448C39.4027 11.304 39.3627 11.136 39.3627 10.944C39.3627 10.736 39.4 10.56 39.4747 10.416C39.5494 10.2667 39.648 10.144 39.7707 10.048C39.8987 9.94667 40.0454 9.86667 40.2107 9.808C40.376 9.74933 40.5467 9.70667 40.7227 9.68C40.904 9.648 41.0854 9.62933 41.2667 9.624C41.448 9.61333 41.6187 9.608 41.7787 9.608H42.0187V9.504C42.0187 9.264 41.936 9.08533 41.7707 8.968C41.6054 8.84533 41.3947 8.784 41.1387 8.784C40.936 8.784 40.7467 8.82133 40.5707 8.896C40.3947 8.96533 40.2427 9.06133 40.1147 9.184L39.6107 8.68C39.824 8.46133 40.072 8.304 40.3547 8.208C40.6427 8.112 40.9387 8.064 41.2427 8.064C41.5147 8.064 41.744 8.096 41.9307 8.16C42.1174 8.21867 42.272 8.296 42.3947 8.392C42.5174 8.488 42.6107 8.6 42.6747 8.728C42.744 8.85067 42.792 8.976 42.8187 9.104C42.8507 9.232 42.8694 9.35733 42.8747 9.48C42.88 9.59733 42.8827 9.70133 42.8827 9.792V12H42.0187V11.472ZM41.9627 10.28H41.7627C41.6294 10.28 41.48 10.2853 41.3147 10.296C41.1494 10.3067 40.992 10.3333 40.8427 10.376C40.6987 10.4133 40.576 10.472 40.4747 10.552C40.3734 10.6267 40.3227 10.7333 40.3227 10.872C40.3227 10.9627 40.3414 11.04 40.3787 11.104C40.4214 11.1627 40.4747 11.2133 40.5387 11.256C40.6027 11.2987 40.6747 11.3307 40.7547 11.352C40.8347 11.368 40.9147 11.376 40.9947 11.376C41.3254 11.376 41.568 11.2987 41.7227 11.144C41.8827 10.984 41.9627 10.768 41.9627 10.496V10.28ZM43.7556 8.16H44.6676V8.776H44.6836C44.7742 8.584 44.9129 8.41867 45.0996 8.28C45.2862 8.136 45.5396 8.064 45.8596 8.064C46.1156 8.064 46.3316 8.10667 46.5076 8.192C46.6889 8.27733 46.8356 8.38933 46.9476 8.528C47.0596 8.66667 47.1396 8.82667 47.1876 9.008C47.2356 9.18933 47.2596 9.37867 47.2596 9.576V12H46.2996V10.056C46.2996 9.94933 46.2942 9.832 46.2836 9.704C46.2729 9.57067 46.2436 9.448 46.1956 9.336C46.1529 9.21867 46.0836 9.12267 45.9876 9.048C45.8916 8.968 45.7609 8.928 45.5956 8.928C45.4356 8.928 45.2996 8.95467 45.1876 9.008C45.0809 9.06133 44.9902 9.13333 44.9156 9.224C44.8462 9.31467 44.7956 9.41867 44.7636 9.536C44.7316 9.65333 44.7156 9.776 44.7156 9.904V12H43.7556V8.16Z"
        fill="white" />
    <path clip-rule="evenodd"
        d="M12.4013 12.5206C12.5595 12.2847 12.701 12.0183 12.8229 11.7229C13.1583 10.9101 13.3782 10.2878 13.3782 9.21755V8.70444L12.8799 8.82653C12.2825 8.97289 11.6036 8.69127 10.8108 8.22195C10.6194 8.10867 10.4289 7.98938 10.236 7.86857L10.2346 7.86771C10.0437 7.74819 9.84999 7.62689 9.65904 7.51427C9.28114 7.29139 8.88394 7.08385 8.49241 6.98056L8.11143 6.88005L8.00275 7.25878L7.7364 8.18698C7.70431 8.29881 7.64657 8.40161 7.56777 8.48719L7.06931 9.02855L6.95236 9.15557L6.96378 9.32785C7.05173 10.6551 7.19586 11.3184 7.66085 12.0923C7.75284 12.2454 7.8508 12.3897 7.95402 12.5244C5.15004 12.5087 5.82225 8.73785 7.13317 6.85294C7.2373 5.69074 8.44353 5 10.1987 5C11.8703 5 12.7299 5.9366 13.2022 6.85294C14.0054 8.41124 15.5773 11.4821 12.4013 12.5206ZM8.51033 8.40906L8.65807 7.8942C8.84028 7.97573 9.037 8.08217 9.25001 8.20779C9.43059 8.3143 9.61559 8.4301 9.80867 8.55099L9.81174 8.55292C10.0023 8.67221 10.2003 8.7962 10.4006 8.91481C11.0379 9.29203 11.7859 9.67232 12.5567 9.67036C12.5061 10.3252 12.3398 10.7827 12.0786 11.4158C11.6222 12.5221 10.9319 12.9713 10.3034 12.9987C9.66313 13.0265 8.92034 12.6253 8.35102 11.6777C8.00006 11.0935 7.86444 10.5999 7.77918 9.44626L8.16009 9.03257C8.32375 8.85482 8.44368 8.64132 8.51033 8.40906Z"
        fill="#FBFBFB" fill-rule="evenodd" />
</svg>
