<svg id="Layer_1" data-name="Layer 1" xmlns="http://www.w3.org/2000/svg" viewBox="0 0 2834.65 566.93"><defs><style>.cls-1{fill:#231f20;}</style></defs><title>LOGO-HS2</title><path class="cls-1" d="M172.94,323.13c0,25.31,3.3,29.62,24.35,29.62V360h-80v-7.29c20.92,0,23.95-4.31,23.95-29.62V245c0-25.32-3-29.76-23.95-29.76V208h80v7.29c-21,0-24.35,4.44-24.35,29.76v28.65h77.92V245c0-25.32-3.16-29.76-24.35-29.76V208H306.8v7.29c-21.09,0-24.26,4.44-24.26,29.76v78.09c0,25.31,3.17,29.62,24.26,29.62V360H226.51v-7.29c21.19,0,24.35-4.31,24.35-29.62v-38H172.94Z"/><path class="cls-1" d="M534.26,215.28V208h62.1v7.29c-21.05,0-24,4.44-24,29.76v58.53c0,39.81-27.69,60.86-61.26,60.86s-60.74-21.05-60.74-60.86V245c0-25.32-3.29-29.76-24.38-29.76V208h80.28v7.29c-21.18,0-24.21,4.44-24.21,29.76V300.8c0,32.65,17.49,47.94,39.24,47.94s37.31-15.29,37.31-47.94V245C558.65,219.72,555.62,215.28,534.26,215.28Z"/><path class="cls-1" d="M851,245c0-25.32-3.3-29.76-24.35-29.76V208h60v7.29c-21.36,0-24.21,4.44-24.21,29.76V364.43h-6.38L751.18,239.15v84c0,25.31,3.29,29.62,24.21,29.62V360H715.63v-7.29c21.09,0,24.12-4.31,24.12-29.62V245c0-25.32-3-29.76-24.12-29.76V208h50.66L851,308.93Z"/><path class="cls-1" d="M1160.26,243.8h-7.11l-1.41-5.09c-3.3-13.36-6.07-19.25-29.44-19.25h-25.36V323.13c0,25.31,3.29,29.62,24.39,29.62V360h-80v-7.29c20.91,0,23.94-4.31,23.94-29.62V219.46h-25.31c-23,0-25.75,5.89-29.22,19.25l-1.1,5.09h-7.69l2.33-35.81h154.11Z"/><path class="cls-1" d="M1284.37,364.43h-7.3V308.67h7.3c5.09,27.11,26.14,44.34,46.93,44.34,14.63,0,25.36-8.4,25.36-25.05,0-9.1-6.9-19.56-18.72-25.62l-24.39-12.66c-21.36-10.89-34.28-22.89-34.28-47.94,0-20.66,19.55-38,44.21-38,14.85,0,23.24,4.83,30.85,10.46a23.07,23.07,0,0,0,7.42-11.7h7v55.77h-7.3c-1.8-20.21-9.93-43.37-36.52-43.37-10.46,0-20.52,7.56-20.52,20.26,0,7.69,6.63,19.11,20.26,25.88l24.39,12.39c18,9.36,32.61,24.92,32.61,44.87,0,27.69-24.35,46.14-50.41,46.14-19.25,0-31.38-10.19-39.64-12A23.22,23.22,0,0,0,1284.37,364.43Z"/><path class="cls-1" d="M1649.82,243.8h-7.3l-1.23-5.09c-3.3-13.36-6.06-19.25-29.44-19.25h-25.36V323.13c0,25.31,3.3,29.62,24.39,29.62V360h-80.16v-7.29c21,0,24.08-4.31,24.08-29.62V219.46h-25.31c-23.16,0-25.88,5.89-29.22,19.25L1499,243.8h-7.56l2.33-35.81h154.12Z"/><path class="cls-1" d="M1881.19,320.36c22.28,24.52,32,30.45,47.5,32.39V360h-55.11l-45.13-66.67h-7.29v29.76c0,25.31,3.29,29.62,24.21,29.62V360h-80v-7.29c21.09,0,24.12-4.31,24.12-29.62V245c0-25.32-3-29.76-24.12-29.76V208h85c31.37,0,51.24,19.29,51.24,42.85,0,22-17.23,40.07-44.92,42.53Zm-13.63-69.52c0-17.23-10.5-31.38-32.52-31.38h-13.88v62.62H1835C1857.06,282.08,1867.56,268.06,1867.56,250.84Z"/><path class="cls-1" d="M2043.13,352.75c20.91,0,23.95-4.31,23.95-29.62V245c0-25.32-3-29.76-23.95-29.76V208h130.38l2.07,35.81h-7.3l-1.36-5.09c-3.43-13.36-6.06-19.25-29.31-19.25h-38.85V274h14.06c25.32,0,29.31-3.3,29.31-24.34h7.3v60h-7.3c0-21.35-4-24.25-29.31-24.25h-14.06v33.75c0,25.18,3.3,29.61,24.39,29.61H2146c23.25,0,26-5.8,29.31-19.29l1.23-5.1H2184L2182,360H2043.13Z"/><path class="cls-1" d="M2304.91,352.75c20.92,0,24-4.31,24-29.62V245c0-25.32-3-29.76-24-29.76V208h130.38l2.07,35.81h-7.3l-1.36-5.09c-3.43-13.36-6.06-19.25-29.35-19.25h-38.81V274h13.89c25.49,0,29.49-3.3,29.49-24.34h7.29v60h-7.29c0-21.35-4-24.25-29.49-24.25h-13.89v33.75c0,25.18,3.3,29.61,24.35,29.61h22.89c23.25,0,26-5.8,29.31-19.29l1.24-5.1h7.29L2443.73,360H2304.91Z"/><path class="cls-1" d="M2717.33,243.8h-7.42l-1.23-5.09c-3.34-13.36-6.07-19.25-29.36-19.25H2654V323.13c0,25.31,3.33,29.62,24.25,29.62V360h-80.15v-7.29c21.22,0,24.12-4.31,24.12-29.62V219.46H2597c-23.12,0-26,5.89-29.18,19.25l-1.23,5.09H2559l2.2-35.81h154.12Z"/></svg>